<svg width="292" height="124" viewBox="0 0 292 124" fill="none" xmlns="http://www.w3.org/2000/svg">
<g clip-path="url(#clip0_516_58)">
<path d="M185.293 29.2703C185.921 30.0523 186.558 30.5481 187.305 31.006C187.625 31.2875 188.007 31.5025 188.457 31.56C205.933 33.776 210.411 32.256 226.893 32.5227C228.223 36.1411 229.585 39.8502 230.909 43.45C232.372 44.4689 234.342 45.7342 235.883 45.8827C236.177 45.9936 236.122 46.0904 236.628 46.0904C237.299 46.0904 237.938 45.7852 238.359 45.2495C241.273 41.5406 244.119 35.8883 246.57 32.9596L252.243 33.0055H252.266C253.383 33.0055 254.323 32.1689 254.452 31.0572C255.555 21.4992 255.506 11.9757 255.317 3.92043C255.289 2.79158 254.415 1.86615 253.289 1.77877C228.815 -0.130822 215.77 -0.0706547 192.065 0.051112L188.775 0.06687C188.177 0.0697352 187.604 0.317566 187.191 0.751628C186.934 1.0222 186.785 1.35885 186.691 1.71341C186.139 2.33656 185.616 2.91012 185 3.46094C185.096 11.319 185.197 21.4122 185.293 29.2703ZM191.073 4.4562L192.085 4.4519C215.023 4.33443 227.933 4.2714 250.96 6.01338C251.094 12.8982 251.068 20.7214 250.289 28.5889C246.112 28.5545 244.926 28.2392 243.977 29.2465C241.337 32.0668 239.427 35.7963 237.055 39.4706C235.187 35.7488 232.654 31.825 230.188 28.9241C229.781 28.4457 229.191 28.1649 228.563 28.1491C211.914 27.7691 206.818 29.2853 190.947 27.43C191.019 20.1364 191.315 12.2446 191.073 4.4562Z" fill="black"/>
<path d="M202.228 13.934L201.881 14.2306C200.959 15.0228 200.853 16.4109 201.643 17.3335C203.564 19.5696 207.217 16.4238 205.328 14.1933C204.54 13.265 203.15 13.1504 202.228 13.934Z" fill="black"/>
<path d="M219.51 18.3755C220.647 18.3755 221.61 17.5002 221.701 16.3484C221.796 15.1365 220.891 14.0764 219.679 13.9819L219.043 13.9317C216.224 13.7067 215.374 18.3755 219.51 18.3755Z" fill="black"/>
<path d="M238.625 18.3958L239.313 17.8084C240.236 17.0191 240.345 15.6295 239.557 14.7055C238.766 13.783 237.379 13.6741 236.454 14.462L235.766 15.0493C234.844 15.8387 234.735 17.2282 235.523 18.1522C236.311 19.0729 237.696 19.187 238.625 18.3958Z" fill="black"/>
<path d="M289.037 116C290.355 115.86 291.394 114.785 291.4 113.433C291.404 112.317 290.969 111.304 290.62 110.486C288.093 103.569 285.861 97.3944 280.462 92.2402C275.568 87.5753 269.27 84.6867 262.74 84.098C255.999 83.4621 249.831 85.6856 244.374 89.6006C235.823 94.318 227.323 103.676 224.081 116.369C223.868 117.201 224.503 118.017 225.343 118.013C292.884 117.719 287.762 118.378 289.037 116ZM285.127 110.821L233.785 111.328C235.264 106.187 238.341 101.741 243.656 96.9326C249.051 92.0529 254.951 88.6587 262.257 89.3345C267.62 89.8171 272.795 92.1992 276.834 96.0461C281.068 100.08 283.115 105.23 285.127 110.821Z" fill="black"/>
<path d="M247.245 61.8402C241.884 72.0446 248.719 82.3778 259.4 82.4735C271.672 84.5187 281.287 72.7423 276.741 61.7054C271.496 48.966 252.48 48.6544 247.245 61.8402ZM265.96 76.7475C257.234 80.0568 248.676 71.6461 252.209 63.4851C255.855 55.0678 268.409 55.2727 271.881 63.7042C273.971 68.7792 271.474 74.6537 265.96 76.7475Z" fill="black"/>
<path d="M50.1753 120.365C51.193 120.257 51.995 119.428 52 118.383C52.0026 117.522 51.6671 116.74 51.3976 116.108C49.4469 110.769 47.7235 106.002 43.5559 102.023C39.7777 98.4218 34.9163 96.1919 29.8752 95.7374C24.6718 95.2466 19.9099 96.963 15.6973 99.9853C9.09601 103.627 2.53491 110.852 0.0318842 120.65C-0.13209 121.292 0.358016 121.922 1.00632 121.919C53.1453 121.692 49.191 122.201 50.1753 120.365Z" fill="black"/>
<path d="M17.9144 78.557C13.7763 86.4345 19.0527 94.4113 27.2981 94.4852C36.7711 96.064 44.1936 86.9731 40.6849 78.453C36.6352 68.6187 21.956 68.3782 17.9144 78.557ZM32.3623 90.065C25.6259 92.6196 19.0197 86.1268 21.7464 79.8269C24.5613 73.329 34.2527 73.4872 36.9331 79.996C38.5463 83.9137 36.6182 88.4486 32.3623 90.065Z" fill="black"/>
<path d="M166.281 94.5169C167.24 94.4154 167.995 93.6337 168 92.6496C168.002 91.838 167.686 91.1011 167.432 90.506C165.594 85.4743 163.97 80.983 160.043 77.2337C156.483 73.8403 151.902 71.739 147.152 71.3108C142.248 70.8482 137.761 72.4657 133.792 75.3135C127.571 78.7451 121.389 85.5524 119.03 94.7854C118.876 95.3904 119.337 95.9845 119.948 95.9817C169.079 95.7673 165.353 96.2473 166.281 94.5169Z" fill="black"/>
<path d="M135.88 55.1211C131.981 62.5441 136.953 70.0607 144.722 70.1303C153.649 71.618 160.643 63.0516 157.337 55.023C153.521 45.7561 139.688 45.5294 135.88 55.1211ZM149.494 65.9651C143.147 68.3723 136.922 62.2541 139.491 56.3177C142.143 50.1947 151.276 50.3438 153.802 56.477C155.322 60.1687 153.505 64.4419 149.494 65.9651Z" fill="black"/>
<path d="M67.3858 43.9175C68.2861 43.8222 68.9956 43.0883 69 42.1645C69.0023 41.4026 68.7055 40.7108 68.4671 40.1522C66.7414 35.4285 65.2169 31.2122 61.5302 27.6924C58.188 24.5068 53.8875 22.5342 49.4281 22.1322C44.8251 21.6979 40.6126 23.2163 36.8861 25.8898C31.0465 29.1113 25.2424 35.5019 23.0282 44.1696C22.8832 44.7375 23.3167 45.2953 23.8902 45.2926C70.0132 45.0914 66.5151 45.542 67.3858 43.9175Z" fill="black"/>
<path d="M38.8477 6.93313C35.187 13.9016 39.8546 20.958 47.1486 21.0234C55.5286 22.42 62.0946 14.3781 58.9908 6.8411C55.4084 -1.85848 42.4229 -2.07127 38.8477 6.93313ZM51.6285 17.1132C45.6694 19.373 39.8254 13.6295 42.2375 8.05645C44.7276 2.30833 53.3008 2.4483 55.6719 8.20604C57.0989 11.6717 55.3934 15.6833 51.6285 17.1132Z" fill="black"/>
</g>
<defs>
<clipPath id="clip0_516_58">
<rect width="292" height="124" fill="white"/>
</clipPath>
</defs>
</svg>
