<svg width="292" height="124" viewBox="0 0 292 124" fill="none" xmlns="http://www.w3.org/2000/svg">
<path d="M185.293 29.2703C185.921 30.0523 186.558 30.5481 187.305 31.006C187.625 31.2875 188.007 31.5025 188.457 31.56C205.933 33.776 210.411 32.256 226.893 32.5227C228.223 36.1411 229.585 39.8502 230.909 43.45C232.372 44.4689 234.342 45.7342 235.883 45.8827C236.177 45.9936 236.122 46.0904 236.628 46.0904C237.299 46.0904 237.938 45.7852 238.359 45.2495C241.273 41.5406 244.119 35.8883 246.57 32.9596L252.243 33.0055H252.266C253.383 33.0055 254.323 32.1689 254.452 31.0572C255.555 21.4992 255.506 11.9757 255.317 3.92043C255.289 2.79158 254.415 1.86615 253.289 1.77877C228.815 -0.130822 215.77 -0.0706547 192.065 0.051112L188.775 0.06687C188.177 0.0697352 187.604 0.317566 187.191 0.751628C186.934 1.0222 186.785 1.35885 186.691 1.71341C186.139 2.33656 185.616 2.91012 185 3.46094C185.096 11.319 185.197 21.4122 185.293 29.2703ZM191.073 4.4562L192.085 4.4519C215.023 4.33443 227.933 4.2714 250.96 6.01338C251.094 12.8982 251.068 20.7214 250.289 28.5889C246.112 28.5545 244.926 28.2392 243.977 29.2465C241.337 32.0668 239.427 35.7963 237.055 39.4706C235.187 35.7488 232.654 31.825 230.188 28.9241C229.781 28.4457 229.191 28.1649 228.563 28.1491C211.914 27.7691 206.818 29.2853 190.947 27.43C191.019 20.1364 191.315 12.2446 191.073 4.4562Z" fill="black"/>
<path d="M202.227 13.934L201.88 14.2306C200.958 15.0228 200.852 16.4109 201.642 17.3335C203.563 19.5696 207.216 16.4238 205.327 14.1933C204.539 13.265 203.149 13.1504 202.227 13.934Z" fill="black"/>
<path d="M219.51 18.3755C220.647 18.3755 221.61 17.5002 221.701 16.3484C221.796 15.1365 220.891 14.0764 219.679 13.9819L219.043 13.9317C216.224 13.7067 215.374 18.3755 219.51 18.3755Z" fill="black"/>
<path d="M238.625 18.3958L239.313 17.8084C240.236 17.0191 240.345 15.6295 239.557 14.7055C238.766 13.783 237.379 13.6741 236.454 14.462L235.766 15.0493C234.844 15.8387 234.735 17.2282 235.523 18.1522C236.311 19.0729 237.696 19.187 238.625 18.3958Z" fill="black"/>
<path d="M289.036 115.999C290.354 115.859 291.393 114.784 291.399 113.432C291.403 112.316 290.968 111.303 290.619 110.485C288.092 103.568 285.86 97.3934 280.461 92.2392C275.567 87.5743 269.269 84.6857 262.739 84.097C255.998 83.4611 249.83 85.6846 244.373 89.5996C235.822 94.317 227.322 103.675 224.08 116.368C223.867 117.2 224.502 118.016 225.342 118.012C292.883 117.718 287.761 118.377 289.036 115.999ZM285.126 110.82L233.784 111.327C235.263 106.186 238.34 101.74 243.655 96.9316C249.05 92.0519 254.95 88.6577 262.256 89.3335C267.619 89.8161 272.794 92.1982 276.833 96.0451C281.067 100.079 283.114 105.229 285.126 110.82Z" fill="black"/>
<path d="M247.244 61.8412C241.883 72.0456 248.718 82.3788 259.399 82.4745C271.671 84.5197 281.286 72.7433 276.74 61.7064C271.495 48.967 252.479 48.6554 247.244 61.8412ZM265.959 76.7485C257.233 80.0578 248.675 71.6471 252.208 63.4861C255.854 55.0688 268.408 55.2737 271.88 63.7052C273.97 68.7802 271.473 74.6547 265.959 76.7485Z" fill="black"/>
<path d="M50.1753 120.365C51.193 120.257 51.995 119.428 52 118.383C52.0026 117.522 51.6671 116.74 51.3976 116.108C49.4469 110.769 47.7235 106.002 43.5559 102.023C39.7777 98.4218 34.9163 96.1919 29.8752 95.7374C24.6718 95.2466 19.9099 96.963 15.6973 99.9853C9.09601 103.627 2.53491 110.852 0.0318842 120.65C-0.13209 121.292 0.358016 121.922 1.00632 121.919C53.1453 121.692 49.191 122.201 50.1753 120.365Z" fill="black"/>
<path d="M17.9134 78.557C13.7753 86.4345 19.0517 94.4113 27.2971 94.4852C36.7701 96.064 44.1926 86.9731 40.6839 78.453C36.6342 68.6187 21.955 68.3782 17.9134 78.557ZM32.3613 90.065C25.6249 92.6196 19.0187 86.1268 21.7454 79.8269C24.5603 73.329 34.2517 73.4872 36.9321 79.996C38.5453 83.9137 36.6172 88.4486 32.3613 90.065Z" fill="black"/>
<path d="M166.281 94.5169C167.24 94.4154 167.995 93.6337 168 92.6496C168.002 91.838 167.686 91.1011 167.432 90.506C165.594 85.4743 163.97 80.983 160.043 77.2337C156.483 73.8403 151.902 71.739 147.152 71.3108C142.248 70.8482 137.761 72.4657 133.792 75.3135C127.571 78.7451 121.389 85.5524 119.03 94.7854C118.876 95.3904 119.337 95.9845 119.948 95.9817C169.079 95.7673 165.353 96.2473 166.281 94.5169Z" fill="black"/>
<path d="M135.88 55.1211C131.981 62.5441 136.953 70.0607 144.722 70.1303C153.649 71.618 160.643 63.0516 157.337 55.023C153.521 45.7561 139.688 45.5294 135.88 55.1211ZM149.494 65.9651C143.147 68.3723 136.922 62.2541 139.491 56.3177C142.143 50.1947 151.276 50.3438 153.802 56.477C155.322 60.1687 153.505 64.4419 149.494 65.9651Z" fill="black"/>
<path d="M67.3858 43.9175C68.2861 43.8222 68.9956 43.0883 69 42.1645C69.0023 41.4026 68.7055 40.7108 68.4671 40.1522C66.7414 35.4285 65.2169 31.2122 61.5302 27.6924C58.188 24.5068 53.8875 22.5342 49.4281 22.1322C44.8251 21.6979 40.6126 23.2163 36.8861 25.8898C31.0465 29.1113 25.2424 35.5019 23.0282 44.1696C22.8832 44.7375 23.3167 45.2953 23.8902 45.2926C70.0132 45.0914 66.5151 45.542 67.3858 43.9175Z" fill="black"/>
<path d="M38.8467 6.93313C35.186 13.9016 39.8536 20.958 47.1476 21.0234C55.5276 22.42 62.0936 14.3781 58.9898 6.8411C55.4074 -1.85848 42.4219 -2.07127 38.8467 6.93313ZM51.6275 17.1132C45.6684 19.373 39.8244 13.6295 42.2365 8.05645C44.7266 2.30833 53.2998 2.4483 55.6709 8.20604C57.0979 11.6717 55.3924 15.6833 51.6275 17.1132Z" fill="black"/>
<path d="M104.561 64.4833C95.2263 69.5455 87.8114 58.9879 84.5919 52.2864C82.3357 47.5998 79.6201 39.602 81.2545 37.6595C82.5481 36.1093 89.8761 33.54 98.2757 33.5163C104.71 33.5457 112.958 33.7876 115.035 41.3628C117.873 51.7179 111.098 60.9354 104.561 64.4833Z" fill="white" stroke="#323232" stroke-width="4" stroke-miterlimit="10"/>
<path d="M103.094 49.0447C102.014 49.6023 104.464 53.2269 101.428 56.1887C99.9827 57.5937 97.1826 57.4647 95.2834 55.0339C94.0869 53.5313 93.4598 52.4703 92.9263 50.5244C92.139 47.7888 92.1054 46.3036 91.8808 43.7126C91.7973 42.7267 93.055 42.6808 97.3128 41.1773C101.918 39.5786 102.216 39.9827 103.821 39.8415C104.004 39.8286 107.43 40.197 108.129 43.293C108.644 45.5802 108.027 47.2812 106.29 48.1683C105.375 48.6435 103.75 48.7152 103.163 49.0256L103.094 49.0447Z" fill="#DD7373" stroke="#323232" stroke-miterlimit="10"/>
<path d="M104.609 48.4429C105.828 47.8472 106.012 47.8343 106.921 47.062C106.971 46.9735 108.063 45.7775 107.928 44.0586C107.736 42.1312 106.098 41.1979 105.611 40.9205C104.504 40.2899 103.543 40.3291 102.001 40.565C100.529 40.7818 99.3598 40.8782 98.4816 41.0816" stroke="#323232" stroke-width="1.5" stroke-miterlimit="10" stroke-linecap="round"/>
<path d="M98.3999 41.3271C98.0776 41.3781 94.9122 42.0965 94.3814 42.2046Z" fill="white"/>
<path d="M98.3999 41.3271C98.0776 41.3781 94.9122 42.0965 94.3814 42.2046" stroke="#323232" stroke-width="0.8" stroke-miterlimit="10" stroke-linecap="round"/>
<path d="M104.691 48.1963C104.458 48.2977 103.352 48.8996 103.119 49.001Z" fill="white"/>
<path d="M104.691 48.1963C104.458 48.2977 103.352 48.8996 103.119 49.001" stroke="#323232" stroke-width="0.8" stroke-miterlimit="10" stroke-linecap="round"/>
<path d="M103.736 42.6667C103.724 42.8942 103.91 45.3462 103.936 45.7128Z" fill="white"/>
<path d="M103.736 42.6667C103.724 42.8942 103.91 45.3462 103.936 45.7128" stroke="#323232" stroke-width="0.6" stroke-miterlimit="10" stroke-linecap="round"/>
<path d="M102.111 41.9178C102.162 42.24 102.741 45.4436 102.805 45.9491Z" fill="white"/>
<path d="M102.111 41.9178C102.162 42.24 102.741 45.4436 102.805 45.9491" stroke="#323232" stroke-width="0.8" stroke-miterlimit="10" stroke-linecap="round"/>
<path d="M100.171 42.3369C100.291 42.6401 101.591 45.6089 101.794 46.0764Z" fill="white"/>
<path d="M100.171 42.3369C100.291 42.6401 101.591 45.6089 101.794 46.0764" stroke="#323232" stroke-width="0.8" stroke-miterlimit="10" stroke-linecap="round"/>
<path d="M98.2434 42.5292C98.3891 42.7881 100.061 45.6174 100.264 46.0848Z" fill="white"/>
<path d="M98.2434 42.5292C98.3891 42.7881 100.061 45.6174 100.264 46.0848" stroke="#323232" stroke-width="0.8" stroke-miterlimit="10" stroke-linecap="round"/>
<path d="M105.115 43.3349C105.083 43.4929 104.921 45.2186 104.884 45.4904Z" fill="white"/>
<path d="M105.115 43.3349C105.083 43.4929 104.921 45.2186 104.884 45.4904" stroke="#323232" stroke-width="0.4" stroke-miterlimit="10" stroke-linecap="round"/>
<path d="M106.506 43.7766C106.455 43.8651 106.115 45.079 106.059 45.2814Z" fill="white"/>
<path d="M106.506 43.7766C106.455 43.8651 106.115 45.079 106.059 45.2814" stroke="#323232" stroke-width="0.3" stroke-miterlimit="10" stroke-linecap="round"/>
<path d="M100.552 58.0363C100.615 58.131 101.053 59.3186 101.135 59.4828Z" fill="white"/>
<path d="M100.552 58.0363C100.615 58.131 101.053 59.3186 101.135 59.4828" stroke="#323232" stroke-width="0.5" stroke-miterlimit="10" stroke-linecap="round"/>
<path d="M101.114 57.7702C101.203 57.8206 102.006 58.5717 102.158 58.7168Z" fill="white"/>
<path d="M101.114 57.7702C101.203 57.8206 102.006 58.5717 102.158 58.7168" stroke="#323232" stroke-width="0.5" stroke-miterlimit="10" stroke-linecap="round"/>
<path d="M99.8569 58.2266C99.8065 58.3151 99.6686 59.1749 99.5929 59.3077Z" fill="white"/>
<path d="M99.8569 58.2266C99.8065 58.3151 99.6686 59.1749 99.5929 59.3077" stroke="#323232" stroke-width="0.5" stroke-miterlimit="10" stroke-linecap="round"/>
<path d="M51.9834 96.7566C53.4989 86.1429 66.5203 86.4875 73.8905 87.9117C79.0475 88.904 87.1652 91.5169 87.7559 94.011C88.2338 95.9927 85.9054 103.479 80.8686 110.302C76.9718 115.5 71.8107 122.04 64.4202 119.164C54.3176 115.232 50.9246 104.191 51.9834 96.7566Z" fill="white" stroke="#323232" stroke-width="4" stroke-miterlimit="10"/>
<path d="M65.2429 104.415C63.7225 105.815 62.8272 107.613 63.3072 109.088C64.0449 111.405 68.6031 111.93 70.9051 111.03C73.2071 110.131 75.2989 106.963 75.6306 106.311C76.3053 104.778 76.4677 103.358 76.4868 102.507L73.6919 101.263L72.0938 103.764L69.832 102.454L68.8426 104.294L66.707 102.76L65.2637 104.463L65.2429 104.415Z" fill="#5F5AA2" stroke="#323232" stroke-miterlimit="10"/>
<path d="M66.0774 101.969C63.5834 102.56 61.2817 102.054 60.587 100.73C59.6589 99.0022 61.7072 96.2471 63.6345 95.0063C67.7245 92.4213 74.8158 94.3615 76.3875 98.4475C76.8787 99.6927 76.871 100.314 76.6899 101.181L72.9742 98.9928L71.6795 101.417L69.2105 99.6359L68.2418 101.523L66.2419 100.042L66.0567 101.922L66.0774 101.969Z" fill="#5F5AA2" stroke="#323232" stroke-miterlimit="10"/>
<path d="M63.7121 106.943C63.3236 108.744 63.9639 109.305 64.1559 109.614C65.361 111.333 69.0471 111.791 72.8639 109.607" fill="#5F5AA2"/>
<path d="M63.7121 106.943C63.3236 108.744 63.9639 109.305 64.1559 109.614C65.361 111.333 69.0471 111.791 72.8639 109.607" stroke="#323232" stroke-width="1.5" stroke-miterlimit="10" stroke-linecap="round"/>
<path d="M72.3516 109.72C72.9902 109.383 73.6759 109.025 74.2167 108.338C74.7575 107.65 74.7368 107.603 74.9102 107.358" fill="#5F5AA2"/>
<path d="M72.3516 109.72C72.9902 109.383 73.6759 109.025 74.2167 108.338C74.7575 107.65 74.7368 107.603 74.9102 107.358" stroke="#323232" stroke-miterlimit="10" stroke-linecap="round"/>
<path d="M74.5693 107.733C75.0744 106.837 75.3156 106.619 76.0845 105.044Z" fill="#5F5AA2"/>
<path d="M74.5693 107.733C75.0744 106.837 75.3156 106.619 76.0845 105.044" stroke="#323232" stroke-width="0.6" stroke-miterlimit="10" stroke-linecap="round"/>
<path d="M76.0107 105.133L76.2217 104.591" stroke="#323232" stroke-width="0.5" stroke-miterlimit="10" stroke-linecap="round"/>
<path d="M63.7632 107.314L64.0555 106.062" stroke="#323232" stroke-miterlimit="10" stroke-linecap="round"/>
<path d="M64.1382 106.25C64.1382 106.25 64.2344 105.702 64.5868 105.097Z" fill="#5F5AA2"/>
<path d="M64.1382 106.25C64.1382 106.25 64.2344 105.702 64.5868 105.097" stroke="#323232" stroke-width="0.5" stroke-miterlimit="10" stroke-linecap="round"/>
<path d="M66.6748 102.944L68.7689 104.384" stroke="#323232" stroke-width="0.5" stroke-miterlimit="10" stroke-linecap="round"/>
<path d="M71.4971 101.386L72.8596 98.9883" stroke="#323232" stroke-width="0.5" stroke-miterlimit="10" stroke-linecap="round"/>
<path d="M61.7954 105.65L62.9164 104.877" stroke="#323232" stroke-width="0.5" stroke-miterlimit="10" stroke-linecap="round"/>
<path d="M60.9011 104.639L62.5381 104.144" stroke="#323232" stroke-width="0.5" stroke-miterlimit="10" stroke-linecap="round"/>
<path d="M61.1781 103.225L62.2008 103.506" stroke="#323232" stroke-width="0.5" stroke-miterlimit="10" stroke-linecap="round"/>
</svg>
