<svg width="325" height="109" viewBox="0 0 325 109" fill="none" xmlns="http://www.w3.org/2000/svg">
<path d="M113.55 60.1465C115.574 59.9556 118.163 58.3008 120.087 56.9678C121.835 52.2464 123.634 47.3819 125.39 42.6361C147.232 42.3501 153.164 44.3058 175.846 41.4832C176.442 41.4089 176.948 41.1259 177.371 40.754C178.348 40.1565 179.183 39.5089 180.006 38.4871C180.155 28.1726 180.317 14.924 180.466 4.60922C179.66 3.88501 178.976 3.13118 178.253 2.31271C177.878 0.867675 176.725 0.151734 175.519 0.143125L171.251 0.113038C140.121 -0.114498 122.979 -0.236728 90.8309 2.20035C89.3528 2.31318 88.1982 3.52607 88.1606 5.00787C87.8898 15.608 87.8033 28.13 89.2174 40.6313C89.3829 42.1018 90.609 43.1041 92.1133 43.1963L99.56 43.1511C102.615 46.8267 106.44 54.37 110.301 59.308C110.949 60.1362 111.987 60.5371 112.994 60.3874C113.201 60.3571 113.359 60.2186 113.55 60.1465ZM102.971 38.2845C102.422 37.6997 101.659 37.3668 100.857 37.3668C100.85 37.3668 100.839 37.3668 100.831 37.3668L94.6858 37.4044C93.6929 27.107 93.6816 16.8247 93.8735 7.76651C124.596 5.51343 141.682 5.67519 172.492 5.89921C172.247 13.1822 172.368 20.6006 172.48 27.8028C172.526 30.6291 172.571 33.3934 172.59 36.0561C151.724 38.4459 145.368 36.4478 123.212 36.8911C122.389 36.9099 121.61 37.2766 121.076 37.9028C117.834 41.6994 114.495 46.8443 112.031 51.7279C109.05 47.1042 106.453 42.0198 102.971 38.2845Z" fill="black"/>
<path d="M154.492 23.0642C155.717 24.1208 157.534 23.9676 158.569 22.7765C159.615 21.573 159.487 19.747 158.283 18.7015L157.817 18.3029C156.606 17.2761 154.782 17.4247 153.748 18.6432C152.717 19.8599 152.868 21.6839 154.086 22.7144L154.492 23.0642Z" fill="black"/>
<path d="M135.357 24.0797L136.191 24.0158C137.782 23.8936 138.971 22.5058 138.85 20.9149C138.73 19.324 137.327 18.1676 135.748 18.2541L134.913 18.318C133.322 18.4402 132.133 19.828 132.254 21.4189C132.376 23.0142 133.769 24.1988 135.357 24.0797Z" fill="black"/>
<path d="M112.896 18.9025C111.689 17.8663 109.865 17.9961 108.823 19.2109C107.782 20.42 107.921 22.244 109.128 23.2839L110.027 24.0568C111.232 25.0914 113.055 24.9649 114.1 23.7484C115.142 22.5393 115.002 20.7152 113.795 19.6753L112.896 18.9025Z" fill="black"/>
<path d="M84.912 105.262C86.6343 105.08 87.9916 103.676 88 101.909C88.0044 100.451 87.4366 99.1277 86.9805 98.0591C83.6793 89.0226 80.7628 80.9564 73.71 74.2231C67.3161 68.1288 59.0891 64.3551 50.558 63.586C41.7523 62.7553 33.6937 65.6601 26.5646 70.7746C15.3933 76.9374 4.28986 89.1629 0.0539579 105.745C-0.223537 106.831 0.605873 107.898 1.703 107.893C89.9382 107.508 83.2463 108.37 84.912 105.262Z" fill="black"/>
<path d="M30.3151 34.511C23.3121 47.8421 32.2414 61.3413 46.1952 61.4663C62.2264 64.1382 74.7875 48.7535 68.8497 34.335C61.9964 17.6923 37.1548 17.2852 30.3151 34.511ZM54.7654 53.986C43.3653 58.3091 32.1856 47.3214 36.8 36.66C41.5637 25.6636 57.9645 25.9314 62.5006 36.9462C65.2306 43.5761 61.9677 51.2505 54.7654 53.986Z" fill="black"/>
<path d="M275.295 88.2072C276.66 88.0628 277.735 86.9502 277.742 85.5496C277.745 84.3944 277.295 83.3455 276.934 82.4986C274.318 75.3369 272.006 68.9444 266.417 63.608C261.349 58.7782 254.829 55.7874 248.068 55.1779C241.09 54.5196 234.703 56.8217 229.053 60.8751C220.199 65.7592 211.4 75.4481 208.043 88.5895C207.823 89.4506 208.48 90.2961 209.35 90.2922C279.278 89.987 273.974 90.6702 275.295 88.2072Z" fill="black"/>
<path d="M232.025 32.1354C226.475 42.7006 233.552 53.399 244.611 53.4981C257.316 55.6156 267.271 43.4229 262.565 31.9959C257.134 18.8062 237.446 18.4836 232.025 32.1354ZM251.403 47.5697C242.368 50.9959 233.508 42.288 237.165 33.8386C240.94 25.1237 253.938 25.3359 257.533 34.0653C259.697 39.3197 257.111 45.4019 251.403 47.5697Z" fill="black"/>
<path d="M322.295 106.207C323.66 106.063 324.735 104.95 324.742 103.55C324.745 102.394 324.295 101.345 323.934 100.499C321.318 93.3369 319.006 86.9444 313.417 81.608C308.349 76.7782 301.829 73.7874 295.068 73.1779C288.09 72.5196 281.703 74.8217 276.053 78.8751C267.199 83.7592 258.4 93.4481 255.043 106.589C254.823 107.451 255.48 108.296 256.35 108.292C326.278 107.987 320.974 108.67 322.295 106.207Z" fill="black"/>
<path d="M279.025 50.1354C273.475 60.7006 280.552 71.399 291.611 71.4981C304.316 73.6156 314.271 61.4229 309.565 49.9959C304.134 36.8062 284.446 36.4836 279.025 50.1354ZM298.403 65.5697C289.368 68.9959 280.508 60.288 284.165 51.8386C287.94 43.1237 300.938 43.3359 304.533 52.0653C306.697 57.3197 304.111 63.4019 298.403 65.5697Z" fill="black"/>
</svg>
