<svg width="269" height="88" viewBox="0 0 269 88" fill="none" xmlns="http://www.w3.org/2000/svg">
<path d="M84.912 83.5397C86.6343 83.3574 87.9916 81.9535 88 80.1862C88.0044 78.7286 87.4366 77.4051 86.9805 76.3365C83.6793 67.3 80.7628 59.2338 73.71 52.5005C67.3161 46.4062 59.0891 42.6325 50.558 41.8634C41.7523 41.0327 33.6937 43.9375 26.5646 49.052C15.3933 55.2148 4.28986 67.4403 0.053958 84.022C-0.223537 85.1085 0.605873 86.1754 1.703 86.1704C89.9382 85.7854 83.2463 86.6474 84.912 83.5397Z" fill="black"/>
<path d="M30.3149 12.7888C23.3119 26.1199 32.2412 39.6191 46.195 39.7441C62.2262 42.416 74.7873 27.0313 68.8495 12.6128C61.9962 -4.02987 37.1546 -4.43695 30.3149 12.7888ZM54.7652 32.2638C43.3651 36.5869 32.1854 25.5992 36.7998 14.9378C41.5635 3.94141 57.9643 4.20918 62.5004 15.224C65.2304 21.8539 61.9675 29.5283 54.7652 32.2638Z" fill="black"/>
<path d="M266.295 84.4846C267.66 84.3402 268.735 83.2276 268.742 81.827C268.745 80.6718 268.295 79.6229 267.934 78.776C265.318 71.6143 263.006 65.2218 257.417 59.8854C252.349 55.0556 245.829 52.0648 239.068 51.4553C232.09 50.797 225.703 53.0991 220.053 57.1525C211.199 62.0366 202.4 71.7255 199.043 84.8669C198.823 85.728 199.48 86.5735 200.35 86.5696C270.278 86.2644 264.974 86.9476 266.295 84.4846Z" fill="black"/>
<path d="M223.025 28.4128C217.475 38.978 224.552 49.6764 235.611 49.7755C248.316 51.893 258.271 39.7003 253.565 28.2733C248.134 15.0836 228.446 14.761 223.025 28.4128ZM242.403 43.8471C233.368 47.2733 224.508 38.5654 228.165 30.116C231.94 21.4011 244.938 21.6133 248.533 30.3427C250.697 35.5971 248.111 41.6793 242.403 43.8471Z" fill="black"/>
<path d="M102.231 41.2191C110.064 26.9515 128.379 34.4091 138.087 40.3764C144.883 44.5457 155.017 52.6019 154.521 56.4612C154.14 59.5323 146.826 68.9224 136.019 75.9202C127.701 81.2191 116.869 87.7489 107.909 79.7075C95.661 68.7152 96.7488 51.2142 102.231 41.2191Z" fill="white" stroke="#323232" stroke-width="7.5" stroke-miterlimit="10"/>
<path d="M116.929 59.9011C117.858 58.2865 111.693 55.6475 113.149 49.3115C113.847 46.3015 117.563 44.1453 122.028 45.703C124.816 46.6474 126.504 47.4947 128.806 49.5604C132.09 52.4334 133.365 54.3199 135.804 57.4731C136.729 58.6746 135.146 59.777 130.905 65.2466C126.296 71.1273 125.577 70.8533 123.625 72.3667C123.399 72.5353 118.678 74.9023 115.208 71.4918C112.648 68.9709 112.032 66.2666 113.535 63.6824C114.321 62.3103 116.355 60.8707 116.855 59.9833L116.929 59.9011Z" fill="#DD7373" stroke="#323232" stroke-miterlimit="10"/>
<path d="M115.474 61.9352C114.397 63.7142 114.171 63.8828 113.64 65.6322C113.649 65.7882 113.233 68.2354 114.833 70.339C116.68 72.6639 119.565 72.508 120.423 72.4616C122.373 72.3562 123.578 71.5089 125.37 69.926C127.088 68.4253 128.515 67.3313 129.478 66.3407" stroke="#323232" stroke-width="1.5" stroke-miterlimit="10" stroke-linecap="round"/>
<path d="M129.379 65.9551C129.752 65.6221 133.237 62.0705 133.831 61.4908Z" fill="white"/>
<path d="M129.379 65.9551C129.752 65.6221 133.237 62.0705 133.831 61.4908" stroke="#323232" stroke-width="0.8" stroke-miterlimit="10" stroke-linecap="round"/>
<path d="M115.573 62.3213C115.79 61.9967 116.716 60.3041 116.933 59.9795Z" fill="white"/>
<path d="M115.573 62.3213C115.79 61.9967 116.716 60.3041 116.933 59.9795" stroke="#323232" stroke-width="0.8" stroke-miterlimit="10" stroke-linecap="round"/>
<path d="M121.391 68.6549C121.218 68.3513 118.944 65.3456 118.607 64.8945Z" fill="white"/>
<path d="M121.391 68.6549C121.218 68.3513 118.944 65.3456 118.607 64.8945" stroke="#323232" stroke-width="0.6" stroke-miterlimit="10" stroke-linecap="round"/>
<path d="M124.108 68.2733C123.775 67.9003 120.371 64.2516 119.869 63.653Z" fill="white"/>
<path d="M124.108 68.2733C123.775 67.9003 120.371 64.2516 119.869 63.653" stroke="#323232" stroke-width="0.8" stroke-miterlimit="10" stroke-linecap="round"/>
<path d="M126.26 66.1228C125.853 65.832 121.715 63.0833 121.066 62.6491Z" fill="white"/>
<path d="M126.26 66.1228C125.853 65.832 121.715 63.0833 121.066 62.6491" stroke="#323232" stroke-width="0.8" stroke-miterlimit="10" stroke-linecap="round"/>
<path d="M128.585 64.2766C128.182 64.0637 123.68 61.8041 123.031 61.3699Z" fill="white"/>
<path d="M128.585 64.2766C128.182 64.0637 123.68 61.8041 123.031 61.3699" stroke="#323232" stroke-width="0.8" stroke-miterlimit="10" stroke-linecap="round"/>
<path d="M119.06 68.9371C118.969 68.7074 117.747 66.3488 117.57 65.9672Z" fill="white"/>
<path d="M119.06 68.9371C118.969 68.7074 117.747 66.3488 117.57 65.9672" stroke="#323232" stroke-width="0.4" stroke-miterlimit="10" stroke-linecap="round"/>
<path d="M116.901 69.5232C116.893 69.3673 116.324 67.5208 116.229 67.2131Z" fill="white"/>
<path d="M116.901 69.5232C116.893 69.3673 116.324 67.5208 116.229 67.2131" stroke="#323232" stroke-width="0.3" stroke-miterlimit="10" stroke-linecap="round"/>
<path d="M112.747 46.2045C112.587 46.135 111.037 44.9672 110.795 44.8239Z" fill="white"/>
<path d="M112.747 46.2045C112.587 46.135 111.037 44.9672 110.795 44.8239" stroke="#323232" stroke-width="0.5" stroke-miterlimit="10" stroke-linecap="round"/>
<path d="M112.243 47.0141C112.087 47.0226 110.429 46.7211 110.112 46.66Z" fill="white"/>
<path d="M112.243 47.0141C112.087 47.0226 110.429 46.7211 110.112 46.66" stroke="#323232" stroke-width="0.5" stroke-miterlimit="10" stroke-linecap="round"/>
<path d="M113.485 45.3829C113.477 45.2269 112.941 44.0044 112.929 43.7704Z" fill="white"/>
<path d="M113.485 45.3829C113.477 45.2269 112.941 44.0044 112.929 43.7704" stroke="#323232" stroke-width="0.5" stroke-miterlimit="10" stroke-linecap="round"/>
</svg>
