<svg width="365" height="150" viewBox="0 0 365 150" fill="none" xmlns="http://www.w3.org/2000/svg">
<path d="M151.491 40.6896L136.876 37.7001C135.547 37.3679 134.218 38.3644 133.886 39.6931C133.554 41.0218 134.55 42.3504 135.879 42.6826L150.494 45.6721C153.816 46.0043 154.813 41.0218 151.491 40.6896Z" fill="black"/>
<path d="M144.541 19.4986L159.156 28.4671C161.814 30.1279 164.471 25.8097 161.814 24.1489L147.198 15.1804C144.209 13.5196 141.552 17.5056 144.541 19.4986Z" fill="black"/>
<path d="M163.906 3.75803L170.217 14.0551C171.546 16.0481 174.867 15.3838 174.867 12.7265C174.867 11.3978 174.535 11.73 168.224 1.1007C166.231 -1.55663 161.913 1.1007 163.906 3.75803Z" fill="black"/>
<path d="M67.4422 142.353C68.8101 142.208 69.8881 141.093 69.8948 139.689C69.8983 138.531 69.4473 137.48 69.0851 136.631C66.463 129.454 64.1466 123.048 58.5448 117.699C53.4664 112.859 46.932 109.862 40.1562 109.251C33.1622 108.591 26.7615 110.898 21.0992 114.961C12.2262 119.855 3.40726 129.566 0.0428565 142.736C-0.177546 143.599 0.48122 144.446 1.35262 144.442C71.4343 144.136 66.1191 144.821 67.4422 142.353Z" fill="black"/>
<path d="M24.078 86.1577C18.5158 96.746 25.608 107.468 36.6909 107.567C49.4238 109.689 59.4006 97.4699 54.6845 86.0178C49.2412 72.7992 29.5105 72.4759 24.078 86.1577ZM43.4979 101.626C34.4433 105.06 25.5637 96.3325 29.2287 87.8645C33.0123 79.1305 46.0388 79.3432 49.6416 88.0918C51.8099 93.3577 49.2184 99.4532 43.4979 101.626Z" fill="black"/>
<path d="M213.503 98.8154C214.792 98.679 215.808 97.6282 215.814 96.3056C215.817 95.2146 215.392 94.2241 215.051 93.4243C212.58 86.661 210.397 80.624 205.119 75.5845C200.334 71.0234 194.176 68.199 187.791 67.6234C181.201 67.0016 175.169 69.1757 169.834 73.0036C161.473 77.6161 153.162 86.766 149.992 99.1764C149.784 99.9896 150.405 100.788 151.226 100.784C217.265 100.496 212.256 101.141 213.503 98.8154Z" fill="black"/>
<path d="M172.641 45.8631C167.399 55.8406 174.082 65.9439 184.526 66.0375C196.524 68.0372 205.925 56.5228 201.481 45.7314C196.352 33.2754 177.76 32.9707 172.641 45.8631ZM190.94 60.4389C182.408 63.6745 174.04 55.4509 177.494 47.4715C181.059 39.2414 193.334 39.4418 196.729 47.6857C198.773 52.6478 196.331 58.3916 190.94 60.4389Z" fill="black"/>
<path d="M362.66 141.696C363.87 141.568 364.824 140.582 364.83 139.34C364.833 138.316 364.434 137.386 364.114 136.635C361.794 130.286 359.745 124.619 354.79 119.888C350.297 115.606 344.517 112.954 338.523 112.414C332.336 111.83 326.674 113.871 321.665 117.465C313.816 121.795 306.014 130.384 303.038 142.035C302.843 142.798 303.426 143.548 304.197 143.544C366.192 143.274 361.49 143.88 362.66 141.696Z" fill="black"/>
<path d="M324.3 91.9856C319.38 101.352 325.654 110.837 335.458 110.925C346.722 112.802 355.547 101.993 351.375 91.8619C346.56 80.1686 329.106 79.8825 324.3 91.9856ZM341.479 105.669C333.469 108.706 325.614 100.986 328.857 93.4955C332.204 85.7693 343.727 85.9574 346.914 93.6966C348.832 98.3549 346.54 103.747 341.479 105.669Z" fill="black"/>
<path d="M201.249 19.3685L210.509 7.67298C211.405 6.637 211.115 5.0017 210.079 4.10591C209.043 3.21012 207.408 3.50015 206.512 4.53613L197.251 16.2316C195.457 19.0463 199.454 22.1832 201.249 19.3685Z" fill="black"/>
<path d="M223.296 22.7245L208.699 31.7229C206.018 33.3454 208.673 37.6648 211.354 36.0424L225.951 27.0439C228.782 25.125 226.423 20.9554 223.296 22.7245Z" fill="black"/>
<path d="M228.61 47.1073L216.573 48.095C214.195 48.3818 213.289 51.646 215.661 52.8447C216.847 53.444 216.7 52.9978 229.033 52.1598C232.304 51.5798 231.88 46.5272 228.61 47.1073Z" fill="black"/>
<path d="M284.887 140.722C270.58 148.481 259.214 132.299 254.28 122.027C250.821 114.843 246.659 102.585 249.164 99.6072C251.147 97.2311 262.379 93.2929 275.254 93.2566C285.115 93.3017 297.758 93.6725 300.941 105.283C305.292 121.155 294.907 135.284 284.887 140.722Z" fill="white" stroke="#323232" stroke-width="7.5" stroke-miterlimit="10"/>
<path d="M282.638 117.057C280.983 117.912 284.739 123.468 280.085 128.008C277.87 130.161 273.578 129.963 270.667 126.237C268.833 123.934 267.872 122.308 267.054 119.325C265.847 115.132 265.796 112.856 265.452 108.885C265.324 107.373 267.251 107.303 273.778 104.999C280.837 102.548 281.293 103.167 283.753 102.951C284.034 102.931 289.285 103.496 290.357 108.241C291.146 111.747 290.2 114.354 287.538 115.714C286.135 116.442 283.645 116.552 282.745 117.028L282.638 117.057Z" fill="#DD7373" stroke="#323232" stroke-miterlimit="10"/>
<path d="M284.962 116.134C286.83 115.221 287.111 115.202 288.505 114.018C288.582 113.882 290.256 112.049 290.049 109.414C289.754 106.46 287.243 105.03 286.497 104.604C284.8 103.638 283.328 103.698 280.964 104.06C278.708 104.392 276.916 104.54 275.57 104.851" stroke="#323232" stroke-width="1.5" stroke-miterlimit="10" stroke-linecap="round"/>
<path d="M275.444 105.229C274.95 105.307 270.098 106.408 269.284 106.574Z" fill="white"/>
<path d="M275.444 105.229C274.95 105.307 270.098 106.408 269.284 106.574" stroke="#323232" stroke-width="0.8" stroke-miterlimit="10" stroke-linecap="round"/>
<path d="M285.087 115.756C284.729 115.911 283.035 116.834 282.677 116.989Z" fill="white"/>
<path d="M285.087 115.756C284.729 115.911 283.035 116.834 282.677 116.989" stroke="#323232" stroke-width="0.8" stroke-miterlimit="10" stroke-linecap="round"/>
<path d="M283.623 107.282C283.604 107.631 283.89 111.389 283.929 111.951Z" fill="white"/>
<path d="M283.623 107.282C283.604 107.631 283.89 111.389 283.929 111.951" stroke="#323232" stroke-width="0.6" stroke-miterlimit="10" stroke-linecap="round"/>
<path d="M281.131 106.133C281.209 106.627 282.097 111.537 282.195 112.312Z" fill="white"/>
<path d="M281.131 106.133C281.209 106.627 282.097 111.537 282.195 112.312" stroke="#323232" stroke-width="0.8" stroke-miterlimit="10" stroke-linecap="round"/>
<path d="M278.158 106.776C278.343 107.241 280.335 111.791 280.646 112.507Z" fill="white"/>
<path d="M278.158 106.776C278.343 107.241 280.335 111.791 280.646 112.507" stroke="#323232" stroke-width="0.8" stroke-miterlimit="10" stroke-linecap="round"/>
<path d="M275.204 107.07C275.427 107.467 277.99 111.803 278.301 112.52Z" fill="white"/>
<path d="M275.204 107.07C275.427 107.467 277.99 111.803 278.301 112.52" stroke="#323232" stroke-width="0.8" stroke-miterlimit="10" stroke-linecap="round"/>
<path d="M285.736 108.306C285.688 108.548 285.439 111.193 285.382 111.61Z" fill="white"/>
<path d="M285.736 108.306C285.688 108.548 285.439 111.193 285.382 111.61" stroke="#323232" stroke-width="0.4" stroke-miterlimit="10" stroke-linecap="round"/>
<path d="M287.868 108.981C287.791 109.117 287.27 110.978 287.183 111.288Z" fill="white"/>
<path d="M287.868 108.981C287.791 109.117 287.27 110.978 287.183 111.288" stroke="#323232" stroke-width="0.3" stroke-miterlimit="10" stroke-linecap="round"/>
<path d="M278.742 130.839C278.839 130.984 279.51 132.804 279.637 133.056Z" fill="white"/>
<path d="M278.742 130.839C278.839 130.984 279.51 132.804 279.637 133.056" stroke="#323232" stroke-width="0.5" stroke-miterlimit="10" stroke-linecap="round"/>
<path d="M279.604 130.43C279.74 130.507 280.972 131.658 281.205 131.881Z" fill="white"/>
<path d="M279.604 130.43C279.74 130.507 280.972 131.658 281.205 131.881" stroke="#323232" stroke-width="0.5" stroke-miterlimit="10" stroke-linecap="round"/>
<path d="M277.677 131.13C277.6 131.266 277.389 132.584 277.273 132.787Z" fill="white"/>
<path d="M277.677 131.13C277.6 131.266 277.389 132.584 277.273 132.787" stroke="#323232" stroke-width="0.5" stroke-miterlimit="10" stroke-linecap="round"/>
<path d="M69.5059 106.015C68.416 89.3126 88.4211 85.6611 100.139 85.4723C108.336 85.3336 121.577 86.7213 123.28 90.3423C124.646 93.2167 123.49 105.402 117.984 117.443C113.698 126.634 107.911 138.283 95.6969 136.259C79.0001 133.493 70.2736 117.713 69.5059 106.015Z" fill="white" stroke="#323232" stroke-width="7.5" stroke-miterlimit="10"/>
<path d="M92.2209 113.462C90.3467 116.087 89.5561 119.122 90.7625 121.222C92.6331 124.525 99.7657 123.865 102.994 121.752C106.223 119.638 108.402 114.128 108.7 113.026C109.239 110.467 109.031 108.245 108.787 106.938L104.118 105.934L102.479 110.268L98.6029 108.993L97.6816 112.121L93.9266 110.463L92.2676 113.527L92.2209 113.462Z" fill="#5F5AA2" stroke="#323232" stroke-miterlimit="10"/>
<path d="M92.7113 109.456C89.0903 111.158 85.4116 111.125 83.9253 109.324C81.953 106.982 84.1984 102.116 86.7449 99.6017C92.1644 94.3399 103.621 95.029 107.334 100.767C108.484 102.512 108.671 103.465 108.673 104.846L102.294 102.696L101.093 106.814L96.7497 104.886L95.8751 108.08L92.3443 106.459L92.6646 109.39L92.7113 109.456Z" fill="#5F5AA2" stroke="#323232" stroke-miterlimit="10"/>
<path d="M90.6937 117.815C90.6778 120.69 91.8362 121.343 92.2288 121.753C94.6212 123.992 100.4 123.51 105.531 118.949" fill="#5F5AA2"/>
<path d="M90.6937 117.815C90.6778 120.69 91.8362 121.343 92.2288 121.753C94.6212 123.992 100.4 123.51 105.531 118.949" stroke="#323232" stroke-width="1.5" stroke-miterlimit="10" stroke-linecap="round"/>
<path d="M104.784 119.285C105.652 118.565 106.585 117.799 107.19 116.575C107.796 115.351 107.749 115.286 107.936 114.856" fill="#5F5AA2"/>
<path d="M104.784 119.285C105.652 118.565 106.585 117.799 107.19 116.575C107.796 115.351 107.749 115.286 107.936 114.856" stroke="#323232" stroke-miterlimit="10" stroke-linecap="round"/>
<path d="M107.535 115.538C108.019 114.006 108.317 113.595 108.987 110.943Z" fill="#5F5AA2"/>
<path d="M107.535 115.538C108.019 114.006 108.317 113.595 108.987 110.943" stroke="#323232" stroke-width="0.6" stroke-miterlimit="10" stroke-linecap="round"/>
<path d="M108.903 111.103L109.051 110.207" stroke="#323232" stroke-width="0.5" stroke-miterlimit="10" stroke-linecap="round"/>
<path d="M90.8901 118.365L90.9349 116.358" stroke="#323232" stroke-miterlimit="10" stroke-linecap="round"/>
<path d="M91.1216 116.619C91.1216 116.619 91.0927 115.751 91.4372 114.714Z" fill="#5F5AA2"/>
<path d="M91.1216 116.619C91.1216 116.619 91.0927 115.751 91.4372 114.714" stroke="#323232" stroke-width="0.5" stroke-miterlimit="10" stroke-linecap="round"/>
<path d="M93.936 110.753L97.5975 112.281" stroke="#323232" stroke-width="0.5" stroke-miterlimit="10" stroke-linecap="round"/>
<path d="M100.804 106.825L102.117 102.725" stroke="#323232" stroke-width="0.5" stroke-miterlimit="10" stroke-linecap="round"/>
<path d="M87.3501 116.454L88.8145 114.912" stroke="#323232" stroke-width="0.5" stroke-miterlimit="10" stroke-linecap="round"/>
<path d="M85.6587 115.196L88.001 113.914" stroke="#323232" stroke-width="0.5" stroke-miterlimit="10" stroke-linecap="round"/>
<path d="M85.6281 112.946L87.2808 113.047" stroke="#323232" stroke-width="0.5" stroke-miterlimit="10" stroke-linecap="round"/>
</svg>
