<svg width="365" height="150" viewBox="0 0 365 150" fill="none" xmlns="http://www.w3.org/2000/svg">
<g clip-path="url(#clip0_516_2)">
<path d="M151.492 40.6887L136.877 37.6992C135.548 37.367 134.219 38.3635 133.887 39.6922C133.555 41.0209 134.551 42.3495 135.88 42.6817L150.495 45.6712C153.817 46.0034 154.814 41.0209 151.492 40.6887Z" fill="black"/>
<path d="M144.541 19.4986L159.156 28.4671C161.814 30.1279 164.471 25.8097 161.814 24.1489L147.198 15.1804C144.209 13.5196 141.552 17.5056 144.541 19.4986Z" fill="black"/>
<path d="M163.906 3.75803L170.217 14.0551C171.546 16.0481 174.867 15.3838 174.867 12.7265C174.867 11.3978 174.535 11.73 168.224 1.1007C166.231 -1.55663 161.913 1.1007 163.906 3.75803Z" fill="black"/>
<path d="M67.4422 142.353C68.8101 142.208 69.8881 141.093 69.8948 139.689C69.8983 138.531 69.4473 137.48 69.0851 136.631C66.463 129.454 64.1466 123.048 58.5448 117.699C53.4664 112.859 46.932 109.862 40.1562 109.251C33.1622 108.591 26.7615 110.898 21.0992 114.961C12.2262 119.855 3.40726 129.566 0.0428565 142.736C-0.177546 143.599 0.48122 144.446 1.35262 144.442C71.4343 144.136 66.1191 144.821 67.4422 142.353Z" fill="black"/>
<path d="M24.0785 86.1577C18.5163 96.746 25.6085 107.468 36.6914 107.567C49.4243 109.689 59.4011 97.4699 54.685 86.0178C49.2417 72.7992 29.511 72.4759 24.0785 86.1577ZM43.4984 101.626C34.4438 105.06 25.5642 96.3325 29.2292 87.8645C33.0128 79.1305 46.0393 79.3432 49.6421 88.0918C51.8104 93.3577 49.2189 99.4532 43.4984 101.626Z" fill="black"/>
<path d="M213.503 98.8149C214.792 98.6785 215.808 97.6277 215.814 96.3051C215.817 95.2141 215.392 94.2236 215.051 93.4238C212.58 86.6605 210.397 80.6235 205.119 75.584C200.334 71.0229 194.176 68.1985 187.791 67.6229C181.201 67.0011 175.169 69.1752 169.834 73.0031C161.473 77.6156 153.162 86.7655 149.992 99.1759C149.784 99.9891 150.405 100.788 151.226 100.784C217.265 100.496 212.256 101.141 213.503 98.8149Z" fill="black"/>
<path d="M172.641 45.8626C167.399 55.8401 174.082 65.9434 184.526 66.037C196.524 68.0367 205.925 56.5223 201.481 45.7309C196.352 33.2749 177.76 32.9702 172.641 45.8626ZM190.94 60.4384C182.408 63.674 174.04 55.4504 177.494 47.471C181.059 39.2409 193.334 39.4413 196.729 47.6852C198.773 52.6473 196.331 58.3911 190.94 60.4384Z" fill="black"/>
<path d="M362.66 141.695C363.87 141.567 364.824 140.581 364.83 139.339C364.833 138.315 364.434 137.385 364.114 136.634C361.794 130.285 359.745 124.618 354.79 119.887C350.297 115.605 344.517 112.953 338.523 112.413C332.336 111.829 326.674 113.87 321.665 117.464C313.816 121.794 306.014 130.383 303.038 142.034C302.843 142.797 303.426 143.547 304.197 143.543C366.192 143.273 361.49 143.879 362.66 141.695Z" fill="black"/>
<path d="M324.3 91.9856C319.38 101.352 325.654 110.837 335.458 110.925C346.722 112.802 355.547 101.993 351.375 91.8619C346.56 80.1686 329.106 79.8825 324.3 91.9856ZM341.479 105.669C333.469 108.706 325.614 100.986 328.857 93.4955C332.204 85.7693 343.727 85.9574 346.914 93.6966C348.832 98.3549 346.54 103.747 341.479 105.669Z" fill="black"/>
<path d="M201.249 19.369L210.509 7.67347C211.405 6.63749 211.115 5.00219 210.079 4.1064C209.043 3.21061 207.408 3.50064 206.512 4.53662L197.251 16.2321C195.457 19.0468 199.454 22.1837 201.249 19.369Z" fill="black"/>
<path d="M223.297 22.7245L208.7 31.7229C206.019 33.3454 208.674 37.6648 211.355 36.0424L225.952 27.0439C228.783 25.125 226.424 20.9554 223.297 22.7245Z" fill="black"/>
<path d="M228.609 47.1068L216.572 48.0945C214.194 48.3813 213.288 51.6455 215.66 52.8442C216.846 53.4435 216.699 52.9973 229.032 52.1593C232.303 51.5793 231.879 46.5267 228.609 47.1068Z" fill="black"/>
</g>
<defs>
<clipPath id="clip0_516_2">
<rect width="365" height="150" fill="white"/>
</clipPath>
</defs>
</svg>
