<svg id="Layer_1" data-name="Layer 1" xmlns="http://www.w3.org/2000/svg" viewBox="0 0 660.1 317.3"><defs><style>.cls-1,.cls-10,.cls-2,.cls-28,.cls-3,.cls-4{fill:#231f20;}.cls-1,.cls-10,.cls-11,.cls-12,.cls-13,.cls-19,.cls-2,.cls-26,.cls-27,.cls-3,.cls-4,.cls-5,.cls-8,.cls-9{stroke:#231f20;}.cls-1,.cls-12,.cls-15,.cls-2,.cls-27,.cls-3,.cls-4,.cls-5{stroke-miterlimit:10;}.cls-1{stroke-width:0.2px;}.cls-2{stroke-width:0.1px;}.cls-3{stroke-width:0.1px;}.cls-4{stroke-width:0.06px;}.cls-29,.cls-5{fill:#009749;}.cls-10,.cls-12,.cls-13,.cls-19,.cls-26,.cls-5,.cls-8,.cls-9{stroke-width:0.5px;}.cls-26,.cls-6{opacity:0.5;}.cls-7{fill:#b3b3b3;}.cls-15,.cls-20,.cls-27,.cls-30,.cls-8{fill:#fff;}.cls-10,.cls-11,.cls-13,.cls-19,.cls-26,.cls-8,.cls-9{stroke-linecap:round;stroke-linejoin:round;}.cls-11,.cls-14,.cls-26,.cls-9{fill:none;}.cls-12{fill:#54565a;}.cls-13{fill:#e9c230;}.cls-15{stroke:#231916;stroke-width:0.1px;}.cls-16{fill:#cbcbcb;}.cls-17{fill:#231916;}.cls-18{fill:#e61f1a;}.cls-19,.cls-32{fill:#d81f27;}.cls-20{font-size:15.61px;font-family:HiraginoSans-W1-83pv-RKSJ-H, Hiragino Sans;letter-spacing:-0.14em;}.cls-21{letter-spacing:-0.07em;}.cls-22{letter-spacing:-0.07em;}.cls-23{letter-spacing:-0.08em;}.cls-24{letter-spacing:-0.04em;}.cls-25{letter-spacing:0em;}.cls-27{stroke-width:0.25px;}.cls-31{isolation:isolate;}</style></defs><g id="Tree"><path class="cls-1" d="M409.1,43.7l-1.7,1.7c-1.1,1-2.6,2.6-4.4,4.6a92.5,92.5,0,0,0-12.5,16.9,81.9,81.9,0,0,0-5.3,11.6,127.6,127.6,0,0,0-3.9,12.4c-2.2,8.3-4.2,16.2-5.9,22.4-6.5,23.1-10.4,22.1-4.2-1.2,1.7-6.2,3.8-14,6.4-22.3,1.3-4.2,2.8-8.5,4.5-12.6a85.3,85.3,0,0,1,6.2-11.6,87.9,87.9,0,0,1,13.9-16.4l5-4.1a9.2,9.2,0,0,1,1.4-1.1C408.9,43.8,409.1,43.6,409.1,43.7Z" transform="translate(-67.1 -41.1)"/><path class="cls-2" d="M466.4,93.9H464l-6.3-.3c-5.4-.2-12.8-.4-21-.2-4,0-8.3.1-12.7.4a76.1,76.1,0,0,0-12.7,1.7,41.5,41.5,0,0,0-11,4.4c-3.3,1.9-6.2,4.1-9,5.7a32.3,32.3,0,0,1-7.1,3.4,26.7,26.7,0,0,1-5.6,1.4c-3,.3-4.5.1-4.5-.1s1.4-.6,4.2-1.4a39.7,39.7,0,0,0,11.9-5.1c2.7-1.7,5.6-3.8,9-5.7a37.5,37.5,0,0,1,11.7-4.5A71.9,71.9,0,0,1,424,92.1c4.3-.2,8.6-.2,12.7-.1,8.3.1,15.7.6,21,1l6.4.6,1.7.3Z" transform="translate(-67.1 -41.1)"/><path class="cls-3" d="M307.4,76.4c0-.1.2-.1.5-.1h6.2a144.8,144.8,0,0,1,36,4.5,117.6,117.6,0,0,1,17,5.5c8.6,3.5,12.4,6.3,12.2,6.7s-4.5-1.3-13-4.7c-4.5-1.7-10.3-3.8-16.7-5.6a168.1,168.1,0,0,0-19.4-4.2c-6.2-1-11.9-1.4-16.1-1.7l-4.9-.2h-1.8Z" transform="translate(-67.1 -41.1)"/><path class="cls-4" d="M346.1,57.6h.3l.8-.3,2.8-.9a26,26,0,0,1,4.4-1,15.1,15.1,0,0,1,5.6,0,20.4,20.4,0,0,1,5.8,2.2l5.4,3,9.7,4.9c5.1,2.4,7.7,3.7,7.5,4s-2.8-.5-8-2.9c-2.7-1.3-6.2-3-9.7-5s-7.1-4.6-10.8-5.5-7.3,0-9.8.5l-2.9.8-.8.2Z" transform="translate(-67.1 -41.1)"/><path class="cls-5" d="M306.9,92.9c.7.5,10-5,12-9.1s-6.5-9.1-9.1-5.7S306.1,92.4,306.9,92.9Z" transform="translate(-67.1 -41.1)"/><path class="cls-5" d="M297.5,81.2c.3.9,11,2.4,15.1.5s.6-11.2-3.5-10.2S297.2,80.4,297.5,81.2Z" transform="translate(-67.1 -41.1)"/><path class="cls-5" d="M323.1,92.1c.8-.3,2.4-11,.6-15.1s-11.2-.7-10.3,3.4S322.2,92.3,323.1,92.1Z" transform="translate(-67.1 -41.1)"/><path class="cls-5" d="M311.2,85.4c.8.4,9.7-5.7,11.4-9.9s-7.1-8.6-9.5-5.1S310.4,85,311.2,85.4Z" transform="translate(-67.1 -41.1)"/><path class="cls-5" d="M415.2,48.3c-.4.6-7.3,1.8-9.5.4s2-8,4.4-7.3S415.5,47.7,415.2,48.3Z" transform="translate(-67.1 -41.1)"/><path class="cls-5" d="M340.6,64.6c.6.4,7.7-1,9.4-3s-4.9-6.6-6.9-5.1S340,64.2,340.6,64.6Z" transform="translate(-67.1 -41.1)"/><path class="cls-5" d="M333.7,56c.2.6,8.3,3.5,11.5,3.1s.6-6.4-2.5-6.6S333.5,55.5,333.7,56Z" transform="translate(-67.1 -41.1)"/><path class="cls-5" d="M353,67.2c.6,0,2.1-5.9.7-8.7s-8.5-2.6-7.9.1S352.3,67.2,353,67.2Z" transform="translate(-67.1 -41.1)"/><path class="cls-5" d="M344.1,61c.6.4,7.4-1.4,8.8-3.6s-5.3-6.4-7.1-4.8S343.5,60.7,344.1,61Z" transform="translate(-67.1 -41.1)"/><path class="cls-5" d="M464.5,104.8c-.7.1-6.3-4.4-6.9-6.9s7.2-3.8,8.4-1.5S465.2,104.7,464.5,104.8Z" transform="translate(-67.1 -41.1)"/><path class="cls-5" d="M474.4,100.2c-.4.4-8.8-.6-11.5-2.4s2.3-6,5.2-4.8S474.9,99.8,474.4,100.2Z" transform="translate(-67.1 -41.1)"/><path class="cls-5" d="M452.5,101.5c-.6-.3.8-6.2,3.2-8.1s8.7,1.6,6.9,3.6S453,101.8,452.5,101.5Z" transform="translate(-67.1 -41.1)"/><path class="cls-5" d="M463.1,100c-.7.1-5.9-4.6-6.2-7.2s7.5-3.3,8.4-1S463.8,100,463.1,100Z" transform="translate(-67.1 -41.1)"/><path class="cls-5" d="M369.2,96.9c-.5-.3.8-6.2,3.3-8.1s8.6,1.5,6.9,3.6S369.8,97.2,369.2,96.9Z" transform="translate(-67.1 -41.1)"/><path class="cls-5" d="M396,87.7c-.1.6-8-.8-11.2-3.4s-1.2-9.2,2-7.4S396.2,87.1,396,87.7Z" transform="translate(-67.1 -41.1)"/><path class="cls-5" d="M348.4,97.7c-.7,0-2-8-.3-11.9s10-3.4,9.1.1S349.2,97.7,348.4,97.7Z" transform="translate(-67.1 -41.1)"/><path class="cls-5" d="M421.8,107.5c.7,0,2-8,.3-11.8s-10-3.5-9.1.1S421,107.5,421.8,107.5Z" transform="translate(-67.1 -41.1)"/><path class="cls-5" d="M385.2,120.7c.7-.2-.9-8-3.5-11.2s-9.3-1.1-7.4,2.1S384.6,120.9,385.2,120.7Z" transform="translate(-67.1 -41.1)"/></g><g id="Couch"><g id="Couch_color" data-name="Couch color"><g class="cls-6"><polyline class="cls-7" points="418.6 192.1 99.7 223.5 90.4 220.2 2.8 189.8 2.8 206.8 90.5 239.1 411.4 207.3 498.3 239.2 640.9 224.4 640.9 209.4 506.2 223.4"/></g><path class="cls-8" d="M542,139.5V120.6a10.7,10.7,0,0,0-11.8-10.7L372.2,125.6,86.4,153.9a7.7,7.7,0,0,0-5.1,2.8l-11,1.1a3.3,3.3,0,0,0-2.7,3.4V230l99.4,34.6,318.9-31.4L573,264.5l145.9-15.2a8.9,8.9,0,0,0,8.1-8.9v-2.5a9.1,9.1,0,0,0-6-8.5l-67.7-23.8V180.9" transform="translate(-67.1 -41.1)"/></g><polyline class="cls-9" points="411.4 192.8 411.4 207.3 90.5 239.1 90.4 220.2 99.7 223.5 418.6 192.1 505.9 223.4"/><path class="cls-9" d="M386,181.6l93.7,33c3.7,1.3,6,4.2,6,7.4v11.2" transform="translate(-67.1 -41.1)"/><polyline class="cls-9" points="474.4 125.1 574.1 160.3 574.1 141.7 474.8 105.6"/><line class="cls-10" x1="503.5" y1="206.2" x2="656.9" y2="190.4"/><path class="cls-9" d="M478.5,248.4l86.9,32-.2-18.6,7.3,2.6c1.5.5,3.2-.4,3.2-1.7v-8.3c0-3.2-2.3-6.1-6-7.4l-91.2-32.8" transform="translate(-67.1 -41.1)"/><polyline class="cls-9" points="498.3 239.2 640.9 224.4 640.9 209.4"/><path class="cls-11" d="M604.9,224" transform="translate(-67.1 -41.1)"/><path class="cls-9" d="M222.7,197.8l.3-45.6a10.6,10.6,0,0,0-11.8-10.6l-7.4.7" transform="translate(-67.1 -41.1)"/><path class="cls-9" d="M541.7,166.1l.4-45.5a10.7,10.7,0,0,0-11.8-10.7l-7.4.8" transform="translate(-67.1 -41.1)"/><path class="cls-9" d="M641.2,182.9l11.3-1.1a.9.9,0,0,0,.2-1.8L542,139.5" transform="translate(-67.1 -41.1)"/><polyline class="cls-9" points="90.5 239.1 2.8 206.8 2.8 189.8"/><path class="cls-9" d="M222.5,197.8l93.7,33c3.7,1.3,6.1,4.2,6.1,7.4v11" transform="translate(-67.1 -41.1)"/><line class="cls-9" x1="416.3" y1="175.9" x2="97.5" y2="207.5"/><path class="cls-9" d="M81.3,156.7l-11,1.1a3.3,3.3,0,0,0-2.7,3.4l-.2,52V230l99.4,34.6v-11c0-3.2-2.4-6.1-6.1-7.4l-93.3-33,11.4-1.1V163.8c.1-5.2,3.3-9.5,7.6-9.9l443.9-44" transform="translate(-67.1 -41.1)"/><path class="cls-9" d="M367.1,126.1l7.4-.7A10.6,10.6,0,0,1,386.3,136l-.3,45.6,155.7-15.5L67.4,213.3" transform="translate(-67.1 -41.1)"/><line class="cls-9" x1="574.1" y1="160.3" x2="589.2" y2="165.6"/></g><g id="Pillows"><path class="cls-12" d="M549.8,206c7.9-11.9,1.6-26.2,8-69.4.7-4.7-15.3-2-51.3-10.2l-17.1-3.9c2.9,20.9-6.3,46.5-15.1,64.7-5.8,11.7,28.9-1.2,66.7,14.7,3.8,1.6,6.9,3.1,8.8,4.1" transform="translate(-67.1 -41.1)"/><path class="cls-13" d="M439.7,189.8c-4.3-11.8,2.8-21.4,4.4-57.7.1-3.9,12.2,3,41.6,7.1l13.9,2c-5.4,15.7-2.1,38.9,2,56,2.7,11-22.4-9.6-54.4-8.1l-7.5.7" transform="translate(-67.1 -41.1)"/><g id="PEGASUS_LOGO" data-name="PEGASUS LOGO"><ellipse class="cls-14" cx="469.7" cy="164.2" rx="28.9" ry="28.9" transform="translate(164 559.8) rotate(-80.6)"/><path d="M450.1,172.7l.6-3.6a1.9,1.9,0,0,1,2.1-1.7,1.8,1.8,0,0,1,1.5,2.1c-.2,1-1,1.7-1.8,1.5l-1-.2v-.6h.8a1,1,0,0,0,1.2-.9,1.1,1.1,0,0,0-.9-1.3,1,1,0,0,0-1.2,1l-.7,3.8Z" transform="translate(-67.1 -41.1)"/><path d="M458.7,171.6l-2.7-.4a2.1,2.1,0,0,0,1.6,2.1h.8l-.2.7h-.5a2.7,2.7,0,0,1-2.4-3.2,2.7,2.7,0,0,1,3.3-2.3h.6l-.2.7h-.5a2.1,2.1,0,0,0-2.4,1.3l2.7.4Z" transform="translate(-67.1 -41.1)"/><path d="M464.8,171a2.5,2.5,0,0,0-1.6-1.1,2.1,2.1,0,0,0-2.5,1.8,2.1,2.1,0,0,0,1.7,2.5,2,2,0,0,0,2.4-1.5l-2-.3.2-.7,2.6.4v.5a2.8,2.8,0,0,1-3.3,2.3,3.1,3.1,0,0,1-2.4-3.3,2.9,2.9,0,0,1,3.4-2.4,2.7,2.7,0,0,1,2.1,1.4Z" transform="translate(-67.1 -41.1)"/><path d="M466.6,175.5l.6-3.5a1.9,1.9,0,0,1,2.2-1.8,2,2,0,0,1,1.6,2.4l-.6,3.5h-.7l.4-2.5-2-.3v-.7l2,.3v-.3c.2-.9-.2-1.5-.9-1.6s-1.2.3-1.3,1.2l-.6,3.5Z" transform="translate(-67.1 -41.1)"/><path d="M471.9,175.7l1.9.3c.7.1,1-.1,1.1-.6s-2.6-1.5-2.4-3.2a1.4,1.4,0,0,1,1.8-1.1l1.7.3v.7l-1.8-.3a.6.6,0,0,0-.8.5c-.2,1,2.6,1.5,2.3,3.2a1.5,1.5,0,0,1-1.8,1.2l-2-.4Z" transform="translate(-67.1 -41.1)"/><path d="M478.5,171.8l-.6,3.6c-.1.8.2,1.4.9,1.5s1.1-.4,1.3-1.1l.6-3.6h.7l-.6,3.7a2,2,0,0,1-2.1,1.6,1.8,1.8,0,0,1-1.5-2.2l.6-3.7Z" transform="translate(-67.1 -41.1)"/><path d="M482.1,177.3l1.9.4c.6.1.9-.1,1-.6s-2.6-1.5-2.3-3.2a1.4,1.4,0,0,1,1.7-1.1l1.8.3v.7l-1.9-.3a.5.5,0,0,0-.7.5c-.2,1,2.5,1.5,2.3,3.2a1.5,1.5,0,0,1-1.8,1.2l-2-.4Z" transform="translate(-67.1 -41.1)"/><path d="M457.8,177.9c-.5-.6-.8-1-1.6-1.1a2.2,2.2,0,0,0-2.5,1.8,2.2,2.2,0,0,0,1.8,2.5,2,2,0,0,0,2.3-1.5l-1.9-.3v-.7l2.7.4v.5a2.8,2.8,0,0,1-3.2,2.3,2.9,2.9,0,0,1-2.4-3.4,3,3,0,0,1,5.4-1Z" transform="translate(-67.1 -41.1)"/><path d="M459.7,182.4l.6-3.5a1.9,1.9,0,0,1,2.2-1.8,2,2,0,0,1,1.5,2.4l-.6,3.5h-.7l.4-2.5-2-.3v-.7l2,.3v-.3c.1-.9-.3-1.5-.9-1.6A1.2,1.2,0,0,0,461,179l-.6,3.5Z" transform="translate(-67.1 -41.1)"/><path d="M464.9,183.2l1.4-4.9a.7.7,0,0,1,.8-.4c.3,0,.5.2.5.7l.5,3.9h0l1.8-3.5c.2-.5.4-.6.8-.5a.6.6,0,0,1,.5.6l-.2,5.2-.8-.2.2-4.5h0l-1.8,3.6c-.3.5-.4.6-.7.6h0c-.2,0-.4-.1-.4-.7l-.6-4h0l-1.2,4.4Z" transform="translate(-67.1 -41.1)"/><path d="M476.1,182.6l-2.6-.5a1.9,1.9,0,0,0,1.6,2.1l.7.2v.6h-.6a2.6,2.6,0,0,1-2.3-3.2,2.7,2.7,0,0,1,3.3-2.2h.5v.6H476a2,2,0,0,0-2.4,1.2l2.7.5Z" transform="translate(-67.1 -41.1)"/><path d="M477.5,184.6l1.9.3c.6.1.9,0,1-.5s-2.6-1.6-2.3-3.2a1.3,1.3,0,0,1,1.7-1.1l1.8.3v.7l-1.9-.3a.6.6,0,0,0-.8.5c-.1,1,2.6,1.5,2.4,3.1a1.5,1.5,0,0,1-1.8,1.3l-2-.4Z" transform="translate(-67.1 -41.1)"/><path class="cls-15" d="M482.5,156.2l-2.6-4.6,5.5-4.4-.5-.7-6.3,1.9a8.9,8.9,0,0,0-4.1-.3,7.2,7.2,0,0,0-3.5,1.4l-1.2.9a7.6,7.6,0,0,0-3-2.8l-1.4-.8A8.4,8.4,0,0,1,462,143v-.2h-.3a1.3,1.3,0,0,0-1.5,1.2,1.8,1.8,0,0,0,.2,1l.7,2h.1a3.6,3.6,0,0,0-.8,3,7.2,7.2,0,0,0,1.1,2.8c-.7.9-.5,2.5-.1,3.5a3.1,3.1,0,0,0,.6,1.3,5.4,5.4,0,0,0,.9,1.2,17.1,17.1,0,0,0,2.6,2.1,11.7,11.7,0,0,0,3.8,1.7l1.3,1.3a9.2,9.2,0,0,0,4,1.7h.2a9.2,9.2,0,0,0,2.2.1h1l-.8-.7a7,7,0,0,1-1.5-2.1,5.4,5.4,0,0,1,.2-5.1l3.6,1.9,1,.3h.6a3,3,0,0,0,1.1-.6l.3-.2a1.8,1.8,0,0,0,.5-1.9A6.4,6.4,0,0,0,482.5,156.2Z" transform="translate(-67.1 -41.1)"/><path class="cls-16" d="M476.2,165.2s-3.6-2.6-4.1-5.9a8.5,8.5,0,0,1,1.8-6.9,8.3,8.3,0,0,0-.6,2.6l2.2,2.4-1.1,2.8S475.3,164.6,476.2,165.2Z" transform="translate(-67.1 -41.1)"/><path class="cls-17" d="M482.5,156.2l-2.6-4.6,5.5-4.4-.5-.7-6.3,1.9a8.9,8.9,0,0,0-4.1-.3,7.2,7.2,0,0,0-3.5,1.4l-1.2.9a7.6,7.6,0,0,0-3-2.8l-1.4-.8A8.4,8.4,0,0,1,462,143v-.2h-.3a1.3,1.3,0,0,0-1.5,1.2,1.8,1.8,0,0,0,.2,1l.7,2h.1a3.6,3.6,0,0,0-.8,3,7.2,7.2,0,0,0,1.1,2.8c-.7.9-.5,2.5-.1,3.5a3.1,3.1,0,0,0,.6,1.3,5.4,5.4,0,0,0,.9,1.2,17.1,17.1,0,0,0,2.6,2.1,11.7,11.7,0,0,0,3.8,1.7l1.3,1.3a9.2,9.2,0,0,0,4,1.7h.2a9.2,9.2,0,0,0,2.2.1h1l-.8-.7a7,7,0,0,1-1.5-2.1,5.4,5.4,0,0,1,.2-5.1l3.6,1.9,1,.3h.6a3,3,0,0,0,1.1-.6l.3-.2a1.8,1.8,0,0,0,.5-1.9A6.4,6.4,0,0,0,482.5,156.2Zm-19,1.9a4.6,4.6,0,0,1-1.5-2.6,4.1,4.1,0,0,1,0-1.9l.4.5,1.6.8,1-.7a3,3,0,0,1-2.3-1.3,7.3,7.3,0,0,1-1.6-3,3.4,3.4,0,0,1,.4-2c.9,1.6,1.4,3.4,4.7,4.5l1.2-.7c-2.7-.2-4.7-3-5.5-5.1l-.8-2a1.3,1.3,0,0,1-.1-.6c0-.2.2-.3.3-.4a9,9,0,0,0,3.7,4l1.4.7a5.8,5.8,0,0,1,1.5,1.1,7,7,0,0,1,1.3,1.7,16.4,16.4,0,0,0-1.4,2.2,8.5,8.5,0,0,0-.4,5.9,6.7,6.7,0,0,0,.9,2.1,14.2,14.2,0,0,1-2.5-1.2A8.7,8.7,0,0,1,463.5,158.1Zm18.3.3c-.1,0-.1.1-.2.2l-.8.5-1.1-.3-4.8-2.5a3.4,3.4,0,0,1-1.2-1.4c-.1-.3-.4-.6.2-2.5a3.7,3.7,0,0,0-.8,2.3,2.8,2.8,0,0,0,1.1,2l.7.5h.2a6.2,6.2,0,0,0-.3,5.9,8.5,8.5,0,0,0,1,1.7,9,9,0,0,1-4.8-1.7,7.5,7.5,0,0,1-2.7-4.2,7.1,7.1,0,0,1,.3-5.3,8.4,8.4,0,0,1,2.9-3.5,5.9,5.9,0,0,1,3.1-1.2,8.7,8.7,0,0,1,2.8,0l-.4.8,6.1-1.9-4.4,3.5.3.3,2.8,5S482.5,157.9,481.8,158.4Z" transform="translate(-67.1 -41.1)"/><polygon class="cls-17" points="411.1 111 410.3 110.9 410.4 110 409.7 109.9 409.6 110.8 408.7 110.6 408.6 111.3 409.5 111.4 409.3 112.3 410 112.4 410.1 111.5 411 111.7 411.1 111"/><path class="cls-18" d="M485.1,147.7a1.3,1.3,0,0,1-1.4,1,1.2,1.2,0,0,1-1-1.4,1.2,1.2,0,0,1,2.4.4Z" transform="translate(-67.1 -41.1)"/><path class="cls-17" d="M483.6,149a1.4,1.4,0,0,1-1.2-1.7,1.5,1.5,0,0,1,1.7-1.3,1.5,1.5,0,0,1,1.3,1.8A1.6,1.6,0,0,1,483.6,149Zm.4-2.4a1.1,1.1,0,0,0-1,.8,1,1,0,0,0,.7,1,.9.9,0,0,0,1-.8A.9.9,0,0,0,484,146.6Z" transform="translate(-67.1 -41.1)"/></g><path class="cls-19" d="M289.6,212.7c-9.8-7.8-1.1-5.2-26.4-31.1-5.6-5.7,22.9-7.2,49.9-19.3,0,0,22.1-10.6,22.1-10.5C334,168,352.3,178.5,356,195.6c2.3,10.9-27.5-2.8-66.4,17.1h0" transform="translate(-67.1 -41.1)"/><text class="cls-20" transform="translate(220.7 157.1) rotate(-19) scale(0.68 1)">こ<tspan class="cls-21" x="13.4" y="0">ん</tspan><tspan class="cls-22" x="27.8" y="0">ば</tspan><tspan class="cls-23" x="42.3" y="0">ん</tspan><tspan class="cls-24" x="56.7" y="0">は</tspan><tspan class="cls-25" x="71.7" y="0">!</tspan></text></g><g id="TABLE"><g id="Table-2" data-name="Table"><line class="cls-9" x1="213.5" y1="279.9" x2="213.5" y2="270.5"/><polyline class="cls-8" points="133 250.9 133 279.9 236.4 317.1 236.4 277.5"/><polyline class="cls-8" points="110 233.3 213.5 270.5 489.3 242.6 385.8 205.4 110 233.3 110 242.6 213.5 279.9 489.3 251.9 489.3 242.6"/><line class="cls-9" x1="236.4" y1="317.1" x2="248" y2="315.7"/><line class="cls-9" x1="248.2" y1="276.3" x2="248" y2="315.7"/><polyline class="cls-26" points="367.9 264.2 454.3 295.3 454.4 255.6"/><polyline class="cls-9" points="465.9 294 454.3 295.3 367.9 264.2"/><line class="cls-9" x1="466.1" y1="254.6" x2="465.9" y2="294"/><line class="cls-9" x1="213.5" y1="279.9" x2="213.5" y2="270.5"/><line class="cls-9" x1="454.4" y1="255.6" x2="454.2" y2="295"/></g><g id="Cards"><path class="cls-27" d="M437.5,271.9,416,261.3c-.5-.3-.5-.8.1-1.1l14.2-6.5a3.8,3.8,0,0,1,2.1,0l21.4,10c.6.3.7.7.1,1l-14.2,7.2A2.8,2.8,0,0,1,437.5,271.9Z" transform="translate(-67.1 -41.1)"/><path class="cls-28" d="M430.9,258.4l3.3-1.6h.2l-2,1.7,3.5-1,.3.2-3.3,1.5h-.2l2.8-1.3-3.7,1h0l2.1-1.8-2.9,1.4Z" transform="translate(-67.1 -41.1)"/><path class="cls-28" d="M433.5,259.6l3.3-1.5,1.3.6h-.2l-1.1-.6-1.2.6.7.4h-.2l-.7-.4-1.5.7,1.2.6h-.2Z" transform="translate(-67.1 -41.1)"/><path class="cls-28" d="M435.4,260.5l3.3-1.6h.2l-2,1.8,3.6-1h.2l-3.3,1.6h-.2l2.9-1.4-3.8,1h0l2.1-1.8-2.8,1.4Z" transform="translate(-67.1 -41.1)"/><path class="cls-28" d="M438.1,261.8l3.3-1.6.6.3c.5.2.6.5,0,.8a1.7,1.7,0,0,1-1.2.1c.2.1.4.4-.2.7a1.9,1.9,0,0,1-1.8,0Zm2.1-.8.4.2a1.3,1.3,0,0,0,1.2,0c.4-.2.4-.4.1-.6l-.5-.2Zm-1.7.8.5.2a1.7,1.7,0,0,0,1.4,0c.5-.3.4-.5,0-.7l-.4-.2Z" transform="translate(-67.1 -41.1)"/><path class="cls-28" d="M440.2,262.8l3.3-1.6,1.3.6h-.2l-1.1-.5-1.2.6.7.3h-.2l-.7-.3-1.5.7,1.2.6h-.2Z" transform="translate(-67.1 -41.1)"/><path class="cls-28" d="M444.7,263.4l-1,1.1h-.3l1-1.1a.1.1,0,0,1-.1-.1l-.4-.2-1.6.8h-.2l3.3-1.6.7.3c.5.2.6.5,0,.8A1.8,1.8,0,0,1,444.7,263.4Zm-.7-.4.5.2a1.7,1.7,0,0,0,1.4,0c.5-.3.4-.5,0-.7l-.5-.2Z" transform="translate(-67.1 -41.1)"/><path class="cls-28" d="M429.8,261.9c-.6-.3-.4-.7.8-1.3a3.8,3.8,0,0,1,2.6-.4c.5.3.2.5,0,.7H433c.2-.1.3-.3,0-.5a2.8,2.8,0,0,0-2.2.4c-1,.5-1.3.9-.9,1.1h1.3A2.2,2.2,0,0,1,429.8,261.9Z" transform="translate(-67.1 -41.1)"/><path class="cls-28" d="M432.2,262.1l-1.1.4h-.2l4.2-1.2h.2l-2.6,2h-.2l.7-.6Zm1.2.4,1.5-1.2-2.4.8Z" transform="translate(-67.1 -41.1)"/><path class="cls-28" d="M435.9,263.2l-1.1,1.1h-.2l1-1.1h-.2l-.4-.2-1.5.7h-.2l3.3-1.6.7.3c.5.3.6.5,0,.9A2.3,2.3,0,0,1,435.9,263.2Zm-.7-.4.4.2a1.9,1.9,0,0,0,1.5,0c.5-.3.4-.5,0-.7l-.5-.2Z" transform="translate(-67.1 -41.1)"/><path class="cls-28" d="M435.4,264.6l3.3-1.7.6.3c.8.3.6.8-.6,1.3a2.9,2.9,0,0,1-2.8.3Zm.4,0h.4c.5.3,1.2.3,2.3-.3s1.2-.8.6-1.1l-.4-.2Z" transform="translate(-67.1 -41.1)"/><polygon class="cls-29" points="367.8 227.7 355 221.4 357.5 220.2 370.4 226.4 367.8 227.7"/><path class="cls-30" d="M425.5,262.5a.8.8,0,0,1,.1.4h.1v.4h-.2a.2.2,0,0,0,0-.3h0a.6.6,0,0,0-.1-.4Z" transform="translate(-67.1 -41.1)"/><path class="cls-30" d="M425.8,263.5l.6.2h1.3a2.4,2.4,0,0,1-1.2,0h-.7Zm1.1-.4v.3h-.1v-.3Z" transform="translate(-67.1 -41.1)"/><path class="cls-30" d="M428.5,263.8h-.1l-1.4.3h0a2.3,2.3,0,0,0,1.1-.2h.4Zm.5.3-.3.2c-.2.1-.2.2-.3.3v.2h-.2c0-.1.1-.2.2-.3l.4-.4h.2Zm.2,0v.2h0v-.2Zm.3,0v.2h-.1c.1,0,.1-.1.1-.2Z" transform="translate(-67.1 -41.1)"/><path class="cls-30" d="M429.1,264.6h.1l1,.5h.1c0-.1-.1-.1-.2-.1l-.9-.5h-.1Z" transform="translate(-67.1 -41.1)"/><path class="cls-30" d="M431.4,265.4h.2c-.1,0-.1,0-.1.1l.4.2h0l-.8.3h-.2c.1.1.1.1.3,0l.7-.3-.5-.2-.6.2h.5l-.3-.2h.4Z" transform="translate(-67.1 -41.1)"/><path class="cls-30" d="M432.1,266c0,.1,0,.1.1.1l1,.5h-.1l-1-.5h0Z" transform="translate(-67.1 -41.1)"/><path class="cls-30" d="M433.1,267.3h.2l1-.5h.1l-.3.2.4.5h-.2a.5.5,0,0,0-.3-.4h0l-.6.3h-.3Zm1.9-.4a.4.4,0,0,1-.1.3h-.1c.1,0,.1-.1.1-.2Zm.3.1v.2h-.1V267Z" transform="translate(-67.1 -41.1)"/><path class="cls-27" d="M434.6,282.6,413.2,272c-.6-.3-.6-.7,0-1l14.2-6.5a2.6,2.6,0,0,1,2.1,0l21.4,9.9c.6.3.7.8.1,1.1l-14.1,7.1A2.4,2.4,0,0,1,434.6,282.6Z" transform="translate(-67.1 -41.1)"/><path class="cls-28" d="M428,269.1l3.3-1.5h.2l-2,1.6,3.5-.9h.3l-3.3,1.6h-.2l2.8-1.4-3.7,1h0l2.1-1.8-2.9,1.4Z" transform="translate(-67.1 -41.1)"/><path class="cls-28" d="M430.6,270.4l3.3-1.6,1.3.6H435l-1.1-.5-1.2.6.7.3h-.2l-.7-.3-1.5.7,1.2.5H432Z" transform="translate(-67.1 -41.1)"/><path class="cls-28" d="M432.5,271.3l3.3-1.6h.2l-2,1.7,3.6-1h.2l-3.3,1.6h-.2l2.9-1.3-3.7,1h-.1l2.1-1.8-2.8,1.3Z" transform="translate(-67.1 -41.1)"/><path class="cls-28" d="M435.2,272.5l3.3-1.6.7.4c.4.2.5.4-.1.7a1.7,1.7,0,0,1-1.2.1c.2.1.4.4-.2.7a2.3,2.3,0,0,1-1.8.1Zm2.1-.8.4.2a1.3,1.3,0,0,0,1.2,0c.5-.2.4-.4.1-.6l-.5-.2Zm-1.7.9.5.2a1.4,1.4,0,0,0,1.4-.1c.5-.2.4-.5,0-.7l-.4-.2Z" transform="translate(-67.1 -41.1)"/><path class="cls-28" d="M437.3,273.5l3.3-1.6,1.3.7h-.1l-1.2-.5-1.2.6.7.4h-.2l-.7-.4-1.5.8,1.2.5h-.2Z" transform="translate(-67.1 -41.1)"/><path class="cls-28" d="M441.8,274.1l-1,1.1h-.2l1-1.1h-.2l-.4-.2-1.6.7h-.2l3.3-1.7.7.3c.5.3.6.6,0,.9A2.3,2.3,0,0,1,441.8,274.1Zm-.6-.4.4.2a1.7,1.7,0,0,0,1.4,0c.5-.3.4-.5,0-.7l-.5-.2Z" transform="translate(-67.1 -41.1)"/><path class="cls-28" d="M426.9,272.6c-.6-.3-.3-.7.8-1.2s2.1-.7,2.6-.4.2.5.1.6h-.3c.2-.2.3-.4,0-.6s-1.2,0-2.2.5-1.3.8-.8,1a1.4,1.4,0,0,0,1.1,0h.1A2.2,2.2,0,0,1,426.9,272.6Z" transform="translate(-67.1 -41.1)"/><path class="cls-28" d="M429.3,272.9l-1.1.3H428l4.2-1.2h.2l-2.6,2h-.2l.7-.6Zm1.2.3,1.5-1.1-2.4.7Z" transform="translate(-67.1 -41.1)"/><path class="cls-28" d="M433,273.9l-1.1,1.1h-.2l1-1h-.1l-.4-.2-1.6.8h-.2l3.3-1.7.7.4c.5.2.6.5,0,.8A1.7,1.7,0,0,1,433,273.9Zm-.7-.4.5.2a1.7,1.7,0,0,0,1.4,0c.5-.3.4-.5,0-.7l-.5-.2Z" transform="translate(-67.1 -41.1)"/><path class="cls-28" d="M432.5,275.3l3.3-1.7.6.3c.8.4.6.8-.5,1.4a3.6,3.6,0,0,1-2.8.3Zm.4,0,.4.2a2.5,2.5,0,0,0,2.3-.3c1.1-.5,1.2-.9.6-1.2l-.3-.2Z" transform="translate(-67.1 -41.1)"/><polygon class="cls-29" points="364.9 238.4 352.1 232.1 354.7 230.9 367.5 237.2 364.9 238.4"/><path class="cls-30" d="M422.6,273.3l.2.3h0v.3h-.1v-.3h0l-.2-.3Z" transform="translate(-67.1 -41.1)"/><path class="cls-30" d="M422.9,274.2a.8.8,0,0,0,.6.2,2.9,2.9,0,0,0,1.3,0h-1.2l-.7-.2h0Zm1.1-.4v.3h-.1v-.3Z" transform="translate(-67.1 -41.1)"/><path class="cls-30" d="M425.6,274.6h-.1a3.5,3.5,0,0,1-1.4.3h1.1c.1-.1.3-.1.3-.2h.1Zm.5.2-.3.2-.3.3v.2h-.1a.4.4,0,0,1,.1-.3c.1-.1.2-.3.4-.4h.2Zm.2,0v.2h-.1c0-.1,0-.1.1-.2Zm.3.1a.3.3,0,0,1-.1.2h-.1a.3.3,0,0,0,.1-.2Z" transform="translate(-67.1 -41.1)"/><path class="cls-30" d="M426.2,275.3h.1l1,.5c.1,0,.2,0,.2.1h-.2l-1-.5h-.1Z" transform="translate(-67.1 -41.1)"/><path class="cls-30" d="M428.5,276.2l.3-.2h.1c0,.1,0,.1-.2.1h-.1l.4.2c.1,0,.1,0,.1.1H429l-.7.3h-.4a.1.1,0,0,1-.1-.1h.5l.7-.2-.5-.3-.6.2h.5l-.3-.2h.1Z" transform="translate(-67.1 -41.1)"/><path class="cls-30" d="M429.2,276.8h.1l1,.5h.1a.1.1,0,0,0-.1-.1l-1-.5h-.1Z" transform="translate(-67.1 -41.1)"/><path class="cls-30" d="M430.2,278h.2l1-.5h-.2l.4.6h-.2a.5.5,0,0,0-.3-.5h0l-.6.3h-.3Zm1.9-.3a.3.3,0,0,1-.1.2h-.1a.3.3,0,0,0,.1-.2Zm.3,0a.3.3,0,0,1-.1.2h-.1c0-.1.1-.1.1-.2Z" transform="translate(-67.1 -41.1)"/><path class="cls-27" d="M348.5,273l-20.6,10.1a2.8,2.8,0,0,1-2.2,0l-14-6.8c-.5-.3-.5-.8.1-1l20.6-9.5a3.4,3.4,0,0,1,2,0l14,6.2C349,272.3,349,272.7,348.5,273Z" transform="translate(-67.1 -41.1)"/><path class="cls-28" d="M321.8,276l-3.3-1.6h.2l3.6.9-2-1.6h.2l3.3,1.5h-.2l-2.8-1.3,2,1.7h0l-3.7-1,2.9,1.4Z" transform="translate(-67.1 -41.1)"/><path class="cls-28" d="M324.5,274.7l-3.3-1.5,1.3-.6h.1l-1,.5,1.2.5.7-.3h.2l-.7.3,1.5.7,1.1-.5h.2Z" transform="translate(-67.1 -41.1)"/><path class="cls-28" d="M326.3,273.8l-3.3-1.5h.2l3.5.9-1.9-1.6h.2l3.2,1.5h-.1l-2.9-1.3,2.1,1.7h0l-3.7-1,2.8,1.4Z" transform="translate(-67.1 -41.1)"/><path class="cls-28" d="M328.9,272.6l-3.3-1.5.6-.3a2.2,2.2,0,0,1,1.6,0c.4.2.4.4.2.6a1.8,1.8,0,0,1,1.4.1c.7.3.6.6.1.8Zm-1.7-.9.4-.2c.4-.2.3-.4,0-.6a1.3,1.3,0,0,0-1.2,0l-.4.2Zm1.7.7.4-.2c.5-.2.4-.4-.1-.6a1.4,1.4,0,0,0-1.4,0l-.4.2Z" transform="translate(-67.1 -41.1)"/><path class="cls-28" d="M330.9,271.7l-3.3-1.5,1.2-.6h.2l-1,.5,1.2.6.7-.4h.2l-.7.3,1.5.7,1.1-.5h.2Z" transform="translate(-67.1 -41.1)"/><path class="cls-28" d="M332,269.7l2.1.5h-.2l-2.1-.5h-.1l-.4.2,1.5.7h-.2l-3.2-1.4.6-.3a1.8,1.8,0,0,1,1.6,0C332.1,269.3,332.2,269.5,332,269.7Zm-.9.3.4-.2c.4-.2.5-.4,0-.6a1.5,1.5,0,0,0-1.3,0l-.5.2Z" transform="translate(-67.1 -41.1)"/><path class="cls-28" d="M329.1,276.4a3.2,3.2,0,0,1-2.6-.3c-1.1-.6-1.4-1-.8-1.2s1-.1,1.3-.1h-1.1c-.5.2-.2.6.8,1.1a3.4,3.4,0,0,0,2.2.4c.3-.2.1-.4,0-.6h.2C329.3,275.9,329.6,276.2,329.1,276.4Z" transform="translate(-67.1 -41.1)"/><path class="cls-28" d="M329.6,275.3l.7.5h-.2l-2.5-1.9h.2l4.1,1.2h-.2l-1.2-.4Zm.7-.5-2.4-.7,1.5,1.1Z" transform="translate(-67.1 -41.1)"/><path class="cls-28" d="M331.7,273.6l2.2.5h-.2l-2.1-.5h-.2l-.4.2,1.6.7h-.2l-3.3-1.5.6-.3a2,2,0,0,1,1.7,0C331.9,273.2,331.9,273.4,331.7,273.6Zm-.8.3.3-.2q.8-.3,0-.6a1.5,1.5,0,0,0-1.3,0l-.4.2Z" transform="translate(-67.1 -41.1)"/><path class="cls-28" d="M334.4,273.9l-3.3-1.6.6-.2a2.8,2.8,0,0,1,2.6.3c1.2.5,1.3.9.6,1.2Zm0-.2.4-.2c.5-.2.4-.6-.7-1.1a2.8,2.8,0,0,0-2.3-.2h-.3Z" transform="translate(-67.1 -41.1)"/><polygon class="cls-29" points="275.6 233 263.3 238.9 260.8 237.8 273.1 231.8 275.6 233"/><path class="cls-30" d="M330.5,278.4h.7l-.2-.3a.1.1,0,0,0-.1-.1h.2l.2.4h0a.4.4,0,0,1,.1.3c0,.1-.1.2-.1.3h-.1c0-.1.1-.2.1-.3a.4.4,0,0,0-.1-.3h-.7Z" transform="translate(-67.1 -41.1)"/><path class="cls-30" d="M331.5,277.8h0Zm1,.5.3-.3c.2-.2.1-.4-.1-.6h.1a.5.5,0,0,1,.1.6q0,.2-.3.3h-.1Z" transform="translate(-67.1 -41.1)"/><path class="cls-30" d="M333.7,276.6h0Zm-.1.1h0Zm-.1.1h.5l.6.2h-.2l-.8-.2Zm-.4.2h.1q.6.3.6.6h-.1c0-.1-.1-.3-.4-.5l-.3-.2h.1Z" transform="translate(-67.1 -41.1)"/><path class="cls-30" d="M334.6,276.7h.2l.9-.5h.1l-1,.5a.1.1,0,0,0-.1.1Z" transform="translate(-67.1 -41.1)"/><path class="cls-30" d="M336.2,275.7H336a.1.1,0,0,0-.1-.1h.4l.4-.2h.3l.6.4h-.1c0,.1-.1.1-.2.1h.2c.1,0,0-.1-.1-.2l-.6-.3-.4.3q.3.2.3.3a.4.4,0,0,1,.1.3h-.1a.8.8,0,0,0-.1-.4l-.3-.2h-.1Z" transform="translate(-67.1 -41.1)"/><path class="cls-30" d="M337.4,275.4h.2l.9-.5h.1l-.9.4h-.3Z" transform="translate(-67.1 -41.1)"/><path class="cls-30" d="M339.2,273.9h0Zm.6,1h-.1l-1-.4h-.1a.1.1,0,0,0,.1.1l.4.2,1-.2h0l-.9.2h-.1l.6.3h.1Zm-.7-.9h0Z" transform="translate(-67.1 -41.1)"/><path class="cls-27" d="M322.8,274l-20.6,10.1a2.6,2.6,0,0,1-2.1,0l-14-6.8c-.6-.3-.6-.7,0-1l20.6-9.4a2.3,2.3,0,0,1,2,0l14,6.2C323.3,273.3,323.4,273.8,322.8,274Z" transform="translate(-67.1 -41.1)"/><path class="cls-28" d="M296.1,277l-3.3-1.5h.3l3.5.9-2-1.7h.2l3.3,1.6h-.2l-2.8-1.4,2.1,1.8h0l-3.7-1,2.8,1.3Z" transform="translate(-67.1 -41.1)"/><path class="cls-28" d="M298.8,275.8l-3.3-1.6,1.3-.6h.2l-1.1.5,1.2.6.7-.3h.2l-.7.3,1.5.7,1.1-.5h.2Z" transform="translate(-67.1 -41.1)"/><path class="cls-28" d="M300.6,274.9l-3.3-1.5h.2l3.6.9-2-1.6h.2l3.3,1.5h-.2l-2.8-1.3,2,1.7h0l-3.6-1,2.8,1.3Z" transform="translate(-67.1 -41.1)"/><path class="cls-28" d="M303.2,273.7l-3.3-1.5.7-.3a1.9,1.9,0,0,1,1.5,0c.4.2.4.4.2.6a1.8,1.8,0,0,1,1.4.1c.7.3.6.6.1.8Zm-1.6-1h.4c.3-.2.3-.4-.1-.6a1.3,1.3,0,0,0-1.2,0l-.4.2Zm1.6.8.5-.2c.4-.2.4-.4-.1-.6a1.4,1.4,0,0,0-1.4-.1l-.5.2Z" transform="translate(-67.1 -41.1)"/><path class="cls-28" d="M305.2,272.8l-3.3-1.5,1.3-.6h.2l-1.1.5,1.2.5.7-.3h.2l-.7.3,1.5.7,1.1-.5h.2Z" transform="translate(-67.1 -41.1)"/><path class="cls-28" d="M306.3,270.8l2.1.4h-.2l-2.1-.4a.1.1,0,0,0-.1.1h-.4l1.6.7H307l-3.3-1.5.6-.2a1.7,1.7,0,0,1,1.7,0C306.5,270.4,306.5,270.6,306.3,270.8Zm-.9.3.4-.2q.8-.3,0-.6a1.5,1.5,0,0,0-1.3-.1l-.4.2Z" transform="translate(-67.1 -41.1)"/><path class="cls-28" d="M303.4,277.5c-.5.3-1.4.2-2.6-.4s-1.3-.9-.8-1.2a2.2,2.2,0,0,1,1.4,0h-.1a2,2,0,0,0-1.1,0c-.4.2-.2.6.8,1a2.8,2.8,0,0,0,2.2.4c.4-.1.2-.3,0-.5h.3C303.6,277,303.9,277.3,303.4,277.5Z" transform="translate(-67.1 -41.1)"/><path class="cls-28" d="M303.9,276.4l.7.5h-.2l-2.5-1.9h.2l4.1,1.1H306l-1.1-.3Zm.7-.6-2.4-.7,1.6,1.2Z" transform="translate(-67.1 -41.1)"/><path class="cls-28" d="M306,274.7l2.2.5H308l-2.1-.5h-.2l-.3.2,1.5.7h-.2l-3.3-1.5.6-.3a1.7,1.7,0,0,1,1.7,0Q306.5,274.4,306,274.7Zm-.8.3.4-.2c.4-.2.4-.4-.1-.6a1.5,1.5,0,0,0-1.3-.1l-.4.2Z" transform="translate(-67.1 -41.1)"/><path class="cls-28" d="M308.7,274.9l-3.3-1.5.6-.3a3.1,3.1,0,0,1,2.6.3c1.2.6,1.3,1,.7,1.3Zm0-.1.4-.2c.5-.3.4-.6-.7-1.1a2.6,2.6,0,0,0-2.2-.3l-.4.2Z" transform="translate(-67.1 -41.1)"/><polygon class="cls-29" points="250 234 237.7 240 235.2 238.8 247.4 232.9 250 234"/><path class="cls-30" d="M304.8,279.5h.7l-.2-.2h.1l.2.3h.1v.3a.4.4,0,0,1-.1.3h-.1c.1-.1.1-.2.1-.4v-.2h-.8Z" transform="translate(-67.1 -41.1)"/><path class="cls-30" d="M305.9,278.9h0Zm.9.5.3-.3c.2-.2.1-.4-.1-.7h.2c.1.3.2.4.1.6l-.4.4h-.1Z" transform="translate(-67.1 -41.1)"/><path class="cls-30" d="M308,277.6h0Zm-.1.1h0Zm0,.2h.8l-.8-.2h0Zm-.4.2h0c.4.3.6.5.6.7H308c0-.2-.1-.3-.4-.5l-.2-.2h.1Z" transform="translate(-67.1 -41.1)"/><path class="cls-30" d="M308.9,277.8h.2l.9-.4h.1l-.9.5h-.3Z" transform="translate(-67.1 -41.1)"/><path class="cls-30" d="M310.6,276.7h0l.4-.2h.3l.6.3c.1.1.1.2,0,.2h-.1c.1-.1.1-.1-.1-.2l-.5-.3-.5.2.4.3v.4H311c.1-.1,0-.3-.1-.4s-.1-.1-.3-.2h-.3a.1.1,0,0,1-.1.1h.1Z" transform="translate(-67.1 -41.1)"/><path class="cls-30" d="M311.8,276.4h.1l1-.5h0l-.9.5a.1.1,0,0,0-.1.1Z" transform="translate(-67.1 -41.1)"/><path class="cls-30" d="M313.5,275h0Zm.6,1c0-.1,0-.1-.1-.1l-1-.5h.5c0,.1,0,.1-.1.1h0l.7.2h0Zm-.7-.9h0Z" transform="translate(-67.1 -41.1)"/><path class="cls-27" d="M313.3,283.7l28.4,6.6c.8.2,1.2.7.9,1.1l-8.7,10.2a2,2,0,0,1-2.2.4l-29.5-7.2c-.8-.2-1.1-.7-.7-1.1l9.7-9.6A2.8,2.8,0,0,1,313.3,283.7Z" transform="translate(-67.1 -41.1)"/><path class="cls-28" d="M329.3,296.3l-2.1,2.4h-.3l.7-2.3-2.9,1.8h-.3l2.1-2.4h.3l-1.9,2,3.1-1.8h0l-.8,2.4,1.9-2.1Z" transform="translate(-67.1 -41.1)"/><path class="cls-28" d="M325.6,295.4l-2.2,2.4-1.8-.5h.1l1.6.4.8-.9-1-.3h.1l1,.2,1-1.1-1.6-.4h.1Z" transform="translate(-67.1 -41.1)"/><path class="cls-28" d="M323,294.7l-2.2,2.4h-.3l.8-2.3-3,1.7H318l2.3-2.4h.2l-1.9,2.1,3.1-1.8h0l-.8,2.4,1.9-2.1Z" transform="translate(-67.1 -41.1)"/><path class="cls-28" d="M319.3,293.9l-2.2,2.3-.9-.2c-.6-.1-.8-.4-.5-.8a1.7,1.7,0,0,1,1.2-.4c-.3-.1-.7-.3-.3-.8a2.2,2.2,0,0,1,1.8-.4Zm-.4,0h-.6a1.2,1.2,0,0,0-1.4.3c-.4.4-.1.6.4.8h.6Zm-1.1,1.2h-.6a1.2,1.2,0,0,0-1.2.3c-.3.3-.1.5.4.6h.6Z" transform="translate(-67.1 -41.1)"/><path class="cls-28" d="M316.5,293.2l-2.2,2.3-1.8-.4h.1l1.5.3.9-.9-1-.2h.1l1,.2,1-1.1-1.6-.3.2-.2Z" transform="translate(-67.1 -41.1)"/><path class="cls-28" d="M311.6,293.4l.3-1.3h.3l-.3,1.3h.8l1-1.1h.3l-2.3,2.3-.9-.2c-.6-.2-1-.4-.5-.9A1.8,1.8,0,0,1,311.6,293.4Zm.9.3H312c-.6-.1-1.1-.1-1.4.3s-.2.5.4.7h.6Z" transform="translate(-67.1 -41.1)"/><path class="cls-28" d="M327.6,292.2c.8.2.9.7.2,1.5a2.7,2.7,0,0,1-2.3,1c-.7-.2-.6-.6-.6-.8h.3c0,.3-.1.5.4.6a1.8,1.8,0,0,0,1.9-.8c.6-.7.6-1.2,0-1.3a1.1,1.1,0,0,0-1.1.2h-.2A2,2,0,0,1,327.6,292.2Z" transform="translate(-67.1 -41.1)"/><path class="cls-28" d="M325,292.4l.9-.6h.2l-3.2,2.1h-.3l1.1-2.6h.2l-.3.7Zm-1.4-.2-.7,1.6,1.9-1.3Z" transform="translate(-67.1 -41.1)"/><path class="cls-28" d="M320.6,292l.3-1.3h.3l-.3,1.3h.2l.5.2,1.1-1.1h.2l-2.1,2.4-.9-.2c-.7-.2-1.1-.5-.6-.9A1.2,1.2,0,0,1,320.6,292Zm.9.3H321a1.3,1.3,0,0,0-1.4.2c-.4.4-.2.6.4.7l.6.2Z" transform="translate(-67.1 -41.1)"/><path class="cls-28" d="M320.1,290.5l-2.2,2.3-.8-.2c-.9-.2-1.1-.7-.3-1.5a2.6,2.6,0,0,1,2.6-.8Zm-.4,0h-.5a2,2,0,0,0-2.1.8c-.7.7-.6,1.1.2,1.3h.5Z" transform="translate(-67.1 -41.1)"/><polygon class="cls-29" points="250.6 245.1 267.6 249.1 266.1 250.8 248.9 246.7 250.6 245.1"/><path class="cls-30" d="M331.3,290.7l-.4-.3-.5.2h-.2l.7-.2-.3-.4h.1q0,.2.3.3h0l.4.3Z" transform="translate(-67.1 -41.1)"/><path class="cls-30" d="M330.3,289.8h-.7a2.7,2.7,0,0,0-1.3.2h-.1a2.7,2.7,0,0,1,1.2-.3h.9Zm-.7.7c-.2-.2-.3-.2-.3-.4h.1l.3.3Z" transform="translate(-67.1 -41.1)"/><path class="cls-30" d="M326.7,289.8c.1,0,.1-.2.2-.3V289h.1a.4.4,0,0,1,.1.3.9.9,0,0,1-.1.5h-.2Zm-.5,0c-.1,0-.1-.1-.1-.2h.1c0,.1,0,.2.1.2Zm.3,0c-.1,0-.1-.1-.1-.2h.1c0,.1,0,.2.1.2Zm.8.2h.1a2.1,2.1,0,0,1,1.2-.5h.1l-1,.4c-.1.1-.2.1-.2.2h-.2Z" transform="translate(-67.1 -41.1)"/><path class="cls-30" d="M326.2,289.3H326l-1.3-.4h.1l1.3.3h.1Z" transform="translate(-67.1 -41.1)"/><path class="cls-30" d="M323.4,288.9H323l.2-.2h-.6l.5-.4h.3c-.1-.1-.1,0-.3.1s-.3.2-.4.4h.6l.5-.3h.8l-.8.2-.4.2h0Z" transform="translate(-67.1 -41.1)"/><path class="cls-30" d="M322.3,288.4h-.2l-1.3-.3h0l1.3.3h.2Z" transform="translate(-67.1 -41.1)"/><path class="cls-30" d="M320.4,287.4a.1.1,0,0,0-.1.1l-.6.6h-.1v-.2l-.7-.4h.1l.6.4h.1l.4-.5h.2Zm-1.9.6v-.2h.1v.2Zm.3,0v-.2h.1v.2Z" transform="translate(-67.1 -41.1)"/><path class="cls-27" d="M249.2,273.5l22.7,11.3c.7.4.7.9.1,1.3l-15.2,8.2a3.6,3.6,0,0,1-2.5,0l-22.7-12.2c-.6-.3-.5-.9.1-1.2l15.3-7.4A2.8,2.8,0,0,1,249.2,273.5Z" transform="translate(-67.1 -41.1)"/><path class="cls-28" d="M256,288.3l-3.7,1.9h-.2l2.2-2.1-4,1.2h-.2l3.7-1.9h.2l-3.2,1.6,4.1-1.2h.1l-2.4,2.2,3.2-1.7Z" transform="translate(-67.1 -41.1)"/><path class="cls-28" d="M253,286.8l-3.6,1.9-1.4-.8h.2l1.2.7,1.4-.8-.8-.4h.2l.8.4,1.6-.8-1.2-.7h.2Z" transform="translate(-67.1 -41.1)"/><path class="cls-28" d="M251,285.7l-3.6,1.9h-.3l2.3-2.1-4,1.2h-.2l3.7-1.9h.2l-3.2,1.6,4.1-1.2h0l-2.3,2.2,3.1-1.7Z" transform="translate(-67.1 -41.1)"/><path class="cls-28" d="M248.1,284.2l-3.6,1.9-.7-.4c-.5-.2-.5-.6.1-.9a2,2,0,0,1,1.3-.1c-.2-.1-.4-.4.3-.8a2.1,2.1,0,0,1,1.9-.1Zm-.4,0-.5-.3a1.6,1.6,0,0,0-1.5.1c-.6.3-.5.6-.1.8l.5.2Zm-1.8,1-.5-.3a1.5,1.5,0,0,0-1.3,0c-.5.3-.5.5-.1.7l.5.3Z" transform="translate(-67.1 -41.1)"/><path class="cls-28" d="M246,283.1l-3.7,1.8-1.4-.7h.2l1.2.6,1.4-.7-.8-.4h.2l.8.4,1.6-.8-1.2-.7h.2Z" transform="translate(-67.1 -41.1)"/><path class="cls-28" d="M241.2,282.4l1.2-1.2h.2l-1.1,1.2h.2l.4.2,1.7-.9h.2l-3.7,1.9-.6-.4c-.6-.3-.7-.6,0-.9A2.1,2.1,0,0,1,241.2,282.4Zm.7.5-.5-.2a1.4,1.4,0,0,0-1.5,0c-.5.3-.5.5,0,.7l.4.3Z" transform="translate(-67.1 -41.1)"/><path class="cls-28" d="M257.1,284.1c.6.3.4.8-.9,1.5s-2.2.8-2.8.5-.2-.6,0-.8h.2c-.2.2-.3.5,0,.7a3.5,3.5,0,0,0,2.4-.5c1.1-.6,1.4-1,.9-1.3h-1.3A2.5,2.5,0,0,1,257.1,284.1Z" transform="translate(-67.1 -41.1)"/><path class="cls-28" d="M254.4,283.8l1.3-.4.2.2-4.5,1.4h-.2l2.7-2.3h.2l-.7.6Zm-1.2-.4-1.6,1.4,2.6-.9Z" transform="translate(-67.1 -41.1)"/><path class="cls-28" d="M250.6,282.6l1.1-1.2h.3l-1.1,1.2h.1l.4.2,1.7-.9.2.2-3.6,1.8-.7-.4c-.5-.2-.6-.6.1-.9A2,2,0,0,1,250.6,282.6Zm.7.5-.5-.2a1.4,1.4,0,0,0-1.5,0c-.6.3-.5.5,0,.7l.4.3Z" transform="translate(-67.1 -41.1)"/><path class="cls-28" d="M251.1,281.1l-3.6,1.8-.6-.3c-.7-.4-.5-.8.7-1.4s2.2-.8,2.9-.4Zm-.4,0-.4-.2c-.6-.3-1.3-.2-2.5.4s-1.3.9-.7,1.2l.4.2Z" transform="translate(-67.1 -41.1)"/><polygon class="cls-29" points="184.6 235.5 198.2 242.3 195.5 243.7 182 236.8 184.6 235.5"/><path class="cls-30" d="M261.6,283.4l-.2-.4h0v-.4h.1v.4h.1c0,.1.1.3.1.4Z" transform="translate(-67.1 -41.1)"/><path class="cls-30" d="M261.3,282.3l-.7-.2a3.3,3.3,0,0,0-1.4,0h1.3l.8.2h0Zm-1.2.5v-.4h.1a.6.6,0,0,0,.1.4Z" transform="translate(-67.1 -41.1)"/><path class="cls-30" d="M257.3,281.6a.3.3,0,0,1,.1-.2h.1c0,.1-.1.1-.1.2Zm.6.1.3-.3.2-.3a.3.3,0,0,0,.1-.2h.1a.4.4,0,0,1-.1.3,1,1,0,0,1-.5.4h-.1Zm-.3-.1a.3.3,0,0,1,.1-.2h.1a.3.3,0,0,0-.1.2Zm.7.3h.2a2.7,2.7,0,0,1,1.5-.3h0l-1.2.2h-.5Z" transform="translate(-67.1 -41.1)"/><path class="cls-30" d="M257.7,281.1a.1.1,0,0,0-.1-.1l-1.1-.5h.1l1,.6h.1Z" transform="translate(-67.1 -41.1)"/><path class="cls-30" d="M255.3,280.2h-.1l-.4-.2h0l.7-.4h0l-.7.3.5.3.6-.2h.9a1.4,1.4,0,0,0-.9,0h-.5l.3.2h-.4Z" transform="translate(-67.1 -41.1)"/><path class="cls-30" d="M254.6,279.5h-.2l-1-.5h.1l1,.6h.1Z" transform="translate(-67.1 -41.1)"/><path class="cls-30" d="M251.3,278.5c0-.1,0-.1.1-.2h.1c-.1.1-.1.1-.1.2Zm2.2-.3h-.2l-1,.5h-.1l.3-.2-.4-.6h.2a.5.5,0,0,0,.3.5h0l.6-.4h.3Zm-1.9.3a.3.3,0,0,1,.1-.2h.1a.4.4,0,0,0-.1.3Z" transform="translate(-67.1 -41.1)"/></g><g class="cls-31"><polygon class="cls-32" points="294.1 221.9 294.1 221.1 294.1 221.1 294.1 221.9 294.1 221.9"/><path class="cls-32" d="M361.2,262.2v.9h0v-.8Z" transform="translate(-67.1 -41.1)"/><path class="cls-32" d="M361.2,262.3v.8h0v-.9Z" transform="translate(-67.1 -41.1)"/><path class="cls-32" d="M361.2,262.3v.9h0v-.8Z" transform="translate(-67.1 -41.1)"/><path class="cls-32" d="M361.2,262.4v.8h0v-.9Z" transform="translate(-67.1 -41.1)"/><path class="cls-32" d="M367,263.3a1.5,1.5,0,0,0-1-.3v-.8l1.1.2Z" transform="translate(-67.1 -41.1)"/><path class="cls-32" d="M361.2,262.4v.8h0v-.8Z" transform="translate(-67.1 -41.1)"/><path class="cls-32" d="M361.2,262.5v.8h0v-.8Z" transform="translate(-67.1 -41.1)"/><path class="cls-32" d="M361.2,262.5v.8h0v-.8Z" transform="translate(-67.1 -41.1)"/><path class="cls-32" d="M361.2,262.6v.8h0v-.8Z" transform="translate(-67.1 -41.1)"/><path class="cls-32" d="M361.2,262.6v.8h0v-.8Z" transform="translate(-67.1 -41.1)"/><path class="cls-32" d="M361.2,262.7v.8h0v-.8Z" transform="translate(-67.1 -41.1)"/><path class="cls-32" d="M361.2,262.7v.8h0v-.8Z" transform="translate(-67.1 -41.1)"/><path class="cls-32" d="M361.2,262.8v.8h0v-.8Z" transform="translate(-67.1 -41.1)"/><path class="cls-32" d="M361.2,262.8v.9h0v-.8Z" transform="translate(-67.1 -41.1)"/><path class="cls-32" d="M361.2,262.9v.8h0v-.9Z" transform="translate(-67.1 -41.1)"/><path class="cls-32" d="M366,263c-.8,0-1.5.4-1.6.8V263c.1-.4.8-.8,1.6-.8Z" transform="translate(-67.1 -41.1)"/><path class="cls-32" d="M367.5,263.9a.6.6,0,0,0-.5-.6v-.9c.2.2.4.4.4.6Z" transform="translate(-67.1 -41.1)"/><polygon class="cls-30" points="300.4 221.9 300.4 222.8 300.3 224.6 300.3 223.7 300.4 221.9"/><path class="cls-30" d="M367.5,263v.9h0v-.8Z" transform="translate(-67.1 -41.1)"/><path class="cls-32" d="M361.2,263.1v0Z" transform="translate(-67.1 -41.1)"/><path class="cls-30" d="M364.4,263.9v-.8a.7.7,0,0,0,.4.6,2,2,0,0,0,1.1.3c.9,0,1.6-.4,1.6-.9v.8c0,.5-.7.9-1.6.9a2,2,0,0,1-1.1-.3A.7.7,0,0,1,364.4,263.9Z" transform="translate(-67.1 -41.1)"/><path class="cls-32" d="M364.4,263.8h0v-.8h0Z" transform="translate(-67.1 -41.1)"/><path class="cls-32" d="M361.2,263.1v.8h0v-.8Z" transform="translate(-67.1 -41.1)"/><polygon class="cls-30" points="297.3 222 297.3 222.8 297.2 224.6 297.2 223.8 297.3 222"/><path class="cls-32" d="M364.4,263.9c-.8,0-1.6.4-1.6.9V264c.1-.5.8-.9,1.6-.9Z" transform="translate(-67.1 -41.1)"/><path class="cls-30" d="M364.4,263.9h0v-.8h0Z" transform="translate(-67.1 -41.1)"/><path class="cls-32" d="M361.3,263.2v.8h-.1v-.8Z" transform="translate(-67.1 -41.1)"/><path class="cls-32" d="M361.3,263.2v.8h0v-.8Z" transform="translate(-67.1 -41.1)"/><path class="cls-32" d="M361.3,263.3v.8h0v-.8Z" transform="translate(-67.1 -41.1)"/><path class="cls-32" d="M361.3,263.3v.9h0v-.8Z" transform="translate(-67.1 -41.1)"/><path class="cls-32" d="M361.3,263.4v.8h0v-.9Z" transform="translate(-67.1 -41.1)"/><path class="cls-32" d="M361.3,263.4v.9h0v-.8Z" transform="translate(-67.1 -41.1)"/><path class="cls-32" d="M361.3,263.5v.8h0v-.9Z" transform="translate(-67.1 -41.1)"/><path class="cls-32" d="M361.3,263.6v.8h0v-.8Z" transform="translate(-67.1 -41.1)"/><path class="cls-32" d="M361.3,263.6v.8h0v-.8Z" transform="translate(-67.1 -41.1)"/><path class="cls-32" d="M361.4,263.7v.8h-.1v-.8Z" transform="translate(-67.1 -41.1)"/><path class="cls-32" d="M361.4,263.7v.9h0v-.8Z" transform="translate(-67.1 -41.1)"/><path class="cls-32" d="M361.4,263.8v.8h0v-.9Z" transform="translate(-67.1 -41.1)"/><path class="cls-32" d="M361.4,263.9v.8h0v-.8Z" transform="translate(-67.1 -41.1)"/><path class="cls-32" d="M361.4,263.9v.8h0v-.8Z" transform="translate(-67.1 -41.1)"/><path class="cls-30" d="M367.1,262.4a1,1,0,0,1,.4.7c0,.5-.7.9-1.6.9a2,2,0,0,1-1.1-.3.8.8,0,0,1-.4-.6c0-.5.7-.9,1.6-.9Z" transform="translate(-67.1 -41.1)"/><path class="cls-32" d="M361.4,264v.8h0v-.8Z" transform="translate(-67.1 -41.1)"/><path class="cls-32" d="M362.8,264.8h0V264h0Z" transform="translate(-67.1 -41.1)"/><path class="cls-32" d="M361.5,264v.8h-.1V264Z" transform="translate(-67.1 -41.1)"/><path class="cls-32" d="M361.5,264.1v.8h0V264Z" transform="translate(-67.1 -41.1)"/><path class="cls-32" d="M361.5,264.1v.9h0v-.8Z" transform="translate(-67.1 -41.1)"/><path class="cls-32" d="M361.5,264.2v.8h0v-.9Z" transform="translate(-67.1 -41.1)"/><path class="cls-32" d="M361.5,264.3v.8h0v-.8Z" transform="translate(-67.1 -41.1)"/><path class="cls-32" d="M361.5,264.3v.8h0v-.8Z" transform="translate(-67.1 -41.1)"/><path class="cls-32" d="M361.6,264.4v.8h-.1v-.8Z" transform="translate(-67.1 -41.1)"/><path class="cls-32" d="M361.6,264.4v.9h0v-.8Z" transform="translate(-67.1 -41.1)"/><path class="cls-32" d="M361.6,264.5v.8h0v-.9Z" transform="translate(-67.1 -41.1)"/><path class="cls-32" d="M361.6,264.6v.8h0v-.8Z" transform="translate(-67.1 -41.1)"/><path class="cls-32" d="M361.7,264.6v.8h-.1v-.8Z" transform="translate(-67.1 -41.1)"/><path class="cls-32" d="M361.7,264.7v.8h0v-.8Z" transform="translate(-67.1 -41.1)"/><path class="cls-32" d="M361.7,264.7v.8h0v-.8Z" transform="translate(-67.1 -41.1)"/><path class="cls-32" d="M361.7,264.8v.8h0v-.8Z" transform="translate(-67.1 -41.1)"/><path class="cls-32" d="M361.7,264.8v.9h0v-.8Z" transform="translate(-67.1 -41.1)"/><polygon class="cls-30" points="300.3 223.7 300.3 224.6 297.2 224.6 297.2 223.8 300.3 223.7"/><path class="cls-30" d="M367.5,263.1v1.8h-3.1v-1.8a.8.8,0,0,0,.4.6,2,2,0,0,0,1.1.3C366.8,264,367.5,263.6,367.5,263.1Z" transform="translate(-67.1 -41.1)"/><path class="cls-30" d="M362.8,264.8V264a.6.6,0,0,0,.5.6,1.5,1.5,0,0,0,1,.3v.8l-1-.2C363,265.3,362.8,265.1,362.8,264.8Z" transform="translate(-67.1 -41.1)"/><path class="cls-32" d="M371.3,262.7c1.5,1.2-5.5,5.3-7.6,4.4a.1.1,0,0,1-.1-.1h-1.5a.3.3,0,0,0-.1-.2h-.8v-.2H371a.1.1,0,0,1,.1.1h.2Zm-7,2.2h3.1v-1.8a1,1,0,0,0-.4-.7l-1.1-.2c-.9,0-1.6.4-1.6.9s-1.5.4-1.6.9a.6.6,0,0,0,.5.6,1.5,1.5,0,0,0,1,.3" transform="translate(-67.1 -41.1)"/><path class="cls-30" d="M362.8,264c.1-.5.8-.9,1.6-.9v1.8a1.5,1.5,0,0,1-1-.3A.6.6,0,0,1,362.8,264Z" transform="translate(-67.1 -41.1)"/><path class="cls-32" d="M361.8,264.9v.8h-.1v-.9Z" transform="translate(-67.1 -41.1)"/><path class="cls-32" d="M361.8,265v.8h0v-.8Z" transform="translate(-67.1 -41.1)"/><path class="cls-32" d="M361.8,265v.8h0V265Z" transform="translate(-67.1 -41.1)"/><path class="cls-32" d="M361.8,265.1v.8h0V265Z" transform="translate(-67.1 -41.1)"/><path class="cls-32" d="M361.9,265.1v.9h-.1v-.8Z" transform="translate(-67.1 -41.1)"/><path class="cls-32" d="M361.9,265.2v.8h0v-.9Z" transform="translate(-67.1 -41.1)"/><path class="cls-32" d="M361.9,265.3v.8h0v-.8Z" transform="translate(-67.1 -41.1)"/><path class="cls-32" d="M362,265.3v.8h-.1v-.8Z" transform="translate(-67.1 -41.1)"/><path class="cls-32" d="M362,265.4v.8h0v-.8Z" transform="translate(-67.1 -41.1)"/><path class="cls-32" d="M362,265.4v.8h0v-.8Z" transform="translate(-67.1 -41.1)"/><path class="cls-32" d="M362.2,265.6v.9h-.1v-1a.3.3,0,0,1,.1.2Z" transform="translate(-67.1 -41.1)"/><path class="cls-32" d="M362.2,265.7v.8h0v-.9Z" transform="translate(-67.1 -41.1)"/><path class="cls-32" d="M362.2,265.8v.8h0v-.8Z" transform="translate(-67.1 -41.1)"/><path class="cls-32" d="M362.3,265.8v.8h-.1v-.8Z" transform="translate(-67.1 -41.1)"/><path class="cls-32" d="M362.3,265.9v.8h0v-.8Z" transform="translate(-67.1 -41.1)"/><path class="cls-32" d="M362.3,265.9v.8h0v-.8Z" transform="translate(-67.1 -41.1)"/><path class="cls-32" d="M362.4,266v.8h-.1v-.8Z" transform="translate(-67.1 -41.1)"/><path class="cls-32" d="M362.4,266v.8h0V266Z" transform="translate(-67.1 -41.1)"/><path class="cls-32" d="M362.4,266.1v.8h0V266Z" transform="translate(-67.1 -41.1)"/><path class="cls-32" d="M362.5,266.1v.8h-.1v-.8Z" transform="translate(-67.1 -41.1)"/><path class="cls-32" d="M362.5,266.2v.8h0v-.8Z" transform="translate(-67.1 -41.1)"/><path class="cls-32" d="M362.6,266.2v.8h-.1v-.8Z" transform="translate(-67.1 -41.1)"/><path class="cls-32" d="M362.6,266.3v.8h0v-.8Z" transform="translate(-67.1 -41.1)"/><path class="cls-32" d="M362.6,266.3v.8h0v-.8Z" transform="translate(-67.1 -41.1)"/><path class="cls-32" d="M362.7,266.3v.9h-.1v-.8Z" transform="translate(-67.1 -41.1)"/><path class="cls-32" d="M362.7,266.4v.8h0v-.9Z" transform="translate(-67.1 -41.1)"/><path class="cls-32" d="M362.8,266.4v.8h-.1v-.8Z" transform="translate(-67.1 -41.1)"/><path class="cls-32" d="M362.8,266.5v.8h0v-.8Z" transform="translate(-67.1 -41.1)"/><path class="cls-32" d="M362.8,266.5v.8h0v-.8Z" transform="translate(-67.1 -41.1)"/><path class="cls-32" d="M362.9,266.6v.8h-.1v-.8Z" transform="translate(-67.1 -41.1)"/><path class="cls-32" d="M362.9,266.6v.8h0v-.8Z" transform="translate(-67.1 -41.1)"/><path class="cls-32" d="M363,266.6v.9h-.1v-.8Z" transform="translate(-67.1 -41.1)"/><path class="cls-32" d="M363,266.7v.8h0v-.9Z" transform="translate(-67.1 -41.1)"/><path class="cls-32" d="M363.1,266.7v.8H363v-.8Z" transform="translate(-67.1 -41.1)"/><path class="cls-32" d="M363.1,266.7v.9h0v-.8Z" transform="translate(-67.1 -41.1)"/><path class="cls-32" d="M363.2,266.8v.8h-.1v-.9Z" transform="translate(-67.1 -41.1)"/><path class="cls-32" d="M363.2,266.8v.8h0v-.8Z" transform="translate(-67.1 -41.1)"/><path class="cls-32" d="M363.3,266.8v.9h-.1v-.8Z" transform="translate(-67.1 -41.1)"/><path class="cls-32" d="M363.3,266.9v.8h0v-.9Z" transform="translate(-67.1 -41.1)"/><path class="cls-32" d="M363.4,266.9v.8h0v-.8Z" transform="translate(-67.1 -41.1)"/><path class="cls-32" d="M363.4,266.9v.8h-.1v-.8Z" transform="translate(-67.1 -41.1)"/><path class="cls-32" d="M363.7,267.1v.8h-.2c-.1,0-.1,0-.1-.1v-.8h.2A.1.1,0,0,0,363.7,267.1Z" transform="translate(-67.1 -41.1)"/><path class="cls-32" d="M371.5,263.1v.8c0,1.6-5.9,4.8-7.8,4v-.8C365.6,267.9,371.5,264.7,371.5,263.1Z" transform="translate(-67.1 -41.1)"/></g><g class="cls-31"><path class="cls-28" d="M388.5,268.1v.8c0-.1,0-.2-.2-.2h-.4q-.6,0-.6.3v-.8c0-.2.2-.4.6-.4h.4C388.5,267.9,388.5,268,388.5,268.1Z" transform="translate(-67.1 -41.1)"/><polygon class="cls-28" points="323.1 227.9 323.1 228.8 321.4 228.8 321.4 227.9 323.1 227.9"/><polygon class="cls-28" points="321.4 227.9 321.4 228.8 321.4 227.8 321.4 227 321.4 227.9"/><polygon class="cls-30" points="320.2 227.9 320.2 228.8 320.2 227.8 320.2 227 320.2 227.9"/><polygon class="cls-30" points="321.4 227.9 321.4 228.8 320.2 228.8 320.2 227.9 321.4 227.9"/><path class="cls-30" d="M387.3,269.1v-1c0-.2.2-.4.6-.4h.4c.2.1.2.2.2.3v1Z" transform="translate(-67.1 -41.1)"/><polygon class="cls-28" points="320.2 227.9 320.2 228.8 318.5 228.8 318.5 227.9 320.2 227.9"/><path class="cls-28" d="M390.6,270h-.4v-.8h.4Z" transform="translate(-67.1 -41.1)"/><path class="cls-28" d="M382.2,269.5v-.9a2.5,2.5,0,0,0,.2.7h0v.8h0A3.9,3.9,0,0,1,382.2,269.5Z" transform="translate(-67.1 -41.1)"/><path class="cls-28" d="M390.8,270.2l-.2-.2v-.8l.2.2Z" transform="translate(-67.1 -41.1)"/><path class="cls-28" d="M385.6,269.1v.8c-.3,0-.6.1-.6.3v-.8C385,269.2,385.3,269.1,385.6,269.1Z" transform="translate(-67.1 -41.1)"/><path class="cls-30" d="M390.8,269.4v.8c0,.2-.3.4-.6.4v-.8C390.5,269.8,390.8,269.6,390.8,269.4Z" transform="translate(-67.1 -41.1)"/><polygon class="cls-30" points="323.1 228.7 323.1 229.5 321.4 229.5 321.4 228.7 323.1 228.7"/><polygon class="cls-30" points="321.4 228.7 321.4 229.5 320.2 229.5 320.2 228.7 321.4 228.7"/><polygon class="cls-30" points="320.2 228.7 320.2 229.5 318.5 229.5 318.5 228.7 320.2 228.7"/><path class="cls-30" d="M385.6,269.8v.8h-.4c-.1-.1-.2-.2-.2-.3v-.8c0,.1.1.2.2.3Z" transform="translate(-67.1 -41.1)"/><path class="cls-30" d="M390.6,269.2l.2.2c0,.2-.3.4-.6.4h-5c-.1-.1-.2-.2-.2-.3s.3-.3.6-.3h5Z" transform="translate(-67.1 -41.1)"/><path class="cls-28" d="M383.4,270.3v.8h0a4.5,4.5,0,0,1-1-.9v-.8a4.5,4.5,0,0,0,1,.9Z" transform="translate(-67.1 -41.1)"/><path class="cls-28" d="M383.8,270.5v.9h-.1l-.3-.2v-.8l.3.2Z" transform="translate(-67.1 -41.1)"/><polygon class="cls-28" points="321.4 229.6 321.4 230.4 321.4 229.5 321.4 228.7 321.4 229.6"/><polygon class="cls-30" points="320.2 229.6 320.2 230.4 320.2 229.5 320.2 228.7 320.2 229.6"/><path class="cls-30" d="M388.5,270.7v.9q0,.3-.6.3h-.4c-.2,0-.2-.1-.2-.2v-.9c0,.1,0,.2.2.3h.4C388.3,271.1,388.5,271,388.5,270.7Z" transform="translate(-67.1 -41.1)"/><path class="cls-28" d="M392.5,267.8v.8c0,1.4-.8,4.1-2.5,4.8h-1.8v-.8H390C391.7,271.9,392.5,269.2,392.5,267.8Z" transform="translate(-67.1 -41.1)"/><path class="cls-28" d="M392.3,266.9c.6.4,0,4.8-2.3,5.7h-1.9l-.7-.2-.5-.2h-.2a8.2,8.2,0,0,1-1.9-.9l-.4-.2-.6-.5h-.1l-.3-.2h0a4.5,4.5,0,0,1-1-.9h0c-.2-.4-.3-.7-.2-.9h.2C384,266.9,391.6,266.5,392.3,266.9Zm-3.8,3.8v-.9h1.7c.3,0,.6-.2.6-.4l-.2-.2h-2.1v-1c0-.1,0-.2-.2-.3h-.4c-.4,0-.6.2-.6.4v1h-1.7c-.3,0-.6.1-.6.3s.1.2.2.3h2.1v.9c0,.1,0,.2.2.3h.4c.4,0,.6-.1.6-.4" transform="translate(-67.1 -41.1)"/><path class="cls-30" d="M388.5,269.8v.9c0,.3-.2.4-.6.4h-.4c-.2-.1-.2-.2-.2-.3v-.9Z" transform="translate(-67.1 -41.1)"/><path class="cls-28" d="M388.2,272.6v.8h-.1l-.7-.2-.5-.2h-.2a8.2,8.2,0,0,1-1.9-.9l-.4-.2-.6-.4v-.9l.6.5.4.2a8.2,8.2,0,0,0,1.9.9h.2l.5.2.7.2Z" transform="translate(-67.1 -41.1)"/></g><g class="cls-31"><path class="cls-28" d="M372.6,277v.8c-.4,0-.7.2-.7.4v-.9C371.9,277.1,372.2,277,372.6,277Z" transform="translate(-67.1 -41.1)"/><path class="cls-28" d="M373.2,277.4v.8a.4.4,0,0,0-.1-.3h-.4V277h.4Z" transform="translate(-67.1 -41.1)"/><path class="cls-30" d="M373.2,277.4v.8h0v-.8Z" transform="translate(-67.1 -41.1)"/><path class="cls-28" d="M367.9,278.5v-.8h0v.8Z" transform="translate(-67.1 -41.1)"/><path class="cls-28" d="M367.9,277.7v.8h0v-.8Z" transform="translate(-67.1 -41.1)"/><path class="cls-28" d="M367.9,277.8v.8h0v-.8Z" transform="translate(-67.1 -41.1)"/><path class="cls-28" d="M367.9,277.8v.8h0v-.8Z" transform="translate(-67.1 -41.1)"/><path class="cls-28" d="M367.9,277.9v.8h0v-.8Z" transform="translate(-67.1 -41.1)"/><path class="cls-28" d="M367.9,277.9v.9h0v-.8Z" transform="translate(-67.1 -41.1)"/><path class="cls-28" d="M367.9,278v.8h0v-.9Z" transform="translate(-67.1 -41.1)"/><path class="cls-28" d="M367.9,278.1v.8h0V278Z" transform="translate(-67.1 -41.1)"/><path class="cls-28" d="M367.9,278.1v.8h0v-.8Z" transform="translate(-67.1 -41.1)"/><path class="cls-28" d="M367.9,278.2v.8h0v-.8Z" transform="translate(-67.1 -41.1)"/><path class="cls-28" d="M367.9,278.2v.8h0v-.8Z" transform="translate(-67.1 -41.1)"/><polygon class="cls-28" points="304.8 236.2 304.8 237 304.6 238 304.6 237.2 304.8 236.2"/><polygon class="cls-28" points="304.6 237.2 304.6 238 303 237.9 303 237.1 304.6 237.2"/><path class="cls-28" d="M368,278.3v.8h-.1v-.8Z" transform="translate(-67.1 -41.1)"/><path class="cls-28" d="M368,278.3v.9h0v-.8Z" transform="translate(-67.1 -41.1)"/><polygon class="cls-28" points="307.5 237.3 307.5 238.2 305.9 238.1 305.9 237.2 307.5 237.3"/><polygon class="cls-30" points="306 236.3 306 237.1 305.9 238.1 305.9 237.2 306 236.3"/><path class="cls-28" d="M368,278.4v.8h0v-.9Z" transform="translate(-67.1 -41.1)"/><path class="cls-28" d="M368,278.5v.8h0v-.8Z" transform="translate(-67.1 -41.1)"/><path class="cls-28" d="M370.1,279c-.4,0-.7.1-.7.3v-.8c0-.2.3-.3.7-.3Z" transform="translate(-67.1 -41.1)"/><path class="cls-28" d="M368,278.5v.8h0v-.8Z" transform="translate(-67.1 -41.1)"/><path class="cls-28" d="M375,279.4h-.4v-.8h.4Z" transform="translate(-67.1 -41.1)"/><path class="cls-28" d="M369.4,279.3h0v-.8h0Z" transform="translate(-67.1 -41.1)"/><path class="cls-28" d="M368,278.6v.8h0v-.8Z" transform="translate(-67.1 -41.1)"/><path class="cls-28" d="M368,278.6v.9h0v-.8Z" transform="translate(-67.1 -41.1)"/><path class="cls-28" d="M368,278.7v.8h0v-.9Z" transform="translate(-67.1 -41.1)"/><path class="cls-28" d="M368,278.8v.8h0v-.8Z" transform="translate(-67.1 -41.1)"/><path class="cls-28" d="M375.2,279.6a.2.2,0,0,0-.2-.2v-.8a.2.2,0,0,1,.2.2Z" transform="translate(-67.1 -41.1)"/><path class="cls-30" d="M369.4,279.4v-.8l.2.2v.8A.2.2,0,0,1,369.4,279.4Z" transform="translate(-67.1 -41.1)"/><path class="cls-28" d="M368,278.8v.8h0v-.8Z" transform="translate(-67.1 -41.1)"/><path class="cls-30" d="M375.2,278.8v.8h0v-.8Z" transform="translate(-67.1 -41.1)"/><path class="cls-28" d="M368,278.9v.8h0v-.8Z" transform="translate(-67.1 -41.1)"/><path class="cls-30" d="M370,278.9v.8h-.4v-.8Z" transform="translate(-67.1 -41.1)"/><path class="cls-28" d="M368,278.9v.9h0v-.8Z" transform="translate(-67.1 -41.1)"/><path class="cls-28" d="M368,279v.8h0v-.9Z" transform="translate(-67.1 -41.1)"/><polygon class="cls-30" points="304.6 237.2 304.6 238 304.5 238.7 304.5 237.9 304.6 237.2"/><polygon class="cls-30" points="304.5 237.9 304.5 238.7 302.9 238.6 302.9 237.8 304.5 237.9"/><polygon class="cls-30" points="305.9 237.2 305.9 238.1 305.8 238.8 305.8 238 305.9 237.2"/><polygon class="cls-30" points="307.4 238.1 307.4 238.9 305.8 238.8 305.8 238 307.4 238.1"/><path class="cls-30" d="M375.2,278.9v.8c0,.2-.4.3-.7.3v-.8C374.9,279.2,375.2,279.1,375.2,278.9Z" transform="translate(-67.1 -41.1)"/><polygon class="cls-28" points="304.5 237.9 304.5 238.7 304.3 239.7 304.4 238.8 304.5 237.9"/><path class="cls-28" d="M371.4,280.8V280h.1v.8Z" transform="translate(-67.1 -41.1)"/><path class="cls-30" d="M372.7,280v.9c0,.2-.3.3-.7.3v-.8C372.4,280.4,372.7,280.2,372.7,280Z" transform="translate(-67.1 -41.1)"/><polygon class="cls-30" points="305.8 238 305.8 238.8 305.6 239.7 305.6 238.9 305.8 238"/><path class="cls-30" d="M371.4,280.8V280c0,.1.1.2.2.3h.4v.8h-.4Z" transform="translate(-67.1 -41.1)"/><path class="cls-28" d="M378.1,278.2v.8c0,1.5-6.6,4.5-8.4,3.6v-.9C371.5,282.7,378.1,279.7,378.1,278.2Z" transform="translate(-67.1 -41.1)"/><path class="cls-28" d="M378,277.8c1.3,1.3-6.3,5-8.3,3.9h-1.4a.1.1,0,0,1,.1-.1h9c.1,0,.1,0,.1.1h.4A.1.1,0,0,0,378,277.8Zm-3.5,1.4c.4,0,.7-.1.7-.3s-.1-.3-.2-.3h-2v-1c.1-.1,0-.2-.1-.3h-.4c-.4,0-.7.1-.7.3l-.2,1h-1.6c-.4,0-.7.1-.7.3s.1.3.2.3h2v1c-.1.1,0,.2.1.3h.4c.4,0,.7-.2.7-.4l.2-.9h1.6" transform="translate(-67.1 -41.1)"/><path class="cls-30" d="M369.6,278.8c-.1,0-.2-.2-.2-.3s.3-.3.7-.3h1.6v.7h-2Z" transform="translate(-67.1 -41.1)"/><path class="cls-28" d="M368.1,279.1v.8H368V279Z" transform="translate(-67.1 -41.1)"/><path class="cls-28" d="M368.1,279.1v.8h0v-.8Z" transform="translate(-67.1 -41.1)"/><path class="cls-28" d="M368.1,279.2v.8h0v-.8Z" transform="translate(-67.1 -41.1)"/><path class="cls-30" d="M375,278.6c.1,0,.2.1.2.3s-.3.3-.7.3h-1.6v-.7h2Z" transform="translate(-67.1 -41.1)"/><path class="cls-28" d="M368.1,279.2v.9h0v-.8Z" transform="translate(-67.1 -41.1)"/><path class="cls-28" d="M368.1,279.3v.8h0v-.9Z" transform="translate(-67.1 -41.1)"/><path class="cls-28" d="M368.1,279.4v.8h0v-.8Z" transform="translate(-67.1 -41.1)"/><path class="cls-28" d="M368.1,279.4v.8h0v-.8Z" transform="translate(-67.1 -41.1)"/><path class="cls-28" d="M368.2,279.5v.8h-.1v-.8Z" transform="translate(-67.1 -41.1)"/><path class="cls-28" d="M368.2,279.5v.9h0v-.8Z" transform="translate(-67.1 -41.1)"/><path class="cls-28" d="M368.2,279.6v.8h0v-.9Z" transform="translate(-67.1 -41.1)"/><path class="cls-28" d="M368.2,279.7v.8h0v-.8Z" transform="translate(-67.1 -41.1)"/><path class="cls-28" d="M368.2,279.7v.8h0v-.8Z" transform="translate(-67.1 -41.1)"/><path class="cls-28" d="M368.2,279.8v.8h0v-.8Z" transform="translate(-67.1 -41.1)"/><path class="cls-28" d="M368.3,279.8v.8h-.1v-.8Z" transform="translate(-67.1 -41.1)"/><path class="cls-28" d="M368.3,279.9v.8h0v-.8Z" transform="translate(-67.1 -41.1)"/><path class="cls-28" d="M368.3,279.9v.9h0v-.8Z" transform="translate(-67.1 -41.1)"/><path class="cls-28" d="M368.3,280v.8h0v-.9Z" transform="translate(-67.1 -41.1)"/><path class="cls-28" d="M368.3,280.1v.8h0V280Z" transform="translate(-67.1 -41.1)"/><path class="cls-28" d="M368.4,280.1v.8h-.1v-.8Z" transform="translate(-67.1 -41.1)"/><path class="cls-28" d="M368.4,280.2v.8h0v-.8Z" transform="translate(-67.1 -41.1)"/><path class="cls-28" d="M368.4,280.2v.8h0v-.8Z" transform="translate(-67.1 -41.1)"/><path class="cls-28" d="M368.4,280.3v.8h0v-.8Z" transform="translate(-67.1 -41.1)"/><path class="cls-28" d="M368.5,280.3v.9h-.1v-.8Z" transform="translate(-67.1 -41.1)"/><path class="cls-30" d="M372.7,280c0,.2-.3.4-.7.4h-.4c-.1-.1-.2-.2-.1-.3v-1.7l.2-1c0-.2.3-.3.7-.3h.4c.1.1.2.2.1.3v1.7Z" transform="translate(-67.1 -41.1)"/><path class="cls-28" d="M368.5,280.4v.8h0v-.9Z" transform="translate(-67.1 -41.1)"/><path class="cls-28" d="M368.5,280.4v.9h0v-.8Z" transform="translate(-67.1 -41.1)"/><path class="cls-28" d="M368.5,280.5v.8h0v-.9Z" transform="translate(-67.1 -41.1)"/><path class="cls-28" d="M368.6,280.5v.9h-.1v-.8Z" transform="translate(-67.1 -41.1)"/><path class="cls-28" d="M368.6,280.6v.8h0v-.9Z" transform="translate(-67.1 -41.1)"/><path class="cls-28" d="M368.6,280.7v.8h0v-.8Z" transform="translate(-67.1 -41.1)"/><path class="cls-28" d="M368.6,280.7v.8h0v-.8Z" transform="translate(-67.1 -41.1)"/><path class="cls-28" d="M368.7,280.8v.8h-.1v-.8Z" transform="translate(-67.1 -41.1)"/><path class="cls-28" d="M368.7,280.8v.8h0v-.8Z" transform="translate(-67.1 -41.1)"/><path class="cls-28" d="M368.7,280.8v.9h0v-.8Z" transform="translate(-67.1 -41.1)"/><path class="cls-28" d="M368.8,280.9v.8h-.1v-.9Z" transform="translate(-67.1 -41.1)"/><path class="cls-28" d="M368.8,280.9v.9h0v-.8Z" transform="translate(-67.1 -41.1)"/><path class="cls-28" d="M368.8,281v.8h0v-.9Z" transform="translate(-67.1 -41.1)"/><path class="cls-28" d="M368.9,281v.9h-.1V281Z" transform="translate(-67.1 -41.1)"/><path class="cls-28" d="M368.9,281.1v.8h0V281Z" transform="translate(-67.1 -41.1)"/><path class="cls-28" d="M368.9,281.1v.8h0v-.8Z" transform="translate(-67.1 -41.1)"/><path class="cls-28" d="M369,281.2v.8h-.1v-.8Z" transform="translate(-67.1 -41.1)"/><path class="cls-28" d="M369,281.2v.8h0v-.8Z" transform="translate(-67.1 -41.1)"/><path class="cls-28" d="M369,281.2v.9h0v-.8Z" transform="translate(-67.1 -41.1)"/><path class="cls-28" d="M369.1,281.3v.8H369v-.9Z" transform="translate(-67.1 -41.1)"/><path class="cls-28" d="M369.1,281.3v.8h0v-.8Z" transform="translate(-67.1 -41.1)"/><path class="cls-28" d="M369.2,281.4v.8h-.1v-.8Z" transform="translate(-67.1 -41.1)"/><path class="cls-28" d="M369.2,281.4v.8h0v-.8Z" transform="translate(-67.1 -41.1)"/><path class="cls-28" d="M369.2,281.4v.9h0v-.8Z" transform="translate(-67.1 -41.1)"/><path class="cls-28" d="M369.3,281.5v.8h-.1v-.9Z" transform="translate(-67.1 -41.1)"/><path class="cls-28" d="M369.3,281.5v.8h0v-.8Z" transform="translate(-67.1 -41.1)"/><path class="cls-28" d="M369.4,281.5v.9h-.1v-.8Z" transform="translate(-67.1 -41.1)"/><path class="cls-28" d="M369.4,281.6v.8h0v-.9Z" transform="translate(-67.1 -41.1)"/><path class="cls-28" d="M369.5,281.6v.8h-.1v-.8Z" transform="translate(-67.1 -41.1)"/><path class="cls-28" d="M369.5,281.6v.9h0v-.8Z" transform="translate(-67.1 -41.1)"/><path class="cls-28" d="M369.5,281.7v.8h0v-.9Z" transform="translate(-67.1 -41.1)"/><path class="cls-28" d="M369.6,281.7v.8h-.1v-.8Z" transform="translate(-67.1 -41.1)"/><path class="cls-28" d="M369.7,281.7v.9a.1.1,0,0,0-.1-.1v-.8Z" transform="translate(-67.1 -41.1)"/></g><g class="cls-31"><path class="cls-28" d="M395.3,282.4v.9a.6.6,0,0,0-.7.3v-.8A.8.8,0,0,1,395.3,282.4Z" transform="translate(-67.1 -41.1)"/><path class="cls-28" d="M395.9,282.8v.8a.2.2,0,0,0-.2-.2h-.4v-.9l.4.2A.2.2,0,0,1,395.9,282.8Z" transform="translate(-67.1 -41.1)"/><path class="cls-30" d="M395.9,282.8v.8h0v-.8Z" transform="translate(-67.1 -41.1)"/><path class="cls-28" d="M390.6,284.2v-.8h0v.8Z" transform="translate(-67.1 -41.1)"/><path class="cls-28" d="M390.6,284.3v-.8h0v.8Z" transform="translate(-67.1 -41.1)"/><path class="cls-28" d="M390.6,283.6v.8h0v-.8Z" transform="translate(-67.1 -41.1)"/><path class="cls-28" d="M390.6,283.6v.9h0v-.8Z" transform="translate(-67.1 -41.1)"/><polygon class="cls-28" points="327.5 241.6 327.5 242.5 327.3 243.4 327.3 242.6 327.5 241.6"/><polygon class="cls-28" points="327.3 242.6 327.3 243.4 325.7 243.3 325.7 242.5 327.3 242.6"/><path class="cls-28" d="M390.6,283.7v.8h0v-.9Z" transform="translate(-67.1 -41.1)"/><path class="cls-28" d="M390.6,283.8v.8h0v-.8Z" transform="translate(-67.1 -41.1)"/><polygon class="cls-28" points="330.2 242.8 330.2 243.6 328.6 243.5 328.6 242.7 330.2 242.8"/><polygon class="cls-30" points="328.8 241.7 328.8 242.6 328.6 243.5 328.6 242.7 328.8 241.7"/><path class="cls-28" d="M390.6,283.8v.8h0v-.8Z" transform="translate(-67.1 -41.1)"/><path class="cls-28" d="M390.6,283.9v.8h0v-.8Z" transform="translate(-67.1 -41.1)"/><path class="cls-28" d="M392.8,283.6v.8c-.4,0-.7.1-.7.3v-.8C392.1,283.7,392.4,283.5,392.8,283.6Z" transform="translate(-67.1 -41.1)"/><path class="cls-28" d="M392.1,284.7h0v-.8h0Z" transform="translate(-67.1 -41.1)"/><path class="cls-28" d="M390.6,283.9v.8h0v-.8Z" transform="translate(-67.1 -41.1)"/><path class="cls-28" d="M390.6,284v.8h0v-.8Z" transform="translate(-67.1 -41.1)"/><path class="cls-28" d="M397.6,284.9h-.3v-.9h.4A2.8,2.8,0,0,1,397.6,284.9Z" transform="translate(-67.1 -41.1)"/><path class="cls-28" d="M390.6,284.1v.8h0V284Z" transform="translate(-67.1 -41.1)"/><path class="cls-28" d="M390.7,284.1v.8h0v-.8Z" transform="translate(-67.1 -41.1)"/><path class="cls-28" d="M390.7,284.2v.8h-.1v-.8Z" transform="translate(-67.1 -41.1)"/><path class="cls-30" d="M392.1,284.7v-.8a.4.4,0,0,0,.1.3v.8C392.1,284.9,392.1,284.9,392.1,284.7Z" transform="translate(-67.1 -41.1)"/><path class="cls-28" d="M390.7,284.2v.9h0v-.8Z" transform="translate(-67.1 -41.1)"/><path class="cls-28" d="M397.8,285.1c0-.1,0-.2-.2-.2a2.8,2.8,0,0,0,.1-.9.4.4,0,0,1,.1.3Z" transform="translate(-67.1 -41.1)"/><path class="cls-28" d="M390.7,284.3v.8h0v-.9Z" transform="translate(-67.1 -41.1)"/><path class="cls-30" d="M392.6,284.3v.8h-.4v-.8Z" transform="translate(-67.1 -41.1)"/><path class="cls-30" d="M397.8,284.3v.8h0v-.9Z" transform="translate(-67.1 -41.1)"/><path class="cls-28" d="M390.7,284.4v.8h0v-.8Z" transform="translate(-67.1 -41.1)"/><path class="cls-28" d="M390.7,284.4v.8h0v-.8Z" transform="translate(-67.1 -41.1)"/><path class="cls-30" d="M392.2,284.2c-.1-.1-.2-.2-.1-.3s.3-.4.7-.3h1.6l-.2.7h-2Z" transform="translate(-67.1 -41.1)"/><polygon class="cls-30" points="327.3 242.6 327.3 243.4 327.1 244.1 327.1 243.3 327.3 242.6"/><polygon class="cls-30" points="327.1 243.3 327.1 244.1 325.5 244 325.5 243.2 327.1 243.3"/><path class="cls-28" d="M390.7,284.5v.8h0v-.8Z" transform="translate(-67.1 -41.1)"/><polygon class="cls-30" points="328.6 242.7 328.6 243.5 328.4 244.2 328.4 243.4 328.6 242.7"/><path class="cls-28" d="M390.7,284.5v.9h0v-.8Z" transform="translate(-67.1 -41.1)"/><path class="cls-28" d="M390.7,284.6v.8h0v-.9Z" transform="translate(-67.1 -41.1)"/><polygon class="cls-30" points="330 243.5 330 244.4 328.4 244.2 328.4 243.4 330 243.5"/><path class="cls-28" d="M390.7,284.7v.8h0v-.8Z" transform="translate(-67.1 -41.1)"/><path class="cls-30" d="M397.8,284.3v.9c0,.2-.3.3-.7.3v-.8C397.5,284.7,397.8,284.5,397.8,284.3Z" transform="translate(-67.1 -41.1)"/><path class="cls-30" d="M397.7,284c.1.1.2.2.1.3s-.3.4-.7.4l-1.6-.2.2-.7h2Z" transform="translate(-67.1 -41.1)"/><path class="cls-28" d="M390.7,284.7v.8h0v-.8Z" transform="translate(-67.1 -41.1)"/><path class="cls-28" d="M390.7,284.8v.8h0v-.8Z" transform="translate(-67.1 -41.1)"/><path class="cls-28" d="M390.8,284.8v.9h0v-.8Z" transform="translate(-67.1 -41.1)"/><path class="cls-28" d="M390.8,284.9v.8h-.1v-.9Z" transform="translate(-67.1 -41.1)"/><path class="cls-28" d="M390.8,285v.8h0v-.8Z" transform="translate(-67.1 -41.1)"/><path class="cls-28" d="M390.8,285v.8h0V285Z" transform="translate(-67.1 -41.1)"/><path class="cls-28" d="M390.8,285.1v.8h0V285Z" transform="translate(-67.1 -41.1)"/><path class="cls-28" d="M390.8,285.1v.8h0v-.8Z" transform="translate(-67.1 -41.1)"/><path class="cls-28" d="M390.8,285.2v.8h0v-.8Z" transform="translate(-67.1 -41.1)"/><path class="cls-28" d="M390.8,285.2v.9h0v-.8Z" transform="translate(-67.1 -41.1)"/><path class="cls-28" d="M390.9,285.3v.8h-.1v-.9Z" transform="translate(-67.1 -41.1)"/><path class="cls-28" d="M390.9,285.4v.8h0v-.8Z" transform="translate(-67.1 -41.1)"/><polygon class="cls-28" points="327.1 243.3 327.1 244.1 326.9 245.1 326.9 244.3 327.1 243.3"/><path class="cls-28" d="M394,286.2v-.8h0v.8Z" transform="translate(-67.1 -41.1)"/><path class="cls-28" d="M390.9,285.4v.8h0v-.8Z" transform="translate(-67.1 -41.1)"/><polygon class="cls-30" points="328.4 243.4 328.4 244.2 328.2 245.2 328.2 244.4 328.4 243.4"/><path class="cls-28" d="M390.9,285.5v.8h0v-.8Z" transform="translate(-67.1 -41.1)"/><path class="cls-28" d="M390.9,285.5v.9h0v-.8Z" transform="translate(-67.1 -41.1)"/><path class="cls-28" d="M391,285.6v.8h-.1v-.9Z" transform="translate(-67.1 -41.1)"/><path class="cls-28" d="M391,285.6v.9h0v-.8Z" transform="translate(-67.1 -41.1)"/><path class="cls-28" d="M391,285.7v.8h0v-.9Z" transform="translate(-67.1 -41.1)"/><path class="cls-28" d="M391,285.8v.8h0v-.8Z" transform="translate(-67.1 -41.1)"/><path class="cls-30" d="M394,286.2v-.8c0,.1.1.2.2.3h.4a.8.8,0,0,0,.7-.3v.8c-.1.2-.4.3-.8.3h-.3C394.1,286.4,394,286.3,394,286.2Z" transform="translate(-67.1 -41.1)"/><path class="cls-30" d="M395.3,285.5a.8.8,0,0,1-.7.3h-.4c-.1-.1-.2-.2-.2-.3l.2-1,.2-.7.2-.9a.8.8,0,0,1,.7-.4l.4.2c.1,0,.2.1.2.3l-.2.9-.2.7Z" transform="translate(-67.1 -41.1)"/><path class="cls-28" d="M391,285.8v.8h0v-.8Z" transform="translate(-67.1 -41.1)"/><path class="cls-28" d="M391.1,285.9v.8H391v-.8Z" transform="translate(-67.1 -41.1)"/><path class="cls-28" d="M391.1,285.9v.8h0v-.8Z" transform="translate(-67.1 -41.1)"/><path class="cls-28" d="M391.1,286v.8h0v-.8Z" transform="translate(-67.1 -41.1)"/><path class="cls-28" d="M391.1,286v.8h0V286Z" transform="translate(-67.1 -41.1)"/><path class="cls-28" d="M391.2,286.1v.8h-.1V286Z" transform="translate(-67.1 -41.1)"/><path class="cls-28" d="M391.2,286.1v.8h0v-.8Z" transform="translate(-67.1 -41.1)"/><path class="cls-28" d="M391.2,286.2v.8h0v-.8Z" transform="translate(-67.1 -41.1)"/><path class="cls-28" d="M391.3,286.2v.8h0v-.8Z" transform="translate(-67.1 -41.1)"/><path class="cls-28" d="M391.3,286.3v.8h-.1v-.8Z" transform="translate(-67.1 -41.1)"/><path class="cls-28" d="M391.3,286.3v.8h0v-.8Z" transform="translate(-67.1 -41.1)"/><path class="cls-28" d="M391.3,286.4v.8h0v-.8Z" transform="translate(-67.1 -41.1)"/><path class="cls-28" d="M391.4,286.4v.8h-.1v-.8Z" transform="translate(-67.1 -41.1)"/><path class="cls-28" d="M391.4,286.5v.8h0v-.8Z" transform="translate(-67.1 -41.1)"/><path class="cls-28" d="M391.4,286.5v.8h0v-.8Z" transform="translate(-67.1 -41.1)"/><path class="cls-28" d="M391.5,286.5v.9h-.1v-.8Z" transform="translate(-67.1 -41.1)"/><path class="cls-28" d="M391.5,286.6v.8h0v-.9Z" transform="translate(-67.1 -41.1)"/><path class="cls-28" d="M391.5,286.6v.8h0v-.8Z" transform="translate(-67.1 -41.1)"/><path class="cls-28" d="M391.6,286.7v.8h-.1v-.8Z" transform="translate(-67.1 -41.1)"/><path class="cls-28" d="M391.6,286.7v.8h0v-.8Z" transform="translate(-67.1 -41.1)"/><path class="cls-28" d="M391.7,286.7v.9h0v-.8Z" transform="translate(-67.1 -41.1)"/><path class="cls-28" d="M391.7,286.8v.8h-.1v-.9Z" transform="translate(-67.1 -41.1)"/><path class="cls-28" d="M391.7,286.8v.8h0v-.8Z" transform="translate(-67.1 -41.1)"/><path class="cls-28" d="M391.8,286.9v.8h-.1v-.8Z" transform="translate(-67.1 -41.1)"/><path class="cls-28" d="M391.8,286.9v.8h0v-.8Z" transform="translate(-67.1 -41.1)"/><path class="cls-28" d="M391.8,286.9v.8h0v-.8Z" transform="translate(-67.1 -41.1)"/><path class="cls-28" d="M391.9,287v.8h-.1v-.8Z" transform="translate(-67.1 -41.1)"/><path class="cls-28" d="M391.9,287v.8h0V287Z" transform="translate(-67.1 -41.1)"/><path class="cls-28" d="M392,287v.8h-.1V287Z" transform="translate(-67.1 -41.1)"/><path class="cls-28" d="M392,287v.9h0V287Z" transform="translate(-67.1 -41.1)"/><path class="cls-28" d="M392.1,287.1v.8H392V287Z" transform="translate(-67.1 -41.1)"/><path class="cls-28" d="M392.1,287.1v.8h0v-.8Z" transform="translate(-67.1 -41.1)"/><path class="cls-28" d="M400.8,283.7v.8c0,1.5-6.9,4.4-8.7,3.4v-.8C393.9,288.1,400.8,285.2,400.8,283.7Z" transform="translate(-67.1 -41.1)"/><path class="cls-28" d="M400.7,283.4c1.2,1.3-6.7,4.8-8.6,3.7h8.4a.1.1,0,0,1,.1.1h.1Zm-3.6,1.3c.4,0,.7-.2.7-.4s0-.2-.1-.3h-2l.2-.9c0-.2-.1-.3-.2-.3l-.4-.2a.8.8,0,0,0-.7.4l-.2.9h-1.6c-.4-.1-.7.1-.7.3s0,.2.1.3h2l-.2,1c0,.1.1.2.2.3h.4a.8.8,0,0,0,.7-.3l.2-1,1.6.2" transform="translate(-67.1 -41.1)"/></g><g class="cls-31"><path class="cls-32" d="M403.9,268.4a2.2,2.2,0,0,0-1.8-.2v-.8a2.2,2.2,0,0,1,1.8.2l.3.2v.8h0Z" transform="translate(-67.1 -41.1)"/><path class="cls-32" d="M406,268.8a2.2,2.2,0,0,0-1.8-.2v-.8a2.7,2.7,0,0,1,1.8.1Z" transform="translate(-67.1 -41.1)"/><path class="cls-32" d="M401.2,268.9v-.8c0-.3.3-.6.9-.7v.8C401.5,268.3,401.2,268.6,401.2,268.9Z" transform="translate(-67.1 -41.1)"/><path class="cls-32" d="M406.3,269l-.3-.2v-.9l.3.2Z" transform="translate(-67.1 -41.1)"/><polygon class="cls-30" points="335.8 229 335.8 229.8 334.3 228.2 334.3 227.4 335.8 229"/><polygon class="cls-30" points="337.1 226.6 337.1 227.4 334.3 228.2 334.3 227.4 337.1 226.6"/><path class="cls-30" d="M404.2,268.6c-.5.1-.8.4-.8.7v-.8c0-.3.3-.6.8-.7Z" transform="translate(-67.1 -41.1)"/><path class="cls-30" d="M402.1,267.4a2.2,2.2,0,0,1,1.8.2l.3.2-2.8.7C401,268.1,401.3,267.6,402.1,267.4Z" transform="translate(-67.1 -41.1)"/><path class="cls-30" d="M401.2,268.9v-.8a.5.5,0,0,0,.2.4v.9C401.3,269.2,401.2,269.1,401.2,268.9Z" transform="translate(-67.1 -41.1)"/><path class="cls-32" d="M406.5,269.4a.5.5,0,0,0-.2-.4v-.9c.1.2.2.3.2.5Z" transform="translate(-67.1 -41.1)"/><polygon class="cls-32" points="330.7 229 330.7 228.2 330.7 228.2 330.7 229 330.7 229"/><path class="cls-32" d="M397.8,269.4v.8h0v-.8Z" transform="translate(-67.1 -41.1)"/><path class="cls-32" d="M397.8,269.4v.8h0v-.8Z" transform="translate(-67.1 -41.1)"/><path class="cls-32" d="M397.8,269.5v.8h0v-.8Z" transform="translate(-67.1 -41.1)"/><path class="cls-30" d="M406.5,268.6v.8c0,.3-.3.6-.8.7a3,3,0,0,1-1.9-.1l-.3-.3c-.1-.1-.1-.2-.1-.4v-.8c0,.2,0,.3.1.4l.3.2a2.4,2.4,0,0,0,1.9.2C406.2,269.2,406.5,268.9,406.5,268.6Z" transform="translate(-67.1 -41.1)"/><polygon class="cls-30" points="338.6 228.2 338.6 229 335.8 229.8 335.8 229 338.6 228.2"/><path class="cls-32" d="M397.8,269.3h0c.4-1.6,6.8-3.9,7.7-3.8h1.2a.1.1,0,0,0,.1.1h.5a.1.1,0,0,1-.1.1h-2.3a.1.1,0,0,1-.1-.1h-3.3a.1.1,0,0,1-.1-.1h-2a.1.1,0,0,1-.1-.1h-.4l-.3-.2h-.7a.1.1,0,0,1-.1-.1h0Zm4.3-1.9c-.8.2-1.1.7-.7,1.1l1.5,1.6,2.8-.8c.7-.2,1-.7.6-1.2l-.3-.2a2.7,2.7,0,0,0-1.8-.1l-.3-.2a2.2,2.2,0,0,0-1.8-.2" transform="translate(-67.1 -41.1)"/><path class="cls-30" d="M406.3,268.1c.4.5.1,1-.6,1.2a2.4,2.4,0,0,1-1.9-.2l-.3-.2c-.4-.4-.1-.9.7-1.1a2.7,2.7,0,0,1,1.8.1Z" transform="translate(-67.1 -41.1)"/><path class="cls-32" d="M397.8,269.5v.8h0v-.8Z" transform="translate(-67.1 -41.1)"/><path class="cls-32" d="M397.9,269.6v.8h-.1v-.8A.1.1,0,0,0,397.9,269.6Z" transform="translate(-67.1 -41.1)"/><path class="cls-32" d="M397.9,269.6v.8h0v-.8Z" transform="translate(-67.1 -41.1)"/><path class="cls-32" d="M397.9,269.7v.8h0v-.8Z" transform="translate(-67.1 -41.1)"/><path class="cls-32" d="M398,269.7v.8h-.1v-.8Z" transform="translate(-67.1 -41.1)"/><path class="cls-32" d="M398,269.8v.8h0v-.8Z" transform="translate(-67.1 -41.1)"/><path class="cls-32" d="M398.2,269.9v.8H398v-.8h.2Z" transform="translate(-67.1 -41.1)"/><path class="cls-32" d="M398.4,270v.8h-.2v-.8h.2Z" transform="translate(-67.1 -41.1)"/><path class="cls-30" d="M403.8,269.1a2.4,2.4,0,0,0,1.9.2l-2.8.8-1.5-1.6,2.8-.7c-.8.2-1.1.7-.7,1.1Z" transform="translate(-67.1 -41.1)"/><path class="cls-32" d="M408.3,270.1v.9h0v-.8Z" transform="translate(-67.1 -41.1)"/><path class="cls-32" d="M408.3,270.2v.8h0v-.8Z" transform="translate(-67.1 -41.1)"/><path class="cls-32" d="M408.3,270.2v.8h0v-.8Z" transform="translate(-67.1 -41.1)"/><path class="cls-32" d="M408.3,270.3v.8h0v-.8Z" transform="translate(-67.1 -41.1)"/><path class="cls-32" d="M408.3,270.3v.8h0v-.8Z" transform="translate(-67.1 -41.1)"/><path class="cls-32" d="M408.3,270.4v.8h0v-.8Z" transform="translate(-67.1 -41.1)"/><path class="cls-32" d="M408.3,270.4v.8h0v-.8Z" transform="translate(-67.1 -41.1)"/><path class="cls-32" d="M408.3,270.5v.8h0v-.8Z" transform="translate(-67.1 -41.1)"/><path class="cls-32" d="M408.3,270.5v.8h0v-.8Z" transform="translate(-67.1 -41.1)"/><path class="cls-32" d="M408.3,270.6v.8h0v-.8Z" transform="translate(-67.1 -41.1)"/><path class="cls-32" d="M408.3,270.6v.8h0v-.9Z" transform="translate(-67.1 -41.1)"/><path class="cls-32" d="M408.3,270.6v.9h-.1v-.8Z" transform="translate(-67.1 -41.1)"/><path class="cls-32" d="M408.2,270.7v.8h0v-.8Z" transform="translate(-67.1 -41.1)"/><path class="cls-32" d="M400.2,270.7v.8h-.8c-.1,0-.1,0-.1-.1h-.7a.1.1,0,0,0-.1-.1h-.1V270h.2l.3.2h.4a.1.1,0,0,0,.1.1h.8Z" transform="translate(-67.1 -41.1)"/><path class="cls-32" d="M408.2,270.7v.8h0v-.8Z" transform="translate(-67.1 -41.1)"/><path class="cls-32" d="M408.2,270.8v.8h0v-.8Z" transform="translate(-67.1 -41.1)"/><path class="cls-32" d="M408.2,270.8v.8h0v-.9Z" transform="translate(-67.1 -41.1)"/><path class="cls-32" d="M408.2,270.8v.9h0v-.8Z" transform="translate(-67.1 -41.1)"/><path class="cls-32" d="M408.2,270.9v.8h-.1v-.8Z" transform="translate(-67.1 -41.1)"/><path class="cls-32" d="M408.1,270.9v.8h0V271Z" transform="translate(-67.1 -41.1)"/><path class="cls-32" d="M401,271v.8h-.8v-.8h.8Z" transform="translate(-67.1 -41.1)"/><path class="cls-32" d="M408.1,271v.8h0V271Z" transform="translate(-67.1 -41.1)"/><path class="cls-32" d="M408.1,271v.8h0V271Z" transform="translate(-67.1 -41.1)"/><path class="cls-32" d="M408.1,271v.8H408v-.8Z" transform="translate(-67.1 -41.1)"/><path class="cls-32" d="M401.6,271.1v.8H401V271h.4a.1.1,0,0,0,.1.1Z" transform="translate(-67.1 -41.1)"/><path class="cls-32" d="M408,271.1v.8h0v-.9Z" transform="translate(-67.1 -41.1)"/><path class="cls-32" d="M408,271.1v.9h-.1v-.8Z" transform="translate(-67.1 -41.1)"/><path class="cls-32" d="M402.1,271.2v.8h-.5v-.8h.5Z" transform="translate(-67.1 -41.1)"/><path class="cls-32" d="M407.9,271.2v.8h-.1v-.8Z" transform="translate(-67.1 -41.1)"/><path class="cls-32" d="M403.1,271.4v.8h-1v-.8h1Z" transform="translate(-67.1 -41.1)"/><path class="cls-32" d="M403.7,271.4v.9h-.1a.1.1,0,0,0-.1-.1h-.4v-.8h.6Z" transform="translate(-67.1 -41.1)"/><path class="cls-32" d="M404.2,271.5v.8h-.5v-.9h.5Z" transform="translate(-67.1 -41.1)"/><path class="cls-32" d="M404.8,271.5v.9h-.6v-.8h.6Z" transform="translate(-67.1 -41.1)"/><path class="cls-32" d="M405.1,271.6v.8h-.3v-.9a.1.1,0,0,0,.1.1Z" transform="translate(-67.1 -41.1)"/><path class="cls-32" d="M405.6,271.6v.8h-.5v-.8h.5Z" transform="translate(-67.1 -41.1)"/><path class="cls-32" d="M407.8,271.2v.8h-2.2v-.8h1.6a.1.1,0,0,0,.1-.1h.5Z" transform="translate(-67.1 -41.1)"/></g><g class="cls-31"><polygon class="cls-32" points="308.7 252.5 308.7 253.3 306.4 252.1 306.4 251.3 308.7 252.5"/><path class="cls-30" d="M373.5,293.3h0v-.8h0Z" transform="translate(-67.1 -41.1)"/><path class="cls-32" d="M373.5,293.2a2.4,2.4,0,0,0-2.2.1v-.8a2.4,2.4,0,0,1,2.2-.1Z" transform="translate(-67.1 -41.1)"/><path class="cls-32" d="M371.3,293.3a.9.9,0,0,0-.3.6v-.8a.9.9,0,0,1,.3-.6Z" transform="translate(-67.1 -41.1)"/><path class="cls-30" d="M374,293.9a.7.7,0,0,0-.5-.6v-.9a1,1,0,0,1,.5.7Z" transform="translate(-67.1 -41.1)"/><path class="cls-30" d="M371,293.9v-.8a.8.8,0,0,0,.5.7h0v.8h0A.8.8,0,0,1,371,293.9Z" transform="translate(-67.1 -41.1)"/><path class="cls-32" d="M367.3,294v.8h0V294Z" transform="translate(-67.1 -41.1)"/><path class="cls-32" d="M367.3,294.1v.8h0V294Z" transform="translate(-67.1 -41.1)"/><path class="cls-32" d="M367.4,294.1v.8h-.1v-.8Z" transform="translate(-67.1 -41.1)"/><path class="cls-30" d="M374,293.1v.8a.7.7,0,0,1-.4.6,2.2,2.2,0,0,1-2.1.1v-.8a2.2,2.2,0,0,0,2.1-.1A.7.7,0,0,0,374,293.1Z" transform="translate(-67.1 -41.1)"/><path class="cls-30" d="M371.3,292.5a2.4,2.4,0,0,1,2.2-.1h0c.6.4.7.9.1,1.3a2.2,2.2,0,0,1-2.1.1h0C370.9,293.4,370.8,292.9,371.3,292.5Z" transform="translate(-67.1 -41.1)"/><path class="cls-32" d="M367.4,294.1v.8h0v-.8Z" transform="translate(-67.1 -41.1)"/><path class="cls-32" d="M367.4,294.1v.9h0v-.8Z" transform="translate(-67.1 -41.1)"/><path class="cls-32" d="M367.4,294.2v.8h0v-.9Z" transform="translate(-67.1 -41.1)"/><path class="cls-32" d="M367.5,294.2v.8h-.1v-.8Z" transform="translate(-67.1 -41.1)"/><path class="cls-32" d="M367.5,294.2v.8h0v-.8Z" transform="translate(-67.1 -41.1)"/><path class="cls-32" d="M377.8,294.3v.9h0v-.8Z" transform="translate(-67.1 -41.1)"/><path class="cls-32" d="M377.8,294.3v.8h0v-.9Z" transform="translate(-67.1 -41.1)"/><path class="cls-32" d="M377.8,294.2v.8h0v-.8Z" transform="translate(-67.1 -41.1)"/><path class="cls-32" d="M367.6,294.3v.8h-.1v-.8Z" transform="translate(-67.1 -41.1)"/><path class="cls-32" d="M377.8,294.3v.8h0v-.8Z" transform="translate(-67.1 -41.1)"/><path class="cls-32" d="M367.6,294.3v.8h0v-.8Z" transform="translate(-67.1 -41.1)"/><path class="cls-32" d="M367.7,294.3v.8h-.1v-.8Z" transform="translate(-67.1 -41.1)"/><path class="cls-32" d="M367.7,294.4v.8h0v-.8Z" transform="translate(-67.1 -41.1)"/><path class="cls-32" d="M371.5,294.6a.9.9,0,0,0-.3.6v-.8a.9.9,0,0,1,.3-.6Z" transform="translate(-67.1 -41.1)"/><path class="cls-32" d="M377.8,294.4v.8h0v-.8Z" transform="translate(-67.1 -41.1)"/><path class="cls-32" d="M367.8,294.4v.8h-.1v-.8Z" transform="translate(-67.1 -41.1)"/><path class="cls-32" d="M377.8,294.4v.8h0v-.8Z" transform="translate(-67.1 -41.1)"/><path class="cls-32" d="M377.8,294.4v.8h0v-.8Z" transform="translate(-67.1 -41.1)"/><path class="cls-32" d="M377.8,294.5v.8h0v-.8Z" transform="translate(-67.1 -41.1)"/><path class="cls-32" d="M367.9,294.5v.8h-.1v-.8h.1Z" transform="translate(-67.1 -41.1)"/><path class="cls-32" d="M377.8,294.5v.8h0v-.8Z" transform="translate(-67.1 -41.1)"/><path class="cls-32" d="M377.8,294.5v.8h0v-.8Z" transform="translate(-67.1 -41.1)"/><path class="cls-32" d="M377.8,294.6v.8h0v-.8Z" transform="translate(-67.1 -41.1)"/><path class="cls-32" d="M377.8,294.6v.8h0v-.8Z" transform="translate(-67.1 -41.1)"/><path class="cls-32" d="M368.2,294.6v.8h-.3v-.8h.3Z" transform="translate(-67.1 -41.1)"/><path class="cls-32" d="M377.8,294.6v.8h0v-.8Z" transform="translate(-67.1 -41.1)"/><path class="cls-32" d="M377.8,294.7v.8h0v-.8Z" transform="translate(-67.1 -41.1)"/><path class="cls-32" d="M377.8,294.7v.8h0v-.9Z" transform="translate(-67.1 -41.1)"/><path class="cls-32" d="M377.8,294.7v.9h0v-.8Z" transform="translate(-67.1 -41.1)"/><path class="cls-32" d="M377.8,294.8v.8h0v-.8Z" transform="translate(-67.1 -41.1)"/><path class="cls-32" d="M377.8,294.8v.8h0v-.9Z" transform="translate(-67.1 -41.1)"/><path class="cls-32" d="M377.8,294.8v.9h0v-.8Z" transform="translate(-67.1 -41.1)"/><path class="cls-32" d="M377.8,294.9v.8h0v-.8Z" transform="translate(-67.1 -41.1)"/><path class="cls-32" d="M377.8,294.9v.8h0v-.8Z" transform="translate(-67.1 -41.1)"/><path class="cls-32" d="M377.8,294.9v.8h0V295Z" transform="translate(-67.1 -41.1)"/><polygon class="cls-30" points="306.7 253.9 306.7 254.7 304.4 253.5 304.4 252.7 306.7 253.9"/><path class="cls-30" d="M373.6,293.7c.6-.4.5-.9-.1-1.3h0l2.3,1.2-2,1.4-2.3-1.2A2.2,2.2,0,0,0,373.6,293.7Z" transform="translate(-67.1 -41.1)"/><polygon class="cls-30" points="308.7 252.5 308.7 253.3 306.7 254.7 306.7 253.9 308.7 252.5"/><path class="cls-32" d="M377.8,295v.8h0V295Z" transform="translate(-67.1 -41.1)"/><path class="cls-32" d="M377.8,295v.8h-.1V295Z" transform="translate(-67.1 -41.1)"/><path class="cls-32" d="M377.7,295v.8h0v-.8Z" transform="translate(-67.1 -41.1)"/><path class="cls-30" d="M371.6,295.9a.9.9,0,0,1-.4-.7v-.8a.6.6,0,0,0,.4.6Z" transform="translate(-67.1 -41.1)"/><path class="cls-32" d="M377.7,295.1v.8h0v-.8Z" transform="translate(-67.1 -41.1)"/><path class="cls-30" d="M371.7,295.1v.8h-.1V295Z" transform="translate(-67.1 -41.1)"/><path class="cls-32" d="M377.7,295.1v.8h0v-.8Z" transform="translate(-67.1 -41.1)"/><path class="cls-32" d="M377.7,295.1v.8h0v-.9Z" transform="translate(-67.1 -41.1)"/><path class="cls-32" d="M377.7,295.1v.9h0v-.8Z" transform="translate(-67.1 -41.1)"/><path class="cls-32" d="M377.7,295.2v.8h0v-.8Z" transform="translate(-67.1 -41.1)"/><path class="cls-32" d="M377.7,295.2v.8h0v-.8Z" transform="translate(-67.1 -41.1)"/><path class="cls-32" d="M377.7,295.3v.8h0v-.8Z" transform="translate(-67.1 -41.1)"/><path class="cls-32" d="M377.7,295.3v.8h0v-.8Z" transform="translate(-67.1 -41.1)"/><path class="cls-32" d="M377.7,295.3v.8h0v-.9Z" transform="translate(-67.1 -41.1)"/><path class="cls-32" d="M377.7,295.3v.9h0v-.8Z" transform="translate(-67.1 -41.1)"/><path class="cls-32" d="M377.7,295.4v.8h-.1v-.8Z" transform="translate(-67.1 -41.1)"/><path class="cls-30" d="M371.6,295c-.6-.3-.6-.8-.1-1.2l2.3,1.2a2.2,2.2,0,0,1-2.1.1Z" transform="translate(-67.1 -41.1)"/><path class="cls-30" d="M373.8,295v.8a2.2,2.2,0,0,1-2.1.1v-.8A2.2,2.2,0,0,0,373.8,295Z" transform="translate(-67.1 -41.1)"/><path class="cls-32" d="M377.7,295.4v.8h0v-.8Z" transform="translate(-67.1 -41.1)"/><path class="cls-32" d="M377.6,295.4v.8h0v-.9Z" transform="translate(-67.1 -41.1)"/><path class="cls-32" d="M377.6,295.4v.9h0v-.8Z" transform="translate(-67.1 -41.1)"/><path class="cls-32" d="M377.6,295.5v.8h0v-.8Z" transform="translate(-67.1 -41.1)"/><path class="cls-32" d="M377.6,295.5v.8h0v-.8Z" transform="translate(-67.1 -41.1)"/><path class="cls-32" d="M377.6,295.5v.8h0v-.8Z" transform="translate(-67.1 -41.1)"/><path class="cls-32" d="M377.6,295.6v.8h0v-.8Z" transform="translate(-67.1 -41.1)"/><path class="cls-32" d="M377.6,295.6v.8h0v-.8Z" transform="translate(-67.1 -41.1)"/><path class="cls-32" d="M370.6,295.6v.8h-.5a.1.1,0,0,0-.1-.1h-.6a.1.1,0,0,0-.1-.1h-.4c0-.1-.1-.1-.2-.1h-.5v-.8h2.4Z" transform="translate(-67.1 -41.1)"/><path class="cls-32" d="M377.6,295.6v.8h-.1v-.8Z" transform="translate(-67.1 -41.1)"/><path class="cls-32" d="M377.6,295.7v.8h0v-.8Z" transform="translate(-67.1 -41.1)"/><path class="cls-32" d="M377.5,295.7v.8h0v-.8Z" transform="translate(-67.1 -41.1)"/><path class="cls-32" d="M377.5,295.7v.8h0v-.8Z" transform="translate(-67.1 -41.1)"/><path class="cls-32" d="M371,295.8v.8h-.4v-.8h.4Z" transform="translate(-67.1 -41.1)"/><path class="cls-32" d="M377.5,295.8v.8h0v-.8Z" transform="translate(-67.1 -41.1)"/><path class="cls-32" d="M377.5,295.8v.8h0v-.8Z" transform="translate(-67.1 -41.1)"/><path class="cls-32" d="M377.5,295.8v.8h0v-.8Z" transform="translate(-67.1 -41.1)"/><path class="cls-32" d="M377.5,295.8v.8h-.1v-.8Z" transform="translate(-67.1 -41.1)"/><path class="cls-32" d="M377.5,295.9v.8h0v-.8Z" transform="translate(-67.1 -41.1)"/><path class="cls-32" d="M377.4,295.9v.8h0v-.8Z" transform="translate(-67.1 -41.1)"/><path class="cls-32" d="M377.4,295.9v.8h0v-.8Z" transform="translate(-67.1 -41.1)"/><path class="cls-32" d="M377.4,295.9v.8h0v-.9Z" transform="translate(-67.1 -41.1)"/><path class="cls-32" d="M377.4,295.9v.9h0V296Z" transform="translate(-67.1 -41.1)"/><path class="cls-32" d="M377.4,296v.8h0V296Z" transform="translate(-67.1 -41.1)"/><path class="cls-32" d="M377.4,296v.8h-.1V296Z" transform="translate(-67.1 -41.1)"/><path class="cls-32" d="M377.4,296v.8h0v-.8Z" transform="translate(-67.1 -41.1)"/><path class="cls-32" d="M371.9,296v.9H371v-.8h.9Z" transform="translate(-67.1 -41.1)"/><path class="cls-32" d="M377.3,296.1v.8h0v-.8Z" transform="translate(-67.1 -41.1)"/><path class="cls-32" d="M377.3,296.1v.8h0v-.8Z" transform="translate(-67.1 -41.1)"/><path class="cls-32" d="M377.3,296.1v.8h0v-.9Z" transform="translate(-67.1 -41.1)"/><path class="cls-32" d="M377.3,296.1v.9h-.1v-.8Z" transform="translate(-67.1 -41.1)"/><path class="cls-32" d="M377.2,296.2v.8h0v-.8Z" transform="translate(-67.1 -41.1)"/><path class="cls-32" d="M377.2,296.2v.8h0v-.8Z" transform="translate(-67.1 -41.1)"/><path class="cls-32" d="M372.4,296.2v.8h-.2a.1.1,0,0,0-.1-.1h-.2V296h.5Z" transform="translate(-67.1 -41.1)"/><path class="cls-32" d="M377.2,296.2v.8h0v-.8Z" transform="translate(-67.1 -41.1)"/><path class="cls-32" d="M377.2,296.2v.8h0v-.9Z" transform="translate(-67.1 -41.1)"/><path class="cls-32" d="M377.2,296.2v.9h0v-.8Z" transform="translate(-67.1 -41.1)"/><path class="cls-32" d="M377.2,296.3v.8h-.1v-.8Z" transform="translate(-67.1 -41.1)"/><path class="cls-32" d="M377.1,296.3v.8h0v-.8Z" transform="translate(-67.1 -41.1)"/><path class="cls-32" d="M372.8,296.3v.8h-.4v-.8h.4Z" transform="translate(-67.1 -41.1)"/><path class="cls-32" d="M377.1,296.3v.8h0v-.8Z" transform="translate(-67.1 -41.1)"/><path class="cls-32" d="M377.1,296.3v.8H377v-.8Z" transform="translate(-67.1 -41.1)"/><path class="cls-32" d="M373.1,296.4v.8h-.3v-.8h.3Z" transform="translate(-67.1 -41.1)"/><path class="cls-32" d="M377,296.4v.8h0v-.8Z" transform="translate(-67.1 -41.1)"/><path class="cls-32" d="M373.3,296.4v.8h-.2v-.8Z" transform="translate(-67.1 -41.1)"/><path class="cls-32" d="M377,296.4v.8h-.1v-.9Z" transform="translate(-67.1 -41.1)"/><path class="cls-32" d="M376.9,296.4v.9h0v-.8Z" transform="translate(-67.1 -41.1)"/><path class="cls-32" d="M376.9,296.5v.8h0v-.8Z" transform="translate(-67.1 -41.1)"/><path class="cls-32" d="M373.6,296.5v.8h-.3v-.8h.3Z" transform="translate(-67.1 -41.1)"/><path class="cls-32" d="M376.9,296.5v.8h-.1v-.8Z" transform="translate(-67.1 -41.1)"/><path class="cls-32" d="M376.8,296.5v.8h0v-.9Z" transform="translate(-67.1 -41.1)"/><path class="cls-32" d="M376.8,296.5v.9h-.1v-.8Z" transform="translate(-67.1 -41.1)"/><path class="cls-32" d="M376.7,296.6v.8h-.1v-.8Z" transform="translate(-67.1 -41.1)"/><path class="cls-32" d="M374.2,296.6v.8h-.6v-.8h.3c0,.1.1.1.2.1Z" transform="translate(-67.1 -41.1)"/><path class="cls-32" d="M376.6,296.6v.8h0v-.8Z" transform="translate(-67.1 -41.1)"/><path class="cls-32" d="M376.6,296.6v.8h-.1v-.9Z" transform="translate(-67.1 -41.1)"/><path class="cls-32" d="M376.5,296.6v.9h0v-.8Z" transform="translate(-67.1 -41.1)"/><path class="cls-32" d="M376.5,296.7v.8h-.2v-.8h.2Z" transform="translate(-67.1 -41.1)"/><path class="cls-32" d="M376.3,296.7v.8h0v-.8Z" transform="translate(-67.1 -41.1)"/><path class="cls-32" d="M376.3,296.7h-2.2c-.1,0-.2,0-.2-.1h-6.6c-.1-.5,5.3-3.6,8.1-3.5h2.1a.1.1,0,0,1,.1.1h-1.3Zm-4.6-1.6a2.2,2.2,0,0,0,2.1-.1l2-1.4-2.3-1.2a2.4,2.4,0,0,0-2.2.1c-.5.4-.4.9.2,1.3h0c-.5.4-.5.9.1,1.2h.1" transform="translate(-67.1 -41.1)"/><path class="cls-32" d="M376.3,296.7v.8h-2.1v-.8h2.1Z" transform="translate(-67.1 -41.1)"/></g><g id="Cup"><ellipse class="cls-8" cx="404.8" cy="239.7" rx="10.8" ry="4.5"/><path class="cls-8" d="M463.1,262.6l2.6,17.2c0,1.4,2.8,2.4,6.2,2.4s6.2-1,6.2-2.4l2.6-17.2" transform="translate(-67.1 -41.1)"/><path class="cls-8" d="M480.7,262.6c0,1.9-3.9,3.4-8.8,3.4s-8.8-1.5-8.8-3.4,4-3.3,8.8-3.3S480.7,260.8,480.7,262.6Z" transform="translate(-67.1 -41.1)"/></g></g></svg>