<?xml version="1.0" encoding="utf-8"?>
<!-- Generator: Adobe Illustrator 25.2.3, SVG Export Plug-In . SVG Version: 6.00 Build 0)  -->
<svg version="1.1" id="Layer_1" xmlns="http://www.w3.org/2000/svg" xmlns:xlink="http://www.w3.org/1999/xlink" x="0px" y="0px"
	 viewBox="0 0 660.1 318.8" style="enable-background:new 0 0 660.1 318.8;" xml:space="preserve">
<style type="text/css">
	.st0{fill:#8C6239;}
	.st1{fill:#009749;stroke:#231F20;stroke-width:0.5;stroke-miterlimit:10;}
	.st2{fill:#009749;stroke:#231F20;stroke-width:0.33;stroke-miterlimit:10;}
	.st3{fill:#009749;stroke:#231F20;stroke-width:0.34;stroke-miterlimit:10;}
	.st4{fill:#009749;stroke:#231F20;stroke-width:0.38;stroke-miterlimit:10;}
	.st5{fill:#009749;stroke:#231F20;stroke-width:0.42;stroke-miterlimit:10;}
	.st6{opacity:0.5;}
	.st7{fill:#B3B3B3;}
	.st8{fill:#FFFFFF;stroke:#231F20;stroke-width:0.5;stroke-linecap:round;stroke-linejoin:round;}
	.st9{fill:none;stroke:#231F20;stroke-width:0.5;stroke-linecap:round;stroke-linejoin:round;}
	.st10{fill:none;stroke:#231F20;stroke-linecap:round;stroke-linejoin:round;}
	.st11{fill:#404041;stroke:#231F20;stroke-width:0.57;stroke-linecap:round;stroke-linejoin:round;}
	.st12{fill:#E9C230;stroke:#231F20;stroke-width:0.56;stroke-linecap:round;stroke-linejoin:round;}
	.st13{fill:#D81F27;stroke:#231F20;stroke-width:0.56;stroke-linecap:round;stroke-linejoin:round;}
	.st14{fill:#FFFFFF;}
	.st15{font-family:'STBaoliSC-Regular';}
	.st16{font-size:15.85px;}
	
		.st17{opacity:0.5;fill:#FFFFFF;stroke:#231F20;stroke-width:0.5;stroke-linecap:round;stroke-linejoin:round;enable-background:new    ;}
	.st18{fill:#FFFFFF;stroke:#231F20;stroke-width:0.25;stroke-miterlimit:10;}
	.st19{fill:#231F20;}
	.st20{fill:#009749;}
</style>
<g id="Tree">
	<path class="st0" d="M374.3,4.5c-0.3,0.4-4,3.2-8.9,8.2c-6.3,6.3-11.6,13.5-15.7,21.4c-4.6,9.1-7.7,19.7-10.8,28.9s-6,17.1-8,22
		c-3.7,9.2-3.5,3.9-1.5-5.6c1-4.8,2.4-10.4,3.9-16c1.4-5.3,3-10.5,5-15.6c2-5.3,4.5-10.3,7.4-15.2c3.3-5.2,7.1-10.1,11.4-14.5
		C365.5,9.5,375.1,3.8,374.3,4.5z"/>
	<path class="st0" d="M429.3,54.7c-0.9,0-18.8-1.9-39.5-1.7c-5.2-0.1-10.4,0.3-15.5,1.1c-4.9,0.8-9.5,2.5-13.8,5
		c-4.1,2.4-7.8,4.9-11.4,6.5c-3,1.3-6.2,2.2-9.4,2.6c-1.6,0.2-3.1,0.3-4.7,0.1c-0.7-0.1-0.7-0.2-0.1-0.4c3.1-0.5,6.1-1.3,9-2.3
		c2.3-0.9,4.6-2,6.7-3.2l7-4.6c2.4-1.7,5-3,7.7-4.1c2.5-1,5.1-1.7,7.7-2.1c5.5-0.8,11-1.1,16.5-0.8c5.8,0.2,11.9,0.6,18,1.2
		C419.3,53,430.3,54.8,429.3,54.7z"/>
	<path class="st0" d="M268.1,33.2c0.4,0,4.1-0.1,9.8,0.1c7.1,0.4,14.2,1.3,21.2,2.7c4,0.8,8,1.9,11.9,3s7.7,2.4,11.2,3.8
		c5.6,2.1,10.9,4.7,16.1,7.6c3.3,2,3.9,2.6,2.9,2.4s-3.6-1.3-7-2.6l-5.5-2.2l-6.1-2.2l-11.6-4c-3.7-1.2-7.8-2.5-12.1-3.6l-6.7-1.6
		l-6.9-1.4c-4.6-0.8-9.1-1.2-12.3-1.6L268.1,33.2z"/>
	<path class="st0" d="M307,15.5c0.2,0,2.3-0.8,5.7-1.6c2-0.5,4.1-0.8,6.2-0.8c1.2,0.1,2.4,0.3,3.6,0.6c1.2,0.3,2.4,0.8,3.5,1.4
		c2.2,1.1,4.4,2.4,6.5,3.8l6.3,3.6c4,2.2,7.5,3.9,9.7,5c4.1,2.1,1.7,1.5-2.5-0.1c-4.8-1.9-9.5-4.2-13.9-6.9c-2-1.3-4.2-2.9-6.5-4.3
		c-1.2-0.7-2.5-1.3-3.8-1.7c-1.4-0.4-2.8-0.6-4.3-0.6c-2.6,0.1-5.1,0.4-7.6,1L307,15.5z"/>
	<path class="st1" d="M268.7,51.7c0.7,0.4,10-5,12-9.1s-6.5-9.1-9.1-5.8S267.9,51.2,268.7,51.7z"/>
	<path class="st1" d="M259.3,40c0.3,0.8,11,2.4,15.1,0.4s0.6-11.2-3.5-10.1S259,39.1,259.3,40z"/>
	<path class="st1" d="M284.9,50.8c0.8-0.3,2.4-10.9,0.5-15s-11.1-0.8-10.2,3.4S284,51.1,284.9,50.8z"/>
	<path class="st1" d="M273,44.2c0.8,0.4,9.7-5.7,11.4-9.9s-7.1-8.7-9.5-5.1S272.2,43.7,273,44.2z"/>
	<path class="st2" d="M377,7.1c-0.4,0.6-7.4,1.7-9.5,0.4s2-8,4.3-7.3S377.3,6.5,377,7.1z"/>
	<path class="st3" d="M302.4,23.4c0.6,0.4,7.7-1.1,9.3-3.1s-4.8-6.5-6.8-5S301.8,23,302.4,23.4z"/>
	<path class="st3" d="M295.5,14.8c0.2,0.5,8.3,3.4,11.5,3.1s0.6-6.4-2.6-6.6S295.3,14.2,295.5,14.8z"/>
	<path class="st3" d="M314.8,26c0.6-0.1,2-6,0.7-8.8s-8.5-2.5-7.9,0.1S314.1,26,314.8,26z"/>
	<path class="st3" d="M305.8,19.8c0.6,0.4,7.5-1.5,8.9-3.6s-5.3-6.4-7.2-4.8S305.2,19.4,305.8,19.8z"/>
	<path class="st2" d="M426.3,63.5c-0.7,0.2-6.3-4.3-6.9-6.9s7.2-3.7,8.4-1.4S427,63.4,426.3,63.5z"/>
	<path class="st2" d="M436.2,59c-0.4,0.4-8.8-0.7-11.5-2.4s2.3-6.1,5.2-4.8S436.7,58.6,436.2,59z"/>
	<path class="st2" d="M414.3,60.3c-0.6-0.3,0.8-6.2,3.2-8.1s8.7,1.5,6.9,3.6S414.8,60.6,414.3,60.3z"/>
	<path class="st2" d="M424.8,58.8c-0.7,0.1-5.8-4.7-6.1-7.2s7.5-3.4,8.4-1.1S425.5,58.7,424.8,58.8z"/>
	<path class="st2" d="M331,55.7c-0.6-0.3,0.8-6.2,3.3-8.1s8.6,1.5,6.8,3.6S331.6,56,331,55.7z"/>
	<path class="st4" d="M357.8,46.5c-0.1,0.6-8-0.8-11.2-3.4s-1.2-9.3,2-7.4S358,45.9,357.8,46.5z"/>
	<path class="st5" d="M310.2,56.5c-0.8,0-2.1-8.1-0.3-11.9s10-3.5,9,0.1S311,56.5,310.2,56.5z"/>
	<path class="st5" d="M383.6,66.3c0.7,0,2-8.1,0.3-11.9s-10-3.4-9.1,0.1S382.8,66.3,383.6,66.3z"/>
	<path class="st4" d="M347,79.5c0.6-0.2-0.9-8.1-3.6-11.2s-9.2-1.1-7.3,2S346.4,79.6,347,79.5z"/>
</g>
<g id="Couch">
	<g id="Couch_color">
		<g class="st6">
			<polyline class="st7" points="418.6,191.7 99.7,223.1 90.4,219.9 2.8,189.4 2.8,206.4 90.5,238.7 411.4,206.9 498.3,238.9 
				640.9,224 640.9,209 506.2,223.1 			"/>
		</g>
		<path class="st8" d="M583.6,138.1L474.9,98V79.1c0-5.9-4.7-10.7-10.6-10.8c-0.4,0-0.8,0-1.2,0.1l-158,15.7L19.3,112.4
			c-2,0.2-3.8,1.2-5.1,2.8l-11,1.1c-1.6,0.3-2.8,1.8-2.7,3.4v68.8l99.4,34.6l318.9-31.4l87.1,31.3l145.9-15.2
			c4.6-0.4,8.1-4.3,8.1-8.9v-2.5c0-3.8-2.4-7.2-6-8.5l-70.3-24.7V138.1"/>
	</g>
	<polyline class="st9" points="411.4,192.4 411.4,206.9 90.5,238.7 90.4,219.9 99.7,223.1 418.6,191.7 505.9,223.1 	"/>
	<path class="st9" d="M318.9,140.1l93.7,33c3.7,1.3,6,4.2,6,7.4v11.2"/>
	<polyline class="st9" points="474.4,124.8 574.1,159.9 574.1,141.4 474.8,105.3 	"/>
	<line class="st9" x1="503.5" y1="205.8" x2="656.9" y2="190"/>
	<path class="st9" d="M411.4,206.9l86.9,32l-0.2-18.6l7.3,2.6c1.5,0.5,3.2-0.4,3.2-1.7v-8.3c0-3.2-2.3-6.1-6-7.4l-91.2-32.8"/>
	<polyline class="st9" points="498.3,238.9 640.9,224 640.9,209 	"/>
	<path class="st10" d="M537.8,182.5"/>
	<path class="st9" d="M155.6,156.3l0.3-45.6c0-5.9-4.7-10.6-10.5-10.7c-0.4,0-0.8,0-1.3,0.1l-7.4,0.7"/>
	<path class="st9" d="M474.6,124.6l0.4-45.5c0-5.9-4.7-10.7-10.6-10.8c-0.4,0-0.8,0-1.2,0.1l-7.4,0.8"/>
	<polyline class="st9" points="574.1,141.4 583.6,138.1 474.9,98.1 	"/>
	<polyline class="st9" points="90.5,238.7 2.8,206.4 2.8,189.4 	"/>
	<path class="st9" d="M155.4,156.3l93.7,33c3.7,1.3,6.1,4.2,6.1,7.4v11"/>
	<line class="st9" x1="416.3" y1="175.5" x2="97.5" y2="207.1"/>
	<path class="st9" d="M14.2,115.2l-11,1.1c-1.6,0.3-2.8,1.8-2.7,3.4l-0.2,52v16.8l99.4,34.6v-11c0-3.2-2.4-6.1-6.1-7.4l-93.3-33
		l11.4-1.1v-48.3c0.1-5.2,3.3-9.5,7.6-9.9l443.9-44"/>
	<path class="st9" d="M300,84.6l7.4-0.7c5.8-0.7,11.1,3.5,11.7,9.3c0,0.4,0.1,0.8,0.1,1.3l-0.3,45.6l155.7-15.5L0.3,171.8"/>
</g>
<g id="Pillows">
	<path class="st11" d="M493,161c7.8-11.9,1.6-26.2,8-69.4c0.7-4.7-15.3-1.9-51.4-10.2l-17-3.9c2.9,20.9-6.3,46.5-15.2,64.7
		c-5.7,11.7,29-1.2,66.8,14.7C488,158.5,491,160,493,161"/>
	<path class="st12" d="M378.2,145.8c-2.8-12.2,5.4-20.8,11.4-56.5c0.7-3.9,11.8,4.5,40.4,12.1l13.6,3.7c-7.3,14.9-7,38.3-5,55.7
		c1.3,11.3-21-12.2-52.9-14.7L378.2,145.8"/>
	<path class="st13" d="M232.8,167.7c-9.9-7.8-1.1-5.2-26.4-31.1c-5.6-5.7,22.8-7.2,49.9-19.3c0,0,22.1-10.6,22.1-10.5
		c-1.2,16.2,17.1,26.7,20.8,43.8C301.5,161.5,271.7,147.8,232.8,167.7L232.8,167.7"/>
	<text transform="matrix(0.569 -0.1904 0.3173 0.9483 232.5002 151.0999)" class="st14 st15 st16">こんばんは</text>
</g>
<g id="TABLE">
	<g id="Table-2">
		<line class="st9" x1="214.1" y1="281.3" x2="214.1" y2="272"/>
		<polyline class="st8" points="133.7,252.4 133.7,281.3 237.1,318.5 237.1,279 		"/>
		<polyline class="st8" points="110.7,234.8 214.1,272 489.9,244.1 386.5,206.9 110.7,234.8 110.7,244.1 214.1,281.3 489.9,253.4 
			489.9,244.1 		"/>
		<polygon class="st8" points="248.8,277.8 248.6,317.2 237.1,318.5 237.1,279 		"/>
		<polyline class="st17" points="368.5,265.7 455,296.8 455.1,257.1 		"/>
		<polyline class="st8" points="455.1,297.1 368.5,265.7 455.1,256.9 455.1,297.1 		"/>
		<path class="st8" d="M466.7,255.8l-0.2,39.7l-11.4,1.6v-40.2L466.7,255.8z"/>
		<line class="st9" x1="214.1" y1="281.3" x2="214.1" y2="272"/>
	</g>
	<g id="Cards">
		<path class="st18" d="M371,232.3l-21.4-10.7c-0.6-0.3-0.5-0.7,0.1-1l14.1-6.5c0.7-0.3,1.4-0.3,2.1,0l21.5,9.9
			c0.6,0.3,0.6,0.8,0,1.1l-14.1,7.2C372.6,232.6,371.7,232.6,371,232.3z"/>
		<path class="st19" d="M364.4,218.7l3.3-1.5h0.2l-2,1.6l3.6-0.9h0.2l-3.3,1.6h-0.2l2.9-1.4l-3.7,1h-0.1l2.1-1.7l-2.8,1.3H364.4z"/>
		<path class="st19" d="M367.1,220l3.3-1.6l1.3,0.6h-0.2l-1.1-0.5l-1.3,0.6l0.8,0.3h-0.2l-0.7-0.3l-1.5,0.7l1.1,0.5h-0.2L367.1,220z
			"/>
		<path class="st19" d="M368.9,220.9l3.3-1.6h0.3l-2,1.7l3.5-1h0.3l-3.3,1.6h-0.2l2.8-1.3l-3.7,1l0,0l2.1-1.8l-2.9,1.3L368.9,220.9z
			"/>
		<path class="st19" d="M371.7,222.1l3.3-1.5l0.6,0.3c0.5,0.2,0.5,0.4,0,0.7c-0.4,0.2-0.8,0.2-1.2,0.1c0.2,0.2,0.4,0.4-0.3,0.7
			c-0.6,0.3-1.2,0.3-1.8,0.1L371.7,222.1z M373.7,221.3l0.4,0.2c0.4,0.2,0.9,0.2,1.3,0c0.4-0.2,0.4-0.4,0-0.6l-0.4-0.2L373.7,221.3z
			 M372,222.2l0.5,0.2c0.5,0.2,1,0.2,1.4-0.1c0.6-0.2,0.5-0.5,0.1-0.7l-0.5-0.2L372,222.2z"/>
		<path class="st19" d="M373.8,223.1l3.3-1.6l1.3,0.7h-0.2l-1.1-0.6l-1.3,0.6l0.8,0.4h-0.2l-0.8-0.4l-1.5,0.8l1.2,0.5h-0.2
			L373.8,223.1z"/>
		<path class="st19" d="M378.2,223.7l-1,1.1H377l1-1h-0.2l-0.4-0.2l-1.5,0.8h-0.2l3.3-1.7l0.6,0.3c0.6,0.3,0.7,0.6,0.1,0.9
			C379.2,224,378.7,223.9,378.2,223.7z M377.6,223.3l0.4,0.2c0.4,0.2,1,0.2,1.4,0c0.6-0.3,0.5-0.5,0-0.7l-0.4-0.2L377.6,223.3z"/>
		<path class="st19" d="M363.3,222.2c-0.5-0.3-0.3-0.7,0.9-1.2c0.8-0.5,1.7-0.7,2.6-0.4c0.4,0.2,0.2,0.5,0,0.6h-0.3
			c0.2-0.2,0.4-0.4,0.1-0.5c-0.8-0.2-1.6,0-2.2,0.4c-1,0.4-1.3,0.8-0.9,1c0.4,0.2,0.7,0.2,1.1,0h0.1
			C364.3,222.3,363.8,222.3,363.3,222.2z"/>
		<path class="st19" d="M365.8,222.5l-1.2,0.3h-0.2l4.2-1.2h0.2l-2.5,2h-0.2l0.7-0.6L365.8,222.5z M366.9,222.8l1.6-1.1l-2.5,0.7
			L366.9,222.8z"/>
		<path class="st19" d="M369.4,223.5l-1,1.1h-0.3l1.1-1H369l-0.4-0.2l-1.6,0.8h-0.2l3.4-1.7l0.6,0.4c0.5,0.2,0.7,0.5,0,0.8
			C370.3,223.8,369.8,223.8,369.4,223.5z M368.8,223.1l0.4,0.2c0.4,0.3,1,0.3,1.4,0c0.5-0.3,0.5-0.5,0-0.7l-0.4-0.2L368.8,223.1z"/>
		<path class="st19" d="M368.9,224.9l3.4-1.6l0.6,0.2c0.7,0.4,0.5,0.8-0.6,1.4c-0.8,0.5-1.9,0.6-2.8,0.3L368.9,224.9z M369.3,224.9
			l0.4,0.2c0.6,0.3,1.3,0.2,2.4-0.3s1.2-0.9,0.6-1.2l-0.4-0.2L369.3,224.9z"/>
		<polygon class="st20" points="368.5,229.2 355.7,222.9 358.2,221.7 371,227.9 		"/>
		<path class="st14" d="M359.1,222.9c0,0.1,0.1,0.2,0.1,0.3l0,0v0.3h-0.1v-0.3l0,0c0-0.1-0.1-0.2-0.1-0.3H359.1z"/>
		<path class="st14" d="M359.3,223.8l0.6,0.2c0.5,0.1,0.9,0.1,1.4,0H360L359.3,223.8L359.3,223.8z M360.4,223.4
			c0.1,0.1,0.1,0.2,0.1,0.3h-0.1c0-0.1,0-0.2-0.1-0.3H360.4z"/>
		<path class="st14" d="M362.1,224.2H362c-0.5,0.2-1,0.3-1.5,0.3h1.2l0.3-0.2L362.1,224.2L362.1,224.2z M362.5,224.4l-0.3,0.2
			l-0.2,0.3c-0.1,0.1-0.1,0.1-0.1,0.2h-0.1c0-0.1,0-0.2,0.1-0.3l0.5-0.4L362.5,224.4L362.5,224.4z M362.8,224.4c0,0.1,0,0.2-0.1,0.2
			h-0.1c0.1-0.1,0.1-0.1,0.1-0.2H362.8z M363,224.5v0.2h-0.1C362.9,224.6,362.9,224.5,363,224.5z"/>
		<path class="st14" d="M362.6,224.9h0.2l1,0.5h-0.1l-1-0.5H362.6z"/>
		<path class="st14" d="M365,225.8c0-0.1,0.1-0.1,0.2-0.1H365l0.5,0.2l0,0l-0.8,0.3c-0.1,0.1-0.2,0.1-0.3,0c0,0,0,0,0,0h0.4l0.6-0.3
			l-0.4-0.3l-0.7,0.2h0.1l0.5-0.2h-0.4c0,0.1,0,0.1,0.1,0.1l0,0L365,225.8z"/>
		<path class="st14" d="M365.6,226.4h0.2l1,0.5h-0.1l-1-0.5H365.6z"/>
		<path class="st14" d="M366.7,227.6h0.2l1-0.5c0.1,0,0.1,0,0.1-0.1l0,0h-0.4c0.2,0.2,0.3,0.4,0.4,0.6h-0.1l-0.3-0.5l0,0l-0.7,0.3
			h-0.2V227.6z M368.6,227.3c-0.1,0-0.1,0.1-0.1,0.2h-0.1c0-0.1,0-0.1,0.1-0.2H368.6z M368.8,227.3c0,0.1,0,0.2-0.1,0.2h-0.1v-0.2
			H368.8z"/>
		<path class="st18" d="M373.5,241.6L352.1,231c-0.6-0.3-0.6-0.7,0-1l14.2-6.5c0.7-0.3,1.4-0.3,2.1,0l21.4,9.9
			c0.6,0.3,0.7,0.8,0.1,1.1l-14.1,7.1C375.1,242,374.2,242,373.5,241.6z"/>
		<path class="st19" d="M366.9,228.1l3.3-1.5h0.2l-2,1.6l3.5-0.9h0.3l-3.3,1.6h-0.2l2.8-1.4l-3.7,1l0,0l2.1-1.7L366.9,228.1
			L366.9,228.1z"/>
		<path class="st19" d="M369.5,229.4l3.3-1.6l1.3,0.6h-0.2l-1.1-0.5l-1.2,0.6l0.7,0.3h-0.2l-0.7-0.3l-1.5,0.7l1.2,0.5h-0.2
			L369.5,229.4z"/>
		<path class="st19" d="M371.4,230.3l3.3-1.6h0.2l-2,1.7l3.6-1h0.2l-3.3,1.6h-0.2l2.9-1.3l-3.7,1h-0.1l2.1-1.8l-2.8,1.3L371.4,230.3
			z"/>
		<path class="st19" d="M374.1,231.5l3.3-1.6l0.7,0.4c0.4,0.2,0.5,0.4-0.1,0.7c-0.4,0.2-0.8,0.2-1.2,0.1c0.2,0.2,0.4,0.4-0.2,0.7
			c-0.6,0.3-1.2,0.3-1.8,0.1L374.1,231.5z M376.2,230.7l0.4,0.2c0.4,0.2,0.8,0.2,1.2,0c0.5-0.2,0.4-0.4,0.1-0.6l-0.5-0.2
			L376.2,230.7z M374.5,231.6l0.5,0.2c0.5,0.2,1,0.2,1.4-0.1c0.5-0.2,0.4-0.5,0-0.7l-0.4-0.2L374.5,231.6z"/>
		<path class="st19" d="M376.2,232.5l3.3-1.6l1.3,0.7h-0.1l-1.2-0.5l-1.2,0.6l0.7,0.4h-0.2l-0.7-0.4l-1.5,0.8l1.2,0.5h-0.2
			L376.2,232.5z"/>
		<path class="st19" d="M380.7,233.1l-1,1.1h-0.2l0.9-1.1h-0.1l-0.4-0.2l-1.6,0.7h-0.2l3.3-1.7l0.7,0.3c0.5,0.3,0.6,0.6,0,0.9
			C381.6,233.2,381.2,233.2,380.7,233.1z M380.1,232.7l0.4,0.2c0.4,0.2,1,0.2,1.4,0c0.5-0.3,0.4-0.5,0-0.7l-0.5-0.2L380.1,232.7z"/>
		<path class="st19" d="M365.8,231.6c-0.6-0.3-0.3-0.7,0.8-1.2s2.1-0.7,2.6-0.4s0.2,0.5,0,0.6H369c0.2-0.2,0.3-0.4,0-0.5
			s-1.2-0.1-2.2,0.4s-1.3,0.8-0.8,1c0.4,0.2,0.7,0.2,1.1,0h0.1C366.8,231.7,366.3,231.7,365.8,231.6z"/>
		<path class="st19" d="M368.2,231.9l-1.1,0.3h-0.2l4.2-1.2h0.2l-2.6,2h-0.2l0.7-0.6L368.2,231.9z M369.4,232.2l1.5-1.1l-2.4,0.7
			L369.4,232.2z"/>
		<path class="st19" d="M371.9,232.9l-1.1,1.1h-0.2l1-1h-0.1l-0.4-0.2l-1.6,0.8h-0.2l3.3-1.7l0.7,0.4c0.5,0.2,0.6,0.5,0,0.8
			C372.8,233.2,372.3,233.2,371.9,232.9z M371.2,232.5l0.5,0.2c0.4,0.2,1,0.2,1.4,0c0.5-0.3,0.4-0.5,0-0.7l-0.5-0.2L371.2,232.5z"/>
		<path class="st19" d="M371.4,234.3l3.3-1.6l0.6,0.2c0.8,0.4,0.6,0.8-0.5,1.4c-0.9,0.5-1.9,0.6-2.8,0.3L371.4,234.3z M371.8,234.3
			l0.4,0.2c0.5,0.3,1.2,0.2,2.3-0.3s1.2-0.9,0.6-1.2l-0.3-0.2L371.8,234.3z"/>
		<polygon class="st20" points="370.9,238.6 358.1,232.2 360.7,231 373.5,237.3 		"/>
		<path class="st14" d="M361.5,232.3l0.2,0.3l0,0v0.3h-0.1v-0.3h-0.1c0-0.1,0-0.2-0.1-0.3H361.5z"/>
		<path class="st14" d="M361.8,233.2c0.2,0.1,0.4,0.2,0.6,0.2c0.4,0.1,0.9,0.1,1.3,0h-1.2L361.8,233.2L361.8,233.2L361.8,233.2z
			 M362.9,232.8v0.3h-0.1v-0.3H362.9z"/>
		<path class="st14" d="M364.5,233.6h-0.1c-0.4,0.2-0.9,0.3-1.4,0.3h1.1c0.1-0.1,0.3-0.1,0.3-0.2L364.5,233.6L364.5,233.6z
			 M365,233.8l-0.3,0.2l-0.3,0.3v0.2h-0.1c0-0.1,0-0.2,0.1-0.3c0.1-0.1,0.2-0.3,0.4-0.4L365,233.8L365,233.8z M365.2,233.8v0.2h-0.1
			C365.1,233.9,365.1,233.9,365.2,233.8z M365.5,233.9c0,0.1,0,0.1-0.1,0.2h-0.1c0.1-0.1,0.1-0.1,0.1-0.2H365.5z"/>
		<path class="st14" d="M365.1,234.3h0.1l1,0.5c0.1,0,0.2,0,0.2,0.1h-0.2l-1-0.5h-0.1V234.3z"/>
		<path class="st14" d="M367.4,235.2l0.3-0.2h0.1c0,0.1,0,0.1-0.2,0.1h-0.1l0.4,0.2c0.1,0,0.1,0,0.1,0.1h-0.1l-0.7,0.3h-0.4
			c-0.1,0-0.1,0-0.1-0.1l0,0h0.5l0.7-0.2l-0.5-0.3l-0.6,0.2h0.5l-0.3-0.2h0.1L367.4,235.2z"/>
		<path class="st14" d="M368.1,235.8h0.1l1,0.5h0.1c0-0.1,0-0.1-0.1-0.1l0,0l-1-0.5h-0.1V235.8z"/>
		<path class="st14" d="M369.1,237h0.2l1-0.5h-0.2l0.4,0.6h-0.2c0-0.2-0.1-0.4-0.3-0.5l0,0l-0.6,0.3h-0.3V237z M371,236.7
			c0,0.1,0,0.1-0.1,0.2h-0.1c0.1-0.1,0.1-0.1,0.1-0.2H371z M371.3,236.7c0,0.1,0,0.1-0.1,0.2h-0.1c0-0.1,0.1-0.1,0.1-0.2H371.3z"/>
		<path class="st18" d="M282,233.3l-20.5,10.1c-0.7,0.3-1.5,0.3-2.2,0l-14-6.8c-0.6-0.3-0.5-0.7,0.1-1l20.5-9.5
			c0.7-0.2,1.4-0.2,2.1,0l13.9,6.2C282.5,232.6,282.6,233,282,233.3z"/>
		<path class="st19" d="M255.3,236.3l-3.2-1.6h0.2l3.5,1l-1.9-1.7h0.2l3.2,1.6h-0.1l-2.9-1.3l2.1,1.7l0,0l-3.7-0.9l2.8,1.3
			L255.3,236.3z"/>
		<path class="st19" d="M258,235l-3.3-1.5l1.3-0.6h0.2l-1.1,0.5l1.3,0.6l0.7-0.3h0.1l-0.7,0.4l1.5,0.7l1.2-0.6h0.1L258,235z"/>
		<path class="st19" d="M259.8,234.2l-3.2-1.5h0.2l3.5,0.9l-2-1.6l0.2-0.2l3.3,1.6h-0.2l-2.8-1.3l2.1,1.7l0,0l-3.7-1l2.8,1.3
			L259.8,234.2z"/>
		<path class="st19" d="M262.4,233l-3.2-1.6l0.6-0.2c0.5-0.3,1-0.3,1.5,0c0.4,0.2,0.5,0.4,0.3,0.5c0.5-0.2,1-0.1,1.4,0.1
			c0.6,0.3,0.6,0.6,0.1,0.9L262.4,233z M260.8,232l0.4-0.2c0.4-0.2,0.3-0.4-0.1-0.5c-0.3-0.2-0.7-0.2-1.1-0.1l-0.4,0.2L260.8,232z
			 M262.5,232.8l0.4-0.2c0.4-0.2,0.4-0.4-0.1-0.7c-0.4-0.2-1-0.2-1.4,0l-0.4,0.2L262.5,232.8z"/>
		<path class="st19" d="M264.4,232l-3.2-1.5l1.2-0.5h0.2l-1.1,0.5l1.3,0.6l0.7-0.3h0.1l-0.6,0.3l1.4,0.6l1.1-0.5h0.2L264.4,232z"/>
		<path class="st19" d="M265.5,230l2.1,0.5h-0.2l-2-0.4h-0.2l-0.3,0.2l1.5,0.7h-0.2l-3.3-1.5l0.7-0.3c0.5-0.3,1.1-0.3,1.6,0
			C265.7,229.6,265.7,229.9,265.5,230z M264.7,230.3l0.4-0.2c0.4-0.2,0.4-0.4-0.1-0.6c-0.4-0.2-0.9-0.2-1.3,0l-0.4,0.2L264.7,230.3z
			"/>
		<path class="st19" d="M262.7,236.8c-0.9,0.2-1.8,0.1-2.6-0.4c-1.2-0.5-1.4-1-0.9-1.2c0.5-0.2,0.9-0.2,1.4,0h-0.1
			c-0.4-0.2-0.7-0.2-1.1,0c-0.4,0.2-0.1,0.5,0.9,1c0.6,0.4,1.4,0.6,2.2,0.4c0.3-0.2,0.1-0.4-0.1-0.5h0.3
			C262.8,236.3,263.1,236.6,262.7,236.8z"/>
		<path class="st19" d="M263.1,235.6l0.8,0.6h-0.2l-2.6-2h0.2l4.1,1.2h-0.2l-1.1-0.3L263.1,235.6z M263.9,235.1l-2.4-0.7l1.5,1.1
			L263.9,235.1z"/>
		<path class="st19" d="M265.3,234l2.1,0.5h-0.2l-2.1-0.5h-0.5l1.6,0.8H266l-3.4-1.6l0.7-0.3c0.5-0.3,1.2-0.3,1.7,0
			C265.4,233.6,265.5,233.8,265.3,234z M264.4,234.3l0.4-0.2c0.4-0.2,0.5-0.4,0-0.7c-0.4-0.2-1-0.2-1.4,0l-0.4,0.2L264.4,234.3z"/>
		<path class="st19" d="M268,234.2l-3.3-1.5l0.5-0.3c0.9-0.3,1.9-0.2,2.7,0.3c1.1,0.5,1.3,0.9,0.6,1.2L268,234.2z M268,234h0.3
			c0.6-0.3,0.5-0.6-0.6-1.1s-1.8-0.6-2.3-0.3l-0.4,0.2L268,234z"/>
		<polygon class="st20" points="276.3,234.4 264,240.4 261.5,239.2 273.8,233.3 		"/>
		<path class="st14" d="M264.1,238.8h0.7l-0.2-0.3l0,0l0.3,0.3h0.7c-0.2-0.1-0.5-0.1-0.7,0c0.1,0,0.1,0,0.1,0.1s0,0.1-0.1,0.1
			c0,0.1,0,0.2-0.1,0.3h-0.1c0.1-0.1,0.1-0.2,0.1-0.3v-0.2H264.1z"/>
		<path class="st14" d="M265.1,238.1L265.1,238.1z M266,238.6l0.4-0.2c0.1-0.2,0.1-0.5-0.1-0.7h0.1c0.2,0.2,0.2,0.4,0.1,0.6
			l-0.3,0.3L266,238.6L266,238.6z"/>
		<path class="st14" d="M267.2,236.9L267.2,236.9z M267.2,237L267.2,237z M267.1,237.1l0.5,0.2h0.3L267.1,237.1L267.1,237.1
			L267.1,237.1z M266.7,237.3h0.1c0.4,0.2,0.5,0.4,0.5,0.7h-0.1c0-0.2-0.1-0.4-0.3-0.6h-0.2V237.3z"/>
		<path class="st14" d="M268.2,237.1h0.1l1-0.5h0.2c-0.1,0-0.1,0-0.1,0.1l0,0l-1,0.4H268.2z"/>
		<path class="st14" d="M269.8,236L269.8,236c0,0.1,0,0.1,0.1,0.1l0,0l0.4-0.2c0-0.1,0-0.1,0.1-0.1l0,0c0.1,0,0.1,0,0.1,0.1l0.6,0.3
			c0.1,0.1,0.1,0.1,0,0.2h-0.3c0.1,0,0.2,0,0.2-0.1s0.1,0,0-0.1l-0.6-0.3l-0.5,0.2l0.4,0.3c0.1,0.1,0.1,0.3,0,0.4h-0.1
			c0.1-0.2,0.1-0.3,0-0.4l-0.3-0.3l-0.3,0.2h-0.1L269.8,236z"/>
		<path class="st14" d="M271,235.7h0.2l0.9-0.4h0.1l-1,0.5H271V235.7z"/>
		<path class="st14" d="M272.8,234.3L272.8,234.3z M273.4,235.2h-0.2l-1-0.4h0.4l1-0.2h-0.9l0.6,0.3h0.1V235.2z M272.7,234.4
			L272.7,234.4z"/>
		<path class="st18" d="M256.4,234.4l-20.6,10.1c-0.7,0.3-1.5,0.3-2.2,0l-14-6.8c-0.6-0.3-0.5-0.8,0.1-1l20.6-9.5
			c0.7-0.2,1.3-0.2,2,0l14,6.2C256.9,233.7,256.9,234.1,256.4,234.4z"/>
		<path class="st19" d="M229.7,237.4l-3.3-1.6h0.2l3.6,1l-2-1.7h0.2l3.3,1.5h-0.2l-2.8-1.3l2,1.7l0,0l-3.7-1l2.9,1.4H229.7z"/>
		<path class="st19" d="M232.3,236.1l-3.2-1.5l1.2-0.6h0.2l-1.1,0.5l1.3,0.6l0.7-0.4h0.2l-0.7,0.3l1.4,0.7l1.2-0.5h0.2L232.3,236.1z
			"/>
		<path class="st19" d="M234.2,235.3l-3.3-1.6h0.2l3.5,1l-2-1.7h0.3l3.2,1.5h-0.2l-2.8-1.3l2.1,1.7l0,0l-3.7-0.9l2.8,1.3H234.2z"/>
		<path class="st19" d="M236.8,234l-3.3-1.5l0.6-0.3c0.5-0.2,1-0.2,1.5,0c0.5,0.2,0.5,0.5,0.3,0.6c0.5-0.2,1-0.1,1.4,0.1
			c0.6,0.3,0.6,0.6,0.1,0.8L236.8,234z M235.1,233.1l0.4-0.2c0.4-0.2,0.3-0.4,0-0.6c-0.4-0.2-0.8-0.2-1.2,0l-0.4,0.2L235.1,233.1z
			 M236.8,233.8l0.4-0.2c0.4-0.2,0.4-0.4-0.1-0.6c-0.4-0.3-1-0.3-1.4,0l-0.4,0.2L236.8,233.8z"/>
		<path class="st19" d="M238.8,233.1l-3.3-1.5l1.2-0.6h0.2l-1,0.5l1.2,0.6l0.7-0.4h0.2l-0.7,0.3l1.5,0.7l1.1-0.5h0.2L238.8,233.1z"
			/>
		<path class="st19" d="M239.8,231.1l2.2,0.5h-0.2l-2.1-0.5h-0.1l-0.4,0.2l1.5,0.7h-0.2l-3.2-1.5l0.6-0.3c0.5-0.3,1.1-0.3,1.6,0
			C240,230.6,240.1,230.9,239.8,231.1z M239,231.4l0.4-0.2c0.4-0.2,0.5-0.4,0-0.6c-0.4-0.2-1-0.2-1.4,0l-0.4,0.2L239,231.4z"/>
		<path class="st19" d="M237,237.9c-0.9,0.2-1.8,0-2.6-0.4c-1.1-0.6-1.4-1-0.8-1.2s1-0.1,1.3-0.1v0.2c-0.4-0.1-0.7-0.2-1.1-0.1
			c-0.4,0.2-0.1,0.6,0.9,1.1c0.7,0.4,1.4,0.5,2.2,0.4c0.3-0.2,0.1-0.4,0-0.5h0.2C237.2,237.3,237.5,237.6,237,237.9z"/>
		<path class="st19" d="M237.5,236.7l0.7,0.5H238l-2.6-1.9h0.3l4.1,1.2h-0.2l-1.2-0.4L237.5,236.7z M238.2,236.2l-2.4-0.7l1.5,1.1
			L238.2,236.2z"/>
		<path class="st19" d="M239.6,235l2.2,0.5h-0.2l-2.2-0.4h-0.1l-0.4,0.2l1.6,0.7h-0.2l-3.3-1.5l0.6-0.3c0.5-0.3,1.2-0.3,1.7,0
			C239.8,234.6,239.8,234.8,239.6,235z M238.7,235.3l0.4-0.2c0.5-0.2,0.5-0.4,0-0.6c-0.4-0.2-0.9-0.2-1.3,0l-0.5,0.2L238.7,235.3z"
			/>
		<path class="st19" d="M242.3,235.3l-3.3-1.6l0.5-0.2c0.9-0.3,1.9-0.2,2.7,0.3c1.2,0.5,1.3,0.9,0.6,1.2L242.3,235.3z M242.3,235.1
			l0.4-0.2c0.5-0.2,0.4-0.6-0.7-1c-0.7-0.5-1.5-0.6-2.3-0.3h-0.3L242.3,235.1z"/>
		<polygon class="st20" points="250.6,235.5 238.3,241.5 235.8,240.3 248.1,234.4 		"/>
		<path class="st14" d="M238.4,239.8h0.7c0-0.1-0.1-0.2-0.2-0.3h0.1c0.1,0.2,0.2,0.3,0.2,0.4l0,0c0.1,0.1,0.1,0.2,0.1,0.3v0.3h-0.2
			l0.2-0.3c0-0.1,0-0.2-0.1-0.3h-0.7L238.4,239.8z"/>
		<path class="st14" d="M239.4,239.2L239.4,239.2z M240.3,239.7c0.2,0,0.3-0.2,0.4-0.3c0.1-0.2,0.1-0.4-0.1-0.6h0.1
			c0.2,0.2,0.2,0.4,0.1,0.6c0,0.1-0.1,0.2-0.3,0.3H240.3z"/>
		<path class="st14" d="M241.6,238L241.6,238z M241.5,238.1L241.5,238.1z M241.4,238.2h0.5l0.6,0.2h-0.2l-0.8-0.2
			c-0.1,0-0.1,0-0.1-0.1V238.2z M241,238.4h0.1c0.4,0.2,0.6,0.4,0.6,0.6h-0.2c0.1-0.1-0.1-0.3-0.3-0.5H241V238.4z"/>
		<path class="st14" d="M242.5,238.1h0.2l0.9-0.5c0.1,0,0.1,0,0.1-0.1l0,0l-1,0.4h-0.2V238.1z"/>
		<path class="st14" d="M244.1,237.1h0.1l0.4-0.2h0.2l0.7,0.4c0,0.1,0,0.1-0.1,0.1l0,0c0-0.1,0-0.1-0.1-0.2l-0.6-0.2l-0.4,0.2
			c0.2,0.1,0.3,0.2,0.3,0.3c0.1,0.1,0.1,0.2,0,0.3c0,0,0,0,0,0h-0.1c0.1-0.1,0.1-0.2,0-0.3c0,0,0,0,0,0l-0.3-0.3l-0.3,0.2h-0.2
			c0.1,0,0.1,0,0.1-0.1l0,0L244.1,237.1z"/>
		<path class="st14" d="M245.3,236.8h0.2l0.9-0.5h0.1l-0.9,0.4h-0.3L245.3,236.8z"/>
		<path class="st14" d="M247.1,235.3L247.1,235.3z M247.7,236.3h-0.2l-0.9-0.4l0,0l0.3,0.2l1-0.2H247l0.6,0.3h0.1V236.3z M247,235.4
			L247,235.4z"/>
		<path class="st18" d="M246.8,244.1l28.5,6.6c0.8,0.2,1.2,0.7,0.8,1.1l-8.6,10.2c-0.6,0.5-1.4,0.6-2.2,0.4l-29.5-7.3
			c-0.8-0.2-1.1-0.7-0.7-1.1l9.6-9.6C245.3,244,246.1,243.9,246.8,244.1z"/>
		<path class="st19" d="M262.9,256.6l-2.2,2.4h-0.3l0.8-2.4l-3,1.8h-0.3l2.2-2.4h0.2l-1.8,2.1l3-1.9l0,0l-0.7,2.4l1.8-2.1
			L262.9,256.6z"/>
		<path class="st19" d="M259.2,255.7l-2.2,2.4l-1.8-0.4v-0.2l1.5,0.4l0.9-0.9l-1-0.2v-0.2l1,0.3l1-1.1l-1.6-0.4h0.1L259.2,255.7z"/>
		<path class="st19" d="M256.6,255.1l-2.2,2.4h-0.3l0.8-2.3l-3,1.8h-0.3l2.2-2.4h0.3l-1.9,2l3-1.8h0.1l-0.9,2.4l1.9-2.1H256.6z"/>
		<path class="st19" d="M252.9,254.2l-2.2,2.4l-0.9-0.2c-0.7-0.2-0.9-0.5-0.5-0.9c0.3-0.3,0.7-0.4,1.1-0.3c-0.3-0.1-0.7-0.4-0.2-0.8
			c0.5-0.5,1.2-0.6,1.8-0.4L252.9,254.2z M252.5,254.3l-0.6-0.2c-0.5-0.1-1,0-1.4,0.3c-0.4,0.4-0.2,0.6,0.4,0.8h0.6L252.5,254.3z
			 M251.4,255.5l-0.6-0.2c-0.5-0.1-0.9,0-1.3,0.3c-0.2,0.3-0.1,0.5,0.4,0.6l0.6,0.2L251.4,255.5z"/>
		<path class="st19" d="M250.1,253.5l-2.3,2.4l-1.8-0.4l0.2-0.2l1.5,0.4l0.8-0.9l-0.9-0.3h0.1l1,0.2l1-1l-1.6-0.4h0.1L250.1,253.5z"
			/>
		<path class="st19" d="M245.2,253.7l0.3-1.3h0.3l-0.3,1.3h0.7l1.1-1.1h0.3l-2.3,2.4l-0.9-0.2c-0.7-0.2-1-0.5-0.6-0.9
			C244.2,253.7,244.7,253.6,245.2,253.7z M246.1,254.1l-0.6-0.2c-0.5-0.2-1,0-1.4,0.3c-0.3,0.4-0.1,0.6,0.4,0.7l0.6,0.2L246.1,254.1
			z"/>
		<path class="st19" d="M261.2,252.6c0.8,0.1,0.9,0.7,0.1,1.5c-0.5,0.7-1.4,1.1-2.3,0.9c-0.6-0.2-0.6-0.5-0.5-0.7h0.3
			c-0.1,0.2,0,0.4,0.1,0.5c0,0,0.1,0,0.2,0.1c0.8,0,1.5-0.3,2-0.9c0.6-0.7,0.6-1.2,0-1.3c-0.4-0.1-0.8,0-1.1,0.2h-0.2
			C260.2,252.6,260.7,252.5,261.2,252.6z"/>
		<path class="st19" d="M258.5,252.8l0.9-0.6h0.3l-3.3,2.1h-0.3l1.1-2.6h0.3l-0.3,0.7L258.5,252.8z M257.1,252.6l-0.6,1.5l1.9-1.2
			L257.1,252.6z"/>
		<path class="st19" d="M254.1,252.3l0.3-1.3h0.3l-0.3,1.2h0.8l1-1.1h0.3l-2.2,2.3l-0.9-0.2c-0.7-0.2-1-0.4-0.6-0.9
			C253.2,252.2,253.7,252.2,254.1,252.3z M255.1,252.6h-0.6c-0.6-0.1-1.1-0.1-1.4,0.3s-0.1,0.5,0.5,0.7h0.6L255.1,252.6z"/>
		<path class="st19" d="M253.7,250.8l-2.2,2.3l-0.8-0.2c-1-0.2-1.1-0.7-0.3-1.4c0.6-0.8,1.6-1.2,2.5-0.9L253.7,250.8z M253.3,250.9
			h-0.5c-0.8-0.2-1.7,0.1-2.2,0.7c-0.7,0.7-0.6,1.1,0.2,1.3h0.5L253.3,250.9z"/>
		<polygon class="st20" points="251.2,246.5 268.3,250.5 266.8,252.3 249.6,248.2 		"/>
		<path class="st14" d="M264.9,251.1l-0.4-0.3L264,251c-0.1,0-0.2,0-0.2,0.1l0,0l0.6-0.3l-0.3-0.4h0.2l0.2,0.4l0.6-0.2h-0.5l0.4,0.4
			L264.9,251.1z"/>
		<path class="st14" d="M263.9,250.2h-0.7c-0.5,0-1,0.1-1.4,0.3l0,0l1.2-0.3H263.9z M263.1,250.8l-0.3-0.3h0.1l0.3,0.3H263.1z"/>
		<path class="st14" d="M260.3,250.2c0-0.1,0.1-0.2,0.1-0.3c0.1-0.1,0.1-0.3,0.1-0.4l-0.2-0.2h0.2c0,0.1,0.1,0.2,0.1,0.3
			s-0.1,0.3-0.1,0.5h-0.2V250.2z M259.7,250.2V250h0.1v0.2H259.7z M260,250.2V250h0.1v0.3L260,250.2z M260.9,250.3h0.1
			c0.4-0.3,0.8-0.4,1.2-0.5l0,0c-0.3,0-0.6,0.1-0.9,0.3l-0.3,0.2H260.9L260.9,250.3z"/>
		<path class="st14" d="M259.8,249.6h-0.2l-1.3-0.3l0,0l1.3,0.3H259.8z"/>
		<path class="st14" d="M256.9,249.2c0,0.1-0.1,0.1-0.1,0.2h-0.6l0.5-0.4c0.1-0.1,0.2-0.1,0.3,0c0,0,0,0,0,0h-0.3l-0.5,0.4h0.7
			l0.5-0.2l0.8-0.2h-0.8l-0.4,0.3L256.9,249.2L256.9,249.2z"/>
		<path class="st14" d="M255.8,248.7h-0.2l-1.3-0.3h0.1l1.3,0.3H255.8z"/>
		<path class="st14" d="M254,247.7h-0.2l-0.6,0.7H253c0.1,0,0.1,0,0.1-0.1l0,0l0.2-0.2l-0.7-0.4h0.1l0.6,0.4h0.1l0.3-0.4H254
			L254,247.7z M252.1,248.4v-0.3h0.1v0.2L252.1,248.4z M252.4,248.3c-0.1,0-0.1-0.1-0.1-0.2h0.1c0,0.1,0,0.2,0.1,0.2H252.4z"/>
		<path class="st18" d="M182.8,233.9l22.7,11.3c0.7,0.3,0.7,0.9,0.1,1.2l-15.3,8.2c-0.7,0.4-1.7,0.4-2.4,0l-22.7-12.2
			c-0.6-0.3-0.6-0.8,0.1-1.1l15.3-7.4C181.3,233.6,182.1,233.6,182.8,233.9z"/>
		<path class="st19" d="M189.6,248.6l-3.7,2h-0.3l2.3-2.1l-4,1.1h-0.2l3.6-1.9h0.2l-3.1,1.7l4.1-1.3l0,0l-2.3,2.2l3.2-1.7
			L189.6,248.6z"/>
		<path class="st19" d="M186.6,247.1l-3.7,1.9l-1.4-0.7h0.2l1.2,0.6l1.4-0.7l-0.7-0.4h0.2l0.7,0.4l1.7-0.9l-1.3-0.7h0.2L186.6,247.1
			z"/>
		<path class="st19" d="M184.6,246.1l-3.7,1.9l-0.2-0.2l2.2-2l-3.9,1.1h-0.3l3.7-1.9h0.2l-3.2,1.6l4.2-1.1l0,0l-2.4,2.1l3.2-1.6
			L184.6,246.1z"/>
		<path class="st19" d="M181.7,244.5l-3.7,1.9l-0.7-0.3c-0.5-0.3-0.5-0.6,0.1-0.9c0.4-0.3,0.9-0.3,1.4-0.2c-0.3-0.1-0.5-0.4,0.3-0.8
			c0.6-0.3,1.3-0.3,1.9,0L181.7,244.5z M181.3,244.5l-0.5-0.2c-0.5-0.2-1-0.2-1.5,0c-0.6,0.3-0.6,0.6-0.1,0.8l0.4,0.3L181.3,244.5z
			 M179.4,245.5l-0.4-0.2c-0.4-0.3-1-0.3-1.4,0c-0.4,0.2-0.4,0.5,0,0.7l0.4,0.2L179.4,245.5z"/>
		<path class="st19" d="M179.5,243.4l-3.7,1.9l-1.3-0.8h0.2l1.1,0.6l1.4-0.7l-0.7-0.4h0.2l0.8,0.4l1.6-0.8l-1.2-0.6h0.2L179.5,243.4
			z"/>
		<path class="st19" d="M174.8,242.7l1.2-1.1h0.2l-1.1,1.1h0.1l0.4,0.2l1.8-0.8h0.2l-3.7,1.8l-0.7-0.3c-0.5-0.3-0.6-0.6,0.1-1
			C173.8,242.4,174.3,242.5,174.8,242.7z M175.4,243.2L175,243c-0.5-0.2-1-0.2-1.5,0c-0.6,0.3-0.5,0.5-0.1,0.8l0.5,0.2L175.4,243.2z
			"/>
		<path class="st19" d="M190.7,244.5c0.6,0.3,0.3,0.8-0.9,1.4c-0.8,0.6-1.8,0.8-2.8,0.5c-0.5-0.3-0.3-0.6-0.1-0.8h0.3
			c-0.2,0.2-0.4,0.4,0,0.6c0.8,0.2,1.7,0,2.4-0.5c1-0.5,1.3-1,0.9-1.2c-0.4-0.1-0.8-0.1-1.2,0v-0.2
			C189.8,244.2,190.3,244.3,190.7,244.5z"/>
		<path class="st19" d="M188,244.2l1.2-0.4h0.2l-4.4,1.4h-0.3l2.8-2.3h0.2l-0.8,0.6L188,244.2z M186.8,243.8l-1.7,1.3l2.7-0.8
			L186.8,243.8z"/>
		<path class="st19" d="M184.2,243l1.1-1.2h0.2l-1.1,1.1h0.2l0.4,0.3l1.7-0.9h0.2l-3.6,1.8l-0.7-0.3c-0.5-0.3-0.7-0.6,0-1
			C183.1,242.7,183.7,242.7,184.2,243z M184.8,243.5l-0.4-0.3c-0.5-0.2-1-0.2-1.5,0c-0.6,0.3-0.5,0.6-0.1,0.8l0.5,0.2L184.8,243.5z"
			/>
		<path class="st19" d="M184.7,241.5l-3.6,1.8l-0.6-0.3c-0.8-0.4-0.6-0.9,0.7-1.5c1.3-0.6,2.2-0.7,2.9-0.3L184.7,241.5z
			 M184.3,241.5l-0.4-0.3c-0.8-0.3-1.8-0.1-2.5,0.4c-1.1,0.6-1.3,1-0.7,1.3l0.4,0.2L184.3,241.5z"/>
		<polygon class="st20" points="185.3,237 198.8,243.8 196.2,245.2 182.6,238.3 		"/>
		<path class="st14" d="M195.2,243.7c-0.1-0.1-0.2-0.3-0.2-0.4l0,0v-0.4h0.1v0.3l0,0l0.2,0.4L195.2,243.7z"/>
		<path class="st14" d="M194.8,242.6l-0.6-0.2h-1.5c0.1-0.1,0.1-0.1,0-0.1h2.1V242.6z M193.7,243.1c-0.1-0.1-0.1-0.2-0.1-0.3h0.1
			c0,0.1,0.1,0.2,0.1,0.3H193.7z"/>
		<path class="st14" d="M190.9,241.9v-0.2h0.1v0.2H190.9z M191.4,242l0.3-0.2l0.3-0.4v-0.2h0.2c0,0.1-0.1,0.2-0.2,0.4l-0.4,0.4
			L191.4,242L191.4,242z M191.1,242c0.1-0.1,0.1-0.2,0.1-0.3h0.1v0.2L191.1,242z M191.9,242.2h0.1c0.5-0.2,1-0.3,1.5-0.3l0,0
			c-0.4,0-0.8,0-1.2,0.2L191.9,242.2L191.9,242.2z"/>
		<path class="st14" d="M191.3,241.4h-0.2l-1-0.5h0.1l1,0.5H191.3z"/>
		<path class="st14" d="M188.9,240.5h-0.1l-0.5-0.3l0,0l0.8-0.3c0.1-0.1,0.2-0.1,0.3,0c0,0,0,0,0,0h0.2l-0.2-0.2H189l-0.7,0.3
			l0.6,0.2l0.6-0.2h0.9c-0.3-0.1-0.6-0.1-0.9,0l-0.6,0.2h0.3L188.9,240.5z"/>
		<path class="st14" d="M188.2,239.8H188l-1-0.5l0,0l1.1,0.5H188.2z"/>
		<path class="st14" d="M184.9,238.8c0-0.1,0-0.1,0.1-0.2h0.1c-0.1,0.1-0.1,0.1-0.1,0.2H184.9z M187.1,238.5h-0.2l-1.1,0.5l0,0
			l0.3-0.2l-0.4-0.5h0.1l0.3,0.5h0.1l0.6-0.3H187.1L187.1,238.5z M185.1,238.9v-0.2h0.1v0.2H185.1z"/>
	</g>
	<g id="Cup">
		<ellipse class="st8" cx="319.4" cy="247.1" rx="10.8" ry="4.5"/>
		<path class="st8" d="M310.6,229l2.6,17.2c0,1.3,2.8,2.4,6.2,2.4s6.2-1.1,6.2-2.4l2.6-17.2"/>
		<ellipse class="st8" cx="319.4" cy="229" rx="8.8" ry="3.4"/>
	</g>
</g>
<line class="st9" x1="574.1" y1="159.9" x2="583.6" y2="163.2"/>
</svg>
