<svg id="Layer_1" data-name="Layer 1" xmlns="http://www.w3.org/2000/svg" viewBox="0 0 660.1 318.8"><defs><style>.cls-1{fill:#8c6239;}.cls-2,.cls-20,.cls-3,.cls-4,.cls-5,.cls-6{fill:#009749;}.cls-10,.cls-11,.cls-12,.cls-13,.cls-14,.cls-15,.cls-17,.cls-18,.cls-2,.cls-3,.cls-4,.cls-5,.cls-6,.cls-9{stroke:#231f20;}.cls-18,.cls-2,.cls-3,.cls-4,.cls-5,.cls-6{stroke-miterlimit:10;}.cls-10,.cls-11,.cls-17,.cls-2,.cls-9{stroke-width:0.5px;}.cls-3{stroke-width:0.33px;}.cls-4{stroke-width:0.34px;}.cls-5{stroke-width:0.38px;}.cls-6{stroke-width:0.42px;}.cls-17,.cls-7{opacity:0.5;}.cls-8{fill:#b3b3b3;}.cls-16,.cls-17,.cls-18,.cls-21,.cls-9{fill:#fff;}.cls-10,.cls-11,.cls-12,.cls-13,.cls-14,.cls-15,.cls-17,.cls-9{stroke-linecap:round;stroke-linejoin:round;}.cls-10,.cls-12{fill:none;}.cls-11,.cls-19{fill:#231f20;}.cls-13{fill:#404041;stroke-width:0.57px;}.cls-14{fill:#e9c230;}.cls-14,.cls-15{stroke-width:0.56px;}.cls-15,.cls-23{fill:#d81f27;}.cls-16{font-size:15.85px;font-family:STBaoliSC-Regular, Baoli SC;}.cls-18{stroke-width:0.25px;}.cls-22{isolation:isolate;}</style></defs><g id="Tree"><path class="cls-1" d="M441.4,46c-.3.4-4,3.2-8.9,8.2a87.2,87.2,0,0,0-15.7,21.4c-4.6,9.1-7.7,19.7-10.8,28.9s-6,17.1-8,22c-3.7,9.2-3.5,3.9-1.5-5.6,1-4.8,2.4-10.4,3.9-16a143.8,143.8,0,0,1,5-15.6,100.6,100.6,0,0,1,7.4-15.2,83.7,83.7,0,0,1,11.4-14.5C432.6,51,442.2,45.3,441.4,46Z" transform="translate(-67.1 -41.5)"/><path class="cls-1" d="M496.4,96.2c-.9,0-18.8-1.9-39.5-1.7a89.1,89.1,0,0,0-15.5,1.1,40,40,0,0,0-13.8,5c-4.1,2.4-7.8,4.9-11.4,6.5a32.8,32.8,0,0,1-9.4,2.6,18.8,18.8,0,0,1-4.7.1c-.7-.1-.7-.2-.1-.4a54.4,54.4,0,0,0,9-2.3,45.1,45.1,0,0,0,6.7-3.2l7-4.6a38,38,0,0,1,7.7-4.1,34.2,34.2,0,0,1,7.7-2.1,80.5,80.5,0,0,1,16.5-.8c5.8.2,11.9.6,18,1.2C486.4,94.5,497.4,96.3,496.4,96.2Z" transform="translate(-67.1 -41.5)"/><path class="cls-1" d="M335.2,74.7c.4,0,4.1-.1,9.8.1a153.3,153.3,0,0,1,21.2,2.7c4,.8,8,1.9,11.9,3s7.7,2.4,11.2,3.8a114.5,114.5,0,0,1,16.1,7.6c3.3,2,3.9,2.6,2.9,2.4s-3.6-1.3-7-2.6l-5.5-2.2-6.1-2.2-11.6-4c-3.7-1.2-7.8-2.5-12.1-3.6l-6.7-1.6-6.9-1.4c-4.6-.8-9.1-1.2-12.3-1.6Z" transform="translate(-67.1 -41.5)"/><path class="cls-1" d="M374.1,57c.2,0,2.3-.8,5.7-1.6a27.5,27.5,0,0,1,6.2-.8,15.9,15.9,0,0,1,3.6.6,15.1,15.1,0,0,1,3.5,1.4,69.1,69.1,0,0,1,6.5,3.8l6.3,3.6c4,2.2,7.5,3.9,9.7,5,4.1,2.1,1.7,1.5-2.5-.1A94.7,94.7,0,0,1,399.2,62c-2-1.3-4.2-2.9-6.5-4.3a16.3,16.3,0,0,0-3.8-1.7,15.4,15.4,0,0,0-4.3-.6,37,37,0,0,0-7.6,1Z" transform="translate(-67.1 -41.5)"/><path class="cls-2" d="M335.8,93.2c.7.4,10-5,12-9.1s-6.5-9.1-9.1-5.8S335,92.7,335.8,93.2Z" transform="translate(-67.1 -41.5)"/><path class="cls-2" d="M326.4,81.5c.3.8,11,2.4,15.1.4s.6-11.2-3.5-10.1S326.1,80.6,326.4,81.5Z" transform="translate(-67.1 -41.5)"/><path class="cls-2" d="M352,92.3c.8-.3,2.4-10.9.5-15s-11.1-.8-10.2,3.4S351.1,92.6,352,92.3Z" transform="translate(-67.1 -41.5)"/><path class="cls-2" d="M340.1,85.7c.8.4,9.7-5.7,11.4-9.9s-7.1-8.7-9.5-5.1S339.3,85.2,340.1,85.7Z" transform="translate(-67.1 -41.5)"/><path class="cls-3" d="M444.1,48.6c-.4.6-7.4,1.7-9.5.4s2-8,4.3-7.3S444.4,48,444.1,48.6Z" transform="translate(-67.1 -41.5)"/><path class="cls-4" d="M369.5,64.9c.6.4,7.7-1.1,9.3-3.1s-4.8-6.5-6.8-5S368.9,64.5,369.5,64.9Z" transform="translate(-67.1 -41.5)"/><path class="cls-4" d="M362.6,56.3c.2.5,8.3,3.4,11.5,3.1s.6-6.4-2.6-6.6S362.4,55.7,362.6,56.3Z" transform="translate(-67.1 -41.5)"/><path class="cls-4" d="M381.9,67.5c.6-.1,2-6,.7-8.8s-8.5-2.5-7.9.1S381.2,67.5,381.9,67.5Z" transform="translate(-67.1 -41.5)"/><path class="cls-4" d="M372.9,61.3c.6.4,7.5-1.5,8.9-3.6s-5.3-6.4-7.2-4.8S372.3,60.9,372.9,61.3Z" transform="translate(-67.1 -41.5)"/><path class="cls-3" d="M493.4,105c-.7.2-6.3-4.3-6.9-6.9s7.2-3.7,8.4-1.4S494.1,104.9,493.4,105Z" transform="translate(-67.1 -41.5)"/><path class="cls-3" d="M503.3,100.5c-.4.4-8.8-.7-11.5-2.4s2.3-6.1,5.2-4.8S503.8,100.1,503.3,100.5Z" transform="translate(-67.1 -41.5)"/><path class="cls-3" d="M481.4,101.8c-.6-.3.8-6.2,3.2-8.1s8.7,1.5,6.9,3.6S481.9,102.1,481.4,101.8Z" transform="translate(-67.1 -41.5)"/><path class="cls-3" d="M491.9,100.3c-.7.1-5.8-4.7-6.1-7.2s7.5-3.4,8.4-1.1S492.6,100.2,491.9,100.3Z" transform="translate(-67.1 -41.5)"/><path class="cls-3" d="M398.1,97.2c-.6-.3.8-6.2,3.3-8.1s8.6,1.5,6.8,3.6S398.7,97.5,398.1,97.2Z" transform="translate(-67.1 -41.5)"/><path class="cls-5" d="M424.9,88c-.1.6-8-.8-11.2-3.4s-1.2-9.3,2-7.4S425.1,87.4,424.9,88Z" transform="translate(-67.1 -41.5)"/><path class="cls-6" d="M377.3,98c-.8,0-2.1-8.1-.3-11.9s10-3.5,9,.1S378.1,98,377.3,98Z" transform="translate(-67.1 -41.5)"/><path class="cls-6" d="M450.7,107.8c.7,0,2-8.1.3-11.9s-10-3.4-9.1.1S449.9,107.8,450.7,107.8Z" transform="translate(-67.1 -41.5)"/><path class="cls-5" d="M414.1,121c.6-.2-.9-8.1-3.6-11.2s-9.2-1.1-7.3,2S413.5,121.1,414.1,121Z" transform="translate(-67.1 -41.5)"/></g><g id="Couch"><g id="Couch_color" data-name="Couch color"><g class="cls-7"><polyline class="cls-8" points="418.6 191.7 99.7 223.1 90.4 219.9 2.8 189.4 2.8 206.4 90.5 238.7 411.4 206.9 498.3 238.9 640.9 224 640.9 209 506.2 223.1"/></g><path class="cls-9" d="M650.7,179.6,542,139.5V120.6a10.7,10.7,0,0,0-11.8-10.7L372.2,125.6,86.4,153.9a7.7,7.7,0,0,0-5.1,2.8l-11,1.1a3.3,3.3,0,0,0-2.7,3.4V230l99.4,34.6,318.9-31.4L573,264.5l145.9-15.2a8.9,8.9,0,0,0,8.1-8.9v-2.5a9.1,9.1,0,0,0-6-8.5l-70.3-24.7V179.6" transform="translate(-67.1 -41.5)"/></g><polyline class="cls-10" points="411.4 192.4 411.4 206.9 90.5 238.7 90.4 219.9 99.7 223.1 418.6 191.7 505.9 223.1"/><path class="cls-10" d="M386,181.6l93.7,33c3.7,1.3,6,4.2,6,7.4v11.2" transform="translate(-67.1 -41.5)"/><polyline class="cls-10" points="474.4 124.8 574.1 159.9 574.1 141.4 474.8 105.3"/><line class="cls-11" x1="503.5" y1="205.8" x2="656.9" y2="190"/><path class="cls-10" d="M478.5,248.4l86.9,32-.2-18.6,7.3,2.6c1.5.5,3.2-.4,3.2-1.7v-8.3c0-3.2-2.3-6.1-6-7.4l-91.2-32.8" transform="translate(-67.1 -41.5)"/><polyline class="cls-10" points="498.3 238.9 640.9 224 640.9 209"/><path class="cls-12" d="M604.9,224" transform="translate(-67.1 -41.5)"/><path class="cls-10" d="M222.7,197.8l.3-45.6a10.6,10.6,0,0,0-11.8-10.6l-7.4.7" transform="translate(-67.1 -41.5)"/><path class="cls-10" d="M541.7,166.1l.4-45.5a10.7,10.7,0,0,0-11.8-10.7l-7.4.8" transform="translate(-67.1 -41.5)"/><polyline class="cls-10" points="574.1 141.4 583.6 138.1 474.9 98.1"/><polyline class="cls-10" points="90.5 238.7 2.8 206.4 2.8 189.4"/><path class="cls-10" d="M222.5,197.8l93.7,33c3.7,1.3,6.1,4.2,6.1,7.4v11" transform="translate(-67.1 -41.5)"/><line class="cls-10" x1="416.3" y1="175.5" x2="97.5" y2="207.1"/><path class="cls-10" d="M81.3,156.7l-11,1.1a3.3,3.3,0,0,0-2.7,3.4l-.2,52V230l99.4,34.6v-11c0-3.2-2.4-6.1-6.1-7.4l-93.3-33,11.4-1.1V163.8c.1-5.2,3.3-9.5,7.6-9.9l443.9-44" transform="translate(-67.1 -41.5)"/><path class="cls-10" d="M367.1,126.1l7.4-.7A10.6,10.6,0,0,1,386.3,136l-.3,45.6,155.7-15.5L67.4,213.3" transform="translate(-67.1 -41.5)"/></g><g id="Pillows"><path class="cls-13" d="M560.1,202.5c7.8-11.9,1.6-26.2,8-69.4.7-4.7-15.3-1.9-51.4-10.2l-17-3.9c2.9,20.9-6.3,46.5-15.2,64.7-5.7,11.7,29-1.2,66.8,14.7,3.8,1.6,6.8,3.1,8.8,4.1" transform="translate(-67.1 -41.5)"/><path class="cls-14" d="M445.3,187.3c-2.8-12.2,5.4-20.8,11.4-56.5.7-3.9,11.8,4.5,40.4,12.1l13.6,3.7c-7.3,14.9-7,38.3-5,55.7,1.3,11.3-21-12.2-52.9-14.7l-7.5-.3" transform="translate(-67.1 -41.5)"/><path class="cls-15" d="M299.9,209.2c-9.9-7.8-1.1-5.2-26.4-31.1-5.6-5.7,22.8-7.2,49.9-19.3,0,0,22.1-10.6,22.1-10.5-1.2,16.2,17.1,26.7,20.8,43.8,2.3,10.9-27.5-2.8-66.4,17.1h0" transform="translate(-67.1 -41.5)"/><text class="cls-16" transform="translate(232.5 151.1) rotate(-18.5) scale(0.6 1)">こんばんは</text></g><g id="TABLE"><g id="Table-2" data-name="Table"><line class="cls-9" x1="214.1" y1="281.3" x2="214.1" y2="272"/><polyline class="cls-9" points="133.7 252.4 133.7 281.3 237.1 318.5 237.1 279"/><polyline class="cls-9" points="110.7 234.8 214.1 272 489.9 244.1 386.5 206.9 110.7 234.8 110.7 244.1 214.1 281.3 489.9 253.4 489.9 244.1"/><polygon class="cls-9" points="248.8 277.8 248.6 317.2 237.1 318.5 237.1 279 248.8 277.8"/><polyline class="cls-17" points="368.5 265.7 455 296.8 455.1 257.1"/><polyline class="cls-9" points="455.1 297.1 368.5 265.7 455.1 256.9 455.1 297.1"/><path class="cls-9" d="M533.8,297.3l-.2,39.7-11.4,1.6V298.4Z" transform="translate(-67.1 -41.5)"/><line class="cls-9" x1="214.1" y1="281.3" x2="214.1" y2="272"/></g><g id="Cards"><path class="cls-18" d="M438.1,273.8l-21.4-10.7c-.6-.3-.5-.7.1-1l14.1-6.5a2.6,2.6,0,0,1,2.1,0l21.5,9.9c.6.3.6.8,0,1.1l-14.1,7.2A3,3,0,0,1,438.1,273.8Z" transform="translate(-67.1 -41.5)"/><path class="cls-19" d="M431.5,260.2l3.3-1.5h.2l-2,1.6,3.6-.9h.2l-3.3,1.6h-.2l2.9-1.4-3.7,1h-.1l2.1-1.7-2.8,1.3Z" transform="translate(-67.1 -41.5)"/><path class="cls-19" d="M434.2,261.5l3.3-1.6,1.3.6h-.2l-1.1-.5-1.3.6.8.3h-.2l-.7-.3-1.5.7,1.1.5h-.2Z" transform="translate(-67.1 -41.5)"/><path class="cls-19" d="M436,262.4l3.3-1.6h.3l-2,1.7,3.5-1h.3l-3.3,1.6h-.2l2.8-1.3-3.7,1h0l2.1-1.8-2.9,1.3Z" transform="translate(-67.1 -41.5)"/><path class="cls-19" d="M438.8,263.6l3.3-1.5.6.3c.5.2.5.4,0,.7a1.7,1.7,0,0,1-1.2.1c.2.2.4.4-.3.7a2.3,2.3,0,0,1-1.8.1Zm2-.8.4.2a1.5,1.5,0,0,0,1.3,0q.6-.3,0-.6l-.4-.2Zm-1.7.9.5.2a1.4,1.4,0,0,0,1.4-.1c.6-.2.5-.5.1-.7l-.5-.2Z" transform="translate(-67.1 -41.5)"/><path class="cls-19" d="M440.9,264.6l3.3-1.6,1.3.7h-.2l-1.1-.6-1.3.6.8.4h-.2l-.8-.4-1.5.8,1.2.5h-.2Z" transform="translate(-67.1 -41.5)"/><path class="cls-19" d="M445.3,265.2l-1,1.1h-.2l1-1h-.2l-.4-.2-1.5.8h-.2l3.3-1.7.6.3c.6.3.7.6.1.9A2.6,2.6,0,0,1,445.3,265.2Zm-.6-.4.4.2a1.7,1.7,0,0,0,1.4,0c.6-.3.5-.5,0-.7l-.4-.2Z" transform="translate(-67.1 -41.5)"/><path class="cls-19" d="M430.4,263.7c-.5-.3-.3-.7.9-1.2a2.9,2.9,0,0,1,2.6-.4c.4.2.2.5,0,.6h-.3c.2-.2.4-.4.1-.5a2.8,2.8,0,0,0-2.2.4c-1,.4-1.3.8-.9,1a1.4,1.4,0,0,0,1.1,0h.1A2.2,2.2,0,0,1,430.4,263.7Z" transform="translate(-67.1 -41.5)"/><path class="cls-19" d="M432.9,264l-1.2.3h-.2l4.2-1.2h.2l-2.5,2h-.2l.7-.6Zm1.1.3,1.6-1.1-2.5.7Z" transform="translate(-67.1 -41.5)"/><path class="cls-19" d="M436.5,265l-1,1.1h-.3l1.1-1h-.2l-.4-.2-1.6.8h-.2l3.4-1.7.6.4c.5.2.7.5,0,.8A1.7,1.7,0,0,1,436.5,265Zm-.6-.4.4.2a1.4,1.4,0,0,0,1.4,0c.5-.3.5-.5,0-.7l-.4-.2Z" transform="translate(-67.1 -41.5)"/><path class="cls-19" d="M436,266.4l3.4-1.6.6.2c.7.4.5.8-.6,1.4a3.2,3.2,0,0,1-2.8.3Zm.4,0,.4.2c.6.3,1.3.2,2.4-.3s1.2-.9.6-1.2l-.4-.2Z" transform="translate(-67.1 -41.5)"/><polygon class="cls-20" points="368.5 229.2 355.7 222.9 358.2 221.7 371 227.9 368.5 229.2"/><path class="cls-21" d="M426.2,264.4c0,.1.1.2.1.3h0v.3h-.1v-.3h0c0-.1-.1-.2-.1-.3Z" transform="translate(-67.1 -41.5)"/><path class="cls-21" d="M426.4,265.3l.6.2a3.3,3.3,0,0,0,1.4,0h-1.3l-.7-.2h0Zm1.1-.4a.4.4,0,0,1,.1.3h-.1a.4.4,0,0,0-.1-.3Z" transform="translate(-67.1 -41.5)"/><path class="cls-21" d="M429.2,265.7h-.1a4.4,4.4,0,0,1-1.5.3h1.2l.3-.2h.1Zm.4.2-.3.2-.2.3a.3.3,0,0,0-.1.2h-.1a.4.4,0,0,1,.1-.3l.5-.4h.1Zm.3,0c0,.1,0,.2-.1.2h-.1c.1-.1.1-.1.1-.2Zm.2.1v.2H430c0-.1,0-.2.1-.2Z" transform="translate(-67.1 -41.5)"/><path class="cls-21" d="M429.7,266.4h.2l1,.5h-.1l-1-.5h-.1Z" transform="translate(-67.1 -41.5)"/><path class="cls-21" d="M432.1,267.3c0-.1.1-.1.2-.1h-.2l.5.2h0l-.8.3a.2.2,0,0,1-.3,0h.4l.6-.3-.4-.3-.7.2h.1l.5-.2h-.4a.1.1,0,0,0,.1.1Z" transform="translate(-67.1 -41.5)"/><path class="cls-21" d="M432.7,267.9h.2l1,.5h-.1l-1-.5h-.1Z" transform="translate(-67.1 -41.5)"/><path class="cls-21" d="M433.8,269.1h.2l1-.5a.1.1,0,0,0,.1-.1h-.4a1.3,1.3,0,0,1,.4.6H435l-.3-.5h0l-.7.3h-.2Zm1.9-.3c-.1,0-.1.1-.1.2h-.1a.3.3,0,0,1,.1-.2Zm.2,0c0,.1,0,.2-.1.2h-.1v-.2Z" transform="translate(-67.1 -41.5)"/><path class="cls-18" d="M440.6,283.1l-21.4-10.6c-.6-.3-.6-.7,0-1l14.2-6.5a2.6,2.6,0,0,1,2.1,0l21.4,9.9c.6.3.7.8.1,1.1l-14.1,7.1A2.4,2.4,0,0,1,440.6,283.1Z" transform="translate(-67.1 -41.5)"/><path class="cls-19" d="M434,269.6l3.3-1.5h.2l-2,1.6,3.5-.9h.3l-3.3,1.6h-.2l2.8-1.4-3.7,1h0l2.1-1.7-2.9,1.3Z" transform="translate(-67.1 -41.5)"/><path class="cls-19" d="M436.6,270.9l3.3-1.6,1.3.6H441l-1.1-.5-1.2.6.7.3h-.2l-.7-.3-1.5.7,1.2.5H438Z" transform="translate(-67.1 -41.5)"/><path class="cls-19" d="M438.5,271.8l3.3-1.6h.2l-2,1.7,3.6-1h.2l-3.3,1.6h-.2l2.9-1.3-3.7,1h-.1l2.1-1.8-2.8,1.3Z" transform="translate(-67.1 -41.5)"/><path class="cls-19" d="M441.2,273l3.3-1.6.7.4c.4.2.5.4-.1.7a1.7,1.7,0,0,1-1.2.1c.2.2.4.4-.2.7a2.3,2.3,0,0,1-1.8.1Zm2.1-.8.4.2a1.3,1.3,0,0,0,1.2,0c.5-.2.4-.4.1-.6l-.5-.2Zm-1.7.9.5.2a1.4,1.4,0,0,0,1.4-.1c.5-.2.4-.5,0-.7l-.4-.2Z" transform="translate(-67.1 -41.5)"/><path class="cls-19" d="M443.3,274l3.3-1.6,1.3.7h-.1l-1.2-.5-1.2.6.7.4h-.2l-.7-.4-1.5.8,1.2.5h-.2Z" transform="translate(-67.1 -41.5)"/><path class="cls-19" d="M447.8,274.6l-1,1.1h-.2l.9-1.1h-.1l-.4-.2-1.6.7h-.2l3.3-1.7.7.3c.5.3.6.6,0,.9A2.3,2.3,0,0,1,447.8,274.6Zm-.6-.4.4.2a1.7,1.7,0,0,0,1.4,0c.5-.3.4-.5,0-.7l-.5-.2Z" transform="translate(-67.1 -41.5)"/><path class="cls-19" d="M432.9,273.1c-.6-.3-.3-.7.8-1.2s2.1-.7,2.6-.4.2.5,0,.6h-.2c.2-.2.3-.4,0-.5s-1.2-.1-2.2.4-1.3.8-.8,1a1.4,1.4,0,0,0,1.1,0h.1A2.2,2.2,0,0,1,432.9,273.1Z" transform="translate(-67.1 -41.5)"/><path class="cls-19" d="M435.3,273.4l-1.1.3H434l4.2-1.2h.2l-2.6,2h-.2l.7-.6Zm1.2.3,1.5-1.1-2.4.7Z" transform="translate(-67.1 -41.5)"/><path class="cls-19" d="M439,274.4l-1.1,1.1h-.2l1-1h-.1l-.4-.2-1.6.8h-.2l3.3-1.7.7.4c.5.2.6.5,0,.8A1.7,1.7,0,0,1,439,274.4Zm-.7-.4.5.2a1.7,1.7,0,0,0,1.4,0c.5-.3.4-.5,0-.7l-.5-.2Z" transform="translate(-67.1 -41.5)"/><path class="cls-19" d="M438.5,275.8l3.3-1.6.6.2c.8.4.6.8-.5,1.4a3.6,3.6,0,0,1-2.8.3Zm.4,0,.4.2c.5.3,1.2.2,2.3-.3s1.2-.9.6-1.2l-.3-.2Z" transform="translate(-67.1 -41.5)"/><polygon class="cls-20" points="370.9 238.6 358.1 232.2 360.7 231 373.5 237.3 370.9 238.6"/><path class="cls-21" d="M428.6,273.8l.2.3h0v.3h-.1v-.3h-.1a.4.4,0,0,0-.1-.3Z" transform="translate(-67.1 -41.5)"/><path class="cls-21" d="M428.9,274.7a.8.8,0,0,0,.6.2,2.9,2.9,0,0,0,1.3,0h-1.2l-.7-.2h0Zm1.1-.4v.3h-.1v-.3Z" transform="translate(-67.1 -41.5)"/><path class="cls-21" d="M431.6,275.1h-.1a3.5,3.5,0,0,1-1.4.3h1.1c.1-.1.3-.1.3-.2h.1Zm.5.2-.3.2-.3.3v.2h-.1a.4.4,0,0,1,.1-.3c.1-.1.2-.3.4-.4h.2Zm.2,0v.2h-.1c0-.1,0-.1.1-.2Zm.3.1a.3.3,0,0,1-.1.2h-.1a.3.3,0,0,0,.1-.2Z" transform="translate(-67.1 -41.5)"/><path class="cls-21" d="M432.2,275.8h.1l1,.5c.1,0,.2,0,.2.1h-.2l-1-.5h-.1Z" transform="translate(-67.1 -41.5)"/><path class="cls-21" d="M434.5,276.7l.3-.2h.1c0,.1,0,.1-.2.1h-.1l.4.2c.1,0,.1,0,.1.1H435l-.7.3h-.4a.1.1,0,0,1-.1-.1h.5l.7-.2-.5-.3-.6.2h.5l-.3-.2h.1Z" transform="translate(-67.1 -41.5)"/><path class="cls-21" d="M435.2,277.3h.1l1,.5h.1a.1.1,0,0,0-.1-.1l-1-.5h-.1Z" transform="translate(-67.1 -41.5)"/><path class="cls-21" d="M436.2,278.5h.2l1-.5h-.2l.4.6h-.2a.5.5,0,0,0-.3-.5h0l-.6.3h-.3Zm1.9-.3a.3.3,0,0,1-.1.2h-.1a.3.3,0,0,0,.1-.2Zm.3,0a.3.3,0,0,1-.1.2h-.1c0-.1.1-.1.1-.2Z" transform="translate(-67.1 -41.5)"/><path class="cls-18" d="M349.1,274.8l-20.5,10.1a2.8,2.8,0,0,1-2.2,0l-14-6.8c-.6-.3-.5-.7.1-1l20.5-9.5a3.7,3.7,0,0,1,2.1,0l13.9,6.2C349.6,274.1,349.7,274.5,349.1,274.8Z" transform="translate(-67.1 -41.5)"/><path class="cls-19" d="M322.4,277.8l-3.2-1.6h.2l3.5,1-1.9-1.7h.2l3.2,1.6h-.1l-2.9-1.3,2.1,1.7h0l-3.7-.9,2.8,1.3Z" transform="translate(-67.1 -41.5)"/><path class="cls-19" d="M325.1,276.5l-3.3-1.5,1.3-.6h.2l-1.1.5,1.3.6.7-.3h.1l-.7.4,1.5.7,1.2-.6h.1Z" transform="translate(-67.1 -41.5)"/><path class="cls-19" d="M326.9,275.7l-3.2-1.5h.2l3.5.9-2-1.6.2-.2,3.3,1.6h-.2l-2.8-1.3,2.1,1.7h0l-3.7-1,2.8,1.3Z" transform="translate(-67.1 -41.5)"/><path class="cls-19" d="M329.5,274.5l-3.2-1.6.6-.2a1.4,1.4,0,0,1,1.5,0c.4.2.5.4.3.5a1.7,1.7,0,0,1,1.4.1c.6.3.6.6.1.9Zm-1.6-1,.4-.2c.4-.2.3-.4-.1-.5a1.4,1.4,0,0,0-1.1-.1l-.4.2Zm1.7.8.4-.2c.4-.2.4-.4-.1-.7a1.7,1.7,0,0,0-1.4,0l-.4.2Z" transform="translate(-67.1 -41.5)"/><path class="cls-19" d="M331.5,273.5l-3.2-1.5,1.2-.5h.2l-1.1.5,1.3.6.7-.3h.1l-.6.3,1.4.6,1.1-.5h.2Z" transform="translate(-67.1 -41.5)"/><path class="cls-19" d="M332.6,271.5l2.1.5h-.2l-2-.4h-.2l-.3.2,1.5.7h-.2l-3.3-1.5.7-.3a1.8,1.8,0,0,1,1.6,0C332.8,271.1,332.8,271.4,332.6,271.5Zm-.8.3.4-.2c.4-.2.4-.4-.1-.6a1.5,1.5,0,0,0-1.3,0l-.4.2Z" transform="translate(-67.1 -41.5)"/><path class="cls-19" d="M329.8,278.3a3.3,3.3,0,0,1-2.6-.4c-1.2-.5-1.4-1-.9-1.2a2.2,2.2,0,0,1,1.4,0h-.1a1.4,1.4,0,0,0-1.1,0c-.4.2-.1.5.9,1a2.7,2.7,0,0,0,2.2.4c.3-.2.1-.4-.1-.5h.3C329.9,277.8,330.2,278.1,329.8,278.3Z" transform="translate(-67.1 -41.5)"/><path class="cls-19" d="M330.2,277.1l.8.6h-.2l-2.6-2h.2l4.1,1.2h-.2l-1.1-.3Zm.8-.5-2.4-.7,1.5,1.1Z" transform="translate(-67.1 -41.5)"/><path class="cls-19" d="M332.4,275.5l2.1.5h-.2l-2.1-.5h-.5l1.6.8h-.2l-3.4-1.6.7-.3a2,2,0,0,1,1.7,0C332.5,275.1,332.6,275.3,332.4,275.5Zm-.9.3.4-.2c.4-.2.5-.4,0-.7a1.7,1.7,0,0,0-1.4,0l-.4.2Z" transform="translate(-67.1 -41.5)"/><path class="cls-19" d="M335.1,275.7l-3.3-1.5.5-.3a3.4,3.4,0,0,1,2.7.3q1.7.8.6,1.2Zm0-.2h.3c.6-.3.5-.6-.6-1.1s-1.8-.6-2.3-.3l-.4.2Z" transform="translate(-67.1 -41.5)"/><polygon class="cls-20" points="276.3 234.4 264 240.4 261.5 239.2 273.8 233.3 276.3 234.4"/><path class="cls-21" d="M331.2,280.3h.7l-.2-.3h0l.3.3h.7a.8.8,0,0,0-.7,0,.1.1,0,0,1,0,.2.4.4,0,0,1-.1.3h-.1a.4.4,0,0,0,.1-.3v-.2Z" transform="translate(-67.1 -41.5)"/><path class="cls-21" d="M332.2,279.6h0Zm.9.5.4-.2a.6.6,0,0,0-.1-.7h.1a.5.5,0,0,1,.1.6l-.3.3h-.2Z" transform="translate(-67.1 -41.5)"/><path class="cls-21" d="M334.3,278.4h0Zm0,.1h0Zm-.1.1.5.2h.3l-.7-.2h-.1Zm-.4.2h.1c.4.2.5.4.5.7h-.1a.9.9,0,0,0-.3-.6h-.2Z" transform="translate(-67.1 -41.5)"/><path class="cls-21" d="M335.3,278.6h.1l1-.5h.2a.1.1,0,0,0-.1.1l-1,.4h-.2Z" transform="translate(-67.1 -41.5)"/><path class="cls-21" d="M336.9,277.5h0a.1.1,0,0,0,.1.1l.4-.2c0-.1,0-.1.1-.1h0c.1,0,.1,0,.1.1l.6.3c.1.1.1.1,0,.2h-.3c.1,0,.2,0,.2-.1s.1,0,0-.1l-.6-.3-.5.2.4.3a.3.3,0,0,1,0,.4h-.1c.1-.2.1-.3,0-.4l-.3-.3-.3.2h-.1Z" transform="translate(-67.1 -41.5)"/><path class="cls-21" d="M338.1,277.2h.2l.9-.4h.1l-1,.5h-.2Z" transform="translate(-67.1 -41.5)"/><path class="cls-21" d="M339.9,275.8h0Zm.6.9h-.2l-1-.4h.4l1-.2h-.9l.6.3h.1Zm-.7-.8h0Z" transform="translate(-67.1 -41.5)"/><path class="cls-18" d="M323.5,275.9,302.9,286a2.8,2.8,0,0,1-2.2,0l-14-6.8c-.6-.3-.5-.8.1-1l20.6-9.5a3.4,3.4,0,0,1,2,0l14,6.2C324,275.2,324,275.6,323.5,275.9Z" transform="translate(-67.1 -41.5)"/><path class="cls-19" d="M296.8,278.9l-3.3-1.6h.2l3.6,1-2-1.7h.2l3.3,1.5h-.2l-2.8-1.3,2,1.7h0l-3.7-1,2.9,1.4Z" transform="translate(-67.1 -41.5)"/><path class="cls-19" d="M299.4,277.6l-3.2-1.5,1.2-.6h.2l-1.1.5,1.3.6.7-.4h.2l-.7.3,1.4.7,1.2-.5h.2Z" transform="translate(-67.1 -41.5)"/><path class="cls-19" d="M301.3,276.8l-3.3-1.6h.2l3.5,1-2-1.7h.3l3.2,1.5H303l-2.8-1.3,2.1,1.7h0l-3.7-.9,2.8,1.3Z" transform="translate(-67.1 -41.5)"/><path class="cls-19" d="M303.9,275.5l-3.3-1.5.6-.3a2,2,0,0,1,1.5,0c.5.2.5.5.3.6a1.8,1.8,0,0,1,1.4.1c.6.3.6.6.1.8Zm-1.7-.9.4-.2c.4-.2.3-.4,0-.6a1.6,1.6,0,0,0-1.2,0l-.4.2Zm1.7.7.4-.2c.4-.2.4-.4-.1-.6a1.4,1.4,0,0,0-1.4,0l-.4.2Z" transform="translate(-67.1 -41.5)"/><path class="cls-19" d="M305.9,274.6l-3.3-1.5,1.2-.6h.2l-1,.5,1.2.6.7-.4h.2l-.7.3,1.5.7,1.1-.5h.2Z" transform="translate(-67.1 -41.5)"/><path class="cls-19" d="M306.9,272.6l2.2.5h-.2l-2.1-.5h-.1l-.4.2,1.5.7h-.2l-3.2-1.5.6-.3a1.8,1.8,0,0,1,1.6,0Q307.4,272.3,306.9,272.6Zm-.8.3.4-.2c.4-.2.5-.4,0-.6a1.7,1.7,0,0,0-1.4,0l-.4.2Z" transform="translate(-67.1 -41.5)"/><path class="cls-19" d="M304.1,279.4a3.8,3.8,0,0,1-2.6-.4c-1.1-.6-1.4-1-.8-1.2s1-.1,1.3-.1v.2a2.1,2.1,0,0,0-1.1-.1c-.4.2-.1.6.9,1.1a3.4,3.4,0,0,0,2.2.4c.3-.2.1-.4,0-.5h.2C304.3,278.8,304.6,279.1,304.1,279.4Z" transform="translate(-67.1 -41.5)"/><path class="cls-19" d="M304.6,278.2l.7.5h-.2l-2.6-1.9h.3l4.1,1.2h-.2l-1.2-.4Zm.7-.5-2.4-.7,1.5,1.1Z" transform="translate(-67.1 -41.5)"/><path class="cls-19" d="M306.7,276.5l2.2.5h-.2l-2.2-.4h-.1l-.4.2,1.6.7h-.2l-3.3-1.5.6-.3a2,2,0,0,1,1.7,0C306.9,276.1,306.9,276.3,306.7,276.5Zm-.9.3.4-.2q.8-.3,0-.6a1.5,1.5,0,0,0-1.3,0l-.5.2Z" transform="translate(-67.1 -41.5)"/><path class="cls-19" d="M309.4,276.8l-3.3-1.6.5-.2a3,3,0,0,1,2.7.3c1.2.5,1.3.9.6,1.2Zm0-.2.4-.2c.5-.2.4-.6-.7-1a2.5,2.5,0,0,0-2.3-.3h-.3Z" transform="translate(-67.1 -41.5)"/><polygon class="cls-20" points="250.6 235.5 238.3 241.5 235.8 240.3 248.1 234.4 250.6 235.5"/><path class="cls-21" d="M305.5,281.3h.7c0-.1-.1-.2-.2-.3h.1c.1.2.2.3.2.4h0a.4.4,0,0,1,.1.3v.3h-.2l.2-.3a.4.4,0,0,0-.1-.3h-.7Z" transform="translate(-67.1 -41.5)"/><path class="cls-21" d="M306.5,280.7h0Zm.9.5c.2,0,.3-.2.4-.3a.5.5,0,0,0-.1-.6h.1a.5.5,0,0,1,.1.6q0,.2-.3.3h-.2Z" transform="translate(-67.1 -41.5)"/><path class="cls-21" d="M308.7,279.5h0Zm-.1.1h0Zm-.1.1h.5l.6.2h-.2l-.8-.2c-.1,0-.1,0-.1-.1Zm-.4.2h.1q.6.3.6.6h-.2c.1-.1-.1-.3-.3-.5h-.2Z" transform="translate(-67.1 -41.5)"/><path class="cls-21" d="M309.6,279.6h.2l.9-.5c.1,0,.1,0,.1-.1h0l-1,.4h-.2Z" transform="translate(-67.1 -41.5)"/><path class="cls-21" d="M311.2,278.6h.1l.4-.2h.2l.7.4c0,.1,0,.1-.1.1h0a.3.3,0,0,0-.1-.2l-.6-.2-.4.2q.3.1.3.3a.2.2,0,0,1,0,.3h-.1a.2.2,0,0,0,0-.3l-.3-.3-.3.2h-.2a.1.1,0,0,0,.1-.1Z" transform="translate(-67.1 -41.5)"/><path class="cls-21" d="M312.4,278.3h.2l.9-.5h.1l-.9.4h-.3Z" transform="translate(-67.1 -41.5)"/><path class="cls-21" d="M314.2,276.8h0Zm.6,1h-.2l-.9-.4h0l.3.2,1-.2h-.9l.6.3h.1Zm-.7-.9h0Z" transform="translate(-67.1 -41.5)"/><path class="cls-18" d="M313.9,285.6l28.5,6.6c.8.2,1.2.7.8,1.1l-8.6,10.2a2.6,2.6,0,0,1-2.2.4l-29.5-7.3c-.8-.2-1.1-.7-.7-1.1l9.6-9.6A2.9,2.9,0,0,1,313.9,285.6Z" transform="translate(-67.1 -41.5)"/><path class="cls-19" d="M330,298.1l-2.2,2.4h-.3l.8-2.4-3,1.8H325l2.2-2.4h.2l-1.8,2.1,3-1.9h0l-.7,2.4,1.8-2.1Z" transform="translate(-67.1 -41.5)"/><path class="cls-19" d="M326.3,297.2l-2.2,2.4-1.8-.4V299l1.5.4.9-.9-1-.2v-.2l1,.3,1-1.1-1.6-.4h.1Z" transform="translate(-67.1 -41.5)"/><path class="cls-19" d="M323.7,296.6l-2.2,2.4h-.3l.8-2.3-3,1.8h-.3l2.2-2.4h.3l-1.9,2,3-1.8h.1l-.9,2.4,1.9-2.1Z" transform="translate(-67.1 -41.5)"/><path class="cls-19" d="M320,295.7l-2.2,2.4-.9-.2c-.7-.2-.9-.5-.5-.9a1.1,1.1,0,0,1,1.1-.3c-.3-.1-.7-.4-.2-.8a1.7,1.7,0,0,1,1.8-.4Zm-.4.1-.6-.2a1.6,1.6,0,0,0-1.4.3c-.4.4-.2.6.4.8h.6Zm-1.1,1.2-.6-.2a1.4,1.4,0,0,0-1.3.3c-.2.3-.1.5.4.6l.6.2Z" transform="translate(-67.1 -41.5)"/><path class="cls-19" d="M317.2,295l-2.3,2.4-1.8-.4.2-.2,1.5.4.8-.9-.9-.3h.1l1,.2,1-1-1.6-.4h.1Z" transform="translate(-67.1 -41.5)"/><path class="cls-19" d="M312.3,295.2l.3-1.3h.3l-.3,1.3h.7l1.1-1.1h.3l-2.3,2.4-.9-.2c-.7-.2-1-.5-.6-.9A1.9,1.9,0,0,1,312.3,295.2Zm.9.4-.6-.2a1.4,1.4,0,0,0-1.4.3c-.3.4-.1.6.4.7l.6.2Z" transform="translate(-67.1 -41.5)"/><path class="cls-19" d="M328.3,294.1c.8.1.9.7.1,1.5a2.3,2.3,0,0,1-2.3.9c-.6-.2-.6-.5-.5-.7h.3a.4.4,0,0,0,.3.6,2.4,2.4,0,0,0,2-.9c.6-.7.6-1.2,0-1.3a1.8,1.8,0,0,0-1.1.2h-.2A1.9,1.9,0,0,1,328.3,294.1Z" transform="translate(-67.1 -41.5)"/><path class="cls-19" d="M325.6,294.3l.9-.6h.3l-3.3,2.1h-.3l1.1-2.6h.3l-.3.7Zm-1.4-.2-.6,1.5,1.9-1.2Z" transform="translate(-67.1 -41.5)"/><path class="cls-19" d="M321.2,293.8l.3-1.3h.3l-.3,1.2h.8l1-1.1h.3l-2.2,2.3-.9-.2c-.7-.2-1-.4-.6-.9A2,2,0,0,1,321.2,293.8Zm1,.3h-.6c-.6-.1-1.1-.1-1.4.3s-.1.5.5.7h.6Z" transform="translate(-67.1 -41.5)"/><path class="cls-19" d="M320.8,292.3l-2.2,2.3-.8-.2c-1-.2-1.1-.7-.3-1.4a2.3,2.3,0,0,1,2.5-.9Zm-.4.1h-.5a2.2,2.2,0,0,0-2.2.7c-.7.7-.6,1.1.2,1.3h.5Z" transform="translate(-67.1 -41.5)"/><polygon class="cls-20" points="251.2 246.5 268.3 250.5 266.8 252.3 249.6 248.2 251.2 246.5"/><path class="cls-21" d="M332,292.6l-.4-.3-.5.2c-.1,0-.2,0-.2.1h0l.6-.3-.3-.4h.2l.2.4.6-.2h-.5l.4.4Z" transform="translate(-67.1 -41.5)"/><path class="cls-21" d="M331,291.7h-.7a3.2,3.2,0,0,0-1.4.3h0l1.2-.3h.9Zm-.8.6-.3-.3h.1l.3.3Z" transform="translate(-67.1 -41.5)"/><path class="cls-21" d="M327.4,291.7c0-.1.1-.2.1-.3a.8.8,0,0,0,.1-.4l-.2-.2h.2c0,.1.1.2.1.3s-.1.3-.1.5h-.2Zm-.6,0v-.2h.1v.2Zm.3,0v-.2h.1v.3Zm.9.1h.1a2.6,2.6,0,0,1,1.2-.5h0a1.6,1.6,0,0,0-.9.3l-.3.2H328Z" transform="translate(-67.1 -41.5)"/><path class="cls-21" d="M326.9,291.1h-.2l-1.3-.3h0l1.3.3h.2Z" transform="translate(-67.1 -41.5)"/><path class="cls-21" d="M324,290.7c0,.1-.1.1-.1.2h-.6l.5-.4a.2.2,0,0,1,.3,0h-.3l-.5.4h.7l.5-.2.8-.2h-.8l-.4.3H324Z" transform="translate(-67.1 -41.5)"/><path class="cls-21" d="M322.9,290.2h-.2l-1.3-.3h.1l1.3.3h.1Z" transform="translate(-67.1 -41.5)"/><path class="cls-21" d="M321.1,289.2h-.2l-.6.7h-.2a.1.1,0,0,0,.1-.1l.2-.2-.7-.4h.1l.6.4h.1l.3-.4h.3Zm-1.9.7v-.3h.1v.2Zm.3-.1c-.1,0-.1-.1-.1-.2h.1c0,.1,0,.2.1.2Z" transform="translate(-67.1 -41.5)"/><path class="cls-18" d="M249.9,275.4l22.7,11.3c.7.3.7.9.1,1.2l-15.3,8.2a2.5,2.5,0,0,1-2.4,0l-22.7-12.2c-.6-.3-.6-.8.1-1.1l15.3-7.4A2.8,2.8,0,0,1,249.9,275.4Z" transform="translate(-67.1 -41.5)"/><path class="cls-19" d="M256.7,290.1l-3.7,2h-.3l2.3-2.1-4,1.1h-.2l3.6-1.9h.2l-3.1,1.7,4.1-1.3h0l-2.3,2.2,3.2-1.7Z" transform="translate(-67.1 -41.5)"/><path class="cls-19" d="M253.7,288.6l-3.7,1.9-1.4-.7h.2l1.2.6,1.4-.7-.7-.4h.2l.7.4,1.7-.9-1.3-.7h.2Z" transform="translate(-67.1 -41.5)"/><path class="cls-19" d="M251.7,287.6l-3.7,1.9-.2-.2,2.2-2-3.9,1.1h-.3l3.7-1.9h.2l-3.2,1.6,4.2-1.1h0l-2.4,2.1,3.2-1.6Z" transform="translate(-67.1 -41.5)"/><path class="cls-19" d="M248.8,286l-3.7,1.9-.7-.3c-.5-.3-.5-.6.1-.9a1.8,1.8,0,0,1,1.4-.2c-.3-.1-.5-.4.3-.8a2.1,2.1,0,0,1,1.9,0Zm-.4,0-.5-.2a1.6,1.6,0,0,0-1.5,0c-.6.3-.6.6-.1.8l.4.3Zm-1.9,1-.4-.2a1.4,1.4,0,0,0-1.4,0c-.4.2-.4.5,0,.7l.4.2Z" transform="translate(-67.1 -41.5)"/><path class="cls-19" d="M246.6,284.9l-3.7,1.9-1.3-.8h.2l1.1.6,1.4-.7-.7-.4h.2l.8.4,1.6-.8-1.2-.6h.2Z" transform="translate(-67.1 -41.5)"/><path class="cls-19" d="M241.9,284.2l1.2-1.1h.2l-1.1,1.1h.1l.4.2,1.8-.8h.2l-3.7,1.8-.7-.3c-.5-.3-.6-.6.1-1A2,2,0,0,1,241.9,284.2Zm.6.5-.4-.2a1.6,1.6,0,0,0-1.5,0c-.6.3-.5.5-.1.8l.5.2Z" transform="translate(-67.1 -41.5)"/><path class="cls-19" d="M257.8,286c.6.3.3.8-.9,1.4a3.1,3.1,0,0,1-2.8.5c-.5-.3-.3-.6-.1-.8h.3c-.2.2-.4.4,0,.6a3.1,3.1,0,0,0,2.4-.5c1-.5,1.3-1,.9-1.2a1.7,1.7,0,0,0-1.2,0v-.2A2.7,2.7,0,0,1,257.8,286Z" transform="translate(-67.1 -41.5)"/><path class="cls-19" d="M255.1,285.7l1.2-.4h.2l-4.4,1.4h-.3l2.8-2.3h.2l-.8.6Zm-1.2-.4-1.7,1.3,2.7-.8Z" transform="translate(-67.1 -41.5)"/><path class="cls-19" d="M251.3,284.5l1.1-1.2h.2l-1.1,1.1h.2l.4.3,1.7-.9h.2l-3.6,1.8-.7-.3c-.5-.3-.7-.6,0-1A2.2,2.2,0,0,1,251.3,284.5Zm.6.5-.4-.3a1.6,1.6,0,0,0-1.5,0c-.6.3-.5.6-.1.8l.5.2Z" transform="translate(-67.1 -41.5)"/><path class="cls-19" d="M251.8,283l-3.6,1.8-.6-.3c-.8-.4-.6-.9.7-1.5s2.2-.7,2.9-.3Zm-.4,0-.4-.3a2.7,2.7,0,0,0-2.5.4c-1.1.6-1.3,1-.7,1.3l.4.2Z" transform="translate(-67.1 -41.5)"/><polygon class="cls-20" points="185.3 237 198.8 243.8 196.2 245.2 182.6 238.3 185.3 237"/><path class="cls-21" d="M262.3,285.2a.8.8,0,0,1-.2-.4h0v-.4h.1v.3h0l.2.4Z" transform="translate(-67.1 -41.5)"/><path class="cls-21" d="M261.9,284.1l-.6-.2h-1.5c.1-.1.1-.1,0-.1h2.1Zm-1.1.5a.4.4,0,0,1-.1-.3h.1c0,.1.1.2.1.3Z" transform="translate(-67.1 -41.5)"/><path class="cls-21" d="M258,283.4v-.2h.1v.2Zm.5.1.3-.2.3-.4v-.2h.2c0,.1-.1.2-.2.4l-.4.4h-.2Zm-.3,0a.4.4,0,0,0,.1-.3h.1v.2Zm.8.2h.1a4.4,4.4,0,0,1,1.5-.3h0a2.7,2.7,0,0,0-1.2.2H259Z" transform="translate(-67.1 -41.5)"/><path class="cls-21" d="M258.4,282.9h-.2l-1-.5h.1l1,.5h.1Z" transform="translate(-67.1 -41.5)"/><path class="cls-21" d="M256,282h-.1l-.5-.3h0l.8-.3a.2.2,0,0,1,.3,0h.2l-.2-.2h-.4l-.7.3.6.2.6-.2h.9a2.7,2.7,0,0,0-.9,0l-.6.2h.3Z" transform="translate(-67.1 -41.5)"/><path class="cls-21" d="M255.3,281.3h-.2l-1-.5h0l1.1.5Z" transform="translate(-67.1 -41.5)"/><path class="cls-21" d="M252,280.3a.3.3,0,0,1,.1-.2h.1a.3.3,0,0,0-.1.2Zm2.2-.3H254l-1.1.5h0l.3-.2-.4-.5h.1l.3.5h.1l.6-.3h.3Zm-2,.4v-.2h.1v.2Z" transform="translate(-67.1 -41.5)"/></g><g id="Tokens"><g class="cls-22"><polygon class="cls-23" points="294.7 223.4 294.7 222.6 294.7 222.6 294.7 223.4 294.7 223.4"/><path class="cls-23" d="M361.8,264.1v.8h0V264Z" transform="translate(-67.1 -41.5)"/><path class="cls-23" d="M361.8,264.1v.8h0v-.8Z" transform="translate(-67.1 -41.5)"/><path class="cls-23" d="M361.8,264.2v.8h0v-.8Z" transform="translate(-67.1 -41.5)"/><path class="cls-23" d="M361.8,264.2v.8h0v-.8Z" transform="translate(-67.1 -41.5)"/><path class="cls-23" d="M367.7,265.1a1.8,1.8,0,0,0-1.1-.3V264a1.8,1.8,0,0,1,1.1.3Z" transform="translate(-67.1 -41.5)"/><path class="cls-23" d="M361.8,264.3v.8h0v-.8Z" transform="translate(-67.1 -41.5)"/><path class="cls-23" d="M361.8,264.3v.8h0v-.8Z" transform="translate(-67.1 -41.5)"/><path class="cls-23" d="M361.8,264.4v.8h0v-.8Z" transform="translate(-67.1 -41.5)"/><path class="cls-23" d="M361.8,264.4v.8h0v-.8Z" transform="translate(-67.1 -41.5)"/><path class="cls-23" d="M361.8,264.5v.8h0v-.8Z" transform="translate(-67.1 -41.5)"/><path class="cls-23" d="M361.8,264.5v.8h0v-.8Z" transform="translate(-67.1 -41.5)"/><path class="cls-23" d="M361.8,264.6v.8h0v-.8Z" transform="translate(-67.1 -41.5)"/><path class="cls-23" d="M361.8,264.6v.8h0v-.8Z" transform="translate(-67.1 -41.5)"/><path class="cls-23" d="M361.9,264.7v.8h-.1v-.8Z" transform="translate(-67.1 -41.5)"/><path class="cls-23" d="M361.9,264.8v.8h0v-.8Z" transform="translate(-67.1 -41.5)"/><path class="cls-23" d="M361.9,264.8v.9h0v-.8Z" transform="translate(-67.1 -41.5)"/><path class="cls-23" d="M366.6,264.8c-.8.1-1.5.4-1.5.9v-.8c0-.5.7-.9,1.5-.9Z" transform="translate(-67.1 -41.5)"/><path class="cls-23" d="M368.1,265.7a.6.6,0,0,0-.4-.6v-.8a.6.6,0,0,1,.4.6Z" transform="translate(-67.1 -41.5)"/><polygon class="cls-21" points="301 223.4 301 224.2 301 226 301 225.2 301 223.4"/><polygon class="cls-21" points="301 223.4 301 224.2 301 224.2 301 223.4 301 223.4"/><path class="cls-23" d="M361.9,264.9v.8h0v-.9Z" transform="translate(-67.1 -41.5)"/><path class="cls-21" d="M365.1,265.8V265a.7.7,0,0,0,.4.6l1.1.2c.8,0,1.5-.4,1.5-.9v.8c0,.5-.7.9-1.5.9l-1.1-.2A.7.7,0,0,1,365.1,265.8Z" transform="translate(-67.1 -41.5)"/><path class="cls-23" d="M365.1,265.7h0v-.9h0v.8Z" transform="translate(-67.1 -41.5)"/><polygon class="cls-21" points="298 223.5 298 224.3 297.9 226.1 297.9 225.2 298 223.5"/><path class="cls-23" d="M365.1,265.8c-.9,0-1.6.4-1.6.9v-.8c0-.5.7-.9,1.6-1Z" transform="translate(-67.1 -41.5)"/><path class="cls-21" d="M365.1,265.8h0V265h0Z" transform="translate(-67.1 -41.5)"/><path class="cls-23" d="M361.9,265v.8h0v-.8Z" transform="translate(-67.1 -41.5)"/><path class="cls-23" d="M361.9,265v.8h0V265Z" transform="translate(-67.1 -41.5)"/><path class="cls-23" d="M361.9,265.1v.8h0V265Z" transform="translate(-67.1 -41.5)"/><path class="cls-23" d="M361.9,265.1v.8h0v-.8Z" transform="translate(-67.1 -41.5)"/><path class="cls-23" d="M361.9,265.2v.8h0v-.8Z" transform="translate(-67.1 -41.5)"/><path class="cls-23" d="M362,265.2v.9h-.1v-.8Z" transform="translate(-67.1 -41.5)"/><path class="cls-23" d="M362,265.3v.8h0v-.9Z" transform="translate(-67.1 -41.5)"/><path class="cls-23" d="M362,265.4v.8h0v-.8Z" transform="translate(-67.1 -41.5)"/><path class="cls-23" d="M362,265.4v.8h0v-.8Z" transform="translate(-67.1 -41.5)"/><path class="cls-23" d="M362,265.5v.8h0v-.8Z" transform="translate(-67.1 -41.5)"/><path class="cls-23" d="M362,265.5v.8h0v-.8Z" transform="translate(-67.1 -41.5)"/><path class="cls-23" d="M362,265.6v.8h0v-.8Z" transform="translate(-67.1 -41.5)"/><path class="cls-23" d="M362,265.6v.9h0v-.8Z" transform="translate(-67.1 -41.5)"/><path class="cls-23" d="M362.1,265.7v.8H362v-.9Z" transform="translate(-67.1 -41.5)"/><path class="cls-23" d="M362.1,265.8v.8h0v-.8Z" transform="translate(-67.1 -41.5)"/><path class="cls-23" d="M363.5,266.7h0v-.8h0Z" transform="translate(-67.1 -41.5)"/><polygon class="cls-21" points="301 225.2 301 226 297.9 226.1 297.9 225.2 301 225.2"/><path class="cls-21" d="M363.5,266.7v-.8c0,.2.2.4.4.6l1.1.2v.8a2,2,0,0,1-1.1-.2C363.7,267.1,363.5,266.9,363.5,266.7Z" transform="translate(-67.1 -41.5)"/><path class="cls-23" d="M371.9,264.5c1.6,1.3-5.4,5.3-7.6,4.4h7.6Zm-6.9,2.2h3.1v-1.8a.6.6,0,0,0-.4-.6,1.8,1.8,0,0,0-1.1-.3c-.8,0-1.5.4-1.5.9s-1.6.5-1.6,1a.7.7,0,0,0,.4.6l1.1.2" transform="translate(-67.1 -41.5)"/><path class="cls-21" d="M367.7,264.3a.6.6,0,0,1,.4.6c0,.5-.7.9-1.5.9l-1.1-.2a.8.8,0,0,1-.4-.7c0-.5.7-.9,1.5-.9A1.8,1.8,0,0,1,367.7,264.3Z" transform="translate(-67.1 -41.5)"/><path class="cls-23" d="M362.1,265.8v.8h0v-.8Z" transform="translate(-67.1 -41.5)"/><path class="cls-23" d="M362.1,265.9v.8h0v-.8Z" transform="translate(-67.1 -41.5)"/><path class="cls-23" d="M362.1,265.9v.8h0v-.8Z" transform="translate(-67.1 -41.5)"/><path class="cls-23" d="M362.1,266v.8h0v-.8Z" transform="translate(-67.1 -41.5)"/><path class="cls-23" d="M362.2,266v.9h-.1V266Z" transform="translate(-67.1 -41.5)"/><path class="cls-23" d="M362.2,266.1v.8h0V266Z" transform="translate(-67.1 -41.5)"/><path class="cls-23" d="M362.2,266.2v.8h0v-.8Z" transform="translate(-67.1 -41.5)"/><path class="cls-23" d="M362.2,266.2v.8h0v-.8Z" transform="translate(-67.1 -41.5)"/><path class="cls-23" d="M362.2,266.3v.8h0v-.8Z" transform="translate(-67.1 -41.5)"/><path class="cls-23" d="M362.3,266.3v.9h-.1v-.8Z" transform="translate(-67.1 -41.5)"/><path class="cls-23" d="M362.3,266.4v.8h0v-.9Z" transform="translate(-67.1 -41.5)"/><path class="cls-23" d="M362.3,266.5v.8h0v-.8Z" transform="translate(-67.1 -41.5)"/><path class="cls-23" d="M362.3,266.5v.8h0v-.8Z" transform="translate(-67.1 -41.5)"/><path class="cls-23" d="M362.4,266.6v.8h-.1v-.8Z" transform="translate(-67.1 -41.5)"/><path class="cls-23" d="M362.4,266.6v.8h0v-.8Z" transform="translate(-67.1 -41.5)"/><path class="cls-23" d="M362.4,266.7v.8h0v-.8Z" transform="translate(-67.1 -41.5)"/><path class="cls-21" d="M368.1,264.9v1.8H365v-1.8a.8.8,0,0,0,.4.7l1.1.2C367.4,265.8,368.1,265.4,368.1,264.9Z" transform="translate(-67.1 -41.5)"/><path class="cls-21" d="M363.5,265.9c0-.5.7-.9,1.6-1v1.8l-1.1-.2A.7.7,0,0,1,363.5,265.9Z" transform="translate(-67.1 -41.5)"/><path class="cls-23" d="M362.4,266.7v.9h0v-.8Z" transform="translate(-67.1 -41.5)"/><path class="cls-23" d="M362.5,266.8v.8h-.1v-.9Z" transform="translate(-67.1 -41.5)"/><path class="cls-23" d="M362.5,266.9v.8h0v-.8Z" transform="translate(-67.1 -41.5)"/><path class="cls-23" d="M362.5,266.9v.8h0v-.8Z" transform="translate(-67.1 -41.5)"/><path class="cls-23" d="M362.5,267v.8h0v-.8Z" transform="translate(-67.1 -41.5)"/><path class="cls-23" d="M362.6,267v.8h-.1V267Z" transform="translate(-67.1 -41.5)"/><path class="cls-23" d="M362.6,267.1v.8h0V267Z" transform="translate(-67.1 -41.5)"/><path class="cls-23" d="M362.6,267.1v.8h0v-.8Z" transform="translate(-67.1 -41.5)"/><path class="cls-23" d="M362.7,267.2v.8c-.1,0-.1,0-.1-.1v-.8Z" transform="translate(-67.1 -41.5)"/><path class="cls-23" d="M362.7,267.3v.8h0v-.8Z" transform="translate(-67.1 -41.5)"/><path class="cls-23" d="M362.7,267.4v.8h0v-.8Z" transform="translate(-67.1 -41.5)"/><path class="cls-23" d="M362.8,267.4v.8h-.1v-.8Z" transform="translate(-67.1 -41.5)"/><path class="cls-23" d="M362.8,267.5v.8h0v-.8Z" transform="translate(-67.1 -41.5)"/><path class="cls-23" d="M362.8,267.5v.8h0v-.8Z" transform="translate(-67.1 -41.5)"/><path class="cls-23" d="M362.9,267.6v.8h-.1v-.8Z" transform="translate(-67.1 -41.5)"/><path class="cls-23" d="M362.9,267.6v.8h0v-.8Z" transform="translate(-67.1 -41.5)"/><path class="cls-23" d="M362.9,267.7v.8h0v-.8Z" transform="translate(-67.1 -41.5)"/><path class="cls-23" d="M363,267.7v.8h-.1v-.8Z" transform="translate(-67.1 -41.5)"/><path class="cls-23" d="M363,267.8v.8h0v-.8Z" transform="translate(-67.1 -41.5)"/><path class="cls-23" d="M363,267.8v.8h0v-.8Z" transform="translate(-67.1 -41.5)"/><path class="cls-23" d="M363.1,267.9v.8H363v-.8Z" transform="translate(-67.1 -41.5)"/><path class="cls-23" d="M363.1,267.9v.8h0v-.8Z" transform="translate(-67.1 -41.5)"/><path class="cls-23" d="M363.1,268v.8h0v-.8Z" transform="translate(-67.1 -41.5)"/><path class="cls-23" d="M363.2,268v.8h-.1V268Z" transform="translate(-67.1 -41.5)"/><path class="cls-23" d="M363.2,268.1v.8h0V268Z" transform="translate(-67.1 -41.5)"/><path class="cls-23" d="M363.3,268.1v.8h-.1v-.8Z" transform="translate(-67.1 -41.5)"/><path class="cls-23" d="M363.3,268.1v.9h0v-.8Z" transform="translate(-67.1 -41.5)"/><path class="cls-23" d="M363.3,268.2v.8h0v-.9Z" transform="translate(-67.1 -41.5)"/><path class="cls-23" d="M363.4,268.2v.8h-.1v-.8Z" transform="translate(-67.1 -41.5)"/><path class="cls-23" d="M363.4,268.3v.8h0v-.8Z" transform="translate(-67.1 -41.5)"/><path class="cls-23" d="M363.5,268.3v.8h-.1v-.8Z" transform="translate(-67.1 -41.5)"/><path class="cls-23" d="M363.5,268.4v.8h0v-.8Z" transform="translate(-67.1 -41.5)"/><path class="cls-23" d="M363.5,268.4v.8h0v-.8Z" transform="translate(-67.1 -41.5)"/><path class="cls-23" d="M363.6,268.4v.8h-.1v-.8Z" transform="translate(-67.1 -41.5)"/><path class="cls-23" d="M363.6,268.5v.8h0v-.8Z" transform="translate(-67.1 -41.5)"/><path class="cls-23" d="M363.7,268.5v.8h-.1v-.8Z" transform="translate(-67.1 -41.5)"/><path class="cls-23" d="M363.7,268.5v.9h0v-.8Z" transform="translate(-67.1 -41.5)"/><path class="cls-23" d="M363.8,268.6v.8h-.1v-.9Z" transform="translate(-67.1 -41.5)"/><path class="cls-23" d="M363.8,268.6v.8h0v-.8Z" transform="translate(-67.1 -41.5)"/><path class="cls-23" d="M363.9,268.6v.9h-.1v-.8Z" transform="translate(-67.1 -41.5)"/><path class="cls-23" d="M363.9,268.7v.8h0v-.9Z" transform="translate(-67.1 -41.5)"/><path class="cls-23" d="M364,268.7v.8h-.1v-.8Z" transform="translate(-67.1 -41.5)"/><path class="cls-23" d="M364,268.7v.9h0v-.8Z" transform="translate(-67.1 -41.5)"/><path class="cls-23" d="M364,268.8v.8h0v-.9Z" transform="translate(-67.1 -41.5)"/><path class="cls-23" d="M364.3,268.9v.8H364v-.8h.3Z" transform="translate(-67.1 -41.5)"/><path class="cls-23" d="M372.1,265v.8c0,1.5-5.8,4.7-7.8,3.9v-.8C366.3,269.7,372.1,266.5,372.1,265Z" transform="translate(-67.1 -41.5)"/></g><g class="cls-22"><path class="cls-19" d="M382.8,271.3v-.8h0v.8Z" transform="translate(-67.1 -41.5)"/><path class="cls-19" d="M382.9,270.6v.8h-.1v-.8A.1.1,0,0,0,382.9,270.6Z" transform="translate(-67.1 -41.5)"/><path class="cls-19" d="M382.9,270.7v.8h0v-.8Z" transform="translate(-67.1 -41.5)"/><path class="cls-19" d="M382.9,270.8v.8h0v-.8Z" transform="translate(-67.1 -41.5)"/><path class="cls-19" d="M382.9,270.9v.8h0v-.8Z" transform="translate(-67.1 -41.5)"/><path class="cls-19" d="M383,271v.8h-.1v-.8C383,270.9,383,270.9,383,271Z" transform="translate(-67.1 -41.5)"/><path class="cls-19" d="M383,271v.9h0V271Z" transform="translate(-67.1 -41.5)"/><path class="cls-19" d="M383.9,272v.8h-.1l-.3-.3h-.2l-.3-.4V271l.3.4.2.2.3.3Z" transform="translate(-67.1 -41.5)"/><path class="cls-19" d="M384.5,272.4v.8h-.1l-.5-.4V272l.5.4Z" transform="translate(-67.1 -41.5)"/><path class="cls-19" d="M386.6,273.7v.8h0l-1.1-.5-1-.7v-.8a3.3,3.3,0,0,0,1,.6l1.1.6Z" transform="translate(-67.1 -41.5)"/><path class="cls-19" d="M388.1,274.2v.8H388l-.5-.2h-.1l-.8-.3v-.8l.8.3h.1l.5.2Z" transform="translate(-67.1 -41.5)"/><path class="cls-19" d="M388.6,274.4v.8h-.5v-.8h.5Z" transform="translate(-67.1 -41.5)"/><path class="cls-19" d="M389,274.5v.8h-.4v-.8Z" transform="translate(-67.1 -41.5)"/><path class="cls-19" d="M389.4,274.5v.9H389v-.8h.4Z" transform="translate(-67.1 -41.5)"/><path class="cls-19" d="M389.7,274.6v.8h-.3v-.9a.1.1,0,0,1,.1.1h.2Z" transform="translate(-67.1 -41.5)"/><path class="cls-19" d="M393.2,269.6v.8c0,1.5-.8,4.1-2.5,4.9h-1v-.8h.5l.5-.2C392.4,273.7,393.2,271.1,393.2,269.6Z" transform="translate(-67.1 -41.5)"/><path class="cls-19" d="M392.9,268.7c.7.4,0,4.8-2.2,5.7l-.5.2h-.7a.1.1,0,0,0-.1-.1H388l-.5-.2h-.1l-.8-.3h0l-1.1-.6a3.3,3.3,0,0,1-1-.6h-.1l-.5-.4h-.1l-.3-.3-.2-.2-.3-.4h0c0-.1,0-.1-.1-.1h0a.1.1,0,0,1-.1-.1h.1c0-.2,0-.3.2-.3S392.3,268.4,392.9,268.7Z" transform="translate(-67.1 -41.5)"/></g><g class="cls-22"><path class="cls-19" d="M368.6,280.3v-.8h0v.8Z" transform="translate(-67.1 -41.5)"/><path class="cls-19" d="M368.6,279.6v.8h0v-.8Z" transform="translate(-67.1 -41.5)"/><path class="cls-19" d="M368.6,279.6v.8h0v-.8Z" transform="translate(-67.1 -41.5)"/><path class="cls-19" d="M368.6,279.7v.8h0v-.8Z" transform="translate(-67.1 -41.5)"/><path class="cls-19" d="M368.6,279.7v.8h0v-.8Z" transform="translate(-67.1 -41.5)"/><path class="cls-19" d="M368.6,279.8v.8h0v-.8Z" transform="translate(-67.1 -41.5)"/><path class="cls-19" d="M368.6,279.8v.8h0v-.8Z" transform="translate(-67.1 -41.5)"/><path class="cls-19" d="M368.6,279.9v.8h0v-.8Z" transform="translate(-67.1 -41.5)"/><path class="cls-19" d="M368.6,279.9v.9h0v-.8Z" transform="translate(-67.1 -41.5)"/><path class="cls-19" d="M368.6,280v.8h0v-.9Z" transform="translate(-67.1 -41.5)"/><path class="cls-19" d="M368.6,280.1v.8h0V280Z" transform="translate(-67.1 -41.5)"/><path class="cls-19" d="M368.6,280.1v.8h0v-.8Z" transform="translate(-67.1 -41.5)"/><path class="cls-19" d="M368.6,280.2v.8h0v-.8Z" transform="translate(-67.1 -41.5)"/><path class="cls-19" d="M368.6,280.2v.9h0v-.8Z" transform="translate(-67.1 -41.5)"/><path class="cls-19" d="M368.6,280.3v.8h0v-.9Z" transform="translate(-67.1 -41.5)"/><path class="cls-19" d="M368.6,280.4v.8h0v-.8Z" transform="translate(-67.1 -41.5)"/><path class="cls-19" d="M368.6,280.4v.8h0v-.8Z" transform="translate(-67.1 -41.5)"/><path class="cls-19" d="M368.7,280.5v.8h0v-.8Z" transform="translate(-67.1 -41.5)"/><path class="cls-19" d="M368.7,280.5v.9h-.1v-.8Z" transform="translate(-67.1 -41.5)"/><path class="cls-19" d="M368.7,280.6v.8h0v-.9Z" transform="translate(-67.1 -41.5)"/><path class="cls-19" d="M368.7,280.7v.8h0v-.8Z" transform="translate(-67.1 -41.5)"/><path class="cls-19" d="M368.7,280.7v.8h0v-.8Z" transform="translate(-67.1 -41.5)"/><path class="cls-19" d="M368.7,280.8v.8h0v-.8Z" transform="translate(-67.1 -41.5)"/><path class="cls-19" d="M368.7,280.8v.9h0v-.8Z" transform="translate(-67.1 -41.5)"/><path class="cls-19" d="M368.7,280.9v.8h0v-.9Z" transform="translate(-67.1 -41.5)"/><path class="cls-19" d="M368.7,281v.8h0v-.8Z" transform="translate(-67.1 -41.5)"/><path class="cls-19" d="M368.7,281v.8h0V281Z" transform="translate(-67.1 -41.5)"/><path class="cls-19" d="M368.8,281.1v.8h-.1V281Z" transform="translate(-67.1 -41.5)"/><path class="cls-19" d="M368.8,281.1v.9h0v-.8Z" transform="translate(-67.1 -41.5)"/><path class="cls-19" d="M368.8,281.2v.8h0v-.9Z" transform="translate(-67.1 -41.5)"/><path class="cls-19" d="M368.8,281.3v.8h0v-.8Z" transform="translate(-67.1 -41.5)"/><path class="cls-19" d="M368.8,281.3v.8h0v-.8Z" transform="translate(-67.1 -41.5)"/><path class="cls-19" d="M368.8,281.4v.8h0v-.8Z" transform="translate(-67.1 -41.5)"/><path class="cls-19" d="M368.8,281.4v.9h0v-.8Z" transform="translate(-67.1 -41.5)"/><path class="cls-19" d="M368.9,281.5v.8h-.1v-.9Z" transform="translate(-67.1 -41.5)"/><path class="cls-19" d="M368.9,281.6v.8h0v-.8Z" transform="translate(-67.1 -41.5)"/><path class="cls-19" d="M368.9,281.6v.8h0v-.8Z" transform="translate(-67.1 -41.5)"/><path class="cls-19" d="M368.9,281.7v.8h0v-.8Z" transform="translate(-67.1 -41.5)"/><path class="cls-19" d="M368.9,281.7v.8h0v-.8Z" transform="translate(-67.1 -41.5)"/><path class="cls-19" d="M369,281.8v.8h-.1v-.8Z" transform="translate(-67.1 -41.5)"/><path class="cls-19" d="M369,281.8v.9h0v-.8Z" transform="translate(-67.1 -41.5)"/><path class="cls-19" d="M369,281.9v.8h0v-.9Z" transform="translate(-67.1 -41.5)"/><path class="cls-19" d="M369,282v.8h0v-.8Z" transform="translate(-67.1 -41.5)"/><path class="cls-19" d="M369,282v.8h0V282Z" transform="translate(-67.1 -41.5)"/><path class="cls-19" d="M369.1,282.1v.8H369V282Z" transform="translate(-67.1 -41.5)"/><path class="cls-19" d="M369.1,282.1v.8h0v-.8Z" transform="translate(-67.1 -41.5)"/><path class="cls-19" d="M369.1,282.2v.8h0v-.8Z" transform="translate(-67.1 -41.5)"/><path class="cls-19" d="M369.1,282.2v.8h0v-.8Z" transform="translate(-67.1 -41.5)"/><path class="cls-19" d="M369.2,282.3v.8h-.1v-.8Z" transform="translate(-67.1 -41.5)"/><path class="cls-19" d="M369.2,282.3v.8h0v-.8Z" transform="translate(-67.1 -41.5)"/><path class="cls-19" d="M369.2,282.4v.8h0v-.8Z" transform="translate(-67.1 -41.5)"/><path class="cls-19" d="M369.2,282.4v.9h0v-.8Z" transform="translate(-67.1 -41.5)"/><path class="cls-19" d="M369.3,282.5v.8h-.1v-.9Z" transform="translate(-67.1 -41.5)"/><path class="cls-19" d="M369.3,282.5v.9h0v-.8Z" transform="translate(-67.1 -41.5)"/><path class="cls-19" d="M369.3,282.6v.8h0v-.9Z" transform="translate(-67.1 -41.5)"/><path class="cls-19" d="M369.4,282.6v.9h-.1v-.8Z" transform="translate(-67.1 -41.5)"/><path class="cls-19" d="M369.4,282.7v.8h0v-.9Z" transform="translate(-67.1 -41.5)"/><path class="cls-19" d="M369.4,282.7v.8h0v-.8Z" transform="translate(-67.1 -41.5)"/><path class="cls-19" d="M369.5,282.8v.8h-.1v-.8Z" transform="translate(-67.1 -41.5)"/><path class="cls-19" d="M369.5,282.8v.8h0v-.8Z" transform="translate(-67.1 -41.5)"/><path class="cls-19" d="M369.5,282.9v.8h0v-.8Z" transform="translate(-67.1 -41.5)"/><path class="cls-19" d="M369.6,282.9v.8h-.1v-.8Z" transform="translate(-67.1 -41.5)"/><path class="cls-19" d="M369.6,283v.8h0v-.8Z" transform="translate(-67.1 -41.5)"/><path class="cls-19" d="M369.6,283v.8h0V283Z" transform="translate(-67.1 -41.5)"/><path class="cls-19" d="M369.7,283v.9h-.1V283Z" transform="translate(-67.1 -41.5)"/><path class="cls-19" d="M369.7,283.1v.8h0V283Z" transform="translate(-67.1 -41.5)"/><path class="cls-19" d="M369.7,283.1v.8h0v-.8Z" transform="translate(-67.1 -41.5)"/><path class="cls-19" d="M369.8,283.2v.8h-.1v-.8Z" transform="translate(-67.1 -41.5)"/><path class="cls-19" d="M369.8,283.2v.8h0v-.8Z" transform="translate(-67.1 -41.5)"/><path class="cls-19" d="M369.9,283.2v.9h-.1v-.8Z" transform="translate(-67.1 -41.5)"/><path class="cls-19" d="M369.9,283.3v.8h0v-.9Z" transform="translate(-67.1 -41.5)"/><path class="cls-19" d="M369.9,283.3v.8h0v-.8Z" transform="translate(-67.1 -41.5)"/><path class="cls-19" d="M370,283.3v.9h-.1v-.8Z" transform="translate(-67.1 -41.5)"/><path class="cls-19" d="M370,283.4v.8h0v-.9Z" transform="translate(-67.1 -41.5)"/><path class="cls-19" d="M370.1,283.4v.8H370v-.8Z" transform="translate(-67.1 -41.5)"/><path class="cls-19" d="M370.1,283.5v.8h0v-.8Z" transform="translate(-67.1 -41.5)"/><path class="cls-19" d="M370.2,283.5v.8h-.1v-.8Z" transform="translate(-67.1 -41.5)"/><path class="cls-19" d="M370.2,283.5v.8h0v-.8Z" transform="translate(-67.1 -41.5)"/><path class="cls-19" d="M370.3,283.5v.8h-.1v-.8Z" transform="translate(-67.1 -41.5)"/><path class="cls-19" d="M370.4,283.6v.8h-.1v-.8C370.3,283.6,370.3,283.6,370.4,283.6Z" transform="translate(-67.1 -41.5)"/><path class="cls-19" d="M378.8,280v.8c0,1.5-6.6,4.5-8.4,3.6v-.8C372.2,284.5,378.8,281.5,378.8,280Z" transform="translate(-67.1 -41.5)"/><path class="cls-19" d="M378.6,279.6c1.4,1.4-6.3,5-8.2,4-.1,0-.1,0-.1-.1h8.1a.1.1,0,0,0,.1.1Z" transform="translate(-67.1 -41.5)"/></g><g class="cls-22"><path class="cls-19" d="M391.3,286.1v-.8h0v.8Z" transform="translate(-67.1 -41.5)"/><polygon class="cls-19" points="324.2 243.8 324.2 244.6 324.2 244.6 324.2 243.8 324.2 243.8"/><path class="cls-19" d="M391.3,286.1v-.8h0v.8Z" transform="translate(-67.1 -41.5)"/><path class="cls-19" d="M391.3,285.4v.8h0v-.8Z" transform="translate(-67.1 -41.5)"/><path class="cls-19" d="M391.3,285.5v.8h0v-.8Z" transform="translate(-67.1 -41.5)"/><path class="cls-19" d="M391.3,285.5v.9h0v-.8Z" transform="translate(-67.1 -41.5)"/><path class="cls-19" d="M391.3,285.6v.8h0v-.9Z" transform="translate(-67.1 -41.5)"/><path class="cls-19" d="M391.3,285.7v.8h0v-.8Z" transform="translate(-67.1 -41.5)"/><path class="cls-19" d="M391.3,285.7v.8h0v-.8Z" transform="translate(-67.1 -41.5)"/><path class="cls-19" d="M391.3,285.8v.8h0v-.8Z" transform="translate(-67.1 -41.5)"/><path class="cls-19" d="M391.3,285.8v.8h0v-.8Z" transform="translate(-67.1 -41.5)"/><path class="cls-19" d="M391.3,285.9v.8h0v-.8Z" transform="translate(-67.1 -41.5)"/><path class="cls-19" d="M391.3,286v.8h0v-.8Z" transform="translate(-67.1 -41.5)"/><path class="cls-19" d="M391.3,286v.8h0V286Z" transform="translate(-67.1 -41.5)"/><path class="cls-19" d="M391.3,286.1v.8h0V286Z" transform="translate(-67.1 -41.5)"/><path class="cls-19" d="M391.3,286.1v.8h0v-.8Z" transform="translate(-67.1 -41.5)"/><path class="cls-19" d="M391.3,286.2v.8h0v-.8Z" transform="translate(-67.1 -41.5)"/><path class="cls-19" d="M391.3,286.3v.8h0v-.8Z" transform="translate(-67.1 -41.5)"/><path class="cls-19" d="M391.4,286.3v.8h-.1v-.8Z" transform="translate(-67.1 -41.5)"/><path class="cls-19" d="M391.4,286.4v.8h0v-.8Z" transform="translate(-67.1 -41.5)"/><path class="cls-19" d="M391.4,286.4v.9h0v-.8Z" transform="translate(-67.1 -41.5)"/><path class="cls-19" d="M391.4,286.5v.8h0v-.9Z" transform="translate(-67.1 -41.5)"/><path class="cls-19" d="M391.4,286.6v.8h0v-.8Z" transform="translate(-67.1 -41.5)"/><path class="cls-19" d="M391.4,286.6v.8h0v-.8Z" transform="translate(-67.1 -41.5)"/><path class="cls-19" d="M391.4,286.7v.8h0v-.8Z" transform="translate(-67.1 -41.5)"/><path class="cls-19" d="M391.4,286.7v.8h0v-.8Z" transform="translate(-67.1 -41.5)"/><path class="cls-19" d="M391.4,286.8v.8h0v-.8Z" transform="translate(-67.1 -41.5)"/><path class="cls-19" d="M391.5,286.9v.8h0v-.8Z" transform="translate(-67.1 -41.5)"/><path class="cls-19" d="M391.5,286.9v.8h-.1v-.8Z" transform="translate(-67.1 -41.5)"/><path class="cls-19" d="M391.5,287v.8h0v-.8Z" transform="translate(-67.1 -41.5)"/><path class="cls-19" d="M391.5,287v.8h0V287Z" transform="translate(-67.1 -41.5)"/><path class="cls-19" d="M391.5,287.1v.8h0V287Z" transform="translate(-67.1 -41.5)"/><path class="cls-19" d="M391.5,287.1v.9h0v-.8Z" transform="translate(-67.1 -41.5)"/><path class="cls-19" d="M391.5,287.2v.8h0v-.9Z" transform="translate(-67.1 -41.5)"/><path class="cls-19" d="M391.6,287.3v.8h-.1v-.8Z" transform="translate(-67.1 -41.5)"/><path class="cls-19" d="M391.6,287.3v.8h0v-.8Z" transform="translate(-67.1 -41.5)"/><path class="cls-19" d="M391.6,287.4v.8h0v-.8Z" transform="translate(-67.1 -41.5)"/><path class="cls-19" d="M391.6,287.4v.8h0v-.8Z" transform="translate(-67.1 -41.5)"/><path class="cls-19" d="M391.6,287.5v.8h0v-.8Z" transform="translate(-67.1 -41.5)"/><path class="cls-19" d="M391.7,287.5v.9h-.1v-.8Z" transform="translate(-67.1 -41.5)"/><path class="cls-19" d="M391.7,287.6v.8h0v-.9Z" transform="translate(-67.1 -41.5)"/><path class="cls-19" d="M391.7,287.6v.9h0v-.8Z" transform="translate(-67.1 -41.5)"/><path class="cls-19" d="M391.7,287.7v.8h0v-.9Z" transform="translate(-67.1 -41.5)"/><path class="cls-19" d="M391.8,287.8v.8h-.1v-.8Z" transform="translate(-67.1 -41.5)"/><path class="cls-19" d="M391.8,287.8v.8h0v-.8Z" transform="translate(-67.1 -41.5)"/><path class="cls-19" d="M391.8,287.9v.8h0v-.8Z" transform="translate(-67.1 -41.5)"/><path class="cls-19" d="M391.8,287.9v.8h0v-.8Z" transform="translate(-67.1 -41.5)"/><path class="cls-19" d="M391.9,288v.8h-.1v-.8Z" transform="translate(-67.1 -41.5)"/><path class="cls-19" d="M391.9,288v.8h0V288Z" transform="translate(-67.1 -41.5)"/><path class="cls-19" d="M391.9,288.1v.8h0V288Z" transform="translate(-67.1 -41.5)"/><path class="cls-19" d="M391.9,288.1v.8h0v-.8Z" transform="translate(-67.1 -41.5)"/><path class="cls-19" d="M392,288.1v.9h-.1v-.8Z" transform="translate(-67.1 -41.5)"/><path class="cls-19" d="M392,288.2v.8h0v-.9Z" transform="translate(-67.1 -41.5)"/><path class="cls-19" d="M392,288.2v.9h0v-.8Z" transform="translate(-67.1 -41.5)"/><path class="cls-19" d="M392.1,288.3v.8H392v-.9Z" transform="translate(-67.1 -41.5)"/><path class="cls-19" d="M392.1,288.3v.8h0v-.8Z" transform="translate(-67.1 -41.5)"/><path class="cls-19" d="M392.1,288.4v.8h0v-.8Z" transform="translate(-67.1 -41.5)"/><path class="cls-19" d="M392.2,288.4v.8h-.1v-.8Z" transform="translate(-67.1 -41.5)"/><path class="cls-19" d="M392.2,288.5v.8h0v-.8Z" transform="translate(-67.1 -41.5)"/><path class="cls-19" d="M392.2,288.5v.8h0v-.8Z" transform="translate(-67.1 -41.5)"/><path class="cls-19" d="M392.3,288.5v.9h-.1v-.8Z" transform="translate(-67.1 -41.5)"/><path class="cls-19" d="M392.3,288.6v.8h0v-.9Z" transform="translate(-67.1 -41.5)"/><path class="cls-19" d="M392.4,288.6v.8h0v-.8Z" transform="translate(-67.1 -41.5)"/><path class="cls-19" d="M392.4,288.7v.8h-.1v-.8Z" transform="translate(-67.1 -41.5)"/><path class="cls-19" d="M392.4,288.7v.8h0v-.8Z" transform="translate(-67.1 -41.5)"/><path class="cls-19" d="M392.5,288.7v.8h-.1v-.8Z" transform="translate(-67.1 -41.5)"/><path class="cls-19" d="M392.5,288.8v.8h0v-.8Z" transform="translate(-67.1 -41.5)"/><path class="cls-19" d="M392.6,288.8v.8h-.1v-.8Z" transform="translate(-67.1 -41.5)"/><path class="cls-19" d="M392.6,288.8v.8h0v-.8Z" transform="translate(-67.1 -41.5)"/><path class="cls-19" d="M392.6,288.9v.8h0v-.8Z" transform="translate(-67.1 -41.5)"/><path class="cls-19" d="M392.7,288.9v.8h-.1v-.8Z" transform="translate(-67.1 -41.5)"/><path class="cls-19" d="M392.7,288.9v.8h0v-.8Z" transform="translate(-67.1 -41.5)"/><path class="cls-19" d="M392.8,289v.8a.1.1,0,0,0-.1-.1v-.8C392.8,288.9,392.8,288.9,392.8,289Z" transform="translate(-67.1 -41.5)"/><path class="cls-19" d="M401.5,285.5v.8c0,1.5-6.9,4.4-8.7,3.5V289C394.6,289.9,401.5,287,401.5,285.5Z" transform="translate(-67.1 -41.5)"/><path class="cls-19" d="M401.3,285.2c1.3,1.3-6.6,4.8-8.5,3.8,0-.1,0-.1-.1-.1h-.2c.1,0,.2,0,.2.1h8.4a.1.1,0,0,1,.1.1h.1Z" transform="translate(-67.1 -41.5)"/></g><g class="cls-22"><path class="cls-23" d="M404.6,270.2a2.5,2.5,0,0,0-1.9-.2v-.8a2.4,2.4,0,0,1,1.9.2l.3.2v.8Z" transform="translate(-67.1 -41.5)"/><path class="cls-23" d="M406.7,270.6a2.4,2.4,0,0,0-1.9-.2v-.8a2.2,2.2,0,0,1,1.8.2Z" transform="translate(-67.1 -41.5)"/><path class="cls-23" d="M401.9,270.8V270c0-.3.3-.6.8-.8v.8C402.2,270.2,401.9,270.5,401.9,270.8Z" transform="translate(-67.1 -41.5)"/><path class="cls-23" d="M407,270.8l-.3-.2v-.8l.3.2Z" transform="translate(-67.1 -41.5)"/><polygon class="cls-21" points="336.5 230.5 336.5 231.3 335 229.7 335 228.9 336.5 230.5"/><polygon class="cls-21" points="337.8 228.1 337.7 228.9 335 229.7 335 228.9 337.8 228.1"/><path class="cls-21" d="M404.8,270.4c-.5.2-.8.5-.8.8v-.8c0-.4.3-.7.9-.8Z" transform="translate(-67.1 -41.5)"/><path class="cls-21" d="M402.7,269.2a2.4,2.4,0,0,1,1.9.2l.3.2-2.8.8C401.7,269.9,402,269.4,402.7,269.2Z" transform="translate(-67.1 -41.5)"/><path class="cls-21" d="M401.9,270.8V270c0,.1.1.2.2.4v.8A.8.8,0,0,1,401.9,270.8Z" transform="translate(-67.1 -41.5)"/><path class="cls-23" d="M407.2,271.2a.8.8,0,0,0-.2-.4V270a.8.8,0,0,1,.2.4Z" transform="translate(-67.1 -41.5)"/><path class="cls-23" d="M398.4,272v-.9h0v.8Z" transform="translate(-67.1 -41.5)"/><path class="cls-23" d="M398.4,271.2v.8h0v-.8Z" transform="translate(-67.1 -41.5)"/><path class="cls-23" d="M398.4,271.3v.8h0v-.8Z" transform="translate(-67.1 -41.5)"/><path class="cls-23" d="M398.5,271.3v.8h-.1v-.8Z" transform="translate(-67.1 -41.5)"/><path class="cls-21" d="M407.2,270.4v.8c0,.3-.3.6-.9.8a2.2,2.2,0,0,1-1.8-.2l-.3-.2a.8.8,0,0,1-.2-.4v-.8c0,.1.1.2.2.4l.3.2a2.8,2.8,0,0,0,1.8.2C406.9,271,407.2,270.7,407.2,270.4Z" transform="translate(-67.1 -41.5)"/><path class="cls-21" d="M407,270c.4.4.1.9-.7,1.2a2.8,2.8,0,0,1-1.8-.2l-.3-.2c-.4-.5-.1-1,.7-1.2a2.2,2.2,0,0,1,1.8.2Z" transform="translate(-67.1 -41.5)"/><path class="cls-23" d="M398.5,271.4v.8h0v-.8Z" transform="translate(-67.1 -41.5)"/><path class="cls-23" d="M398.5,271.4v.8h0v-.8Z" transform="translate(-67.1 -41.5)"/><path class="cls-23" d="M398.6,271.5v.8h0v-.8Z" transform="translate(-67.1 -41.5)"/><path class="cls-23" d="M398.6,271.5v.8h-.1v-.8Z" transform="translate(-67.1 -41.5)"/><path class="cls-23" d="M398.6,271.6v.8h0v-.8Z" transform="translate(-67.1 -41.5)"/><path class="cls-23" d="M398.7,271.6v.8h-.1v-.8Z" transform="translate(-67.1 -41.5)"/><path class="cls-23" d="M398.8,271.7v.8a.1.1,0,0,1-.1-.1v-.8Z" transform="translate(-67.1 -41.5)"/><path class="cls-23" d="M398.8,271.7v.8h0v-.8Z" transform="translate(-67.1 -41.5)"/><path class="cls-23" d="M398.9,271.8v.8h-.1v-.8A.1.1,0,0,1,398.9,271.8Z" transform="translate(-67.1 -41.5)"/><path class="cls-23" d="M399.1,271.9v.8h-.2v-.8h.2Z" transform="translate(-67.1 -41.5)"/><polygon class="cls-21" points="339.2 229.7 339.2 230.5 336.5 231.3 336.5 230.5 339.2 229.7"/><path class="cls-21" d="M404.5,271a2.8,2.8,0,0,0,1.8.2l-2.7.8-1.5-1.6,2.8-.8c-.8.2-1.1.7-.7,1.2Z" transform="translate(-67.1 -41.5)"/><path class="cls-23" d="M409,272v.8h0V272Z" transform="translate(-67.1 -41.5)"/><path class="cls-23" d="M409,272.1v.8h0v-.8Z" transform="translate(-67.1 -41.5)"/><path class="cls-23" d="M409,272v.8h0v-.8Z" transform="translate(-67.1 -41.5)"/><path class="cls-23" d="M409,272.1v.8h0v-.8Z" transform="translate(-67.1 -41.5)"/><path class="cls-23" d="M409,272.2v.8h0v-.8Z" transform="translate(-67.1 -41.5)"/><path class="cls-23" d="M409,272.2v.8h0v-.8Z" transform="translate(-67.1 -41.5)"/><path class="cls-23" d="M409,272.3v.8h0v-.8Z" transform="translate(-67.1 -41.5)"/><path class="cls-23" d="M409,272.3v.8h-.1v-.9Z" transform="translate(-67.1 -41.5)"/><path class="cls-23" d="M408.9,272.3v.9h0v-.8Z" transform="translate(-67.1 -41.5)"/><path class="cls-23" d="M408.9,272.4v.8h0v-.9Z" transform="translate(-67.1 -41.5)"/><path class="cls-23" d="M408.9,272.4v.9h0v-.8Z" transform="translate(-67.1 -41.5)"/><path class="cls-23" d="M408.9,272.5v.8h0v-.8Z" transform="translate(-67.1 -41.5)"/><path class="cls-23" d="M408.9,272.5v.8h0v-.8Z" transform="translate(-67.1 -41.5)"/><path class="cls-23" d="M408.9,272.6v.8h0v-.8Z" transform="translate(-67.1 -41.5)"/><path class="cls-23" d="M408.9,272.6v.8h0v-.9Z" transform="translate(-67.1 -41.5)"/><path class="cls-23" d="M408.9,272.6v.9h-.1v-.8Z" transform="translate(-67.1 -41.5)"/><path class="cls-23" d="M408.8,272.7v.8h0v-.8Z" transform="translate(-67.1 -41.5)"/><path class="cls-23" d="M408.8,272.7v.8h0v-.8Z" transform="translate(-67.1 -41.5)"/><path class="cls-23" d="M408.8,272.8v.8h0v-.8Z" transform="translate(-67.1 -41.5)"/><path class="cls-23" d="M408.8,272.8v.8h-.1v-.9Z" transform="translate(-67.1 -41.5)"/><path class="cls-23" d="M408.7,272.8v.9h0v-.8Z" transform="translate(-67.1 -41.5)"/><path class="cls-23" d="M408.7,272.9v.8h0v-.8Z" transform="translate(-67.1 -41.5)"/><path class="cls-23" d="M408.7,272.9v.8a.1.1,0,0,1-.1.1V273Z" transform="translate(-67.1 -41.5)"/><path class="cls-23" d="M408.6,273v.8h0V273Z" transform="translate(-67.1 -41.5)"/><path class="cls-23" d="M402.8,273v.9h-2.9a.1.1,0,0,1-.1-.1h-.2c0-.1,0-.1-.1-.1h-.2c-.1,0-.1,0-.1-.1h-.1v-.8h.1a.1.1,0,0,0,.1.1h.1a.1.1,0,0,0,.1.1h.3a.1.1,0,0,1,.1.1h.8a.1.1,0,0,1,.1.1h2Z" transform="translate(-67.1 -41.5)"/><path class="cls-23" d="M408.6,273v.8h-.1v-.8A.1.1,0,0,1,408.6,273Z" transform="translate(-67.1 -41.5)"/><path class="cls-23" d="M403.7,273.2v.8h-.9V273h.9Z" transform="translate(-67.1 -41.5)"/><path class="cls-23" d="M404.3,273.3v.8h-.6v-.8h.6Z" transform="translate(-67.1 -41.5)"/><path class="cls-23" d="M404.9,273.3v.9h-.6v-.8h.6Z" transform="translate(-67.1 -41.5)"/><path class="cls-23" d="M405.2,273.4v.8h-.3v-.9h.3Z" transform="translate(-67.1 -41.5)"/><path class="cls-23" d="M405.4,273.4v.8h-.2v-.8Z" transform="translate(-67.1 -41.5)"/><path class="cls-23" d="M405.8,273.4v.8h-.4v-.8h.4Z" transform="translate(-67.1 -41.5)"/><path class="cls-23" d="M406,273.4v.8h-.2v-.8h.2Z" transform="translate(-67.1 -41.5)"/><path class="cls-23" d="M406.3,273.4v.8H406v-.8h.3Z" transform="translate(-67.1 -41.5)"/><path class="cls-23" d="M398.4,271.1h0c.4-1.7,6.9-4,7.7-3.9a.1.1,0,0,0,.1.1h2.1c0,.1.1.1.1.2h.2a.1.1,0,0,0-.1.1h-.3c-.1,0-.1,0-.1.1h-7.3a.1.1,0,0,0-.1-.1h-.8a.1.1,0,0,0-.1-.1h-.3a.1.1,0,0,1-.1-.1h-.1a.1.1,0,0,1-.1-.1h-.3a.1.1,0,0,0-.1-.1h-.4Zm4.3-1.9c-.7.2-1,.7-.6,1.2l1.5,1.6,2.7-.8c.8-.3,1.1-.8.7-1.2l-.3-.2a2.2,2.2,0,0,0-1.8-.2l-.3-.2a2.4,2.4,0,0,0-1.9-.2" transform="translate(-67.1 -41.5)"/><path class="cls-23" d="M408.5,273.1v.8h-.1a.1.1,0,0,1-.1.1h-2v-.8h1.8c0-.1,0-.1.1-.1h.3Z" transform="translate(-67.1 -41.5)"/></g><g class="cls-22"><polygon class="cls-23" points="309.4 254 309.3 254.8 307 253.6 307 252.8 309.4 254"/><path class="cls-21" d="M374.2,295.1h-.1v-.8h.1Z" transform="translate(-67.1 -41.5)"/><path class="cls-23" d="M374.1,295.1a2,2,0,0,0-2.1.1v-.9a2.2,2.2,0,0,1,2.1,0Z" transform="translate(-67.1 -41.5)"/><path class="cls-23" d="M372,295.2a.7.7,0,0,0-.4.5v-.8c0-.2.2-.4.4-.6Z" transform="translate(-67.1 -41.5)"/><path class="cls-21" d="M374.6,295.8a.8.8,0,0,0-.4-.7v-.8c.3.2.5.4.5.6Z" transform="translate(-67.1 -41.5)"/><path class="cls-21" d="M371.6,295.7v-.8c0,.3.2.5.5.7h.1v.8h-.1C371.8,296.2,371.6,296,371.6,295.7Z" transform="translate(-67.1 -41.5)"/><path class="cls-23" d="M368,295.9v.8h-.1v-.9Z" transform="translate(-67.1 -41.5)"/><path class="cls-23" d="M368,295.9v.8h0v-.8Z" transform="translate(-67.1 -41.5)"/><path class="cls-23" d="M368,295.9v.8h0v-.8Z" transform="translate(-67.1 -41.5)"/><path class="cls-21" d="M374.7,294.9v.9a.5.5,0,0,1-.3.5,2,2,0,0,1-2.1.1v-.8a2,2,0,0,0,2.1-.1A.7.7,0,0,0,374.7,294.9Z" transform="translate(-67.1 -41.5)"/><path class="cls-21" d="M372,294.3a2.2,2.2,0,0,1,2.1,0h.1a.6.6,0,0,1,.1,1.2,2,2,0,0,1-2.1.1h-.1A.7.7,0,0,1,372,294.3Z" transform="translate(-67.1 -41.5)"/><path class="cls-23" d="M368,296v.8h0v-.8Z" transform="translate(-67.1 -41.5)"/><path class="cls-23" d="M368.1,296v.8H368V296Z" transform="translate(-67.1 -41.5)"/><path class="cls-23" d="M368.1,296v.8h0V296Z" transform="translate(-67.1 -41.5)"/><path class="cls-23" d="M378.5,296.1v.8h0v-.9Z" transform="translate(-67.1 -41.5)"/><polygon class="cls-23" points="311.4 254.6 311.4 255.4 311.4 255.4 311.4 254.6 311.4 254.6"/><path class="cls-23" d="M368.1,296v.9h0V296Z" transform="translate(-67.1 -41.5)"/><path class="cls-23" d="M378.5,296v.9h0v-.8Z" transform="translate(-67.1 -41.5)"/><path class="cls-23" d="M368.2,296.1v.8h-.1V296Z" transform="translate(-67.1 -41.5)"/><path class="cls-23" d="M378.5,296.1v.9h0v-.8Z" transform="translate(-67.1 -41.5)"/><path class="cls-23" d="M378.5,296.1v.8h0v-.8Z" transform="translate(-67.1 -41.5)"/><path class="cls-23" d="M368.2,296.1v.8h0v-.8Z" transform="translate(-67.1 -41.5)"/><path class="cls-23" d="M368.3,296.1v.8h-.1v-.8Z" transform="translate(-67.1 -41.5)"/><path class="cls-23" d="M368.3,296.2v.8h0v-.8Z" transform="translate(-67.1 -41.5)"/><path class="cls-23" d="M378.5,296.2v.9h0v-.8Z" transform="translate(-67.1 -41.5)"/><path class="cls-23" d="M378.5,296.2v.8h0v-.9Z" transform="translate(-67.1 -41.5)"/><path class="cls-23" d="M378.5,296.2v.8h0v-.8Z" transform="translate(-67.1 -41.5)"/><path class="cls-23" d="M368.4,296.2v.8h-.1v-.8Z" transform="translate(-67.1 -41.5)"/><path class="cls-23" d="M372.2,296.4a.7.7,0,0,0-.4.6v-.8a.7.7,0,0,1,.4-.6Z" transform="translate(-67.1 -41.5)"/><path class="cls-23" d="M368.4,296.2v.8h0v-.8Z" transform="translate(-67.1 -41.5)"/><path class="cls-23" d="M378.5,296.3v.9h0v-.8Z" transform="translate(-67.1 -41.5)"/><path class="cls-23" d="M378.5,296.3v.8h0v-.9Z" transform="translate(-67.1 -41.5)"/><path class="cls-23" d="M378.5,296.3v.8h0v-.8Z" transform="translate(-67.1 -41.5)"/><path class="cls-23" d="M368.6,296.3v.8h-.2v-.8h.2Z" transform="translate(-67.1 -41.5)"/><path class="cls-23" d="M378.5,296.4v.8h0v-.8Z" transform="translate(-67.1 -41.5)"/><path class="cls-23" d="M378.5,296.4v.8h0v-.8Z" transform="translate(-67.1 -41.5)"/><path class="cls-23" d="M378.5,296.4v.8h0v-.8Z" transform="translate(-67.1 -41.5)"/><path class="cls-23" d="M368.9,296.4v.9h-.3v-.8h.3Z" transform="translate(-67.1 -41.5)"/><path class="cls-23" d="M378.5,296.5v.8h0v-.8Z" transform="translate(-67.1 -41.5)"/><path class="cls-23" d="M378.5,296.5v.8h0v-.8Z" transform="translate(-67.1 -41.5)"/><path class="cls-23" d="M378.5,296.6v.8h-.1v-.8Z" transform="translate(-67.1 -41.5)"/><path class="cls-23" d="M378.5,296.6v.8h0v-.9Z" transform="translate(-67.1 -41.5)"/><path class="cls-23" d="M378.4,296.6v.9h0v-.8Z" transform="translate(-67.1 -41.5)"/><path class="cls-23" d="M378.4,296.7v.8h0v-.8Z" transform="translate(-67.1 -41.5)"/><path class="cls-23" d="M378.4,296.7v.8h0v-.9Z" transform="translate(-67.1 -41.5)"/><path class="cls-23" d="M378.4,296.7v.9h0v-.8Z" transform="translate(-67.1 -41.5)"/><path class="cls-23" d="M378.4,296.8v.8h0v-.8Z" transform="translate(-67.1 -41.5)"/><polygon class="cls-21" points="309.4 254 309.3 254.8 307.4 256.2 307.4 255.3 309.4 254"/><polygon class="cls-21" points="307.4 255.3 307.4 256.2 305.1 255 305.1 254.1 307.4 255.3"/><path class="cls-21" d="M374.3,295.5a.6.6,0,0,0-.1-1.2h-.1l2.4,1.1-2,1.4-2.3-1.2A2,2,0,0,0,374.3,295.5Z" transform="translate(-67.1 -41.5)"/><path class="cls-23" d="M378.4,296.8v.8h0v-.8Z" transform="translate(-67.1 -41.5)"/><path class="cls-23" d="M378.4,296.8v.8h0v-.8Z" transform="translate(-67.1 -41.5)"/><path class="cls-23" d="M378.4,296.9v.8h0v-.8Z" transform="translate(-67.1 -41.5)"/><path class="cls-21" d="M372.3,297.7c-.3-.2-.5-.4-.5-.7v-.8c0,.3.2.5.5.7Z" transform="translate(-67.1 -41.5)"/><path class="cls-23" d="M378.4,296.9v.8h0v-.8Z" transform="translate(-67.1 -41.5)"/><path class="cls-21" d="M372.3,296.9v.8h0v-.8Z" transform="translate(-67.1 -41.5)"/><path class="cls-23" d="M378.4,296.9v.8h0v-.9Z" transform="translate(-67.1 -41.5)"/><path class="cls-23" d="M378.4,296.9v.9h0V297Z" transform="translate(-67.1 -41.5)"/><path class="cls-23" d="M378.4,297v.8h0V297Z" transform="translate(-67.1 -41.5)"/><path class="cls-23" d="M378.4,297v.8h0v-.8Z" transform="translate(-67.1 -41.5)"/><path class="cls-23" d="M378.4,297.1v.8h0v-.8Z" transform="translate(-67.1 -41.5)"/><path class="cls-23" d="M378.4,297.1v.8h-.1v-.8Z" transform="translate(-67.1 -41.5)"/><path class="cls-23" d="M378.3,297.1v.8h0v-.9Z" transform="translate(-67.1 -41.5)"/><path class="cls-23" d="M378.3,297.1v.9h0v-.8Z" transform="translate(-67.1 -41.5)"/><path class="cls-23" d="M378.3,297.2v.8h0v-.8Z" transform="translate(-67.1 -41.5)"/><path class="cls-23" d="M378.3,297.2v.8h0v-.8Z" transform="translate(-67.1 -41.5)"/><path class="cls-21" d="M374.5,296.8v.8a2.2,2.2,0,0,1-2.2.1v-.8A2.4,2.4,0,0,0,374.5,296.8Z" transform="translate(-67.1 -41.5)"/><path class="cls-21" d="M372.3,296.9c-.6-.4-.6-.9-.1-1.3l2.3,1.2a2.4,2.4,0,0,1-2.2.1Z" transform="translate(-67.1 -41.5)"/><path class="cls-23" d="M378.3,297.2v.8h0v-.8Z" transform="translate(-67.1 -41.5)"/><path class="cls-23" d="M378.3,297.3v.8h0v-.8Z" transform="translate(-67.1 -41.5)"/><path class="cls-23" d="M378.3,297.3v.8h0v-.8Z" transform="translate(-67.1 -41.5)"/><path class="cls-23" d="M378.3,297.3v.8h0v-.9Z" transform="translate(-67.1 -41.5)"/><path class="cls-23" d="M378.3,297.3v.9h0v-.8Z" transform="translate(-67.1 -41.5)"/><path class="cls-23" d="M378.3,297.4v.8h0v-.8Z" transform="translate(-67.1 -41.5)"/><path class="cls-23" d="M378.3,297.4v.8h-.1v-.8Z" transform="translate(-67.1 -41.5)"/><path class="cls-23" d="M378.2,297.4v.8h0v-.9Z" transform="translate(-67.1 -41.5)"/><path class="cls-23" d="M378.2,297.4v.9h0v-.8Z" transform="translate(-67.1 -41.5)"/><path class="cls-23" d="M378.2,297.5v.8h0v-.9Z" transform="translate(-67.1 -41.5)"/><path class="cls-23" d="M378.2,297.5v.9h0v-.8Z" transform="translate(-67.1 -41.5)"/><path class="cls-23" d="M378.2,297.6v.8h0v-.8Z" transform="translate(-67.1 -41.5)"/><path class="cls-23" d="M371.7,297.6v.8h-1.2a.1.1,0,0,1-.1-.1h-1.5v-.9h2.8Z" transform="translate(-67.1 -41.5)"/><path class="cls-23" d="M378.2,297.6v.8h-.1v-.8Z" transform="translate(-67.1 -41.5)"/><path class="cls-23" d="M378.2,297.6v.8h0v-.9Z" transform="translate(-67.1 -41.5)"/><path class="cls-23" d="M378.1,297.6v.9h0v-.8Z" transform="translate(-67.1 -41.5)"/><path class="cls-23" d="M378.1,297.7v.8h0v-.8Z" transform="translate(-67.1 -41.5)"/><path class="cls-23" d="M378.1,297.7v.8h0v-.8Z" transform="translate(-67.1 -41.5)"/><path class="cls-23" d="M378.1,297.7v.8h0v-.9Z" transform="translate(-67.1 -41.5)"/><path class="cls-23" d="M378.1,297.7v.9h0v-.8Z" transform="translate(-67.1 -41.5)"/><path class="cls-23" d="M378.1,297.8v.8h0v-.8Z" transform="translate(-67.1 -41.5)"/><path class="cls-23" d="M378.1,297.8v.8H378v-.8Z" transform="translate(-67.1 -41.5)"/><path class="cls-23" d="M378,297.8v.8h0v-.8Z" transform="translate(-67.1 -41.5)"/><path class="cls-23" d="M378,297.8v.8h0v-.9Z" transform="translate(-67.1 -41.5)"/><path class="cls-23" d="M378,297.8v.9h0v-.8Z" transform="translate(-67.1 -41.5)"/><path class="cls-23" d="M372.6,297.9v.8h-.9v-.8h.9Z" transform="translate(-67.1 -41.5)"/><path class="cls-23" d="M378,297.9v.8h-.1v-.8Z" transform="translate(-67.1 -41.5)"/><path class="cls-23" d="M377.9,297.9v.8h0V298Z" transform="translate(-67.1 -41.5)"/><path class="cls-23" d="M377.9,298v.8h0V298Z" transform="translate(-67.1 -41.5)"/><path class="cls-23" d="M377.9,298v.8h0V298Z" transform="translate(-67.1 -41.5)"/><path class="cls-23" d="M377.9,298v.8h0V298Z" transform="translate(-67.1 -41.5)"/><path class="cls-23" d="M377.9,298v.8h0V298Z" transform="translate(-67.1 -41.5)"/><path class="cls-23" d="M373,298v.8h-.4v-.8h.4Z" transform="translate(-67.1 -41.5)"/><path class="cls-23" d="M377.9,298v.8h-.1v-.8Z" transform="translate(-67.1 -41.5)"/><path class="cls-23" d="M377.8,298.1v.8h0v-.8Z" transform="translate(-67.1 -41.5)"/><path class="cls-23" d="M377.8,298.1v.8h0v-.8Z" transform="translate(-67.1 -41.5)"/><path class="cls-23" d="M377.8,298.1v.8h0v-.8Z" transform="translate(-67.1 -41.5)"/><path class="cls-23" d="M377.8,298.1v.8h0v-.8Z" transform="translate(-67.1 -41.5)"/><path class="cls-23" d="M373.5,298.1v.9H373V298h.5Z" transform="translate(-67.1 -41.5)"/><path class="cls-23" d="M377.8,298.1v.8h-.1v-.8Z" transform="translate(-67.1 -41.5)"/><path class="cls-23" d="M377.7,298.2v.8h0v-.8Z" transform="translate(-67.1 -41.5)"/><path class="cls-23" d="M377.7,298.2v.8h-.1v-.9Z" transform="translate(-67.1 -41.5)"/><path class="cls-23" d="M374,298.3v.8h-.5v-.9h.5Z" transform="translate(-67.1 -41.5)"/><path class="cls-23" d="M377.6,298.2v.9h0v-.8Z" transform="translate(-67.1 -41.5)"/><path class="cls-23" d="M377.6,298.3v.8h0v-.8Z" transform="translate(-67.1 -41.5)"/><path class="cls-23" d="M377.6,298.3v.8h-.1v-.8Z" transform="translate(-67.1 -41.5)"/><path class="cls-23" d="M377.5,298.3v.8h0v-.8Z" transform="translate(-67.1 -41.5)"/><path class="cls-23" d="M374.4,298.4v.8H374v-.8h.4Z" transform="translate(-67.1 -41.5)"/><path class="cls-23" d="M377.5,298.4v.8h-.1v-.8Z" transform="translate(-67.1 -41.5)"/><path class="cls-23" d="M377.4,298.4v.8h0v-.8Z" transform="translate(-67.1 -41.5)"/><path class="cls-23" d="M377.4,298.4v.8h-.1v-.8Z" transform="translate(-67.1 -41.5)"/><path class="cls-23" d="M377.3,298.4v.8h0v-.8Z" transform="translate(-67.1 -41.5)"/><path class="cls-23" d="M377.3,298.5v.8h-.1v-.8Z" transform="translate(-67.1 -41.5)"/><path class="cls-23" d="M377.2,298.5v.8h-.1v-.8Z" transform="translate(-67.1 -41.5)"/><path class="cls-23" d="M377.1,298.5v.8H377v-.8h.1Z" transform="translate(-67.1 -41.5)"/><path class="cls-23" d="M377,298.5v.8h-.1v-.9Z" transform="translate(-67.1 -41.5)"/><path class="cls-23" d="M377,298.5h-.2a.1.1,0,0,1-.1.1h-.9a.1.1,0,0,1-.1-.1h-7.8c0-.5,5.4-3.6,8.2-3.5h.5a.1.1,0,0,0,.1.1h.7c.1,0,.1,0,.1.1h.9a.1.1,0,0,1,.1.1H377Zm-4.7-1.6a2.4,2.4,0,0,0,2.2-.1l2-1.4-2.4-1.1a2.2,2.2,0,0,0-2.1,0,.7.7,0,0,0,.1,1.3h.1c-.5.4-.5.9.1,1.3h0" transform="translate(-67.1 -41.5)"/><path class="cls-23" d="M376.9,298.5v.9h-2.5v-.8h1.3a.1.1,0,0,0,.1.1h.9a.1.1,0,0,0,.1-.1Z" transform="translate(-67.1 -41.5)"/></g></g><g id="Cup"><ellipse class="cls-9" cx="218.4" cy="254.4" rx="10.8" ry="4.5"/><path class="cls-9" d="M276.7,277.7l2.6,17.2c0,1.3,2.8,2.4,6.2,2.4s6.2-1.1,6.2-2.4l2.6-17.2" transform="translate(-67.1 -41.5)"/><ellipse class="cls-9" cx="218.4" cy="236.2" rx="8.8" ry="3.4"/></g></g><line class="cls-10" x1="574.1" y1="159.9" x2="583.6" y2="163.2"/></svg>