<svg width="164" height="176" viewBox="0 0 164 176" fill="none" xmlns="http://www.w3.org/2000/svg">
<g filter="url(#filter0_d_151_24)">
<path d="M35.1971 82.6406L11.7258 142.512C6.28303 156.96 21.1878 170.678 35.0673 164.165C70.3906 147.64 99.3457 144.34 141.221 130.515C152.6 126.758 156.661 112.877 149.333 103.595C131.619 81.0625 105.766 39.8909 87.377 16.5745C79.4139 6.45798 63.481 8.36242 58.1948 20.1642C57.7966 21.0532 40.6503 66.2938 40.303 67.2081L35.1971 82.6406ZM135.367 113.629C116.764 118.822 44.9268 141.192 28.8468 146.248L74.4593 32.9354C83.7457 46.3013 125.653 99.8441 135.367 113.629Z" fill="white"/>
</g>
<defs>
<filter id="filter0_d_151_24" x="0.576172" y="0.0214844" width="162.441" height="175.809" filterUnits="userSpaceOnUse" color-interpolation-filters="sRGB">
<feFlood flood-opacity="0" result="BackgroundImageFix"/>
<feColorMatrix in="SourceAlpha" type="matrix" values="0 0 0 0 0 0 0 0 0 0 0 0 0 0 0 0 0 0 127 0" result="hardAlpha"/>
<feOffset/>
<feGaussianBlur stdDeviation="5"/>
<feComposite in2="hardAlpha" operator="out"/>
<feColorMatrix type="matrix" values="0 0 0 0 0.196078 0 0 0 0 0.196078 0 0 0 0 0.196078 0 0 0 1 0"/>
<feBlend mode="normal" in2="BackgroundImageFix" result="effect1_dropShadow_151_24"/>
<feBlend mode="normal" in="SourceGraphic" in2="effect1_dropShadow_151_24" result="shape"/>
</filter>
</defs>
</svg>
