<svg width="727" height="156" viewBox="0 0 727 156" fill="none" xmlns="http://www.w3.org/2000/svg">
<path d="M4.13604 136.602C10.9652 143.19 21.8265 131.135 28.4134 124.309C120.457 29.0051 486.996 13.4331 608.197 72.6406L584.726 132.512C579.283 146.96 594.188 160.678 608.067 154.165C643.391 137.64 672.346 134.34 714.221 120.515C725.6 116.758 729.661 102.877 722.333 93.5951C704.619 71.0625 678.766 29.8909 660.377 6.57446C652.414 -3.54202 636.481 -1.63758 631.195 10.1642C630.797 11.0532 613.65 56.2938 613.303 57.2081C475.925 -8.31741 106.957 16.2867 7.70014 119.094C1.05894 125.981 -2.63957 130.065 4.13604 136.602ZM708.367 103.629C689.764 108.822 617.927 131.192 601.847 136.248L647.459 22.9354C656.746 36.3013 698.653 89.8441 708.367 103.629Z" fill="white"/>
</svg>
