<svg width="115" height="135" viewBox="0 0 115 135" fill="none" xmlns="http://www.w3.org/2000/svg">
<path d="M2.55141 96.2513C9.79866 103.455 36.2134 105.628 46.4569 106.125C47.8684 108.549 47.3683 112.215 46.5793 114.85C39.9568 115.535 26.6651 117.615 26.6651 123.3C26.6651 124.901 27.7615 126.271 29.6194 127.43C30.8478 128.813 32.9984 129.776 34.714 130.455C47.3762 135.461 61.4661 135.709 75.0034 134.158C79.5559 133.637 88.4218 132.253 91.4637 128.837C92.2964 127.902 92.8125 126.62 92.5791 125.393C92.1354 123.062 88.9725 121.226 86.8465 120.183C83.1358 116.77 73.673 115.362 68.2572 114.824C67.4568 111.444 67.5095 108.086 67.6641 106.022C81.0634 105.213 93.9318 103.053 106.234 97.3571C108.039 96.5206 110.101 95.4903 111.733 93.8602C115.624 89.9721 115.196 84.5119 110.248 81.4234C108.408 80.2782 105.21 79.2949 104.141 79.1442C104.366 67.1398 104.713 68.6517 103.805 57.0127C103.53 53.4761 103.61 53.4681 103.323 52.9874C101.585 47.4685 74.0938 46.4523 61.1135 46.2822C60.9997 20.2125 61.0349 21.6315 60.9868 21.3751C60.8722 19.6676 59.7128 19.0177 58.0784 19.4227C56.8308 19.7107 56.5354 19.6583 56.2382 19.6883C56.2421 19.4265 56.2753 19.3584 56.5524 18.1361C59.784 17.3837 60.8717 14.1815 59.7713 12.074C58.7017 10.038 55.7355 9.48961 55.6004 8.48329C55.6065 8.43433 55.6534 8.29356 55.686 8.18951C55.6901 8.17931 55.7554 7.97121 55.7594 7.96101C56.1512 6.66607 54.8644 5.55956 53.5261 6.00041C52.1288 6.44633 49.6758 9.99736 49.4959 12.7574C49.3291 15.2479 50.6744 17.2696 53.3687 18.0282C53.2396 18.5093 53.0993 19.0676 53.1052 19.7343C52.7836 19.7036 52.4594 19.6691 52.1107 19.6144C50.3875 19.2326 49.1832 20.3631 49.1309 21.6526L48.9295 46.3336C42.2512 46.4631 8.34436 47.2943 8.68729 53.8692C8.6329 54.7579 8.13826 72.4245 8.71317 81.9518C-0.845831 84.9663 -1.95278 91.7654 2.55141 96.2513ZM69.0186 123.392C70.3494 124.915 72.7565 122.91 71.3804 121.331C70.536 120.363 69.9111 119.251 69.3893 118.096C80.5764 119.374 85.278 122.049 85.278 123.3C85.278 125.283 75.4861 129.143 57.5379 129.143C39.5898 129.143 29.7979 125.283 29.7979 123.3C29.7979 122.082 34.5056 119.447 45.1944 118.159C44.1836 120.035 43.6748 120.53 43.6315 121.519C43.5972 122.3 44.1893 123.108 44.9252 123.168C45.6967 123.661 46.536 123.406 46.9832 122.843C50.8152 118.037 52.2677 112.039 51.0489 106.305C55.5067 106.42 58.5735 106.442 64.5081 106.183C64.1459 112.061 65.1189 118.919 69.0186 123.392ZM109.518 91.6446C108.25 92.9115 106.549 93.7562 104.917 94.5131C83.7479 104.318 53.9191 104.551 30.8687 101.641C23.3334 100.69 2.07849 97.6674 3.17959 90.1165C3.52606 87.7314 6.32192 86.2401 8.97347 85.1933C9.0432 85.6621 9.14339 86.1315 9.28705 86.5948C8.82917 88.2742 10.8135 90.2506 12.0388 91.1473C14.0545 92.6223 16.5401 93.2876 18.9697 93.8853C43.6113 99.9476 69.9929 102.053 94.1284 94.2333C97.4595 93.1541 100.895 91.7759 103.076 89.0509C104.524 87.2427 105.147 84.6848 104.647 82.4957C106.042 82.8937 107.421 83.3553 108.592 84.0837C111.727 86.0352 112.064 89.1023 109.518 91.6446ZM42.0475 65.1122C43.6563 64.2731 44.4575 62.3809 43.4253 60.6168C55.3838 60.997 90.1962 61.1731 100.617 56.4115C101.377 66.3058 101.399 64.8362 100.936 82.5475C100.727 90.5476 63.9568 98.5514 28.4361 91.914C30.6646 90.7431 30.8962 87.9246 28.9168 86.3932C27.652 85.4177 26.0858 85.5055 25.3476 86.0403C23.8319 86.5456 22.8664 89.1256 24.2546 91.0319C11.9429 88.0883 12.1307 86.8377 11.9069 82.9188C11.7876 76.2214 11.2898 83.3446 11.7571 56.7067C16.9062 58.8601 27.6909 59.8965 37.7149 60.3876C35.9794 63.2516 38.8783 66.771 42.0475 65.1122ZM52.2534 22.8032C54.0986 23.0293 55.9905 22.9895 57.8847 22.6563L58.003 51.7387C57.9834 51.7376 57.9675 51.7315 57.9479 51.7308C55.585 51.5742 55.058 52.9914 52.0119 52.5084L52.2534 22.8032ZM48.9038 49.4729L48.8896 51.2203C47.147 50.3297 45.7433 52.7177 47.2484 53.8423C49.5935 55.5889 52.6813 56.1873 55.5432 55.4235C58.429 54.6403 57.2782 54.7306 59.6713 55.3439C62.782 56.1435 64.5901 54.1638 63.4934 52.6794C62.9754 51.9858 61.9985 51.8389 61.3009 52.355C61.2887 52.3645 61.2103 52.3756 61.1384 52.3853L61.1263 49.4201C83.7143 49.7204 96.8873 51.9125 99.8568 53.5445C89.8887 59.0684 22.2614 58.9226 12.2495 53.7628C15.3007 52.0749 28.5321 49.8706 48.9038 49.4729Z" fill="black"/>
<path d="M15.7696 67.5975C13.6582 68.3762 13.2672 72.5637 15.6319 74.0579C17.6567 75.3353 20.4356 73.7465 20.6431 71.1727C20.8866 68.1589 17.5336 66.1843 15.7696 67.5975Z" fill="black"/>
<path d="M48.1768 88.5246C49.8483 88.5246 51.4744 87.2608 51.6272 85.5238C51.8666 82.8016 48.5184 81.0347 46.7554 82.3053C45.8971 82.5901 44.9308 83.8146 45.0039 85.3807C45.0586 86.5516 46.4515 88.5246 48.1768 88.5246Z" fill="black"/>
<path d="M69.7332 69.6308C71.9473 68.4771 72.19 65.6915 70.2184 64.1775C68.946 63.2027 67.3754 63.3166 66.6782 63.8312C66.5408 63.8775 66.4073 63.9439 66.284 64.0305C63.1805 66.1901 65.8088 71.6826 69.7332 69.6308Z" fill="black"/>
<path d="M79.8988 90.0002C83.0317 90.0002 84.7024 86.1733 82.0193 84.1048C80.7666 83.1372 79.21 83.2167 78.4689 83.7566C77.5952 84.0564 76.6529 85.2897 76.7251 86.842C76.8104 88.678 78.1902 90.0002 79.8988 90.0002Z" fill="black"/>
<path d="M94.6522 72.2951C96.3236 72.2951 97.9497 71.0311 98.1025 69.2937C98.3427 66.5609 94.9793 64.8055 93.2246 66.0785C92.3591 66.3743 91.4067 67.5989 91.4792 69.1526C91.5339 70.3217 92.9212 72.2951 94.6522 72.2951Z" fill="black"/>
<path d="M48.5738 7.02572C48.499 6.98757 48.4315 6.91352 48.3969 6.83274C47.5338 4.81155 45.0566 6.42131 45.9164 8.43491C46.7396 10.3613 48.6814 11.1065 49.3143 9.2876C49.617 8.41247 49.2851 7.40046 48.5738 7.02572Z" fill="black"/>
<path d="M52.9052 3.00018C52.6363 2.53532 52.4978 2.01164 52.4998 1.48607C52.5069 0.0617497 50.7528 -0.06653 50.9584 0.0212914C48.8634 0.0212914 49.2331 2.72493 50.1997 4.39665C51.1709 6.08753 53.8839 4.69563 52.9052 3.00018Z" fill="black"/>
<path d="M59.626 4.92524L60.3557 3.11939C60.6966 2.27768 60.3748 1.28074 59.6375 0.891588C58.9059 0.506806 58.025 0.867539 57.686 1.71144L56.9563 3.51729C56.1395 5.53409 58.8183 6.93376 59.626 4.92524Z" fill="black"/>
<path d="M63.3949 10.1919L65.5286 9.26323C67.325 8.48372 66.0434 6.01233 64.2267 6.78794L62.0852 7.72019C61.334 8.0488 61.0174 8.86676 61.3792 9.55076C61.7393 10.2321 62.6437 10.5204 63.3949 10.1919Z" fill="black"/>
</svg>
