<svg width="292" height="123" viewBox="0 0 292 123" fill="none" xmlns="http://www.w3.org/2000/svg">
<path d="M185.293 29.2703C185.921 30.0523 186.558 30.5481 187.305 31.006C187.625 31.2875 188.007 31.5025 188.457 31.56C205.933 33.776 210.411 32.256 226.893 32.5227C228.223 36.1411 229.585 39.8502 230.909 43.45C232.372 44.4689 234.342 45.7342 235.883 45.8827C236.177 45.9936 236.122 46.0904 236.628 46.0904C237.299 46.0904 237.938 45.7852 238.359 45.2495C241.273 41.5406 244.119 35.8883 246.57 32.9596L252.243 33.0055H252.266C253.383 33.0055 254.323 32.1689 254.452 31.0572C255.555 21.4992 255.506 11.9757 255.317 3.92043C255.289 2.79158 254.415 1.86615 253.289 1.77877C228.815 -0.130822 215.77 -0.0706547 192.065 0.051112L188.775 0.06687C188.177 0.0697352 187.604 0.317566 187.191 0.751628C186.934 1.0222 186.785 1.35885 186.691 1.71341C186.139 2.33656 185.616 2.91012 185 3.46094C185.096 11.319 185.197 21.4122 185.293 29.2703V29.2703ZM191.073 4.4562L192.085 4.4519C215.023 4.33443 227.933 4.2714 250.96 6.01338C251.094 12.8982 251.068 20.7214 250.289 28.5889C246.112 28.5545 244.926 28.2392 243.977 29.2465C241.337 32.0668 239.427 35.7963 237.055 39.4706C235.187 35.7488 232.654 31.825 230.188 28.9241C229.781 28.4457 229.191 28.1649 228.563 28.1491C211.914 27.7691 206.818 29.2853 190.947 27.43C191.019 20.1364 191.315 12.2446 191.073 4.4562V4.4562Z" fill="black"/>
<path d="M202.227 13.934L201.88 14.2306C200.958 15.0228 200.852 16.4109 201.642 17.3335C203.563 19.5696 207.216 16.4238 205.327 14.1933C204.539 13.265 203.149 13.1504 202.227 13.934V13.934Z" fill="black"/>
<path d="M219.51 18.375C220.647 18.375 221.61 17.4997 221.701 16.3479C221.796 15.136 220.891 14.0759 219.679 13.9814L219.043 13.9312C216.224 13.7062 215.374 18.375 219.51 18.375Z" fill="black"/>
<path d="M238.625 18.3963L239.313 17.8089C240.236 17.0196 240.345 15.63 239.557 14.706C238.766 13.7835 237.379 13.6746 236.454 14.4625L235.766 15.0498C234.844 15.8392 234.735 17.2287 235.523 18.1527C236.311 19.0734 237.696 19.1875 238.625 18.3963Z" fill="black"/>
<path d="M289.036 115.999C290.354 115.859 291.393 114.784 291.399 113.432C291.403 112.316 290.968 111.303 290.619 110.485C288.092 103.568 285.86 97.3934 280.461 92.2392C275.567 87.5743 269.269 84.6857 262.739 84.097C255.998 83.4611 249.83 85.6846 244.373 89.5996C235.822 94.317 227.322 103.675 224.08 116.368C223.867 117.2 224.502 118.016 225.342 118.012C292.883 117.718 287.761 118.377 289.036 115.999ZM285.126 110.82L233.784 111.327C235.263 106.186 238.34 101.74 243.655 96.9316C249.05 92.0519 254.95 88.6577 262.256 89.3335C267.619 89.8161 272.794 92.1982 276.833 96.0451C281.067 100.079 283.114 105.229 285.126 110.82Z" fill="black"/>
<path d="M247.244 61.8412C241.883 72.0456 248.718 82.3788 259.399 82.4745C271.671 84.5197 281.286 72.7433 276.74 61.7064C271.495 48.967 252.479 48.6554 247.244 61.8412V61.8412ZM265.959 76.7485C257.233 80.0578 248.675 71.6471 252.208 63.4861C255.854 55.0688 268.408 55.2737 271.88 63.7052C273.97 68.7802 271.473 74.6547 265.959 76.7485Z" fill="black"/>
<path d="M50.1753 120.365C51.193 120.257 51.995 119.428 52 118.383C52.0026 117.522 51.6671 116.74 51.3976 116.108C49.4469 110.769 47.7235 106.002 43.5559 102.023C39.7777 98.4223 34.9163 96.1924 29.8752 95.7379C24.6718 95.2471 19.9099 96.9635 15.6973 99.9858C9.09601 103.627 2.53491 110.852 0.0318842 120.65C-0.13209 121.292 0.358016 121.922 1.00632 121.919C53.1453 121.692 49.191 122.201 50.1753 120.365Z" fill="black"/>
<path d="M17.9134 78.557C13.7753 86.4345 19.0517 94.4113 27.2971 94.4852C36.7701 96.064 44.1926 86.9731 40.6839 78.453C36.6342 68.6187 21.955 68.3782 17.9134 78.557V78.557ZM32.3613 90.065C25.6249 92.6196 19.0187 86.1268 21.7454 79.8269C24.5603 73.329 34.2517 73.4872 36.9321 79.996C38.5453 83.9137 36.6172 88.4486 32.3613 90.065Z" fill="black"/>
<path d="M166.281 94.5164C167.24 94.4149 167.995 93.6332 168 92.6491C168.002 91.8375 167.686 91.1006 167.432 90.5055C165.594 85.4738 163.97 80.9825 160.043 77.2332C156.483 73.8398 151.902 71.7385 147.152 71.3103C142.248 70.8477 137.761 72.4652 133.792 75.313C127.571 78.7446 121.389 85.5519 119.03 94.7849C118.876 95.3899 119.337 95.984 119.948 95.9812C169.079 95.7668 165.353 96.2468 166.281 94.5164Z" fill="black"/>
<path d="M135.88 55.1211C131.981 62.5441 136.953 70.0607 144.722 70.1303C153.649 71.618 160.643 63.0516 157.337 55.023C153.521 45.7561 139.688 45.5294 135.88 55.1211V55.1211ZM149.494 65.9651C143.147 68.3723 136.922 62.2541 139.491 56.3177C142.143 50.1947 151.276 50.3438 153.802 56.477C155.322 60.1687 153.505 64.4419 149.494 65.9651Z" fill="black"/>
<path d="M67.3858 43.917C68.2861 43.8217 68.9956 43.0878 69 42.164C69.0023 41.4021 68.7055 40.7103 68.4671 40.1517C66.7414 35.428 65.2169 31.2117 61.5302 27.6919C58.188 24.5063 53.8875 22.5337 49.4281 22.1317C44.8251 21.6974 40.6126 23.2158 36.8861 25.8893C31.0465 29.1108 25.2424 35.5014 23.0282 44.1691C22.8832 44.737 23.3167 45.2948 23.8902 45.2921C70.0132 45.0909 66.5151 45.5415 67.3858 43.917Z" fill="black"/>
<path d="M38.8467 6.93362C35.186 13.9021 39.8536 20.9585 47.1476 21.0239C55.5276 22.4205 62.0936 14.3786 58.9898 6.84159C55.4074 -1.85799 42.4219 -2.07078 38.8467 6.93362V6.93362ZM51.6275 17.1137C45.6684 19.3735 39.8244 13.63 42.2365 8.05694C44.7266 2.30882 53.2998 2.44879 55.6709 8.20653C57.0979 11.6722 55.3924 15.6838 51.6275 17.1137Z" fill="black"/>
<path d="M78.8136 74.4325C75.6728 74.3481 72.6779 75.1431 69.9581 76.75C64.9916 79.0781 61.2819 83.764 59.7528 89.0293C57.0174 98.4477 61.0836 109.223 67.2573 113.811C73.6265 118.544 83.9845 118.409 92.3309 111.423C97.8978 107.716 100.905 101.231 100.709 94.9385C100.527 89.0959 97.6288 83.3312 92.9557 79.5185C89.11 76.3808 84.0874 74.575 78.8136 74.4325ZM99.6157 94.975C99.7932 100.659 97.1947 106.309 92.834 109.717C90.3838 111.633 87.2749 113.011 83.3271 113.933C79.8224 114.751 77.0359 114.867 74.5586 114.295C62.7874 111.579 55.483 92.3825 66.5842 80.8273C70.0355 77.2348 74.2541 75.4013 78.782 75.5243C83.8155 75.6599 88.6028 77.3788 92.263 80.3643C96.6947 83.9807 99.4437 89.4419 99.6157 94.975Z" fill="black"/>
<path d="M70.7081 87.9605C70.3277 87.8836 69.9857 88.2186 70.0621 88.6041C70.2762 89.6729 70.3354 92.0059 70.567 93.1608C70.6133 93.3908 70.8018 93.5655 71.035 93.5944C75.3682 94.132 78.9428 94.7607 82.2102 95.5615C80.3653 98.7321 78.0419 101.943 76.0796 105.041C75.9226 105.289 75.9903 105.618 76.2329 105.783C79.6732 108.128 79.87 108.592 80.3497 108.475C80.4982 108.438 80.627 108.342 80.7016 108.203C83.6576 102.761 86.2316 98.0502 88.8304 93.0039C88.9912 92.6902 88.8178 92.3104 88.4782 92.226C82.7755 90.7905 76.782 89.1862 70.7081 87.9605Z" fill="black"/>
<path d="M81.248 57.4599C82.964 60.0919 85.3205 62.1038 88.1886 63.428C92.9272 66.1906 98.8912 66.5788 104.092 64.8438C113.396 61.7402 119.949 52.2697 120.214 44.5824C120.488 36.6516 114.489 28.2067 103.997 25.3113C97.7825 22.8385 90.7374 24.0508 85.6719 27.7895C80.9685 31.2604 77.8734 36.9219 77.3931 42.9339C76.9978 47.8814 78.3673 53.0401 81.248 57.4599ZM86.3234 28.6682C90.8992 25.2908 97.0242 24.2172 102.307 25.8675C105.276 26.794 108.177 28.5684 111.18 31.2924C113.845 33.7104 115.524 35.9373 116.462 38.3002C120.919 49.5285 109.278 66.4505 93.461 63.886C88.5435 63.0888 84.6369 60.6604 82.1641 56.8653C79.4144 52.647 78.1072 47.7314 78.4827 43.0229C78.9387 37.3211 81.869 31.955 86.3234 28.6682Z" fill="black"/>
<path d="M96.9852 56.4386C97.1382 56.7952 97.6082 56.8863 97.8819 56.6042C98.6395 55.8205 100.525 54.4456 101.344 53.5985C101.507 53.4297 101.543 53.1753 101.434 52.967C99.4135 49.0965 97.8987 45.7982 96.7002 42.6549C100.357 42.3703 104.32 42.4566 107.984 42.3099C108.278 42.2978 108.509 42.0556 108.508 41.7617C108.481 37.5986 108.751 37.1729 108.382 36.8449C108.267 36.7434 108.114 36.6924 107.958 36.7097C101.8 37.3717 96.4617 37.9317 90.8327 38.6622C90.4832 38.7082 90.2693 39.0667 90.3929 39.3942C92.4537 44.9019 94.5408 50.7448 96.9852 56.4386Z" fill="black"/>
</svg>
