<svg width="297" height="127" viewBox="0 0 297 127" fill="none" xmlns="http://www.w3.org/2000/svg">
<path d="M190.894 37.5642C191.521 38.3462 192.159 38.8421 192.905 39.2999C193.225 39.5814 193.608 39.7965 194.058 39.854C211.534 42.0699 216.011 40.55 232.494 40.8166C233.824 44.4351 235.185 48.1441 236.509 51.7439C237.973 52.7629 239.942 54.0282 241.484 54.1766C241.778 54.2876 241.723 54.3843 242.229 54.3843C242.899 54.3843 243.538 54.0792 243.959 53.5434C246.874 49.8345 249.72 44.1822 252.171 41.2536L257.844 41.2994H257.867C258.984 41.2994 259.924 40.4628 260.053 39.3511C261.156 29.7932 261.107 20.2696 260.918 12.2144C260.889 11.0855 260.015 10.1601 258.889 10.0727C234.416 8.16312 221.371 8.22329 197.665 8.34506L194.376 8.36082C193.777 8.36368 193.204 8.61151 192.792 9.04557C192.535 9.31615 192.385 9.6528 192.292 10.0074C191.739 10.6305 191.216 11.2041 190.601 11.7549C190.697 19.613 190.798 29.7062 190.894 37.5642ZM196.674 12.7501L197.685 12.7458C220.623 12.6284 233.533 12.5653 256.56 14.3073C256.695 21.1922 256.669 29.0153 255.89 36.8829C251.713 36.8485 250.527 36.5331 249.578 37.5404C246.938 40.3607 245.028 44.0903 242.656 47.7645C240.788 44.0427 238.255 40.119 235.788 37.2181C235.381 36.7396 234.791 36.4588 234.164 36.4431C217.514 36.0631 212.419 37.5793 196.548 35.7239C196.62 28.4303 196.916 20.5386 196.674 12.7501Z" fill="black"/>
<path d="M207.828 22.228L207.481 22.5245C206.558 23.3167 206.452 24.7048 207.243 25.6274C209.163 27.8635 212.817 24.7178 210.928 22.4873C210.14 21.559 208.75 21.4444 207.828 22.228Z" fill="black"/>
<path d="M225.11 26.6689C226.248 26.6689 227.21 25.7936 227.302 24.6419C227.397 23.4299 226.491 22.3699 225.279 22.2753L224.643 22.2252C221.824 22.0002 220.974 26.6689 225.11 26.6689Z" fill="black"/>
<path d="M244.226 26.6902L244.913 26.1029C245.836 25.3135 245.945 23.924 245.157 23C244.366 22.0774 242.979 21.9685 242.054 22.7564L241.366 23.3438C240.444 24.1331 240.335 25.5227 241.123 26.4467C241.911 27.3674 243.297 27.4814 244.226 26.6902Z" fill="black"/>
<path d="M21.8495 29.9099C22.4767 30.6919 23.1142 31.1878 23.8608 31.6456C24.1809 31.9271 24.5636 32.1422 25.0136 32.1997C42.4893 34.4156 46.9668 32.8957 63.4493 33.1623C64.7794 36.7808 66.141 40.4898 67.4647 44.0897C68.9286 45.1086 70.898 46.3739 72.4396 46.5223C72.7334 46.6333 72.6782 46.73 73.1845 46.73C73.8549 46.73 74.4939 46.4249 74.915 45.8891C77.8295 42.1802 80.6755 36.5279 83.1264 33.5993L88.7993 33.6451H88.8222C89.9396 33.6451 90.8794 32.8085 91.0083 31.6969C92.1114 22.1389 92.0626 12.6153 91.8735 4.56008C91.8449 3.43123 90.971 2.5058 89.8451 2.41841C65.3714 0.508827 52.3266 0.568994 28.6208 0.69076L25.3316 0.706518C24.7328 0.709384 24.1598 0.957215 23.7472 1.39128C23.4901 1.66185 23.3408 1.9985 23.2475 2.35305C22.695 2.97621 22.1718 3.54977 21.5562 4.10059C21.6525 11.9587 21.7533 22.0519 21.8495 29.9099ZM27.6294 5.09585L28.6408 5.09155C51.5788 4.97408 64.4889 4.91105 87.5157 6.65303C87.6504 13.5379 87.6246 21.361 86.8453 29.2286C82.6684 29.1942 81.4823 28.8788 80.5335 29.8861C77.8933 32.7064 75.9836 36.436 73.6114 40.1102C71.7434 36.3885 69.2106 32.4647 66.7438 29.5638C66.3369 29.0853 65.7467 28.8045 65.1193 28.7888C48.4699 28.4088 43.3744 29.925 27.5034 28.0696C27.5752 20.776 27.8711 12.8843 27.6294 5.09585Z" fill="black"/>
<path d="M38.7832 14.5737L38.4366 14.8702C37.514 15.6624 37.408 17.0505 38.1988 17.9731C40.119 20.2092 43.7725 17.0635 41.8833 14.833C41.0954 13.9047 39.7058 13.7901 38.7832 14.5737Z" fill="black"/>
<path d="M56.0657 19.0146C57.2032 19.0146 58.1659 18.1393 58.2575 16.9876C58.3521 15.7756 57.4467 14.7156 56.2347 14.621L55.5987 14.5709C52.7798 14.3459 51.9297 19.0146 56.0657 19.0146Z" fill="black"/>
<path d="M75.1816 19.0359L75.8692 18.4486C76.7918 17.6592 76.9007 16.2697 76.1128 15.3457C75.322 14.4231 73.9353 14.3142 73.0099 15.1021L72.3222 15.6895C71.3997 16.4788 71.2908 17.8684 72.0787 18.7924C72.8671 19.7131 74.2526 19.8271 75.1816 19.0359Z" fill="black"/>
<path d="M160.305 94.6723C161.846 94.5269 163.818 93.2666 165.283 92.2514C166.614 88.6556 167.984 84.9507 169.322 81.3363C185.957 81.1185 190.475 82.6079 207.75 80.4582C208.204 80.4016 208.589 80.186 208.911 79.9028C209.655 79.4478 210.291 78.9545 210.918 78.1763C211.031 70.3207 211.155 60.2305 211.268 52.3747C210.655 51.8231 210.133 51.249 209.583 50.6256C209.297 49.5251 208.419 48.9798 207.501 48.9733L204.25 48.9503C180.542 48.7771 167.486 48.684 143.001 50.5401C141.876 50.626 140.996 51.5497 140.968 52.6783C140.762 60.7515 140.696 70.2883 141.773 79.8094C141.899 80.9293 142.832 81.6927 143.978 81.7629L149.65 81.7285C151.976 84.5279 154.889 90.2729 157.83 94.0337C158.323 94.6644 159.114 94.9698 159.881 94.8558C160.039 94.8327 160.159 94.7272 160.305 94.6723ZM152.248 78.022C151.829 77.5766 151.248 77.3231 150.638 77.3231C150.632 77.3231 150.623 77.3231 150.618 77.3231L145.937 77.3518C145.181 69.5092 145.173 61.6781 145.319 54.7793C168.717 53.0633 181.73 53.1865 205.195 53.3571C205.009 58.904 205.1 64.5539 205.186 70.0391C205.221 72.1917 205.255 74.2969 205.269 76.3249C189.378 78.145 184.537 76.6232 167.663 76.9608C167.036 76.9751 166.443 77.2544 166.037 77.7313C163.567 80.6229 161.024 84.5413 159.148 88.2606C156.878 84.7392 154.899 80.8668 152.248 78.022Z" fill="black"/>
<path d="M191.487 66.4302C192.419 67.2349 193.804 67.1182 194.592 66.211C195.388 65.2944 195.29 63.9038 194.374 63.1075L194.019 62.8039C193.096 62.0219 191.707 62.1351 190.919 63.0631C190.135 63.9897 190.249 65.3789 191.177 66.1638L191.487 66.4302Z" fill="black"/>
<path d="M176.912 67.204L177.548 67.1553C178.76 67.0622 179.665 66.0053 179.573 64.7937C179.482 63.582 178.413 62.7013 177.21 62.7671L176.574 62.8158C175.363 62.9089 174.458 63.9659 174.549 65.1775C174.643 66.3925 175.703 67.2947 176.912 67.204Z" fill="black"/>
<path d="M159.807 63.2605C158.887 62.4714 157.498 62.5702 156.705 63.4954C155.911 64.4163 156.017 65.8055 156.937 66.5975L157.621 67.1861C158.539 67.974 159.928 67.8777 160.723 66.9512C161.517 66.0303 161.411 64.6411 160.491 63.8491L159.807 63.2605Z" fill="black"/>
<path d="M138.482 124.293C139.8 124.153 140.839 123.078 140.845 121.726C140.849 120.61 140.414 119.597 140.065 118.779C137.538 111.862 135.306 105.687 129.907 100.533C125.013 95.8682 118.715 92.9796 112.185 92.3909C105.445 91.755 99.2759 93.9786 93.8189 97.8935C85.2676 102.611 76.7683 111.969 73.5259 124.662C73.3135 125.493 73.9484 126.31 74.7882 126.306C142.329 126.012 137.207 126.671 138.482 124.293ZM134.572 119.114L83.2301 119.621C84.7087 114.48 87.7856 110.034 93.1008 105.226C98.4965 100.346 104.396 96.9517 111.702 97.6274C117.066 98.11 122.24 100.492 126.279 104.339C130.513 108.373 132.56 113.523 134.572 119.114Z" fill="black"/>
<path d="M96.6899 70.1351C91.3293 80.3396 98.1644 90.6727 108.846 90.7684C121.117 92.8136 130.732 81.0372 126.187 70.0003C120.941 57.261 101.925 56.9494 96.6899 70.1351ZM115.406 85.0425C106.679 88.3517 98.1217 79.941 101.654 71.7801C105.3 63.3627 117.855 63.5677 121.327 71.9991C123.416 77.0741 120.919 82.9486 115.406 85.0425Z" fill="black"/>
<path d="M294.636 124.293C295.954 124.153 296.993 123.078 297 121.726C297.003 120.61 296.568 119.597 296.219 118.779C293.692 111.862 291.46 105.687 286.061 100.533C281.167 95.8682 274.869 92.9796 268.339 92.3909C261.599 91.755 255.43 93.9786 249.973 97.8935C241.422 102.611 232.923 111.969 229.68 124.662C229.468 125.493 230.103 126.31 230.942 126.306C298.483 126.012 293.361 126.671 294.636 124.293ZM290.726 119.114L239.384 119.621C240.863 114.48 243.94 110.034 249.255 105.226C254.651 100.346 260.55 96.9517 267.857 97.6274C273.22 98.11 278.395 100.492 282.433 104.339C286.667 108.373 288.715 113.523 290.726 119.114Z" fill="black"/>
<path d="M252.844 70.1351C247.484 80.3396 254.319 90.6727 265 90.7684C277.271 92.8136 286.886 81.0372 282.341 70.0003C277.095 57.261 258.08 56.9494 252.844 70.1351ZM271.56 85.0425C262.834 88.3517 254.276 79.941 257.808 71.7801C261.455 63.3627 274.009 63.5677 277.481 71.9991C279.571 77.0741 277.073 82.9486 271.56 85.0425Z" fill="black"/>
<path d="M64.9971 104.39C66.3154 104.251 67.3544 103.176 67.3608 101.823C67.3642 100.708 66.9296 99.6945 66.5805 98.8765C64.0535 91.9593 61.821 85.785 56.4223 80.6308C51.5281 75.9659 45.2306 73.0773 38.7003 72.4886C31.9599 71.8527 25.7913 74.0762 20.3343 77.9912C11.783 82.7086 3.28373 92.0667 0.0413028 104.759C-0.171109 105.591 0.463774 106.408 1.30358 106.404C68.8445 106.109 63.722 106.769 64.9971 104.39ZM61.0873 99.2119L9.74553 99.7184C11.2241 94.5778 14.301 90.1319 19.6162 85.3232C25.0118 80.4435 30.9112 77.0493 38.2178 77.7251C43.5809 78.2077 48.7558 80.5898 52.7944 84.4367C57.028 88.4704 59.0757 93.6209 61.0873 99.2119Z" fill="black"/>
<path d="M23.2053 50.2328C17.8447 60.4372 24.6798 70.7704 35.3609 70.8661C47.6322 72.9113 57.2473 61.1349 52.7021 50.098C47.4562 37.3586 28.4408 37.047 23.2053 50.2328ZM41.9211 65.1401C33.1948 68.4494 24.6371 60.0387 28.1693 51.8777C31.8156 43.4604 44.3699 43.6653 47.8421 52.0968C49.9318 57.1718 47.4342 63.0463 41.9211 65.1401Z" fill="black"/>
</svg>
