<svg width="455" height="175" viewBox="0 0 455 175" fill="none" xmlns="http://www.w3.org/2000/svg">
<path d="M303.442 91.3526C304.81 91.2079 305.888 90.0928 305.895 88.6892C305.898 87.5314 305.447 86.4802 305.085 85.6315C302.463 78.4541 300.147 72.0475 294.545 66.6995C289.466 61.8591 282.932 58.8618 276.156 58.2509C269.162 57.5911 262.761 59.8983 257.099 63.9605C248.226 68.8554 239.407 78.5656 236.043 91.7357C235.822 92.5987 236.481 93.4461 237.353 93.4421C307.434 93.1363 302.119 93.821 303.442 91.3526Z" fill="black"/>
<path d="M260.078 35.1577C254.516 45.746 261.608 56.4679 272.691 56.5671C285.424 58.6893 295.401 46.4699 290.684 35.0178C285.241 21.7992 265.51 21.4759 260.078 35.1577V35.1577ZM279.498 50.6258C270.443 54.0595 261.564 45.3325 265.229 36.8645C269.012 28.1305 282.039 28.3432 285.642 37.0918C287.81 42.3577 285.218 48.4532 279.498 50.6258Z" fill="black"/>
<path d="M183.551 99.5239C184.84 99.3875 185.856 98.3367 185.862 97.0141C185.866 95.9231 185.441 94.9326 185.099 94.1328C182.629 87.3695 180.446 81.3325 175.167 76.293C170.382 71.7319 164.224 68.9075 157.839 68.3319C151.249 67.7101 145.218 69.8842 139.882 73.7121C131.521 78.3246 123.211 87.4745 120.04 99.8849C119.833 100.698 120.453 101.497 121.275 101.493C187.313 101.205 182.305 101.85 183.551 99.5239Z" fill="black"/>
<path d="M142.689 46.5716C137.448 56.5491 144.131 66.6524 154.574 66.746C166.572 68.7457 175.974 57.2313 171.53 46.4399C166.4 33.9839 147.808 33.6792 142.689 46.5716V46.5716ZM160.988 61.1474C152.456 64.383 144.089 56.1594 147.542 48.18C151.108 39.9499 163.383 40.1503 166.778 48.3942C168.821 53.3563 166.379 59.1001 160.988 61.1474Z" fill="black"/>
<path d="M114.899 134.186C138.192 150.795 167.333 161.664 196.685 170.969C205.717 173.835 216.651 176.314 225.392 174.221C226.775 174.737 228.101 174.495 229.041 173.856C247.122 161.485 263.26 152.298 282.308 137.406C302.422 121.691 326.1 107.294 339.65 87.0916C355.08 64.0766 354.753 37.989 338.817 20.6382C324.672 5.23991 298.513 -2.71736 273.738 0.839884C252.343 3.91253 229.86 17.6885 218.371 34.3475C186.771 3.35067 130.826 1.16998 99.3793 27.9248C84.5401 38.0312 75.3025 52.2707 75.007 69.948C74.604 94.3922 91.606 117.579 114.899 134.186ZM109.118 115.125C102.317 107.824 99.545 102.142 99.545 102.142C81.9117 77.9334 84.7237 52.4322 99.5719 36.0471C112.356 21.941 135.501 13.4605 158.853 14.7177C181.264 15.9362 202.703 25.7125 216.203 40.8685C217.748 42.5997 220.99 42.2486 222.024 40.4331C231.495 23.7881 254.246 8.9938 274.947 6.023C297.219 2.82043 320.705 9.93139 333.368 23.7179C347.826 39.4604 347.961 63.3778 333.708 84.6405C320.781 103.919 297.479 118.109 277.566 133.676C259.364 147.902 242.604 157.654 225.616 169.21C204.767 162.535 166.384 149.549 143.476 137.574C126.246 128.57 128.444 130.916 109.118 115.125Z" fill="black"/>
<path d="M372.329 55.8722C374.778 64.6357 379.721 72.2377 385.011 79.338C386.639 81.5235 388.797 83.8337 391.294 84.2984C391.529 84.6594 391.894 84.7553 392.241 84.6649C398.932 82.8987 404.553 81.9515 411.955 79.4601C419.769 76.8332 428.19 75.1319 435.278 70.1009C443.351 64.3685 448.219 55.4766 447.679 47.4505C447.199 40.3271 442.42 34.1132 435.791 31.9905C430.066 30.1577 422.05 31.8088 416.13 35.915C414.413 21.1558 401.38 12.8986 388.748 17.747C383.265 19.1807 378.345 22.7689 374.922 28.7247C370.19 36.9611 369.88 47.1099 372.329 55.8722ZM374.554 48.6307C374.304 45.2406 374.715 42.9411 374.715 42.9411C375.067 32.3608 380.579 24.0897 387.255 20.5277C393.002 17.4613 400.173 17.6952 405.547 21.2595C410.703 24.6843 414.002 30.881 414.373 37.8354C414.416 38.6302 415.261 38.9467 415.854 38.47C421.287 34.0972 429.56 32.1368 435.099 33.9109C441.059 35.8175 445.356 41.3852 445.785 47.7627C446.275 55.0448 441.772 63.1748 434.314 68.4711C427.552 73.2726 419.26 74.9541 411.523 77.5581C404.45 79.9369 398.573 80.9922 392.298 82.6289C388.553 77.5633 381.79 68.0012 378.555 60.8616C376.121 55.4925 376.205 56.5835 374.554 48.6307Z" fill="black"/>
<path d="M19.2922 121.016C24.5905 122.605 30.2613 122.592 35.8145 122.247C37.5234 122.141 39.4968 121.813 40.6805 120.727C40.9497 120.726 41.1365 120.577 41.2238 120.376C42.8954 116.506 44.5666 113.426 46.1479 108.972C47.8187 104.272 50.182 99.5675 50.3784 94.4581C50.6012 88.6377 48.0286 83.3913 43.8253 81.0939C40.0945 79.0551 35.1779 79.4308 31.5932 82.0281C28.4977 84.2712 26.264 88.7595 26.0518 92.9968C18.0463 89.1297 8.96494 92.9311 6.56385 100.722C5.18747 103.889 5.09865 107.466 6.75988 111.061C9.05791 116.03 13.9942 119.426 19.2922 121.016ZM16.5338 117.602C14.7499 116.643 13.7614 115.705 13.7614 115.705C8.62628 112.151 6.60809 106.785 7.37921 102.348C8.04323 98.5286 10.8938 95.06 14.7178 93.5434C18.3891 92.0903 22.7332 92.44 26.3383 94.4787C26.7505 94.7114 27.2306 94.3946 27.2192 93.9494C27.1125 89.8681 29.2905 85.1536 32.2857 82.9837C35.5078 80.6478 39.9188 80.3038 43.2588 82.1293C47.0725 84.2139 49.4048 89.0364 49.1994 94.4134C49.0125 99.289 46.6888 103.923 45.0356 108.578C43.524 112.833 41.8088 116.074 40.2318 119.697C36.281 119.929 28.9402 120.216 24.1508 119.533C20.5488 119.021 21.124 119.328 16.5338 117.602Z" fill="black"/>
</svg>
