<?xml version="1.0" encoding="UTF-8"?>
<svg id="Layer_1" xmlns="http://www.w3.org/2000/svg" version="1.1" viewBox="0 0 112 113">
  <!-- Generator: Adobe Illustrator 29.3.0, SVG Export Plug-In . SVG Version: 2.1.0 Build 146)  -->
  <defs>
    <style>
      .st0 {
        fill: #231f20;
      }
    </style>
  </defs>
  <path class="st0" d="M37.9,95l56.2-58.4c5.3-5.5,5.1-14.3-.4-19.6-5.5-5.3-14.3-5.1-19.6.4l-56.2,58.4c-5.3,5.5-5.1,14.3.4,19.6,5.5,5.3,14.3,5.2,19.6-.4Z"/>
  <path class="st0" d="M18.2,36.1l55.5,59.1c5.3,5.6,14,5.8,19.6.6,5.5-5.2,5.8-14,.6-19.6L38.4,17.1c-5.2-5.6-14-5.9-19.6-.6-5.6,5.2-5.9,14-.6,19.6Z"/>
</svg>