<svg width="62" height="53" viewBox="0 0 62 53" fill="none" xmlns="http://www.w3.org/2000/svg">
<path d="M11.0635 14.1667C10.8835 14.2167 10.5635 14.7667 9.83353 16.9567C9.10353 19.1467 7.83353 22.1767 7.91353 22.3967C8.03724 22.5788 8.20985 22.7224 8.41151 22.8108C8.61318 22.8993 8.83571 22.929 9.05353 22.8967C9.28353 22.7667 9.23353 22.4467 9.92353 20.2067C10.6135 17.9667 12.1635 14.7667 12.2035 14.5367C12.2435 14.3067 11.2435 14.0767 11.0635 14.1667V14.1667ZM52.0035 39.7367C51.8635 39.7367 51.4935 40.6067 51.4935 40.6067C51.6835 40.7867 55.3635 42.7967 55.4935 42.7967C55.7249 42.6448 55.9032 42.4246 56.0035 42.1667C54.7215 41.2751 53.3856 40.4636 52.0035 39.7367V39.7367ZM52.8235 37.8867C52.6835 37.8867 52.3235 38.7467 52.3235 38.7467C52.5035 38.9367 56.9235 41.3067 57.0435 41.3067C57.3034 41.1509 57.5066 40.9161 57.6235 40.6367C56.0614 39.6327 54.4456 38.7147 52.7835 37.8867H52.8235ZM53.1435 37.1067C53.3235 37.2867 58.2035 39.8467 58.3235 39.8467C58.5834 39.6909 58.7866 39.4561 58.9035 39.1767C58.9035 39.0267 53.7835 36.2367 53.6435 36.2367C53.5035 36.2367 53.1035 37.1067 53.1035 37.1067H53.1435ZM51.0035 32.1667C51.1835 32.3567 57.3935 36.2167 57.5235 36.2167C57.7825 36.0626 57.983 35.827 58.0935 35.5467C58.0935 35.3967 51.6435 31.2967 51.5035 31.2967C51.3635 31.2967 51.0035 32.1667 51.0035 32.1667V32.1667ZM51.3935 29.6767C51.5835 29.8567 57.5835 33.5967 57.7035 33.5967C57.8235 33.5967 57.8535 32.8967 57.8535 32.7467C57.8535 32.5967 52.0335 28.8067 51.8535 28.8067C51.6735 28.8067 51.3635 29.6467 51.3635 29.6467L51.3935 29.6767ZM50.6635 26.5067C50.8435 26.6867 56.6035 30.2467 56.7235 30.2467C56.8435 30.2467 56.8835 29.5467 56.8835 29.3967C56.8835 29.2467 51.3035 25.6367 51.1635 25.6367C51.0235 25.6367 50.6335 26.4767 50.6335 26.4767L50.6635 26.5067ZM50.9435 24.0367C51.1235 24.2167 56.3935 27.5067 56.5135 27.5067C56.6335 27.5067 56.6635 26.8067 56.6635 26.6567C56.6635 26.5067 51.5535 23.1667 51.4135 23.1667C51.2735 23.1667 50.9135 24.0067 50.9135 24.0067L50.9435 24.0367ZM55.2335 22.9667C53.8817 21.9635 52.469 21.0451 51.0035 20.2167C50.8735 20.2167 50.5035 21.0867 50.5035 21.0867C50.6835 21.2667 54.8935 23.7967 55.0135 23.7967C55.1335 23.7967 55.2035 23.0967 55.2035 22.9367L55.2335 22.9667ZM54.2935 19.4067C53.2295 18.5745 52.1028 17.8256 50.9235 17.1667C50.7835 17.1667 50.4235 18.0367 50.4235 18.0367C50.6035 18.2167 53.9835 20.1967 54.1035 20.1967C54.2235 20.1967 54.2635 19.5267 54.2635 19.3767L54.2935 19.4067ZM51.1035 41.4067C50.9735 41.4067 50.6035 42.2767 50.6035 42.2767C51.505 42.8398 52.4401 43.3475 53.4035 43.7967C53.6645 43.6546 53.8744 43.4343 54.0035 43.1667C53.0821 42.4954 52.1014 41.9097 51.0735 41.4167L51.1035 41.4067ZM39.4435 19.4667C38.0463 19.3733 36.6691 19.8377 35.6137 20.758C34.5584 21.6784 33.911 22.9797 33.8135 24.3767C33.7235 27.7867 33.9935 31.4967 36.2435 33.0567C36.8267 33.4297 37.4832 33.6731 38.1686 33.7702C38.854 33.8674 39.5523 33.8161 40.2161 33.6198C40.88 33.4234 41.4938 33.0867 42.0162 32.6324C42.5385 32.1781 42.9571 31.6169 43.2435 30.9867C44.6235 28.1667 45.1735 20.4167 39.4435 19.4667ZM41.0935 30.5267C39.9935 32.0767 38.2235 32.0167 36.6435 30.6467C35.0635 29.2767 35.5135 25.6467 35.5735 25.1367C35.6335 24.6267 37.2435 23.4967 38.7735 23.7667C39.4368 23.8331 40.0708 24.0734 40.6116 24.4632C41.1523 24.8529 41.5807 25.3784 41.8535 25.9867C42.1374 27.5423 41.8686 29.1483 41.0935 30.5267V30.5267ZM21.0935 19.7767C15.3735 20.7167 15.9235 28.4567 17.2935 31.2867C17.5787 31.918 17.9966 32.4805 18.5188 32.9358C19.0409 33.391 19.6551 33.7284 20.3194 33.9248C20.9838 34.1213 21.6827 34.1722 22.3685 34.0742C23.0543 33.9761 23.7109 33.7314 24.2935 33.3567C26.5535 31.8067 26.8235 28.0867 26.7335 24.6767C26.6309 23.2844 25.9832 21.9888 24.9309 21.0713C23.8786 20.1538 22.5068 19.6886 21.1135 19.7767H21.0935ZM23.9035 30.9567C22.3135 32.3267 20.5535 32.3867 19.4535 30.8267C18.6678 29.4521 18.3983 27.8422 18.6935 26.2867C18.9663 25.6804 19.3934 25.1563 19.9321 24.7668C20.4708 24.3772 21.1023 24.1358 21.7635 24.0667C23.3035 23.8067 24.9035 24.9467 24.9635 25.4367C25.0235 25.9267 25.5035 29.5767 23.9235 30.9567H23.9035ZM61.7235 33.1667C60.9335 27.2967 56.6035 9.80665 50.0035 5.72666C43.4035 1.64666 36.8035 -0.123345 36.6235 0.00665473C36.4435 0.136655 36.3135 2.62665 36.6835 2.80665C37.8222 3.47218 39.025 4.02161 40.2735 4.44665C42.7735 5.36665 43.1435 6.15665 43.1435 6.15665C39.4504 5.08183 35.6515 4.41124 31.8135 4.15665C28.56 4.067 25.312 4.47848 22.1835 5.37665C22.1835 5.37665 24.9235 3.72665 25.1035 3.54665C25.2835 3.36665 24.6835 0.746654 23.7035 0.616654C22.7235 0.486654 8.43353 6.04665 8.29353 6.45665C7.92353 7.55665 5.61353 14.6867 3.48353 22.3567C1.35353 30.0267 0.063527 37.3567 0.00352701 40.3567C-0.056473 43.3567 0.613527 45.4767 4.76353 47.4267C8.91353 49.3767 18.2235 52.3967 19.0035 52.3367C19.7835 52.2767 23.5735 48.9267 23.7535 48.4367C23.7885 47.3943 23.708 46.3513 23.5135 45.3267C23.5135 45.3267 23.0835 44.7767 19.8535 43.6867C17.8514 42.9782 16.0093 41.8805 14.4335 40.4567C14.4335 40.4567 21.5635 44.7167 29.1235 44.7767C36.6835 44.8367 44.1235 41.1867 44.1235 41.1867C42.8618 42.1433 41.4758 42.9238 40.0035 43.5067C38.3072 44.2336 36.5548 44.8222 34.7635 45.2667C34.4035 45.3867 34.7635 50.7567 35.0735 51.2667C35.3835 51.7767 36.7735 52.9767 44.9435 51.2067C53.1135 49.4367 57.0635 46.5767 59.3135 44.5067C61.5635 42.4367 62.5135 38.9967 61.7235 33.1667V33.1667ZM59.8935 38.7667C59.8936 39.2953 59.773 39.8169 59.5407 40.2918C59.3085 40.7666 58.9708 41.1822 58.5535 41.5067C58.0035 41.9367 56.8035 43.1067 50.7235 45.3467C46.6815 46.8422 42.5245 48.006 38.2935 48.8267C37.5635 48.9167 37.3835 48.9567 37.2935 48.8267C37.2035 48.6967 36.7935 46.6767 37.0235 46.5367C40.575 45.2963 43.8498 43.3736 46.6635 40.8767C50.7335 36.9867 50.5935 35.8767 50.4135 35.6167C50.2523 35.4776 50.055 35.3869 49.8445 35.355C49.6339 35.3232 49.4187 35.3515 49.2235 35.4367C48.9935 35.6167 44.7435 39.5967 35.9235 41.0067C27.1035 42.4167 23.4935 41.9267 18.6535 40.3267C15.9387 39.4139 13.3916 38.0627 11.1135 36.3267C10.7132 36.777 10.4163 37.3094 10.2435 37.8867C11.3516 39.6032 12.8144 41.0626 14.5335 42.1667C17.3735 43.9967 20.7535 45.2267 20.6135 45.4567C19.8517 46.4583 18.9758 47.3678 18.0035 48.1667C14.3649 47.3873 10.7911 46.3309 7.31353 45.0067C3.38353 43.4067 2.84353 41.3967 2.43353 40.4367C2.02353 39.4767 2.75353 31.5767 4.25353 25.8167C5.75353 20.0567 9.75353 7.87665 10.3635 7.25665C10.7535 6.84665 20.7235 3.04665 20.7235 3.04665C20.7235 3.04665 14.3835 8.65665 14.2035 8.95665C14.0235 9.25665 13.8335 10.3567 14.4435 10.3567C14.6431 10.3289 14.8349 10.2605 15.0069 10.1556C15.1789 10.0506 15.3276 9.91144 15.4435 9.74665C15.4435 9.74665 20.4935 5.60665 31.1035 5.84665C41.7135 6.08665 46.1035 9.32665 46.3935 9.13665C46.7642 8.69534 47.0706 8.2038 47.3035 7.67665C47.3035 7.67665 46.3035 5.91666 46.1435 5.72666C47.8317 6.32045 49.3563 7.30368 50.5935 8.59665C52.5435 10.5967 56.2635 18.3367 57.9035 25.5967C59.5435 32.8567 60.0035 37.1667 59.8935 38.7467V38.7667Z" fill="white"/>
</svg>
