<svg width="354" height="452" viewBox="0 0 354 452" fill="none" xmlns="http://www.w3.org/2000/svg">
<path d="M14.8013 364.404C2.70387 375.932 1.35305 384.984 0.741401 403.146C0.323593 415.546 2.06803 430.783 9.34714 438.184C17.8219 446.801 30.0235 446.612 42.1643 446.846C129.568 448.535 216.973 450.224 304.377 451.913C319.845 452.212 337.645 451.486 347.284 439.496C353.053 432.318 354.282 422.81 353.248 413.506C354.781 405.633 353.346 381.846 352.935 375.181C352.202 363.29 340.144 354.126 324.884 353.852C232.846 352.235 139.439 351.961 39.3155 353.023C36.6211 353.053 34.0727 353.458 31.6113 354.02C31.9687 353.796 32.2508 353.477 32.6198 353.268C31.7641 353.568 30.9828 354.036 30.1459 354.382C23.5852 356.183 18.1913 359.749 14.8013 364.404ZM21.449 375.352C21.6203 368.948 29.6853 363.646 39.4285 363.544C139.452 362.489 232.761 362.763 324.699 364.372C334.1 364.537 342.055 369.674 342.435 375.824C343.127 387.037 343.754 398.955 343.175 410.537C342.87 416.64 334.548 421.749 324.956 421.749C323.767 421.749 97.7589 421.585 37.9935 420.797C29.6004 420.694 19.8901 415.899 20.0757 408.756C20.3822 397.654 21.1584 386.597 21.449 375.352Z" fill="white"/>
<path d="M48.4971 153.359C42.9218 153.359 37.9595 156.468 35.5314 161.482C35.2236 162.117 35.1089 162.79 34.8995 163.446C29.3105 170.836 26.6632 179.993 29.6791 190.2C32.7613 200.633 39.9702 209.2 46.992 217.43C77.4274 253.103 107.926 288.843 141.695 321.271C155.34 334.375 169.908 344.935 186.968 335.805C189.096 335.085 191.071 333.933 192.662 332.304C239.358 284.566 282.142 230.164 327.432 179.009C335.673 169.711 329.121 155.078 316.72 155.078H246.983C247.235 114.293 250.215 73.7352 250.288 31.5573C250.309 16.2217 238.966 3.5162 223.901 2.00935C194.014 -0.976955 166.456 -0.572846 139.655 3.24222C137.229 3.5864 134.957 4.33084 132.77 5.24051C119.263 8.51577 108.002 13.7778 102.793 29.6147C95.303 52.3873 105.056 72.8407 101.66 153.723C97.1147 153.692 53.1651 153.391 48.4971 153.359ZM120.61 164.372C123.497 164.372 125.85 162.044 125.87 159.146C126.16 117.352 125.247 73.8946 125.206 32.2902C125.199 22.9546 132.045 14.9477 141.134 13.6532C167.093 9.96826 193.822 9.5847 222.857 12.4751C232.511 13.4409 239.781 21.6395 239.768 31.5436C239.7 74.4974 236.446 118.341 236.446 160.338C236.446 163.242 238.802 165.598 241.706 165.598H316.72C320.084 165.598 321.766 169.541 319.555 172.037C274.169 223.302 231.525 277.517 185.138 324.948C183.359 326.784 180.802 326.262 179.511 324.818H179.507C118.775 257.379 73.6752 205.338 45.4629 170.133C43.433 167.599 45.2519 163.879 48.4937 163.879C49.1997 163.884 121.564 164.372 120.61 164.372Z" fill="white"/>
</svg>
