<svg id="Layer_1" enable-background="new 0 0 135 135" height="512" viewBox="0 0 135 135" width="512" xmlns="http://www.w3.org/2000/svg"><g><path d="m129.2 88.9c.3-1.2.7-2.9 1.2-5.1 3.1-16.7.8-42-1.6-48-.5-1.3-1.3-2.7-2.4-3.8-1-1.1-2.2-2-3.4-2.8-7.5-4.9-17.1-4.7-26.6-5.1-14-.4-51.6-.4-58.3 0-8.7.4-16.9 1.6-24.1 6.2-3.5 2.5-6.8 5.7-8.1 9.8-.3.8-.5 1.6-.7 2.4-1.8 7-1 11.6-1.8 34.9-.4 7.3-.1 15.2 2.6 21.9.8 2.1 2 4.2 3.7 5.8 1.7 1.7 3.8 2.8 5.9 3.4s4.2.8 6.1 1c16.6 1.1 38.2 1.8 55.6 1.7 8.2-.1 31.7 0 38.4-2.6 1.3-.5 2.4-1.1 3.4-1.8 2-1.3 3.5-2.8 4.7-4.2s2-2.7 2.6-3.9c1.3-2.4 1.8-4.1 2.1-5.3.5-2.4.3-2.7 0-2.7-.3-.1-.5.1-1.5 2.2-.5 1.1-1.2 2.6-2.6 4.7-1 1.5-2.3 3.3-4.3 4.9-3.8-6.1-28-26.6-33.4-31.2-.2-.1-.3-.2-.4-.4.4-.3.7-.6 1.1-.9 10.4-8.3 17.5-15.4 22.8-20.8 3.7-3.8 11-11.8 13.5-16.5.3.3.7.5.9.8.8.9 1.5 1.9 2 3 2.1 4.9 5.2 28.5 2.9 47-.6 4.5-1.1 7-1 7 .1.1.3-.4.7-1.6zm-121.9-11.3c.7-23.3-.1-27.7 1.5-34.1.2-.7.3-1.4.6-2 1-2.9 2.8-5 5.2-6.9.9 1.2 3.1 3.6 6.1 6.9 7.7 8.1 18 17.6 29.1 26.6.9.7 1.8 1.4 2.7 2.2-4.7 3-36.3 28.4-40.2 31.8-1-1.1-1.8-2.6-2.5-4.2-2.5-6.2-2.7-13.8-2.5-20.3zm78.3-5.2c6.5 8.6 27.4 28.2 32.4 31.7-.2.1-.3.2-.5.3-1.8 1.1-3.9 1.8-6.5 2.3-2.6.4-5.6.5-9.1.6-6.8.2-15 .3-24.7.3-19.3-.1-42.7-1.1-55.3-1.9-3.2-.2-6.4-.8-8.6-2.5 13-7.2 34.7-23.7 41.3-30.8.1-.1.1-.1.1-.2.3.2.6.5.9.7 2 1.5 3.9 3.1 6.2 4.5 2.2 1.4 5 2.5 7.9 2.4s5.4-1.1 7.5-2.3 3.9-2.5 5.5-3.7c.8-.6 1.6-1.2 2.4-1.8.2 0 .4.2.5.4zm-15.9 3.4c-1.9.1-3.9-.6-5.9-1.8-2-1.1-3.9-2.7-6-4.1-12.9-9.5-24.2-19-36.1-29.6-3.3-2.9-5.6-5.1-6.8-6 .3-.3.7-.5 1.1-.8 6.7-4.4 14.2-5.3 22.2-5.8 4.5-.3 40.9-.9 58-.7 8.8.2 18.2-.2 25.3 4.3.2.1.3.2.5.4-6.6 6.6-41 43.7-52.3 44.1z"/></g></svg>