<svg width="495" height="332" viewBox="0 0 495 332" fill="none" xmlns="http://www.w3.org/2000/svg">
<path d="M482.456 249.5C490.141 226.445 488.604 224.344 490.5 216C502.257 152.664 485.49 68.294 476.388 45.5385C474.491 40.6081 471.457 35.2985 467.285 31.1266C463.493 26.9548 458.942 23.5414 454.39 20.5073C425.946 1.92364 389.537 2.68216 353.508 1.16512C300.411 -0.351916 157.81 -0.351916 132.399 1.16512C99.4038 2.68216 68.3045 7.23327 40.9979 24.6792C27.7238 34.1607 15.2082 46.297 10.2779 61.8466C9.14009 64.8807 8.38157 67.9147 7.62305 70.9488C0.796385 97.497 3.83046 114.943 0.796386 203.31C-0.720651 230.996 0.417127 260.958 10.6571 286.368C13.6912 294.333 18.2423 302.297 24.6897 308.365C31.1371 314.813 39.1016 318.984 47.066 321.26C55.0305 323.536 62.9949 324.294 70.2008 325.053C133.158 329.224 215.078 331.879 281.069 331.5C312.168 331.121 401.294 331.5 426.704 321.639C431.635 319.743 435.807 317.467 439.599 314.813C447.185 309.882 452.873 304.193 457.425 298.884C461.976 293.574 465.01 288.644 467.285 284.093C472.216 274.99 481.318 254.051 482.456 249.5C484.352 240.398 476.387 253.752 475.25 253.752C474.112 253.373 463.493 271.956 459.7 279.921C465.01 271.956 457.804 284.093 459.7 279.921C455.907 285.61 450.977 292.436 443.392 298.504C428.98 275.37 337.199 197.621 316.719 180.176C315.961 179.796 315.582 179.417 315.202 178.658C316.719 177.521 317.857 176.383 319.374 175.245C358.817 143.767 385.745 116.839 405.845 96.3592C419.878 81.9473 447.564 51.6066 457.045 33.7814C458.183 34.9192 459.7 35.6777 460.459 36.8155C463.493 40.2288 466.147 44.0214 468.044 48.1933C476.008 66.777 487.765 156.282 479.042 226.445C476.767 243.512 460.079 284.602 468.044 275.5C468.044 275.5 480.939 254.051 482.456 249.5ZM15.5875 204.069C18.2423 115.701 15.2082 99.014 21.2764 74.7414C22.0349 72.0866 22.4142 69.4318 23.5519 67.1562C27.3445 56.1577 34.1712 48.1933 43.2734 40.9873C46.6868 45.5385 55.0305 54.6407 66.4082 67.1562C95.6112 97.8762 134.675 133.906 176.773 168.039C180.186 170.694 183.599 173.349 187.013 176.383C169.187 187.761 49.3416 284.093 34.5505 296.987C30.7579 292.815 27.7238 287.127 25.069 281.058C15.5875 257.544 14.829 228.721 15.5875 204.069ZM312.547 184.347C337.199 216.964 416.465 291.298 435.427 304.573C434.669 304.952 434.29 305.331 433.531 305.71C426.705 309.882 418.74 312.537 408.879 314.433C399.019 315.95 387.641 316.33 374.367 316.709C348.577 317.467 317.478 317.847 280.69 317.847C207.493 317.467 118.746 313.675 70.9593 310.641C58.823 309.882 46.6868 307.607 38.3431 301.159C87.6468 273.853 169.946 211.275 194.977 184.347C195.356 183.968 195.356 183.968 195.356 183.589C196.494 184.347 197.632 185.485 198.77 186.244C206.355 191.933 213.561 198.001 222.284 203.31C230.627 208.62 241.247 212.792 252.245 212.413C263.244 212.033 272.725 208.241 280.69 203.69C288.654 199.138 295.481 194.208 301.549 189.657C304.583 187.381 307.617 185.106 310.651 182.83C311.41 182.83 312.168 183.589 312.547 184.347ZM252.245 197.242C245.039 197.621 237.454 194.967 229.869 190.415C222.284 186.244 215.078 180.176 207.113 174.866C158.189 138.836 115.333 102.807 70.2008 62.6051C57.6853 51.6066 48.9623 43.2629 44.4112 39.8496C45.549 38.7118 47.066 37.9533 48.583 36.8155C73.9934 20.1281 102.438 16.7148 132.779 14.8185C149.845 13.6807 287.896 11.4051 352.749 12.1636C386.124 12.9222 421.774 11.4051 448.702 28.4718C449.46 28.851 449.839 29.2303 450.598 29.9888C425.567 55.0199 295.102 195.725 252.245 197.242Z" fill="white"/>
</svg>
