<svg id="Layer_1" enable-background="new 0 0 72 72" height="512" viewBox="0 0 72 72" width="512" xmlns="http://www.w3.org/2000/svg"><g id="Frequently_Ask_Question"><g><path d="m4.5846024 38.78862c.3395848 2.6618385 1.764194 4.5952644 4.4130859 4.8608398 2.9633512.3211403 5.5860281-.1070862 8.5918579-.3610229 3.4259014 2.6756783 6.1904526 4.4294281 9.5228882 7.072937.4766331.3778992 1.2013664.0613518 1.2116699-.5761108.4844971-.6646729.9689941-1.3294067 1.4534912-1.9941406-.4172363-1.920166-.776123-4.046814-1.1835938-6.0014038 1.975193.0677795 2.7093334.1160126 4.0651245-.0388184.1704712 5.4210052 3.364315 10.4242172 8.0595703 13.0163574-.5596313 3.5531731-1.5434494 6.2343674-.1724854 8.0996094.1699905.543602.8434181.7017021 1.239563.3109131 2.394043-2.3637695 4.9594727-4.8125 7.7080078-6.5092773.0065918-.0040283.0126953-.0083008.0189819-.0124512 4.0621948 1.1768188 7.7827148 2.2133789 11.5766602.2520142 11.3364105-5.8607826 9.995224-23.4653587-5.0438843-29.6570454-3.6886597-1.5261841-7.7212524-1.8755493-11.3925781-1.0111694.9108353-5.7725391-1.6896362-9.6786575-4.1236572-10.6046743-1.0680542-.8901262-4.6665993-1.0932837-5.6673584-1.0081787-9.4587841.847846-18.0754051-.0756702-27.2182617 2.7617178-3.9999218 1.2570419-4.4093866 3.0946655-4.2050781 5.9799805.1104158 1.5290182.0968941 7.1768568 1.1459962 15.4199236zm50.8886718-10.1513691c10.5262146 4.334547 13.0616531 16.1097393 5.4418945 22.9912128-3.279705 2.9756088-7.9000854 4.1186447-11.5068359 3.4868164-.2661133-.0473633-.5073242.059082-.6660156.2524414-.0195313.0126953-.0385742.0253906-.0576172.0380859-2.0761719 1.28125-4.034668 2.9575195-5.8911133 4.7075195.4512672-1.8566399.7042542-3.6930504.7744141-4.9589844.0496826-.9206505-1.5457039-1.3117752-2.3549805-1.840332-4.4386406-2.554821-7.2628937-7.6536865-7.0546875-12.4077148.3142243-10.4256152 10.9656296-16.5486278 21.3149414-12.2690448zm-47.3823242-9.8168945c8.8798218-2.7560291 17.4794617-1.8557739 26.9042969-2.6992188.8010368-.073267 4.1267776.1613903 4.6416016.7202148 1.1063309 1.566925-.2622261 10.0922012-.4429321 11.8167725-3.7244873 2.6483765-6.1652222 7.0084248-6.4959717 11.5785542-2.1524963.2959404-3.9924469-.0665512-8.0088501-.0125122-.5192108.0072517-.8748417.527462-.6923828 1.0136719.8233089 2.1938057 1.3687649 4.2512589 2.0605469 6.4189453-2.7215405-2.0351295-5.1635151-3.6558952-7.9824219-5.890625-.298645-.2365112-.7173462-.1984863-.9832153.062439-2.8252344.2551918-5.2946081.616684-7.9381714.3291626-1.9962616-.200779-2.829103-1.5806198-3.0805664-3.5585938-1.0627199-8.3425255-.9998861-13.3986569-1.1376954-15.3364277-.1577411-2.2277088-.1955271-3.3881397 3.1557617-4.4423828z"/><path d="m17.3038406 22.4936962c1.1845703-.6333008 2.3300781-.9541016 3.4052734-.9541016h.0039063c1.2041016.0009766 2.3144531.4277344 3.0463867 1.1708984 1.6849785 1.7117596 1.4895058 4.1989574-3.5463867 5.7636719-4.0070076 1.2496777-1.4913864 4.1022472-1.7939453 5.3188496-.0996094.4018555.1450195.8085938.5473633.9086914.3947849.0986938.8072605-.1398964.9086914-.5473633.561512-2.2601967-1.9355068-3.4007244.8491211-4.2680683 5.9638062-1.8555374 6.6046562-5.6881866 4.1040039-8.2285156-1.0112305-1.0268555-2.5107422-1.6171875-4.1142578-1.6181641-.0019531 0-.003418 0-.0048828 0-1.3242188 0-2.7075195.3803711-4.1123047 1.1308594-.3652344.1953125-.503418.6499023-.3081055 1.0151367.1958008.3657227.6503906.5029297 1.0151367.3081055z"/><path d="m55.7883377 32.9145966c-1.4189453-.6897583-2.8378906-1.3795185-4.2568359-2.0692768-1.1569214 4.8319111-2.6898193 9.9161396-4.5720825 14.5142841.3392334.2416382.7166138.5194092 1.0559082.7610474 2.2038574-4.5642701 4.7859497-9.1113282 7.7730102-13.2060547z"/><path d="m46.1942825 49.8117523c.9434814 0 1.708313-.7275391 1.708313-1.625s-.7648315-1.625-1.708313-1.625c-.9435425 0-1.708374.7275391-1.708374 1.625s.7648316 1.625 1.708374 1.625z"/><ellipse cx="19.361" cy="37.187" rx="1.314" ry="1.25"/><path d="m45.46595 9.2471151-.6572266 4.5014649c-.0600586.409668.2241211.7905273.6337891.8505859.4064636.0596142.7900963-.221159.8505859-.6337891l.6572266-4.5014648c.0600586-.409668-.2241211-.7905273-.6337891-.8505859-.4072265-.0590821-.790039.2236328-.8505859.633789z"/><path d="m53.6563797 13.4438925c-.2294922-.3466797-.6948242-.4399414-1.0395508-.2124023l-4.2036133 2.7768545c-.3457031.2285156-.440918.6933594-.2128906 1.0390625.2302704.3485184.6969299.4392262 1.0390625.2128906l4.2045898-2.7768545c.3452149-.2285157.4404297-.6938477.2124024-1.0395508z"/><path d="m52.7755203 19.2886181-2.8334961.3291016c-.4111328.0478516-.7060547.4199219-.6586914.831543.0481071.4134026.4229813.706358.831543.6586914l2.8339844-.3291016c.4116211-.0478516.706543-.4204102.6586914-.831543-.0483399-.4116211-.4145508-.7050781-.8320313-.6586914z"/></g></g></svg>