<svg width="445" height="425" viewBox="0 0 445 425" fill="none" xmlns="http://www.w3.org/2000/svg">
<path d="M103.879 267.954C97.2239 315.081 86.1858 361.696 70.9058 406.732C69.9668 409.479 71.4368 412.657 74.5304 413.481C74.3908 413.534 74.2526 413.594 74.1126 413.648C79.7907 418.206 86.22 421.825 93.0621 424.314C139.524 407.049 184.958 385.668 228.224 361.365C261.875 384.77 300.38 405.533 345.31 424.506C348.761 425.979 352.662 423.42 352.618 419.608C352.139 374.567 344.207 326.615 327.693 268.951C367.105 236.549 402.233 207.365 442.995 173.869C446.434 171.055 445.003 165.43 440.598 164.636C389.937 155.374 342.082 147.339 292.851 138.355C233.457 26.0078 244.48 1.66644 233.906 0.238442C232.902 0.0834762 231.914 0.264127 231.032 0.671233C231.119 0.446062 231.211 0.225171 231.299 0C219.519 5.38185 208.722 12.747 198.935 21.2299C190.735 28.3365 165.198 89.5702 146 130.385C101.939 139.642 55.9358 142.753 8.99485 139.485C6.43226 139.365 3.99843 140.975 3.48629 143.801C3.28167 143.902 3.04665 144.026 2.87328 144.101C0.81934 151.863 -0.144701 159.913 0.0175423 167.941C28.3904 207.088 63.6139 241.203 103.879 267.954V267.954ZM142.888 141.795C145.487 141.8 147.967 141.256 150.326 140.238C162.418 137.639 164.607 137.647 166.152 134.923L231.461 19.2453C242.351 57.6768 259.077 97.2384 284.755 145.54C286.951 149.693 283.161 146.852 427.543 172.951C392.06 202.151 354.717 233.129 318.344 263.019C316.714 264.355 316.043 266.526 316.625 268.547C332.509 323.273 340.618 369.012 341.926 411.615C293.111 390.437 252.187 367.033 217.015 340.197C215.301 338.896 212.987 338.772 211.152 339.848C172.009 362.917 127.337 384.012 84.2757 399.827C99.7346 352.067 110.57 302.677 116.509 252.848C117.061 248.182 118.177 252.856 21.6455 150.745C63.0693 152.6 103.706 149.568 142.888 141.795V141.795Z" fill="black"/>
</svg>
