<svg width="176" height="176" viewBox="0 0 176 176" fill="none" xmlns="http://www.w3.org/2000/svg">
<path d="M81.9076 115.077C86.9845 114.061 91.3845 111.692 95.4461 108.646C102.892 102.892 108.985 96.1229 115.415 89.3536C121.508 82.9229 127.6 76.1536 134.369 70.7383C137.754 68.0306 141.477 65.9998 145.2 65.3229C148.923 64.646 152.308 65.3229 155.692 67.6921C156.708 68.369 158.061 68.369 159.077 67.6921C160.431 66.6767 161.108 64.9844 160.092 63.2921C155.354 55.5075 149.261 47.7229 140.461 43.3229C136.061 41.2921 131.323 39.9383 126.585 39.9383C121.846 39.5998 117.446 40.2767 113.046 40.9536C104.246 42.3075 95.4461 42.9844 87.6615 39.2613C81.5692 36.2152 76.4922 31.1383 72.4307 25.7229C72.4307 25.3844 72.4307 15.2306 72.4307 15.569C72.4307 15.2306 72.4307 14.5536 72.4307 13.8767C72.4307 12.8613 72.0922 11.8459 71.4153 10.8306C69.723 6.76903 65.323 3.72287 60.923 4.06133C56.523 4.06133 52.123 6.76903 50.4307 10.8306C50.0922 11.8459 49.7538 12.8613 49.4153 13.8767V15.569C49.4153 36.5536 49.4153 40.9536 49.4153 40.6152L50.0922 78.5229C50.4307 102.892 51.1076 126.923 52.123 151.292H49.7538C49.4153 151.292 28.7691 151.631 29.4461 151.631C28.0922 151.631 27.0768 151.631 25.0461 151.969C21.323 152.646 18.2768 155.354 17.2615 159.077C16.2461 162.461 17.2615 166.523 19.6307 168.892C20.9845 170.246 22.3384 171.261 24.0307 171.6C25.0461 171.938 25.723 171.938 26.7384 171.938H28.7691L45.0153 171.261C55.8461 170.584 66.6768 170.246 77.1691 169.569C66.3384 168.892 55.5076 168.554 45.0153 167.877C44.6768 167.877 25.723 167.2 26.7384 167.2C26.3999 167.2 25.723 167.2 25.3845 166.861C24.3691 166.523 23.6922 166.184 23.0153 165.508C21.6615 164.154 21.323 162.123 21.9999 160.431C21.9999 159.077 23.6922 157.723 25.3845 157.384H28.7691C29.4461 157.384 50.0922 157.723 49.0768 157.723L81.2307 158.061L113.385 157.723C113.723 157.723 132.677 157.384 131.661 157.384H133.015C133.692 157.723 134.708 158.061 135.046 158.738C136.4 159.754 136.738 161.784 136.4 163.477C136.061 165.169 134.369 166.523 132.677 166.861C132 167.2 130.308 166.861 128.954 167.2H124.892L108.646 167.877C97.8153 168.554 86.9845 168.892 76.4922 169.569C87.323 170.246 98.1538 170.584 108.646 171.261L124.892 171.938H128.954C130.308 171.938 131.323 172.277 133.354 171.938C137.077 171.261 140.123 168.892 141.138 165.169C142.492 161.784 141.477 157.723 139.108 155.015C137.754 153.661 136.061 152.646 134.369 151.969C133.354 151.631 132.677 151.631 131.661 151.631C131.323 151.631 112.369 151.292 113.385 151.292H81.2307H69.0461C69.723 138.769 70.0615 126.246 70.3999 113.723C73.7845 115.077 78.1845 115.754 81.9076 115.077ZM71.0768 78.5229L71.7538 40.6152V26.7383C75.4768 32.4921 79.8768 37.569 85.9692 41.2921C90.0307 43.6613 94.4307 45.0152 99.1692 45.3536C108.308 46.0306 117.108 44.3383 125.908 45.0152C129.969 45.3536 134.031 46.369 137.415 48.3998C141.815 50.769 145.538 54.4921 148.923 58.8921C146.892 58.5536 145.2 58.8921 143.508 59.2306C138.092 60.246 134.031 62.9536 129.969 65.6613C122.523 71.4152 116.431 78.1844 110.338 84.9537C104.246 91.7229 98.1538 98.4921 91.723 103.569C88.3384 106.277 84.6153 108.308 80.8922 108.984C77.5076 109.661 74.4615 108.984 71.4153 107.292L70.7384 91.3844C71.0768 87.3229 71.0768 82.9229 71.0768 78.5229ZM52.4615 151.292C53.4768 126.923 54.1538 102.892 54.4922 78.5229L55.1691 40.6152C55.1691 40.2767 55.1691 15.2306 55.1691 16.9229V15.569C55.1691 15.2306 55.1691 15.2306 55.1691 14.8921C55.1691 14.5536 55.5076 13.8767 55.5076 13.5383C56.1845 11.8459 58.2153 10.4921 59.9076 10.4921C61.9384 10.4921 63.6307 11.5075 64.3076 13.5383C64.6461 13.8767 64.6461 14.5536 64.6461 14.8921V15.569C64.6461 32.1536 64.6461 41.2921 64.6461 40.6152L64.9845 78.5229C64.9845 82.5844 65.323 86.646 65.323 90.7075L64.9845 108.984C64.9845 109.661 65.323 110.338 65.9999 111.015C66.3384 124.215 67.0153 137.754 67.3538 150.954L52.4615 151.292Z" fill="black"/>
</svg>
