<svg width="404" height="405" viewBox="0 0 404 405" fill="none" xmlns="http://www.w3.org/2000/svg">
<path d="M272.185 13.6249C244.583 1.31578 215.051 -2.62172 184.983 1.68522C132.302 4.15054 82.1359 32.246 49.2207 73.5255C-9.65798 147.366 -13.0734 258.319 24.9484 321.91C64.1754 387.514 156.719 424.425 256.532 392.901C319.61 380.361 370.14 333.653 391.493 276.871C411.322 224.152 406.726 162.132 379.192 110.971C356.534 68.868 318.528 34.2995 272.185 13.6249V13.6249ZM381.644 273.173C362.356 324.467 318.528 365.234 267.267 379.549C238.459 387.604 205.774 388.44 167.308 382.125C133.158 376.522 107.973 367.296 88.055 353.091C-6.58171 285.581 -1.03153 87.6868 140.034 25.594C183.891 6.28924 228.11 5.4776 267.897 23.2344C312.13 42.9639 348.363 75.892 369.932 115.957C396.041 164.481 400.425 223.248 381.644 273.173V273.173Z" fill="white"/>
<path d="M150.5 104.313C147.402 102.229 143.133 103.954 142.397 107.67C140.377 117.979 132.339 138.981 130.158 150.122C129.726 152.341 130.76 154.591 132.726 155.707C169.26 176.44 198.719 195.194 224.815 214.351C196.783 235.808 164.351 255.862 135.541 276.241C133.233 277.878 132.63 281.05 134.178 283.42C156.144 316.966 156.191 321.823 160.884 322.543C162.337 322.766 163.837 322.378 165.007 321.42C211.253 283.811 251.417 251.319 293.034 215.926C295.615 213.723 295.468 209.702 292.76 207.7C247.351 173.928 199.978 137.582 150.5 104.313Z" fill="white"/>
</svg>
