<svg width="379" height="186" viewBox="0 0 379 186" fill="none" xmlns="http://www.w3.org/2000/svg">
<path d="M325.526 182.533C327.464 182.328 328.991 180.748 329 178.76C329.005 177.12 328.366 175.631 327.853 174.429C324.139 164.263 320.858 155.189 312.924 147.614C305.731 140.758 296.475 136.512 286.878 135.647C276.971 134.713 267.905 137.98 259.885 143.734C247.317 150.667 234.826 164.421 230.061 183.075C229.749 184.298 230.682 185.498 231.916 185.492C331.181 185.059 323.652 186.029 325.526 182.533Z" fill="black"/>
<path d="M264.104 102.939C256.226 117.936 266.271 133.123 281.969 133.263C300.004 136.269 314.136 118.962 307.456 102.741C299.746 84.0177 271.799 83.5597 264.104 102.939V102.939ZM291.611 124.848C278.786 129.712 266.209 117.35 271.4 105.356C276.759 92.9854 295.21 93.2866 300.313 105.678C303.384 113.137 299.713 121.771 291.611 124.848Z" fill="black"/>
<path d="M151.038 128.041C156.115 127.026 160.515 124.656 164.577 121.61C172.023 115.856 178.115 109.087 184.546 102.318C190.638 95.8872 196.731 89.118 203.5 83.7026C206.884 80.9949 210.607 78.9642 214.331 78.2872C218.054 77.6103 221.438 78.2872 224.823 80.6565C225.838 81.3334 227.192 81.3334 228.207 80.6565C229.561 79.6411 230.238 77.9488 229.223 76.2565C224.484 68.4719 218.392 60.6872 209.592 56.2872C205.192 54.2565 200.454 52.9026 195.715 52.9026C190.977 52.5642 186.577 53.2411 182.177 53.918C173.377 55.2718 164.577 55.9488 156.792 52.2257C150.7 49.1795 145.623 44.1026 141.561 38.6872C141.561 38.3488 141.561 28.1949 141.561 28.5334C141.561 28.1949 141.561 27.518 141.561 26.8411C141.561 25.8257 141.223 24.8103 140.546 23.7949C138.854 19.7334 134.454 16.6872 130.054 17.0257C125.654 17.0257 121.254 19.7334 119.561 23.7949C119.223 24.8103 118.884 25.8257 118.546 26.8411V28.5334C118.546 49.518 118.546 53.918 118.546 53.5795L119.223 91.4872C119.561 115.856 120.238 139.887 121.254 164.256H118.884C118.546 164.256 97.8998 164.595 98.5767 164.595C97.2228 164.595 96.2075 164.595 94.1767 164.933C90.4536 165.61 87.4075 168.318 86.3921 172.041C85.3767 175.426 86.3921 179.487 88.7613 181.856C90.1151 183.21 91.469 184.226 93.1613 184.564C94.1767 184.903 94.8536 184.903 95.869 184.903H97.8998L114.146 184.226C124.977 183.549 135.807 183.21 146.3 182.533C135.469 181.856 124.638 181.518 114.146 180.841C113.807 180.841 94.8536 180.164 95.869 180.164C95.5305 180.164 94.8536 180.164 94.5151 179.826C93.4998 179.487 92.8228 179.149 92.1459 178.472C90.7921 177.118 90.4536 175.087 91.1305 173.395C91.1305 172.041 92.8228 170.687 94.5151 170.349H97.8998C98.5767 170.349 119.223 170.687 118.207 170.687L150.361 171.026L182.515 170.687C182.854 170.687 201.807 170.349 200.792 170.349H202.146C202.823 170.687 203.838 171.026 204.177 171.703C205.531 172.718 205.869 174.749 205.531 176.441C205.192 178.133 203.5 179.487 201.807 179.826C201.131 180.164 199.438 179.826 198.084 180.164H194.023L177.777 180.841C166.946 181.518 156.115 181.856 145.623 182.533C156.454 183.21 167.284 183.549 177.777 184.226L194.023 184.903H198.084C199.438 184.903 200.454 185.241 202.484 184.903C206.207 184.226 209.254 181.856 210.269 178.133C211.623 174.749 210.607 170.687 208.238 167.98C206.884 166.626 205.192 165.61 203.5 164.933C202.484 164.595 201.807 164.595 200.792 164.595C200.454 164.595 181.5 164.256 182.515 164.256H150.361H138.177C138.854 151.733 139.192 139.21 139.531 126.687C142.915 128.041 147.315 128.718 151.038 128.041V128.041ZM140.207 91.4872L140.884 53.5795V39.7026C144.607 45.4565 149.007 50.5334 155.1 54.2565C159.161 56.6257 163.561 57.9795 168.3 58.318C177.438 58.9949 186.238 57.3026 195.038 57.9795C199.1 58.318 203.161 59.3334 206.546 61.3642C210.946 63.7334 214.669 67.4565 218.054 71.8565C216.023 71.518 214.331 71.8565 212.638 72.1949C207.223 73.2103 203.161 75.918 199.1 78.6257C191.654 84.3795 185.561 91.1488 179.469 97.918C173.377 104.687 167.284 111.456 160.854 116.533C157.469 119.241 153.746 121.272 150.023 121.949C146.638 122.626 143.592 121.949 140.546 120.256L139.869 104.349C140.207 100.287 140.207 95.8872 140.207 91.4872V91.4872ZM121.592 164.256C122.607 139.887 123.284 115.856 123.623 91.4872L124.3 53.5795C124.3 53.2411 124.3 28.1949 124.3 29.8872V28.5334C124.3 28.1949 124.3 28.1949 124.3 27.8565C124.3 27.518 124.638 26.8411 124.638 26.5026C125.315 24.8103 127.346 23.4565 129.038 23.4565C131.069 23.4565 132.761 24.4718 133.438 26.5026C133.777 26.8411 133.777 27.518 133.777 27.8565V28.5334C133.777 45.118 133.777 54.2565 133.777 53.5795L134.115 91.4872C134.115 95.5488 134.454 99.6103 134.454 103.672L134.115 121.949C134.115 122.626 134.454 123.303 135.131 123.98C135.469 137.18 136.146 150.718 136.484 163.918L121.592 164.256Z" fill="black"/>
<path d="M343.804 48.7764L353.682 39.9706L366.536 43.1153C368.107 43.497 369.447 41.9126 368.794 40.4252L363.472 28.3095L370.435 17.0574C371.291 15.6731 370.179 13.9123 368.575 14.0784L355.407 15.3963C346.346 4.82149 346.901 5.06754 346.085 4.74271C345.71 4.59377 345.292 4.56169 344.888 4.6615C344.875 4.66474 344.865 4.67262 344.852 4.67586C344.667 4.58819 344.568 4.44924 344.045 4.6544C342.826 5.1316 340.906 6.90224 340.594 8.17258L338.427 17.0024C335.603 18.2841 332.667 19.5635 329.808 20.503C328.841 20.821 327.701 21.8648 327.476 22.8583C326.331 24.5143 326.268 24.6388 326.1 25.3776C326.028 25.6974 326.1 25.3776 326.391 26.0531C326.909 27.0978 327.574 27.259 328.138 27.587L336.903 32.7073C338.171 44.2039 337.537 44.3063 338.253 45.4225C339.113 46.7637 340.482 48.2272 341.878 49.2412C341.873 49.2122 341.87 49.1837 341.866 49.1546C342.533 49.3848 343.274 49.2491 343.804 48.7764ZM343.07 22.3098C343.666 22.0668 344.105 21.5443 344.243 20.9135L346.429 10.8554C353.192 18.7219 353.266 19.5415 354.773 19.3967L365.018 18.3699L359.6 27.1255C359.261 27.6738 359.212 28.3541 359.472 28.9431L363.612 38.3687L353.614 35.9214C352.986 35.7677 352.325 35.9327 351.845 36.3615L344.16 43.2139L343.397 32.9481C343.348 32.3058 342.989 31.7265 342.431 31.4032L333.538 26.2073L343.07 22.3098Z" fill="black"/>
<path d="M305.407 44.8126L299.62 54.2912C299.074 55.1872 299.357 56.3557 300.254 56.9031C301.143 57.4458 302.32 57.1663 302.867 56.2706L308.651 46.7913C309.198 45.8957 308.915 44.7271 308.02 44.1801C307.124 43.6342 305.955 43.9136 305.407 44.8126Z" fill="black"/>
<path d="M287.893 43.8862C286.966 44.3794 286.615 45.5306 287.11 46.4564C287.602 47.3867 288.754 47.7338 289.681 47.2406L301.052 41.1828C302.566 40.3756 302.31 38.1181 300.653 37.6706C299.356 37.3203 299.551 37.8847 287.893 43.8862Z" fill="black"/>
<path d="M289.986 23.7302C289.084 23.4865 288.116 23.9405 287.742 24.8238C287.333 25.7902 287.784 26.9067 288.75 27.3164L300.725 32.3893C301.701 32.8066 302.808 32.3469 303.218 31.3807C303.626 30.4144 303.175 29.2979 302.209 28.8882L290.234 23.8153C290.152 23.7801 290.069 23.7528 289.986 23.7302Z" fill="black"/>
<path d="M43.1115 54.3701L30.8826 51.5204L26.2974 39.8307C25.7346 38.4028 23.7731 38.2292 22.9764 39.5489L16.4866 50.2989L3.95274 51.0467C2.41095 51.139 1.65285 52.9642 2.65843 54.1177L10.8766 63.6116C7.62565 76.4202 7.51292 75.8548 7.70708 76.6656C7.7961 77.0373 7.99977 77.3793 8.29833 77.6386C8.30767 77.6465 8.31937 77.6502 8.3287 77.6581C8.36214 77.85 8.30836 78.0026 8.75357 78.2965C9.78951 78.9807 12.2125 79.5027 13.3683 79.0503L21.402 75.9057C23.9397 77.396 26.5367 78.9743 28.8279 80.6786C29.6033 81.2554 31.036 81.5693 31.9295 81.2007C33.8397 81.1837 33.9707 81.1645 34.6356 80.891C34.9232 80.7724 34.6356 80.891 35.0006 80.2962C35.5284 79.3241 35.29 78.7201 35.2359 78.1029L34.4178 68.5055C42.6431 61.239 43.0688 61.6745 43.5438 60.5096C44.1143 59.1097 44.5014 57.2478 44.5249 55.6104C44.505 55.6302 44.4844 55.6478 44.4645 55.6675C44.2782 55.0237 43.7679 54.5229 43.1115 54.3701ZM22.9818 69.4037C22.4677 69.0741 21.8228 69.0196 21.2578 69.2569L12.2608 73.058C14.6671 63.5127 15.2626 63.0077 14.3264 61.9174L7.93125 54.5315L17.6842 53.9496C18.2948 53.9129 18.849 53.5786 19.164 53.0555L24.2131 44.6927L27.7786 53.7859C28.0024 54.3567 28.4916 54.7793 29.0869 54.9178L38.602 57.134L31.0556 63.3363C30.5841 63.7253 30.3312 64.3206 30.385 64.9296L31.2146 74.6681L22.9818 69.4037Z" fill="black"/>
<path d="M61.021 86.322L71.5364 85.6309C72.5297 85.5647 73.2815 84.7066 73.216 83.7117C73.1511 82.7254 72.2912 81.9654 71.2975 82.0306L60.7829 82.7239C59.7892 82.789 59.0374 83.6471 59.1025 84.6409C59.1682 85.6335 60.024 86.388 61.021 86.322Z" fill="black"/>
<path d="M69.8737 100.414C70.7627 100.863 71.8474 100.506 72.2952 99.6166C72.7479 98.7265 72.3875 97.643 71.4985 97.1936L60.5852 91.6837C59.1317 90.9505 57.5203 92.3827 58.0785 93.9122C58.5155 95.1098 58.847 94.6505 69.8737 100.414Z" fill="black"/>
<path d="M53.0947 109.806C53.3986 110.639 54.2794 111.141 55.1693 110.949C56.1422 110.738 56.7619 109.778 56.5517 108.805L53.9426 96.7429C53.7332 95.7581 52.7714 95.1503 51.7981 95.3605C50.8252 95.5717 50.2055 96.5316 50.4156 97.505L53.0248 109.567C53.0427 109.65 53.0665 109.729 53.0947 109.806Z" fill="black"/>
</svg>
