<svg width="30" height="28" viewBox="0 0 30 28" fill="none" xmlns="http://www.w3.org/2000/svg">
<path d="M12.4081 0.0706869C8.39331 0.0706869 5.61129 -0.0793063 2.4776 0.0576937C2.20968 0.0692576 1.96567 0.170475 1.7658 0.329382C1.17081 0.604059 0.649909 1.13016 0.448546 1.68809C0.156703 2.49686 0.224201 2.90773 0.29763 8.27228C0.308024 9.03121 0.324688 9.81822 0.651046 10.5015C0.915361 11.0549 1.44548 11.5132 2.02813 11.5939C2.18444 11.6744 2.35712 11.7245 2.54101 11.7303C5.94234 11.8374 9.03641 11.9229 12.5172 11.5895C13.1929 11.5245 13.698 10.9076 13.6663 10.1857C13.5442 7.31936 13.5806 4.71915 13.6799 1.45317C13.7016 0.706657 13.1348 0.0706869 12.4081 0.0706869V0.0706869ZM12.8691 10.22C12.8815 10.5131 12.6892 10.7709 12.4408 10.7948C8.90354 11.1331 5.68122 11.0302 2.56596 10.932C2.30921 10.9242 2.1034 10.6773 2.10756 10.3821C2.14715 7.51912 2.01617 4.23778 2.05766 1.38144C2.06182 1.10183 2.26555 0.865873 2.51191 0.854959C5.84717 0.71112 9.03577 0.891833 12.4055 0.868992H12.4081C12.6644 0.868992 12.8918 1.11366 12.8815 1.42926C12.7823 4.71291 12.7454 7.32923 12.8691 10.22Z" fill="black"/>
<path d="M28.7281 0.0708372C24.5394 0.0708372 21.8501 -0.0756392 18.7976 0.057844C18.5102 0.0703175 18.2513 0.186737 18.0443 0.366303C17.4855 0.650855 17.0055 1.1572 16.8138 1.68824C16.5844 2.32386 16.5909 3.01822 16.6002 3.69478C16.6735 9.04711 16.5993 9.62855 17.0163 10.5017C17.2718 11.0367 17.7757 11.484 18.3354 11.5862C18.495 11.6709 18.6717 11.7245 18.8605 11.7305C22.2619 11.8375 25.3559 11.9231 28.8367 11.5896C29.5119 11.5246 30.017 10.9082 29.9864 10.1858C29.8637 7.31379 29.9006 4.71514 29.9994 1.45384C30.022 0.710463 29.458 0.0708372 28.7281 0.0708372V0.0708372ZM29.1891 10.2201C29.2016 10.5132 29.0088 10.771 28.7603 10.7949C25.2231 11.1333 22.0013 11.0304 18.8855 10.9321C18.6287 10.9243 18.4229 10.6775 18.4271 10.3823C18.4663 7.53889 18.3362 4.20055 18.3772 1.3816C18.3813 1.10198 18.5851 0.866023 18.8319 0.855109C22.2109 0.709388 25.5413 0.897096 28.7255 0.869142C29.0421 0.894527 29.21 1.15441 29.2011 1.42941C29.1018 4.7089 29.0654 7.32314 29.1891 10.2201V10.2201Z" fill="black"/>
<path d="M12.2776 15.5794C8.18923 15.5794 5.41017 15.4341 2.3461 15.5659C2.14542 15.5746 1.9599 15.6364 1.79405 15.7313C1.09319 15.9546 0.44512 16.5574 0.21449 17.1965C-0.0780543 18.0073 -0.00979427 18.4266 0.0636061 23.7807C0.0740007 24.5396 0.0906321 25.3266 0.41699 26.0099C0.701444 26.6056 1.2927 27.098 1.92719 27.12C2.07515 27.1909 2.23802 27.233 2.4095 27.2385C5.80303 27.3453 8.89839 27.4313 12.3852 27.0981C13.0614 27.0337 13.5665 26.4168 13.5348 25.6943C13.4127 22.8275 13.4491 20.2278 13.5483 16.9618C13.5699 16.2197 13.0082 15.5794 12.2776 15.5794V15.5794ZM12.7376 25.7286C12.75 26.0218 12.5583 26.2796 12.3093 26.3029C8.77203 26.6413 5.55023 26.5384 2.43445 26.4402C2.1777 26.4324 1.97189 26.1855 1.97605 25.8898C2.01458 23.0345 1.885 19.7291 1.92615 16.8891C1.92979 16.61 2.13353 16.374 2.3804 16.3631C4.42101 16.276 6.39387 16.3089 8.41914 16.3434C11.5304 16.3962 12.3304 16.3777 12.2771 16.3777C12.5349 16.3777 12.7602 16.6234 12.75 16.9379C12.6508 20.2216 12.6139 22.8374 12.7376 25.7286V25.7286Z" fill="black"/>
<path d="M29.8549 25.6942C29.7322 22.8285 29.7686 20.2283 29.8679 16.9618C29.8892 16.2279 29.3515 15.5955 28.5883 15.5793C25.3552 15.6066 22.0773 15.419 18.6661 15.5658C18.4671 15.5743 18.2828 15.6354 18.1179 15.729C17.4135 15.95 16.7609 16.5545 16.5292 17.1964C16.2366 18.0072 16.3049 18.4265 16.3783 23.7806C16.3887 24.5395 16.4054 25.3265 16.7317 26.0099C17.0173 26.6078 17.612 27.1025 18.2493 27.1209C18.3966 27.1911 18.5585 27.2329 18.729 27.2384C22.1225 27.3452 25.2179 27.4312 28.7047 27.098C29.3803 27.0336 29.8855 26.4172 29.8549 25.6942V25.6942ZM18.754 26.4401C18.4972 26.4323 18.2914 26.1854 18.2956 25.8902C18.3351 23.0275 18.2042 19.7454 18.2457 16.8895C18.2498 16.6099 18.4536 16.3739 18.7004 16.363C20.7362 16.2761 22.7 16.3086 24.7392 16.3433C27.8504 16.3961 28.6499 16.3776 28.5966 16.3776C28.8545 16.3776 29.0797 16.6233 29.0695 16.9378C28.9703 20.222 28.9334 22.8383 29.0576 25.7285C29.0701 26.0217 28.8778 26.2795 28.6288 26.3029C25.0915 26.6412 21.8692 26.5383 18.754 26.4401V26.4401Z" fill="black"/>
</svg>
