<svg width="124" height="113" viewBox="0 0 124 113" fill="none" xmlns="http://www.w3.org/2000/svg">
<path d="M103.93 24.8166C100.85 25.8682 98.2883 27.8216 96.0621 29.9936C96.0275 28.6996 95.6591 27.4219 95.1805 26.2107C93.6334 22.2945 91.0128 18.8365 86.4663 17.1677C85.4654 16.8005 83.0626 15.8816 81.42 16.0986C79.8215 9.50155 75.4144 3.74866 69.4111 1.40187C60.44 -2.11613 50.1705 1.13842 44.8997 9.46772C43.4031 8.94157 41.8665 8.52438 40.2882 8.31579C24.7268 6.33451 13.7566 20.5991 16.8735 34.0041C17.6134 37.3973 19.1694 40.2585 21.2918 42.9115C19.4935 45.9784 18.2045 48.9851 16.7167 51.2776C16.5039 51.6062 16.433 52.0075 16.5245 52.3883C16.7557 53.3729 17.0467 54.5022 17.6146 56.7113C17.2102 57.4079 19.0782 54.1878 13.6629 63.5226C12.4481 63.61 11.3598 63.8434 10.0921 63.8716C9.00824 63.9601 8.50096 64.8131 8.6847 65.6188C8.86738 66.4344 8.92735 67.7528 9.03002 68.8629C8.12788 68.9973 7.24546 69.1608 6.43544 69.1747C5.62713 69.1904 5.00697 69.8593 5.02615 70.6418C5.05471 71.7873 4.9352 73.4999 4.89922 74.9649C3.8625 75.2764 2.72902 75.8226 1.79318 75.9393C1.02414 76.0345 0.469758 76.7251 0.542556 77.4979C0.72175 79.3551 1.00361 81.2292 1.78385 82.6236C1.16637 83.8857 0.786777 85.1336 0.167368 86.2971C0.0292387 86.5565 -0.0248928 86.8514 0.0105726 87.1426C0.380004 90.2188 1.16771 92.648 1.53559 95.548C1.61294 96.1534 2.06405 96.6924 2.79637 96.7776C3.53881 97.3703 4.3425 97.99 5.03805 98.556C6.07723 99.4019 6.12685 99.086 12.8105 96.6273C21.6657 82.2477 30.3871 67.5993 38.1607 52.6076C46.8381 53.3892 55.9232 48.7433 59.4359 40.8139C61.2196 41.2386 63.356 40.9692 65.016 40.2525C67.705 52.8521 80.9814 68.0495 83.9965 69.9698C85.2735 71.1106 87.0939 71.7835 88.8307 71.7072C93.8081 71.4887 117.465 56.8366 122.387 44.786C124.159 40.4494 124.375 35.3002 122.112 31.1981C119.555 26.5607 111.992 22.0639 103.93 24.8166ZM81.5589 26.3118C81.7181 25.6076 81.8324 24.8987 81.9192 24.1885C82.6326 24.6435 83.1026 25.3799 83.1026 26.2147C83.1026 29.5268 77.4393 29.5242 77.4393 26.2147C77.4393 25.2238 78.1005 24.3726 79.0484 23.9673C78.9786 24.5492 78.8888 25.1234 78.7628 25.6808C78.3397 27.5396 81.137 28.1715 81.5589 26.3118ZM44.5854 20.4088C44.8946 20.5531 45.2491 20.6165 46.0716 21.4182C48.3779 27.1789 39.4345 29.3606 37.5366 24.2692C37.4769 22.4329 38.7108 20.8652 40.3159 20.2142C40.7715 20.0297 41.2554 19.9387 41.7458 19.8944C41.7146 21.0946 41.7498 22.2974 41.9327 23.4913C42.0522 24.2772 42.8026 24.8241 43.566 24.6915C45.3346 24.4214 44.5836 22.6931 44.5854 20.4088ZM53.8547 41.8139C49.6773 47.2066 42.2799 49.7078 35.8513 47.9028C35.2129 47.718 34.5372 48.0017 34.2124 48.5804C26.6675 62.0264 16.9525 78.405 8.93109 91.7028C7.46744 92.2093 5.69116 92.8892 4.11151 93.4536C3.72166 91.293 3.20251 89.3476 2.91128 87.2285C3.61384 85.802 3.9551 84.5372 4.69949 83.2452C5.00748 82.7113 4.94029 82.0412 4.5315 81.5783C3.97338 80.9455 3.69152 79.5885 3.5366 78.4741C4.61797 78.1375 5.62776 77.6492 6.5213 77.5277C7.24368 77.4288 7.77753 76.8016 7.76073 76.0718C7.73334 74.9761 7.84452 73.3047 7.88206 71.9316C8.93076 71.7958 9.85517 71.6032 10.7268 71.5565C11.6138 71.5092 12.237 70.6811 12.0539 69.8242C11.8798 69.0153 11.8259 67.7091 11.7198 66.6305C12.662 66.5196 13.5639 66.3779 14.4955 66.358C14.9266 66.3318 15.4829 66.0929 15.7423 65.6487C16.5138 64.3192 14.3243 68.1112 20.3902 57.6353C20.575 57.3142 20.6273 56.9353 20.5377 56.5769C20.4883 56.384 19.5965 52.8914 19.455 52.3099C19.5725 52.1182 24.2921 43.5336 24.3903 43.3371C24.7554 42.6276 24.5229 41.6467 23.6698 41.2913C21.734 38.932 20.3174 36.3435 19.6697 33.3731C16.9701 21.7373 26.4067 9.45036 39.9205 11.1586C41.1541 11.3217 42.3556 11.6388 43.5343 12.0238C43.0883 13.0364 42.7244 13.7918 42.2868 15.5809C39.2417 15.4413 36.2092 17.2783 35.0263 20.1408C32.9065 25.2856 36.8718 29.989 41.9775 29.989C46.0522 29.989 49.0091 27.1391 49.2573 23.467C49.461 20.4893 47.6896 17.6241 45.0609 16.3193C45.5808 14.1665 46.0966 13.3786 46.2187 13.1092C58.3475 19.0146 60.5984 33.0568 53.8547 41.8139ZM64.5447 37.2676C63.3109 38.095 61.467 38.237 60.3977 38.0849C62.7248 29.4061 59.2359 16.3802 47.6162 10.6136C52.4069 3.48329 61.0627 1.21433 68.3658 4.07112C73.6121 6.12182 77.0472 11.0039 78.4583 16.2773C74.1498 16.9559 69.9479 19.5831 67.4493 23.6108C64.7125 28.0181 64.063 32.7341 64.5447 37.2676ZM116.728 43.2587C114.299 47.8561 110.753 51.9683 106.187 55.4775C102.506 58.3075 93.4392 65.1145 88.0137 67.8027C88.0137 67.8027 88.0137 67.8027 88.0118 67.8027C87.534 68.0398 87.0374 68.1219 86.6063 68.036C84.5104 67.603 59.2293 42.29 69.8833 25.1227C71.758 22.1061 75.2915 19.6732 79.0039 19.0917C79.0843 19.7128 79.1434 20.3332 79.1676 20.9497C76.5527 21.4359 74.5722 23.6103 74.5722 26.2147C74.5722 29.1751 77.1295 31.5849 80.271 31.5849C83.4125 31.5849 85.9697 29.1751 85.9697 26.2147C85.9697 23.8492 84.3265 21.8585 82.0678 21.1445C82.0562 20.4417 82.0156 19.7425 81.9396 19.0472C88.9415 19.9576 91.886 27.6699 92.2938 34.7152C92.3677 35.9952 93.9712 36.5427 94.8137 35.5645C97.5203 32.4137 100.75 28.9325 104.856 27.5307C114.55 24.2228 122.717 31.9338 116.728 43.2587Z" fill="black"/>
<path d="M17.0192 112.641C17.7826 112.43 18.2306 111.642 18.0197 110.878L15.7891 102.802C15.5782 102.038 14.7942 101.585 14.027 101.801C13.2636 102.012 12.8156 102.8 13.0265 103.563L15.2571 111.64C15.4691 112.409 16.2652 112.851 17.0192 112.641Z" fill="black"/>
<path d="M19.834 98.421C19.358 99.0537 19.485 99.9535 20.1177 100.429C22.8878 102.513 25.8799 104.321 29.0159 105.809C29.7327 106.147 30.5875 105.842 30.9254 105.128C31.2651 104.413 30.959 103.558 30.2441 103.218C27.2836 101.814 24.4576 100.105 21.8425 98.1372C21.2022 97.6575 20.3081 97.7919 19.834 98.421Z" fill="black"/>
<path d="M23.1733 92.4998L35.2222 90.1329C35.9987 89.9799 36.5046 89.2258 36.3534 88.4492C36.2003 87.6727 35.4462 87.18 34.6697 87.3181L22.6208 89.6849C21.8443 89.838 21.3384 90.5921 21.4896 91.3686C21.6354 92.1099 22.3474 92.6484 23.1733 92.4998Z" fill="black"/>
</svg>
