<svg id="Layer_1" enable-background="new 0 0 53 53" height="512" viewBox="0 0 53 53" width="512" xmlns="http://www.w3.org/2000/svg"><g><path d="m31 34.6c.4.6.8 1.3 1.3 1.8.6.7 1.1 1.4 1.7 2.1-.4.4-.8.7-1.1 1.1-.4.4-.4.9 0 1.3.9.9 8.2 8.4 9.1 9 2.7 1.9 6.7 1.4 8.6-1.7 1.2-1.9 1.2-4.6-.4-6.5-.5-.6-1-1-1.6-1.5-1-.9-2.1-1.9-3.2-2.8.9 1.1 1.8 2.1 2.8 3.2.5.5 1 1 1.3 1.6 1 1.6 1 3.7-.2 5.3-1.4 2-4.3 2.4-6.2.9-.4-.3-2.5-2.5-5.3-5.2 1.1-.6 2.2-1.3 3.4-2.5s2.3-2.6 2.9-4.2c.4.3.9.7 1.3 1-1.3-1.7-2.6-3.4-4-5-.2-.3-.6-.3-.9 0l-.1.1c-.5.5-1 .9-1.5 1.4-.7-.6-1.4-1.3-2.2-1.8-.6-.5-1.3-.9-2-1.4 2.2-3.1 3.3-6.9 3.2-10.6-.1-4.7-2.2-9.3-5.6-12.3 1.5 1.7 2.7 3.7 3.5 5.8s1.2 4.4 1.1 6.6c-.1 4.5-2 8.8-5.2 11.8-6.8 6.5-17.3 6.1-23.4-.2-6.1-6.5-6.5-17 0-23.7 4.7-5 12-6.5 18.3-4.1 2.1.8 4.1 2 5.8 3.5-6.3-7-17.9-7.7-25.2-.5-7.2 6.8-7.5 18.6-.2 25.9 6.4 6.3 16.6 7.2 24 1.6zm9.9-.8c1 .8 2 1.7 3 2.5-1.5.6-3 1.7-4.2 2.9-1.3 1.3-2 2.4-2.5 3.4-.8-.8-1.6-1.6-2.4-2.3 2.1-2.2 4.1-4.3 6.1-6.5zm-7.9-1c.6-.6 1.1-1.2 1.6-1.9.4.7.9 1.3 1.3 1.9.5.6 1 1.3 1.6 1.9-.8.8-1.6 1.5-2.4 2.4-.6-.5-1.2-1.1-1.9-1.5-.6-.4-1.2-.9-1.8-1.3.5-.5 1.1-1 1.6-1.5z"/><path d="m10.8 10.7c-5.1 5.2-4.8 13.5.3 18.2 2.4 2.2 5.7 3.4 8.9 3.2-3.2-.2-6.2-1.6-8.2-3.9-4.4-4.7-4-12 .3-16.1 4.4-4.3 11.5-4.3 15.8 0 2.1 2 3.4 4.9 3.4 7.9.1 3-1 6-3.1 8.2-2 2.3-5.1 3.7-8.2 3.9 3.2.2 6.5-1 8.9-3.2s3.9-5.5 4-8.9-1.3-6.8-3.7-9.3c-4.9-5.2-13.4-5.2-18.4 0z"/></g></svg>