<svg width="269" height="88" viewBox="0 0 269 88" fill="none" xmlns="http://www.w3.org/2000/svg">
<path d="M84.912 84.2623C86.6343 84.08 87.9916 82.6761 88 80.9088C88.0044 79.4512 87.4366 78.1277 86.9805 77.0591C83.6793 68.0226 80.7628 59.9564 73.71 53.2231C67.3161 47.1288 59.0891 43.3551 50.558 42.586C41.7523 41.7553 33.6937 44.6601 26.5646 49.7746C15.3933 55.9374 4.28986 68.1629 0.0539579 84.7446C-0.223537 85.8311 0.605873 86.898 1.703 86.893C89.9382 86.508 83.2463 87.37 84.912 84.2623Z" fill="black"/>
<path d="M30.3151 13.511C23.3121 26.8421 32.2414 40.3413 46.1952 40.4663C62.2264 43.1382 74.7875 27.7535 68.8497 13.335C61.9964 -3.3077 37.1548 -3.71478 30.3151 13.511V13.511ZM54.7654 32.986C43.3653 37.3091 32.1856 26.3214 36.8 15.66C41.5637 4.66358 57.9645 4.93135 62.5006 15.9462C65.2306 22.5761 61.9677 30.2505 54.7654 32.986Z" fill="black"/>
<path d="M266.295 85.2072C267.66 85.0628 268.735 83.9502 268.742 82.5496C268.745 81.3944 268.295 80.3455 267.934 79.4986C265.318 72.3369 263.006 65.9444 257.417 60.608C252.349 55.7782 245.829 52.7874 239.068 52.1779C232.09 51.5196 225.703 53.8217 220.053 57.8751C211.199 62.7592 202.4 72.4481 199.043 85.5895C198.823 86.4506 199.48 87.2961 200.35 87.2922C270.278 86.987 264.974 87.6702 266.295 85.2072Z" fill="black"/>
<path d="M223.025 29.1354C217.475 39.7006 224.552 50.399 235.611 50.4981C248.316 52.6156 258.271 40.4229 253.565 28.9959C248.134 15.8062 228.446 15.4836 223.025 29.1354V29.1354ZM242.403 44.5697C233.368 47.9959 224.508 39.288 228.165 30.8386C231.94 22.1237 244.938 22.3359 248.533 31.0653C250.697 36.3197 248.111 42.4019 242.403 44.5697Z" fill="black"/>
<path d="M140.108 30.9528C136.142 29.1886 131.899 28.6242 127.579 29.2415C120.009 29.5949 112.801 33.6217 108.072 39.5382C99.6123 50.1216 99.1216 66.0243 104.585 75.1386C110.221 84.5415 123.518 89.8319 137.859 85.3136C146.922 83.5163 154.183 76.8217 157.251 68.6833C160.1 61.1272 159.439 52.238 155.483 44.9052C152.228 38.8707 146.767 33.9161 140.108 30.9528ZM155.836 68.1533C153.064 75.5051 146.767 81.3482 139.402 83.3999C135.262 84.5544 130.566 84.6742 125.039 83.7691C120.132 82.9661 116.514 81.6437 113.652 79.6077C100.054 69.9317 100.852 41.568 121.12 32.6683C127.422 29.9014 133.775 29.7851 139.492 32.3301C145.848 35.1579 151.054 39.8774 154.153 45.6199C157.904 52.5747 158.534 60.9976 155.836 68.1533Z" fill="black"/>
<path d="M122.624 43.9508C122.179 43.6521 121.566 43.8993 121.46 44.4319C121.17 45.9095 120.015 48.9197 119.701 50.5165C119.639 50.8345 119.788 51.157 120.07 51.317C125.32 54.2886 129.552 56.9765 133.302 59.7223C129.274 62.7977 124.614 65.6719 120.475 68.5928C120.143 68.8275 120.057 69.2821 120.279 69.6218C123.435 74.4298 123.442 75.126 124.116 75.2292C124.325 75.2611 124.541 75.2055 124.709 75.0682C131.353 69.6778 137.124 65.0208 143.104 59.948C143.475 59.6323 143.454 59.0559 143.065 58.769C136.54 53.9285 129.733 48.7191 122.624 43.9508Z" fill="black"/>
</svg>
