<svg width="33" height="30" viewBox="0 0 33 30" fill="none" xmlns="http://www.w3.org/2000/svg">
<path d="M14.9163 28.0098C14.9163 28.5624 15.2189 29.0543 15.7066 29.2949C15.7684 29.3254 15.8339 29.3368 15.8978 29.3575C16.6166 29.9115 17.5075 30.1739 18.5006 29.875C19.5156 29.5695 20.3491 28.855 21.1498 28.159C24.6203 25.1424 28.0974 22.1196 31.2523 18.7726C32.5272 17.4201 33.5546 15.9763 32.6663 14.2854C32.5963 14.0744 32.4842 13.8787 32.3257 13.7211C27.6814 9.09277 22.3886 4.85231 17.4119 0.363381C16.5072 -0.45345 15.0836 0.195935 15.0836 1.42513L15.0836 8.33699C11.1157 8.31203 7.16988 8.01666 3.06644 8.00944C1.57446 8.0074 0.338357 9.1316 0.191757 10.6248C-0.0987766 13.587 -0.0594611 16.3184 0.311702 18.9748C0.345187 19.2153 0.417612 19.4404 0.506113 19.6571C0.824759 20.996 1.33669 22.112 2.87744 22.6283C5.09296 23.3707 7.08285 22.404 14.9518 22.7406C14.9488 23.1911 14.9195 27.5472 14.9163 28.0098V28.0098ZM15.9878 20.8624C15.9878 20.5762 15.7613 20.3431 15.4794 20.341C11.4133 20.3124 7.18538 20.4029 3.13774 20.4069C2.22949 20.4075 1.45051 19.729 1.32457 18.8282C0.966069 16.2553 0.928753 13.606 1.20996 10.7283C1.30391 9.77143 2.10155 9.05082 3.06511 9.05217C7.24403 9.05893 11.5095 9.38142 15.5954 9.38142C15.8779 9.38142 16.1071 9.14789 16.1071 8.86005L16.1071 1.42513C16.1071 1.09169 16.4907 0.924983 16.7335 1.14408C21.7211 5.64251 26.9955 9.86912 31.61 14.4668C31.7886 14.6431 31.7379 14.8965 31.5974 15.0245L31.5974 15.0248C25.0364 21.0443 19.9734 25.5143 16.5483 28.3106C16.3018 28.5117 15.9399 28.3315 15.9399 28.0102C15.9403 27.9402 15.9878 20.7678 15.9878 20.8624V20.8624Z" fill="black"/>
</svg>
