<svg width="101" height="108" viewBox="0 0 101 108" fill="none" xmlns="http://www.w3.org/2000/svg">
<path d="M23.3023 52.086L28.703 20.5124C29.2104 17.5292 27.2059 14.6992 24.2187 14.1887C21.2571 13.6824 18.4018 15.6862 17.891 18.6699L12.4973 50.2427C11.9864 53.2263 13.9909 56.0563 16.9746 56.5672C19.9555 57.0756 22.7917 55.0799 23.3023 52.086Z" fill="black"/>
<path d="M71.2269 35.8919C73.1844 33.5821 72.8967 30.1229 70.5837 28.1693C68.2727 26.201 64.8147 26.4994 62.8571 28.8092L38.8437 57.1695C35.6474 60.9472 38.7404 66.7245 43.657 66.1573C47.5065 65.7131 46.3835 64.4079 71.2269 35.8919V35.8919Z" fill="black"/>
<path d="M87.1121 92.1412C89.7892 91.8323 91.8976 89.5841 91.9593 86.8176C92.0234 83.792 89.6245 81.2806 86.5985 81.2129L49.0962 80.3875C46.0367 80.3094 43.5592 82.7223 43.4916 85.7483C43.4274 88.7738 45.8263 91.2852 48.8523 91.3529L86.3546 92.1783C86.614 92.1843 86.8639 92.1698 87.1121 92.1412Z" fill="black"/>
</svg>
