<svg width="461" height="263" viewBox="0 0 461 263" fill="none" xmlns="http://www.w3.org/2000/svg">
<path d="M427.823 210.632C443.02 211.496 451.577 211.726 453.825 211.816C457.477 211.837 460.454 208.894 460.476 205.242L460.478 204.756C460.666 172.615 443.888 142.699 416.552 126.737C420.336 121.271 423.248 115.213 424.866 108.789C427.486 98.202 426.746 87.0116 423.313 76.6883C419.603 66.4741 413.08 57.1844 404.159 50.7821C395.357 44.2707 384.22 40.9986 373.398 41.1651C362.67 41.4298 351.68 44.9861 343.451 51.8514C335.12 58.5037 329.033 67.5855 326.016 77.5656C320.593 95.8872 325.966 116.424 339.142 129.04C330.685 133.787 323.259 140.011 317.278 147.318C308.223 139.891 298.281 133.588 287.657 128.725C308.515 103.597 312.011 69.4168 297.689 40.8241C293.715 33.3128 288.661 26.4719 282.734 20.5196C276.664 14.6929 269.676 9.95256 262.187 6.3571C254.638 2.84801 246.488 0.825282 238.318 0.167328C230.099 -0.464491 221.955 0.762782 214.135 2.67471C230.1 -0.0911948 246.543 2.55653 260.288 10.1162C267.08 14.0088 273.242 18.8815 278.439 24.6338C283.495 30.5133 287.633 37.0759 290.733 44.0849C296.461 58.2719 298.08 74.0099 294.75 88.7122C291.552 103.401 283.478 116.753 272.339 126.335C271.611 126.966 270.991 127.79 270.596 128.74C269.233 132.018 270.786 135.78 274.064 137.143L274.3 137.242C315.232 154.259 346.765 195.249 351.28 244.715L230.24 244.305C189.772 244.521 149.305 244.501 108.838 245.013C110.757 223.424 118.039 202.337 129.866 184.043C143.293 163.238 162.99 146.461 185.917 136.538L186.272 136.386C187.042 136.049 187.748 135.534 188.326 134.847C190.332 132.461 190.024 128.9 187.639 126.893C168.573 110.861 159.423 83.8327 164.19 58.4128C168.613 33.1043 188.078 10.1003 214.135 2.67471C200.906 5.09005 188.194 11.6094 178.402 21.3196C168.537 30.9401 161.266 43.3832 157.782 57.0009C154.323 70.548 154.18 85.127 157.956 98.9258C161.001 109.892 166.542 120.187 173.976 128.995C163.063 133.822 152.872 140.203 143.621 147.798C137.569 140.295 130.042 133.861 121.375 129.03C134.569 116.434 139.948 95.9065 134.436 77.5526C131.28 67.6849 125.367 58.4685 116.932 51.8866C108.714 45.0395 97.8012 41.4219 86.9767 41.1429C76.2302 40.9912 65.0205 44.1582 56.1807 50.7185C47.358 57.2156 40.6608 66.3832 37.0944 76.7366C33.6182 87.1389 33.0142 98.1116 35.6472 108.818C37.2557 115.268 40.2063 121.304 44.0097 126.751C16.8825 142.613 -0.163405 172.326 0.00118125 204.756L0.00402216 205.279L0.00799943 205.445C0.134136 209.076 3.18073 211.917 6.81198 211.791C24.0557 211.189 41.3 210.183 58.5438 209.149C72.8694 208.224 87.1949 207.125 101.52 205.771C95.6012 220.896 92.1398 237.023 91.4091 253.277L91.4017 253.529C91.333 258.153 95.0256 261.957 99.65 262.026L99.8762 262.029C143.331 262.676 186.785 262.58 230.24 262.813C396.125 262.25 282.941 262.637 361.081 262.362C365.893 262.151 369.623 258.079 369.411 253.267C368.699 237.021 365.234 220.934 359.372 205.8C373.581 207.149 387.79 208.242 402 209.168C410.607 209.808 419.215 210.141 427.823 210.632V210.632ZM14.5978 198.513C16.5989 186.128 21.262 174.336 28.3699 164.309C36.8489 152.547 48.5796 143.325 61.8091 138.121C63.0512 137.627 64.2432 136.835 65.2017 135.779C68.5665 132.073 68.2904 126.341 64.5841 122.976L64.5353 122.932C53.6591 113.057 49.8353 96.6815 54.3847 82.5565C58.9387 68.6531 72.1142 57.9259 86.9944 57.7332C101.654 57.2116 116.42 66.9991 122.126 81.7821C128.049 96.3497 125.181 114.908 113.303 127.139L112.963 127.489C111.301 129.212 112.01 132.131 114.338 132.86C124.514 136.045 134.119 141.516 142.621 148.645C124.958 163.428 111.084 182.015 102.096 204.236C87.5784 202.855 50.306 199.995 14.5978 198.513V198.513ZM318.361 148.235C326.719 141.303 336.171 136.032 346.132 132.834C348.429 132.085 349.13 129.213 347.473 127.497L347.144 127.156C335.322 114.914 332.413 96.3565 338.303 81.7162C343.952 66.9679 358.627 57.0207 373.42 57.7122C388.17 58.0474 401.456 68.6565 406.076 82.6043C410.593 96.5486 406.855 113.15 396.007 122.92C390.918 127.543 392.528 135.703 398.745 138.135C411.963 143.307 423.652 152.559 432.116 164.31C439.205 174.334 443.835 186.123 445.836 198.5C439.832 198.747 433.827 198.982 427.823 199.324C419.215 199.814 410.607 200.147 402 200.787C387.593 201.725 373.186 202.833 358.778 204.209C349.774 181.735 336.417 163.355 318.361 148.235V148.235Z" fill="white"/>
</svg>
