<svg id="Layer_1" enable-background="new 0 0 55 55" height="512" viewBox="0 0 55 55" width="512" xmlns="http://www.w3.org/2000/svg"><g id="_x34_4"><path d="m48.7247734 36.0105133c1.6324348.0928879 2.5516281.1175575 2.7931519.1271973.3922729.0022583.7120972-.3138428.7144165-.7061157l.0003052-.0522461c.0201302-3.4526844-1.7822227-6.666235-4.7186279-8.3809814.4064941-.5871582.7192383-1.237854.8930664-1.9279175.2814331-1.1373291.2019653-2.3394165-.1668701-3.4483643-.3984985-1.097229-1.0992432-2.0951538-2.0574951-2.7828979-.9454956-.6994629-2.1418457-1.0509644-3.3043823-1.0330811-1.1524048.0284424-2.3330688.4104614-3.217041 1.1479492-.8948975.7145996-1.5487671 1.6901855-1.8728638 2.7622681-.5825806 1.9681396-.0053711 4.1742554 1.4100342 5.52948-.9085083.5098877-1.7062378 1.1785278-2.3486328 1.9634399-.9727173-.7978516-2.0407715-1.4749146-3.1820068-1.9972534 2.2406197-2.699358 2.6161385-6.3710308 1.0776978-9.4425049-.4269409-.8068848-.9698486-1.541748-1.6065674-2.1811523-.6519775-.6259155-1.40271-1.1351318-2.2071533-1.5213623-.8109131-.3769531-1.6864624-.5942383-2.5640869-.664917-.8828125-.0678711-1.7577515.0639648-2.5977173.2693481 1.7149658-.2971191 3.4813232-.0126953 4.9577637.7993774.7296753.4181519 1.3915405.9415894 1.9498291 1.5595093.5432129.6315918.9876709 1.3365479 1.3206787 2.0894775.6152954 1.5239868.7892456 3.2145996.4315186 4.7939453-.3435669 1.5779419-1.2108765 3.012207-2.4074097 4.0415039-.078186.0678101-.1448364.156311-.1872559.2583618-.1464233.3521729.0203857.7562866.3724976.90271l.0253906.0105591c4.3970108 1.8280525 7.7843285 6.2312965 8.2692871 11.5449829l-13.0023193-.0440674c-4.3471069.0232544-8.6941528.0211182-13.0412607.0760498.2062378-2.3190918.9884033-4.5843506 2.2589121-6.5494995 1.4423218-2.2348633 3.5582275-4.0371704 6.0211182-5.1030884l.038147-.0163574c.0827026-.0361938.1585693-.0914917.2205811-.1652222.2155762-.2563477.1824951-.638855-.0737915-.8544312-2.0480957-1.722229-3.0309448-4.6256714-2.5189209-7.3563232.4750977-2.718689 2.5661011-5.1898193 5.3652344-5.9874878-1.4210815.2594604-2.7866211.9597778-3.838562 2.0028687-1.0596924 1.0334473-1.8407593 2.3701172-2.2149658 3.8329468-.371582 1.4552612-.3870239 3.0213623.0186157 4.5036621.3270874 1.1779785.9223633 2.2838745 1.7209473 3.2300415-1.1723022.5185547-2.2670288 1.2039795-3.2608643 2.0198975-.6500244-.8060303-1.4586182-1.4971924-2.3896494-2.0160522 1.4172983-1.3530884 1.9951792-3.5582275 1.4030771-5.5298462-.3391113-1.0599976-.9742432-2.0500488-1.880372-2.7570801-.8827515-.7355347-2.0550537-1.1241455-3.2178345-1.1541138-1.1544189-.0162964-2.3585815.3239136-3.3081665 1.0286255-.9477539.697937-1.6671753 1.6827393-2.050293 2.7949219-.3734131 1.1174316-.4382935 2.2961426-.1554565 3.446228.1727905.6929321.4897461 1.3413086.8983154 1.9263916-2.9140511 1.7038937-4.7451582 4.8957443-4.727478 8.3794556l.0003052.0562134.0004272.0178223c.0135498.3900757.3408203.6952515.730896.6816406 1.852356-.0646362 3.7047729-.1727295 5.5571289-.2837524 1.5388794-.0993652 3.0777588-.2174683 4.6166382-.362854-.6358643 1.6247559-1.0076904 3.3571167-1.0861816 5.1031494l-.0007935.0270386c-.0073853.4967041.3892822.9053955.8860474.9127808l.024292.0003662c4.6679697.069458 9.3359385.0592041 14.0039072.0841675 17.8196487-.0604286 5.6612663-.0188828 14.0551758-.0484009.5169067-.0227051.9176025-.460144.8948975-.9770508-.0765381-1.7451782-.4487305-3.4732666-1.0784912-5.098938 1.5263672.1448364 3.0527954.2623291 4.5792236.3618164.9246211.0687255 1.8493037.1044921 2.7739863.1571654zm-44.3894663-1.3017578c.2149658-1.3305054.7158813-2.597168 1.4794312-3.6742554.9108276-1.2635498 2.1709595-2.2542114 3.5921021-2.8131714.1334229-.0531006.2614746-.1381836.3644409-.2515869.3614502-.3981323.3317871-1.013916-.0663452-1.3753662l-.005249-.0047607c-1.168335-1.060791-1.5791016-2.8198242-1.0903931-4.3371582.4891968-1.4935303 1.904541-2.645874 3.5029907-2.6665649 1.5747681-.0560303 3.1610107.9953613 3.7739258 2.583374.6362314 1.5648804.328126 3.5584717-.9478149 4.8723755l-.0365601.0375366c-.1785202.1850758-.1023731.4987144.1477661.5769653 1.0931406.3421631 2.1248789.9298096 3.038209 1.6956177-1.89744 1.5881062-3.3877697 3.5846672-4.3532724 5.9717407-1.5595094-.1483765-5.5633909-.4555473-9.3992311-.6147461zm32.6308603-5.401001c.8977661-.7446289 1.913147-1.3108521 2.9831543-1.6544189.246727-.0804882.322094-.3889065.144043-.5733032l-.0353394-.0366211c-1.2698975-1.3150024-1.5824585-3.3085327-.949707-4.8812256.6068726-1.5842896 2.1832886-2.652832 3.7723999-2.5785522 1.5844116.0360107 3.0115967 1.1756592 3.5078735 2.6739502.4852905 1.4979248.0837402 3.28125-1.081543 4.3308105-.5467339.4965515-.3737259 1.3731213.2940674 1.6343994 1.4198608.555603 2.6755981 1.5494385 3.5848389 2.8117676.7614136 1.0768433 1.2587891 2.3432007 1.4738159 3.6727295-.6449585.0265503-1.2900391.0517578-1.9349976.088501-.9246826.0526733-1.8493652.0884399-2.7739868.1571655-1.5476685.1008301-3.0952759.2197876-4.6429443.3676147-.9672813-2.4141426-2.4020843-4.3885822-4.3416748-6.0128174z"/></g></svg>