<svg width="190" height="187" viewBox="0 0 190 187" fill="none" xmlns="http://www.w3.org/2000/svg">
<path d="M186.247 100.601C186.247 98.6287 186.247 96.6561 185.063 94.2891C182.696 95.0781 181.118 96.2616 179.934 97.8397C177.962 97.8397 175.989 97.8397 173.622 99.0232C174.411 101.39 175.595 102.968 177.173 104.152C177.173 106.124 177.173 108.097 178.356 110.464C180.723 109.675 182.301 108.492 183.485 106.914C185.458 106.914 187.43 106.914 189.797 105.73C189.008 103.363 187.825 101.785 186.247 100.601Z" fill="black"/>
<path d="M173.622 28.4053C171.255 29.1943 169.677 30.3778 168.494 31.9559C166.521 31.9559 164.548 31.9559 162.181 33.1394C162.97 35.5065 164.154 37.0846 165.732 38.2681C165.732 40.2407 165.732 42.2133 166.916 44.5804C169.283 43.7913 170.861 42.6078 172.044 41.0297C174.017 41.0297 175.989 41.0297 178.356 39.8462C177.567 37.4791 176.384 35.901 174.806 34.7175C175.2 32.3504 174.806 30.7724 173.622 28.4053Z" fill="black"/>
<path d="M11.8713 55.627C9.50425 56.416 7.92619 57.5995 6.74265 59.1776C4.77008 59.1776 2.79751 59.1776 0.43042 60.3611C1.21945 62.7282 2.40299 64.3063 3.98105 65.4898C3.98105 67.4624 3.98105 69.435 5.16459 71.802C7.53168 71.013 9.10974 69.8295 10.2933 68.2514C12.2659 68.2514 14.2384 68.2514 16.6055 67.0679C15.8165 64.7008 14.6329 63.1227 13.0549 61.9392C13.0549 59.9666 12.6604 57.994 11.8713 55.627Z" fill="black"/>
<path d="M84.4622 0C82.0951 0.789029 80.517 1.97257 79.3335 3.55063C77.3609 3.55063 75.3883 3.55063 73.0212 4.73417C73.8103 7.10126 74.9938 8.67932 76.5719 9.86286C76.5719 11.8354 76.5719 13.808 77.7554 16.1751C80.1225 15.3861 81.7006 14.2025 82.8841 12.6245C84.8567 12.6245 86.8292 12.6245 89.1963 11.4409C88.4073 9.07383 87.2238 7.49577 85.6457 6.31223C85.6457 3.94514 85.6457 1.97257 84.4622 0Z" fill="black"/>
<path d="M129.436 53.6542C122.73 39.8462 99.8479 35.1121 88.407 44.5804C92.3521 45.3694 95.9028 45.7639 99.0589 46.1585C114.839 48.9201 123.124 52.0762 129.436 53.6542Z" fill="black"/>
<path d="M43.8271 79.2978C33.1752 96.2619 34.7532 120.722 51.7174 138.08C68.6815 154.65 93.5359 156.623 110.5 145.576C172.044 189.762 195.715 167.275 157.447 116.777C162.576 106.125 164.548 95.4729 163.759 84.821C162.97 69.4349 155.869 54.4434 145.217 43.7915C126.281 24.4603 96.692 19.3316 72.2321 31.9561C24.4959 -3.15571 -3.51467 14.5974 43.8271 79.2978ZM57.2406 132.163C44.6161 119.538 38.6984 100.207 44.6161 80.0868C61.1857 102.574 85.2511 127.034 109.316 144.787C89.5907 150.31 69.865 145.182 57.2406 132.163ZM139.694 49.3147C149.557 58.783 155.475 71.802 156.658 85.2155C157.842 98.629 154.291 112.832 146.401 123.878C145.612 124.667 143.639 125.061 141.272 125.061C127.859 123.089 104.582 104.152 94.3249 95.0784C104.582 106.914 125.492 127.034 140.483 129.796C149.951 131.374 152.713 125.85 157.447 116.777C219.386 223.69 69.865 124.272 30.0191 44.5805C13.4495 9.46875 38.3039 13.0194 71.4431 31.9561C67.4979 33.9286 63.5528 36.2957 60.7912 38.6628C48.9557 50.4982 80.5169 83.2429 93.9304 94.6838C85.2511 84.821 65.5254 61.5446 63.5528 47.7366C63.1583 45.3696 63.5528 43.397 64.3418 42.608C88.8017 26.0384 120.757 29.9835 139.694 49.3147Z" fill="black"/>
<path d="M25.6794 158.595C20.9453 163.329 16.6056 169.247 14.2385 175.559C20.5508 173.587 26.4685 168.853 31.2026 164.118C35.9368 159.384 40.2765 153.467 42.6436 147.154C36.7258 149.127 30.4136 153.861 25.6794 158.595Z" fill="black"/>
<path d="M24.1011 99.8125C18.9724 100.996 13.8437 104.547 9.89855 108.492C5.95341 112.437 2.40278 117.566 1.21924 122.694C6.34792 121.511 11.4766 117.96 15.4218 114.015C19.3669 110.464 22.9175 105.336 24.1011 99.8125Z" fill="black"/>
<path d="M68.2869 187C77.7552 185.027 88.0126 174.77 89.9852 164.907C84.8565 166.091 70.2594 177.532 68.2869 187Z" fill="black"/>
</svg>
