<svg width="24" height="24" viewBox="0 0 24 24" fill="none" xmlns="http://www.w3.org/2000/svg">
<path d="M13.1547 23.5774C15.4869 23.5045 18.0376 23.4316 20.2969 23.213C21.0257 23.1401 21.7545 22.9943 22.4104 22.7028C22.5562 22.6299 22.7019 22.4842 22.8477 22.4113C22.9206 22.4113 22.9206 22.3384 22.9934 22.3384L23.0663 22.2655C23.1392 22.1926 23.2121 22.1926 23.285 22.1198C23.5765 21.9011 23.7951 21.5367 23.868 21.2452C24.0866 20.5893 24.0137 19.9334 23.7951 19.4232C23.4307 18.4029 22.8477 17.6741 22.4104 17.0182C21.463 15.8521 20.8799 15.342 20.8071 15.342C20.7342 15.4149 21.1714 15.9979 21.9002 17.0182C21.6816 17.0182 21.3172 17.164 21.0257 17.3826C20.5155 17.747 20.1511 18.1843 20.2969 18.4029C20.4427 18.6944 21.0257 18.6216 21.6087 18.1843C21.9002 17.9656 22.1189 17.747 22.2646 17.5284C22.4833 17.8928 22.7019 18.2572 22.8477 18.6944C22.7748 18.7673 22.7019 18.7673 22.4833 18.8402C22.1189 18.986 21.6816 19.2775 21.0986 19.4961C20.0054 20.0063 19.0579 20.5164 19.2037 20.8079C19.2766 21.0995 20.3698 21.0266 21.6087 20.4435C22.1918 20.152 22.7019 19.7876 22.9934 19.4232C22.9934 19.3503 23.0663 19.3503 23.0663 19.2775C23.0663 19.3503 23.1392 19.4232 23.1392 19.4961C23.285 19.9334 23.3578 20.5164 23.1392 20.9537C23.0663 21.1723 22.9206 21.391 22.7019 21.5367C22.629 21.6096 22.5562 21.6096 22.5562 21.6825L22.4833 21.8282C22.3375 21.9011 22.2646 21.974 22.1189 22.0469C21.0257 22.4842 19.5681 22.4842 18.0376 22.557C16.5072 22.6299 14.9038 22.6299 13.1547 22.6299C10.4582 22.6299 7.76165 22.7028 4.91936 22.4113C4.4092 22.3384 3.97192 22.2655 3.46177 22.1926C2.95161 22.1198 2.44146 22.0469 2.07706 21.974C1.63979 21.8282 1.42115 21.6825 1.34827 21.391C1.27539 21.0266 1.27539 20.5893 1.34827 20.2249C1.42115 19.7876 1.56691 19.3503 1.78554 18.9131C2.00418 18.4758 2.14994 18.0385 2.36858 17.6741C2.80585 16.8725 3.31601 16.1437 3.82617 15.4149C4.33632 14.6861 4.91936 14.0302 5.50239 13.52C6.15831 12.937 6.8871 12.4997 7.61589 12.1353C7.98029 12.3539 8.34468 12.5726 8.78196 12.7183C10.0938 13.2285 11.4056 13.3014 12.6446 13.1556C13.8106 13.0098 14.9038 12.5726 15.7784 11.9167C16.2157 12.0624 16.6529 12.2811 17.0173 12.4997C16.9444 12.4997 16.8716 12.4997 16.7258 12.5726C16.3614 12.7183 16.0699 13.0098 16.1428 13.3014C16.2157 13.5929 16.6529 13.7386 17.0902 13.52C17.4546 13.3742 17.6732 13.0827 17.6732 12.8641C18.0376 13.0827 18.3292 13.3014 18.6207 13.4471C18.402 13.52 18.1105 13.6658 17.819 13.8115C17.1631 14.103 16.5072 14.5403 16.6529 14.7589C16.7258 15.0505 17.4546 15.1233 18.3292 14.6861C18.7664 14.4674 19.0579 14.1759 19.2037 13.8844C19.2037 13.8844 19.2037 13.8844 19.2037 13.8115C20.2969 14.6861 20.8071 15.342 20.8799 15.2691C20.9528 15.1962 20.5155 14.5403 19.4223 13.4471C19.3495 13.3742 19.2766 13.3014 19.2037 13.2285C19.2037 13.2285 19.2037 13.2285 19.1308 13.1556C18.4749 12.4997 17.4546 11.8438 16.2885 11.2607C16.9444 10.6777 17.4546 9.94891 17.7461 9.22012C18.5478 7.47101 18.402 5.86767 18.1105 4.92024C17.819 3.89993 17.4546 3.46265 17.3817 3.53553C17.3088 3.60841 17.5275 4.04568 17.6732 4.99312C17.819 5.94055 17.819 7.39814 17.0173 8.85572C16.6529 9.58452 16.0699 10.3133 15.2682 10.8963C13.5191 12.1353 10.9683 12.2811 9.07348 11.5523C7.98029 11.115 7.03286 10.3133 6.5227 9.22012C6.08542 8.12693 5.93967 6.8151 6.08542 5.64903C6.23118 4.48296 6.74134 3.46265 7.47013 2.66098C8.19893 1.8593 9.14636 1.34915 10.0209 1.05763C12.1344 0.328838 14.6123 0.984753 16.2157 2.51522C16.9444 3.17113 17.1631 3.68129 17.236 3.60841C17.3088 3.60841 17.1631 3.02537 16.5072 2.2237C15.8513 1.42203 14.6123 0.401718 12.7903 0.1102C10.9683 -0.254197 8.49044 0.255959 6.74134 2.07794C5.86679 2.95249 5.21087 4.26432 4.99224 5.57615C4.7736 6.96086 4.91936 8.34557 5.42951 9.73027C5.72103 10.3862 6.08543 10.8963 6.59558 11.3336C4.99224 12.1353 3.89904 13.1556 2.80585 14.6132C2.22282 15.342 1.71266 16.1437 1.27539 17.0182C1.05675 17.4555 0.838112 17.8928 0.619474 18.33C0.400836 18.7673 0.255078 19.2775 0.109319 19.7876C-0.0364397 20.2978 -0.0364397 20.9537 0.109319 21.5367C0.182198 21.8282 0.400836 22.1926 0.692354 22.4113C0.983871 22.6299 1.27539 22.7757 1.56691 22.8486C2.14994 22.9943 2.58722 23.0672 3.09737 23.1401C3.60753 23.213 4.11768 23.2858 4.55496 23.3587C5.57527 23.5045 6.5227 23.5774 7.47013 23.5774C9.65651 23.6502 11.4785 23.5774 13.1547 23.5774Z" fill="black"/>
<path d="M19.2768 16.4354C19.3497 16.7269 19.9327 16.7998 20.4429 16.5083C21.0259 16.2168 21.2445 15.7066 21.0259 15.488C20.8073 15.2693 20.37 15.3422 19.9327 15.5608C19.4954 15.8524 19.2039 16.2168 19.2768 16.4354Z" fill="black"/>
</svg>
