<svg width="160" height="105" viewBox="0 0 160 105" fill="none" xmlns="http://www.w3.org/2000/svg">
<path d="M87.2863 103.364C89.5104 104.106 91.7345 104.6 93.9586 104.847C106.068 105.589 125.838 97.1864 136.711 91.0083C144.372 86.5601 150.303 82.6061 155.739 73.4625C156.5 70.5 156.5 70.5 157.5 67.5C158.5 61.5 159.5 62 159 55C158.428 46.9908 158.037 46.9638 157.5 43C155.739 30 150.303 24 150.303 24C149.561 21.2816 157.5 43 150.303 24C142.889 12.1381 137.947 12.9172 125.096 9.95176C108.045 6.24491 89.7575 7.48052 73.6945 13.6586C65.5394 16.8712 64.5509 20.3309 64.798 27.9918C39.0972 44.0548 13.6435 67.5315 3.75853 79.8877C-0.689692 85.3244 -1.43106 91.9968 4.25278 95.2094C6.22977 96.9392 9.19525 97.4335 11.6665 96.9392C15.3733 96.1979 18.5859 93.9738 21.5514 91.9968C52.1947 70.2499 46.2638 72.9683 50.2178 70.497C49.4764 75.1924 52.4419 78.8992 56.643 80.6291C59.1142 81.6176 61.5854 81.8647 64.0567 81.8647C62.3268 86.8072 65.2923 91.0083 69.9876 92.7381C72.4589 93.7266 75.1772 93.7266 77.6485 93.7266C78.1427 98.9162 82.3438 102.129 87.2863 103.364ZM74.9301 17.1183C90.4989 11.1874 108.045 9.95176 124.355 13.4115C129.544 14.6471 136.464 15.1414 140.418 18.1068C144.619 21.0723 148.82 27.9918 150.303 32.6871C153.021 41.0893 153.021 45.0433 154.257 51.9628C154.751 54.434 154.998 56.6581 154.504 58.6351C152.033 68.7672 144.866 78.405 135.228 85.3244C125.838 91.9968 113.728 96.445 97.9126 99.1634C94.7 99.6576 91.4874 100.152 88.2748 99.6576C81.8496 98.422 79.1312 92.9853 82.3438 87.0543C83.8266 84.3359 86.0507 82.1118 88.2748 79.8877C90.4989 77.6636 92.9701 75.4395 95.6885 74.2039C97.9126 73.2154 101.372 72.474 103.844 73.9568C106.068 75.1924 106.562 78.405 105.079 80.6291C102.855 84.0888 99.8896 87.7957 97.4183 91.2554C95.9356 93.2324 98.9011 95.4565 100.384 93.4795C102.855 90.2669 106.068 86.3129 108.292 82.6061C111.257 77.6636 109.28 70.497 102.114 69.5085C104.091 64.0718 100.384 57.8937 93.2172 57.6466C94.7 51.9628 91.4874 47.0203 86.2978 46.0318C88.769 37.8767 87.5334 27.4975 86.2978 25.7677C86.0507 25.5205 85.5564 25.0263 85.3093 25.0263C83.8265 24.0378 81.8496 25.5205 82.5909 27.2504C83.8266 30.463 83.5794 34.1699 83.0852 37.6296C82.5909 40.8422 82.0967 44.3019 80.3668 47.0203C78.6369 49.7386 75.9186 51.7156 72.9531 52.457C71.9646 52.7041 70.9761 52.2099 70.729 51.4685C68.752 46.2789 68.752 40.1008 68.752 33.9227C68.5049 22.5551 66.775 20.3309 74.9301 17.1183ZM6.72401 82.1118C15.8676 70.7441 39.5914 48.503 64.798 32.44C64.798 37.6296 64.798 48.7502 67.5164 53.4455C63.0682 55.9167 57.3843 59.8707 53.9246 63.5776C52.689 64.0718 54.9131 63.0833 46.5109 68.0258L43.7925 63.8247C42.5569 61.8477 39.3443 63.8247 40.5799 65.8017L43.2983 70.0028C37.3673 73.7096 32.672 76.6751 28.4709 79.8877L26.2468 77.1694C24.764 75.1924 21.7985 77.6636 23.2813 79.3935L25.5054 82.1118C19.0802 87.3014 13.8906 91.9968 9.6895 92.491C7.71251 92.7381 5.24127 91.7497 4.25278 89.7727C3.01716 87.0543 5.24127 83.8417 6.72401 82.1118ZM57.8786 76.9222C54.1717 75.4395 52.4419 72.2269 54.666 68.52C57.1372 64.0718 66.0337 58.388 70.4819 55.9167C73.2002 57.3995 78.637 56.6581 82.0967 53.1984C83.0852 52.2099 84.0737 50.9743 84.815 49.4915C87.2863 49.7386 88.769 51.4685 89.2633 52.7041C90.0046 54.1869 90.0046 56.6581 88.769 58.388C85.5564 59.3765 82.838 61.3535 80.3668 63.3304C74.1887 68.2729 67.5164 75.9337 65.5394 78.405C64.798 77.6636 61.0912 78.1579 57.8786 76.9222ZM70.9761 89.0313C69.2463 88.2899 67.0222 86.5601 67.0222 84.5831C66.775 82.6061 68.5049 80.382 70.2348 78.6521C74.4359 73.9568 83.8266 63.8247 90.0046 61.8477C96.4299 59.8707 101.125 65.0603 97.9126 69.7557C92.9701 70.7441 89.5104 73.9568 85.8035 77.4165C82.0967 81.1233 78.3898 84.8302 77.4013 90.0198C75.1772 90.0198 72.9531 89.7727 70.9761 89.0313Z" fill="black"/>
<path d="M102.608 47.2667C101.619 47.0196 100.631 47.761 100.384 48.7495C100.137 49.738 100.878 50.7265 101.867 50.9736C112.246 52.9506 123.366 49.9851 131.027 42.8185C132.757 41.0886 130.286 38.3703 128.556 40.1002C121.884 46.2782 111.752 48.9966 102.608 47.2667V47.2667Z" fill="black"/>
<path d="M50.9594 24.7789L40.086 22.5548C39.0975 22.3077 38.109 23.049 37.8619 24.0375C37.6147 25.026 38.3561 26.0145 39.3446 26.2616L50.218 28.4857C52.6893 28.7329 53.4306 25.026 50.9594 24.7789Z" fill="black"/>
<path d="M43.2983 11.6811L54.1717 18.3534C56.1487 19.5891 58.1257 16.3765 56.1487 15.1408L45.2753 8.4685C43.0512 7.23288 41.0742 10.1984 43.2983 11.6811V11.6811Z" fill="black"/>
<path d="M56.643 3.03222L61.3383 10.693C62.3268 12.1758 64.7981 11.6815 64.7981 9.70455C64.7981 8.71606 64.5509 8.96318 59.8556 1.05523C58.3729 -0.921758 55.1603 1.05523 56.643 3.03222V3.03222Z" fill="black"/>
</svg>
