<svg width="33" height="30" viewBox="0 0 33 30" fill="none" xmlns="http://www.w3.org/2000/svg">
<path d="M18.0837 28.0098C18.0837 28.5624 17.7811 29.0543 17.2934 29.2949C17.2316 29.3254 17.1661 29.3368 17.1022 29.3575C16.3834 29.9115 15.4925 30.1739 14.4994 29.875C13.4844 29.5695 12.6509 28.855 11.8502 28.159C8.37969 25.1424 4.90258 22.1196 1.74769 18.7726C0.472815 17.4201 -0.554571 15.9763 0.333675 14.2854C0.403727 14.0744 0.515842 13.8787 0.674311 13.7211C5.31864 9.09277 10.6114 4.85231 15.5881 0.36338C16.4928 -0.453451 17.9164 0.195933 17.9164 1.42512L17.9164 8.33699C21.8843 8.31203 25.8301 8.01666 29.9336 8.00944C31.4255 8.0074 32.6616 9.1316 32.8082 10.6248C33.0988 13.587 33.0595 16.3184 32.6883 18.9748C32.6548 19.2152 32.5824 19.4404 32.4939 19.6571C32.1752 20.996 31.6633 22.112 30.1226 22.6283C27.907 23.3707 25.9171 22.404 18.0482 22.7406C18.0512 23.1911 18.0805 27.5472 18.0837 28.0098V28.0098ZM17.0122 20.8624C17.0122 20.5762 17.2387 20.3431 17.5206 20.341C21.5867 20.3124 25.8146 20.4029 29.8623 20.4069C30.7705 20.4075 31.5495 19.729 31.6754 18.8282C32.0339 16.2553 32.0712 13.606 31.79 10.7283C31.6961 9.77143 30.8984 9.05081 29.9349 9.05217C25.756 9.05892 21.4905 9.38142 17.4046 9.38142C17.1221 9.38142 16.8929 9.14789 16.8929 8.86005L16.8929 1.42512C16.8929 1.09169 16.5093 0.924982 16.2665 1.14407C11.2789 5.64251 6.00446 9.86912 1.38998 14.4668C1.21137 14.6431 1.26212 14.8965 1.40264 15.0245L1.40264 15.0248C7.96364 21.0443 13.0266 25.5143 16.4517 28.3106C16.6982 28.5117 17.0601 28.3315 17.0601 28.0102C17.0597 27.9402 17.0122 20.7678 17.0122 20.8624V20.8624Z" fill="black"/>
</svg>
