<svg width="365" height="145" viewBox="0 0 365 145" fill="none" xmlns="http://www.w3.org/2000/svg">
<path d="M151.491 40.6896L136.876 37.7001C135.547 37.3679 134.218 38.3644 133.886 39.6931C133.554 41.0218 134.55 42.3504 135.879 42.6826L150.494 45.6721C153.816 46.0043 154.813 41.0218 151.491 40.6896Z" fill="black"/>
<path d="M144.541 19.4988L159.156 28.4673C161.814 30.1281 164.471 25.8099 161.814 24.1491L147.198 15.1806C144.209 13.5198 141.552 17.5058 144.541 19.4988V19.4988Z" fill="black"/>
<path d="M163.906 3.7579L170.217 14.055C171.546 16.048 174.867 15.3837 174.867 12.7264C174.867 11.3977 174.535 11.7299 168.224 1.10057C166.231 -1.55676 161.913 1.10057 163.906 3.7579V3.7579Z" fill="black"/>
<path d="M67.4422 142.353C68.8101 142.208 69.8881 141.093 69.8948 139.689C69.8983 138.531 69.4473 137.48 69.0851 136.631C66.463 129.454 64.1466 123.048 58.5448 117.699C53.4664 112.859 46.932 109.862 40.1562 109.251C33.1622 108.591 26.7615 110.898 21.0992 114.961C12.2262 119.855 3.40726 129.566 0.0428566 142.736C-0.177546 143.599 0.48122 144.446 1.35262 144.442C71.4343 144.136 66.1191 144.821 67.4422 142.353Z" fill="black"/>
<path d="M24.078 86.1577C18.5158 96.746 25.608 107.468 36.6909 107.567C49.4238 109.689 59.4006 97.4699 54.6845 86.0178C49.2412 72.7992 29.5105 72.4759 24.078 86.1577V86.1577ZM43.4979 101.626C34.4433 105.06 25.5637 96.3325 29.2287 87.8645C33.0123 79.1305 46.0388 79.3432 49.6416 88.0918C51.8099 93.3577 49.2184 99.4532 43.4979 101.626Z" fill="black"/>
<path d="M213.503 98.8154C214.792 98.679 215.808 97.6282 215.814 96.3056C215.817 95.2146 215.392 94.2241 215.051 93.4243C212.58 86.661 210.397 80.624 205.119 75.5845C200.334 71.0234 194.176 68.199 187.791 67.6234C181.201 67.0016 175.169 69.1757 169.834 73.0036C161.473 77.6161 153.162 86.766 149.992 99.1764C149.784 99.9896 150.405 100.788 151.226 100.784C217.265 100.496 212.256 101.141 213.503 98.8154Z" fill="black"/>
<path d="M172.641 45.8631C167.399 55.8406 174.082 65.9439 184.526 66.0375C196.524 68.0372 205.925 56.5228 201.481 45.7314C196.352 33.2754 177.76 32.9707 172.641 45.8631V45.8631ZM190.94 60.4389C182.408 63.6745 174.04 55.4509 177.494 47.4715C181.059 39.2414 193.334 39.4418 196.729 47.6857C198.773 52.6478 196.331 58.3916 190.94 60.4389Z" fill="black"/>
<path d="M362.66 141.696C363.87 141.568 364.824 140.582 364.83 139.34C364.833 138.316 364.434 137.386 364.114 136.635C361.794 130.286 359.745 124.619 354.79 119.888C350.297 115.606 344.517 112.954 338.523 112.414C332.336 111.83 326.674 113.871 321.665 117.465C313.816 121.795 306.014 130.384 303.038 142.035C302.843 142.798 303.426 143.548 304.197 143.544C366.192 143.274 361.49 143.88 362.66 141.696Z" fill="black"/>
<path d="M324.3 91.9856C319.38 101.352 325.654 110.837 335.458 110.925C346.722 112.802 355.547 101.993 351.375 91.8619C346.56 80.1686 329.106 79.8825 324.3 91.9856V91.9856ZM341.479 105.669C333.469 108.706 325.614 100.986 328.857 93.4955C332.204 85.7693 343.727 85.9574 346.914 93.6966C348.832 98.3549 346.54 103.747 341.479 105.669Z" fill="black"/>
<path d="M105.894 74.773C101.673 74.6595 97.6472 75.7281 93.9914 77.8879C87.3157 81.0172 82.3295 87.3157 80.2741 94.3929C76.5974 107.053 82.0629 121.536 90.3611 127.703C98.9221 134.065 112.845 133.884 124.063 124.494C131.546 119.511 135.588 110.794 135.325 102.336C135.08 94.4824 131.184 86.7339 124.903 81.6092C119.734 77.3917 112.983 74.9645 105.894 74.773ZM133.855 102.385C134.094 110.025 130.601 117.619 124.74 122.2C121.446 124.775 117.267 126.627 111.961 127.866C107.25 128.967 103.505 129.122 100.175 128.354C84.353 124.703 74.5349 98.9 89.4563 83.3684C94.0954 78.5396 99.7657 76.0751 105.852 76.2404C112.618 76.4227 119.052 78.7331 123.972 82.746C129.929 87.6069 133.624 94.9475 133.855 102.385Z" fill="black"/>
<path d="M94.9995 92.9564C94.4882 92.8531 94.0285 93.3033 94.1312 93.8215C94.419 95.2581 94.4985 98.394 94.8098 99.9464C94.8721 100.255 95.1255 100.49 95.439 100.529C101.263 101.252 106.068 102.097 110.46 103.173C107.98 107.435 104.857 111.75 102.22 115.915C102.008 116.249 102.099 116.69 102.426 116.913C107.05 120.064 107.314 120.688 107.959 120.53C108.159 120.481 108.332 120.351 108.432 120.165C112.405 112.85 115.865 106.518 119.358 99.7354C119.574 99.3137 119.341 98.8033 118.885 98.6898C111.22 96.7603 103.164 94.6039 94.9995 92.9564Z" fill="black"/>
<path d="M241.686 113.525C243.992 117.063 247.16 119.767 251.015 121.547C257.384 125.26 265.4 125.782 272.391 123.45C284.897 119.278 293.705 106.549 294.062 96.2159C294.429 85.5559 286.366 74.2048 272.263 70.313C263.91 66.9893 254.441 68.6188 247.632 73.6441C241.31 78.3095 237.15 85.9191 236.504 94.0001C235.973 100.65 237.814 107.584 241.686 113.525ZM248.508 74.8252C254.658 70.2855 262.891 68.8424 269.992 71.0606C273.983 72.306 277.882 74.691 281.918 78.3524C285.501 81.6025 287.757 84.5957 289.019 87.7718C295.009 102.864 279.362 125.609 258.102 122.163C251.492 121.091 246.241 117.827 242.917 112.726C239.221 107.056 237.464 100.449 237.969 94.1198C238.582 86.4558 242.52 79.2431 248.508 74.8252Z" fill="black"/>
<path d="M262.839 112.152C263.044 112.632 263.676 112.754 264.044 112.375C265.062 111.322 267.597 109.474 268.697 108.335C268.916 108.108 268.965 107.766 268.819 107.486C266.103 102.284 264.067 97.8503 262.456 93.6252C267.371 93.2427 272.697 93.3588 277.622 93.1616C278.017 93.1453 278.328 92.8197 278.326 92.4247C278.291 86.8289 278.653 86.2567 278.157 85.8159C278.003 85.6795 277.798 85.6109 277.588 85.6342C269.311 86.5239 262.135 87.2767 254.569 88.2586C254.099 88.3204 253.812 88.8023 253.978 89.2424C256.748 96.6455 259.553 104.499 262.839 112.152Z" fill="black"/>
<path d="M201.249 19.3684L210.509 7.67293C211.405 6.63695 211.115 5.00165 210.079 4.10586C209.043 3.21007 207.408 3.5001 206.512 4.53608L197.251 16.2315C195.457 19.0462 199.454 22.1831 201.249 19.3684Z" fill="black"/>
<path d="M223.296 22.7245L208.699 31.7229C206.018 33.3454 208.673 37.6648 211.354 36.0424L225.951 27.0439C228.782 25.125 226.423 20.9554 223.296 22.7245V22.7245Z" fill="black"/>
<path d="M228.61 47.1075L216.573 48.0952C214.195 48.382 213.289 51.6462 215.661 52.8449C216.847 53.4442 216.7 52.998 229.033 52.16C232.304 51.58 231.88 46.5274 228.61 47.1075V47.1075Z" fill="black"/>
</svg>
