<svg id="Layer_1" enable-background="new 0 0 73 73" height="512" viewBox="0 0 73 73" width="512" xmlns="http://www.w3.org/2000/svg"><g id="_x36_3"><path d="m68.0271606 35.9648438c.0676193-.4312668-.1982193-.7541046-.5445557-.8410645-.3197861-.0808182-3.3191452-1.4272118-4.0462036-1.680542 1.0184326-1.3126831 2.0256348-2.5994263 2.9924927-3.8009033.3670807-.4551811.0921021-1.144722-.4975586-1.2148438-.0194855-.0022507-4.3586006-.6355934-5.6207886-.7937012.9866943-1.1765137 1.973877-2.3473511 2.9557495-3.5080566.4731712-.559103-.0593796-1.4018402-.7729492-1.2070313-17.5723267 4.9883347-17.1327782 4.4772778-17.4141235 5.1178589-4.6525955-5.0024223-8.8201523-9.9909821-13.3744488-14.8678598-.2539063-.2724609-.6689453-.3164063-.9750977-.1054688-7.0551758 4.8808603-14.3505859 9.9277353-20.4267578 16.2529297-.2387695.2490234-.2773438.6279297-.0932617.9199219.159668.2531738.3296509.5023804.4953003.7532959l-3.5036011 3.7662354c-.3194313.344162-.2476149.8900414.144043 1.1416016.8496704.5453491 1.7268677 1.0899658 2.6119995 1.6334839-1.7293091 1.5518188-3.1536865 3.4759521-4.1134644 5.5921021-.1425529.3146515-.074255.7238731.3204346.9481812-.515811.6745453-1.3638129 1.8501778-1.7012939 2.2490845-.3024049.3565521-.2399554.9451523.3126831 1.1595459l.0085449.0753174c.1048584.9257813.8203735 1.6609497 1.7435913 1.7862549 5.8718262.7967529 12.0095835 1.6443481 17.8632202 2.1154175-.5645237 2.4444504 4.8245697 4.5422592 6.1896362 1.8496094 7.4056988 2.1414795 14.5611553 4.5230713 21.9401836 6.6901855.7441406.2185059 1.5454712-.0628662 1.9893188-.6989136 4.1607056-5.9622192 8.5254517-11.961731 12.625-17.9127808.6622314-.9613647 1.1567383-2.0266724 1.437439-3.1598511.2431032-.9813835.2493288-1.5424797-.5455321-2.2600089zm-1.8043212.2810058c-3.8808594 6.9404297-8.2954102 13.6503906-13.1318359 19.9580078-.5910721.7745895-.7112198.793541-1.5444336.5673828-7.2038422-1.9359894-14.2127609-4.0551071-21.3466778-6.0556641-.2045898-.0595703-.4238281-.0244141-.6044922.0878906-.6552734.4169922-1.5595703.4550781-2.2495117.0996094-1.5422211-.7976608-.4129467-2.2220154-1.6274414-2.3515625-6.3417969-.6914063-12.8266611-1.4707031-19.2958984-2.3203125.0225382-.0303116 1.3201814-1.7681847 1.338623-1.8011475 2.9035034.5654907 5.8001709 1.0727539 8.6110849 1.552124 10.8191967 1.8487663 9.2967014 1.737236 10.0137939 1.8132324.4507446.4002686.895813.7946167 1.3330078 1.1810913.0072021.3934937.3122559.7202148.7103271.7371216.0523682.0022583.1086426.0068359.1611328.0091553.3333664.1587372.4816589.0359879.5817871.032959 6.8689747.3378563 14.1028385 1.1990204 20.652586 1.0789795.3780518-.0071411.6721802-.2977905.7167969-.6626587 3.7824745-4.7068787 8.0270538-10.4201279 11.9713135-15.5396729.0769911.0728838 3.6119605 1.5727274 3.709838 1.6134645zm-1.7856446-6.5136719c-.1557617.1960049-15.053791 19.4833221-15.1429443 19.6002197-5.1721725.0555496-11.01577-.4840927-16.3345337-.8549805 4.4658203-1.3987427 9.0483398-2.4398804 13.6737671-3.0948486.2177734-.0302734.4111328-.1552734.5288086-.3408203 3.5614014-5.6314087 7.7432861-10.9203491 11.9938354-16.0292969 1.2528343.1204816 4.027874.5311566 5.2810669.7197266zm-3.8847656-4.7197265c-5.0629883 6-10.1860352 12.2119141-14.472168 18.9345703-5.4118652.7877197-10.7639771 2.0949097-15.9405499 3.8806763 3.4520855-4.016571 15.2896786-18.5517292 15.3595562-18.8046875.4753228.1770286-.3258399.1810874 15.0531617-4.0105591zm-29.5029278-10.3457041c4.2800083 4.6131048 8.409853 9.5216436 12.7358379 14.1865244-5.1503105 6.2440491-10.041214 12.5377197-15.3935528 18.7167969-5.5288086-4.8916016-12.1977539-10.8818359-16.5957031-17.6386719 5.7373047-5.8652344 12.5859376-10.6513672 19.253418-15.2646494zm-19.4762583 17.5917368c2.3795166 3.3566284 5.2401743 6.5020752 8.1842051 9.4003296-4.2781668-2.5797844-7.463254-4.4049721-10.8441782-6.5408936zm-.4631958 6.241272c.0592651-.0517578.0986938-.1157837.1376343-.1795654 4.0264511 2.4365921 8.2356768 4.840992 12.2152719 7.4002075-6.477684-1.2043839-10.6676006-1.8139114-15.8328867-2.8319702.8803712-1.6562501 2.0708009-3.1601563 3.4799805-4.3886719z"/><path d="m27.1159077 21.548584c1.7583008.6279297 3.1845703 2.1289063 3.7231445 3.9160156.2777367.9180737.3920212 2.0817108 1.1401367 2.9941406.6615353.8062668 1.6289883 1.1727066 2.3344707 1.6103516.4882813.3027344 1.0292969.8310547.9462891 1.3251953-.1635094.9763985 1.3145638 1.2297745 1.4794922.2480469.1748047-1.0410156-.4370117-2.1064453-1.6362305-2.8486328-1.7789154-1.101984-2.0915146-.8005981-2.6206055-2.9726563-.0644531-.265625-.1293945-.53125-.2070313-.7900391-.6733379-2.234375-2.4570293-4.109375-4.6547832-4.8945313-.3911133-.1416016-.8198242.0634766-.9584961.4541016-.1396483.3896485.0634767.819336.4536134.9580079z"/><path d="m24.653017 32.5192871c.6874065 1.6497765.4531517 2.415947 3.2236328 3.6083984.9182034.3915176 1.4967041-.9891014.5917969-1.3789063-1.7019901-.7295761-1.8332157-1.0537224-2.1850586-2.1220703-.9931431-3.0048904-3.2804108-4.0512981-6.2290039-5.1650391-.9299393-.3484325-1.4578171 1.0518856-.5302734 1.4023438 1.0507813.3974609 2.1376953.8085938 3.0810547 1.4072266.6894531.4384766 1.6044922 1.1835938 2.0478515 2.2480469z"/><path d="m45.3424683 32.0778809c-.1503906.3857422.0400391.8212891.4257813.9716797 1.9429512.7593422 3.6045837 1.1445618 5.1396484-.1630859.137207-.1152344.2670898-.2246094.3691406-.2646484.4879341-.1940308 1.4768066.4071617 2.4555664-.1396484.86726-.4822025.1363335-1.7955971-.7294922-1.3105469-.1445313.0800781-.4384766.0361328-.7504883-.0107422-3.1738586-.4844513-1.4713898 2.2370911-5.9384766.4921875-.3847656-.1513673-.8208007.0400389-.9716796.4248046z"/><path d="m44.4572144 37.9313965c-1.2233315.356617-1.0876274.8977203-3.5571289.4501953-.9872169-.1668892-1.2368507 1.300087-.2685547 1.4765625 1.0210571.1854706 2.0182762.3365822 3.0043945.0185547.5817032-.1853638 1.498455-.7611809 1.7636719-.4853516.2856445.2998047.7602539.3085938 1.0605469.0234375.7475738-.7146454-.3898316-1.9592972-2.0029297-1.4833984z"/></g></svg>