<svg width="452" height="331" viewBox="0 0 452 331" fill="none" xmlns="http://www.w3.org/2000/svg">
<path d="M447.081 161.557C447.555 158.532 445.691 156.268 443.262 155.658C441.019 155.091 419.982 145.648 414.883 143.871C422.026 134.664 429.09 125.639 435.871 117.213C438.446 114.02 436.517 109.184 432.382 108.692C432.245 108.676 401.812 104.234 392.959 103.125C399.879 94.8736 406.803 86.6617 413.69 78.5209C417.009 74.5995 413.273 68.6888 408.269 70.0551C285.022 105.042 288.104 101.457 286.131 105.95C253.499 70.8648 224.269 35.8765 192.327 1.67155C190.546 -0.23941 187.635 -0.547629 185.488 0.931823C136.005 35.1647 84.8371 70.562 42.2207 114.925C40.546 116.672 40.2755 119.329 41.5665 121.377C42.6864 123.153 43.8786 124.901 45.0404 126.66L20.4672 153.076C18.2268 155.49 18.7305 159.318 21.4775 161.083C27.4368 164.907 33.5892 168.727 39.7973 172.539C27.6684 183.423 17.6783 196.919 10.9467 211.761C9.94686 213.967 10.4259 216.838 13.1941 218.411C9.57638 223.142 3.62875 231.387 1.26176 234.185C-0.859221 236.686 -0.421219 240.814 3.45482 242.318L3.51475 242.846C4.2502 249.339 9.2686 254.496 15.7438 255.374C56.927 260.963 99.9754 266.907 141.031 270.211C137.072 287.356 174.869 302.069 184.443 283.184C236.385 298.204 286.571 314.907 338.325 330.107C343.544 331.639 349.165 329.666 352.278 325.205C381.46 283.388 412.073 241.309 440.826 199.57C445.47 192.827 448.939 185.356 450.907 177.408C452.612 170.525 452.656 166.589 447.081 161.557V161.557ZM434.426 163.528C407.207 212.206 376.245 259.267 342.323 303.507C338.178 308.94 337.335 309.073 331.491 307.487C280.966 293.908 231.807 279.045 181.772 265.014C180.337 264.596 178.799 264.843 177.532 265.63C172.936 268.555 166.594 268.822 161.755 266.329C150.938 260.735 158.859 250.745 150.341 249.836C105.861 244.987 60.3782 239.521 15.0049 233.562C15.163 233.349 24.2643 221.16 24.3936 220.929C44.7579 224.895 65.0743 228.453 84.7892 231.815C160.672 244.782 149.993 244 155.023 244.533C158.184 247.34 161.306 250.106 164.372 252.817C164.423 255.577 166.562 257.868 169.354 257.987C169.722 258.002 170.116 258.035 170.484 258.051C172.822 259.164 173.863 258.303 174.565 258.282C222.742 260.652 273.478 266.692 319.416 265.85C322.067 265.8 324.13 263.761 324.443 261.202C350.972 228.189 380.743 188.118 408.406 152.211C408.946 152.723 433.74 163.242 434.426 163.528V163.528ZM421.902 117.843C420.81 119.218 316.319 254.493 315.694 255.313C279.418 255.702 238.433 251.918 201.129 249.316C232.451 239.506 264.591 232.204 297.032 227.61C298.56 227.398 299.916 226.521 300.741 225.22C325.72 185.723 355.05 148.627 384.862 112.795C393.649 113.64 413.113 116.52 421.902 117.843V117.843ZM394.656 84.7401C359.145 126.822 323.214 170.391 293.152 217.541C255.195 223.066 217.657 232.234 181.35 244.759C205.562 216.588 288.587 114.643 289.077 112.869C292.411 114.111 286.792 114.139 394.656 84.7401V84.7401ZM187.731 12.1784C217.75 44.5333 246.715 78.9603 277.056 111.678C240.934 155.472 206.63 199.614 169.091 242.952C130.313 208.644 83.5392 166.63 52.6933 119.24C92.933 78.1031 140.967 44.5346 187.731 12.1784V12.1784ZM51.1303 135.562C67.8195 159.104 87.8833 181.165 108.532 201.493C78.5261 183.399 56.1869 170.597 32.4741 155.617L51.1303 135.562ZM47.8816 179.336C48.2973 178.973 48.5738 178.524 48.8469 178.077C77.0873 195.166 106.609 212.03 134.521 229.979C89.0887 221.532 59.7018 217.257 23.4741 210.117C29.6487 198.5 37.9981 187.952 47.8816 179.336V179.336Z" fill="white"/>
<path d="M160.142 60.4453C172.474 64.8494 182.478 75.3768 186.255 87.911C188.203 94.3501 189.005 102.512 194.252 108.911C198.891 114.566 205.677 117.136 210.625 120.206C214.05 122.329 217.844 126.034 217.262 129.5C216.115 136.348 226.482 138.125 227.639 131.24C228.865 123.938 224.574 116.466 216.163 111.26C203.686 103.531 201.493 105.645 197.782 90.411C197.33 88.548 196.875 86.685 196.33 84.87C191.608 69.1987 179.098 56.048 163.683 50.5412C160.94 49.548 157.933 50.9864 156.961 53.7261C155.981 56.459 157.406 59.4727 160.142 60.4453V60.4453Z" fill="white"/>
<path d="M142.868 137.39C147.689 148.961 146.046 154.335 165.477 162.698C171.917 165.444 175.975 155.761 169.628 153.027C157.691 147.91 156.771 145.637 154.303 138.144C147.337 117.068 131.295 109.729 110.614 101.918C104.092 99.4738 100.39 109.295 106.895 111.753C114.265 114.541 121.888 117.424 128.505 121.623C133.34 124.698 139.758 129.924 142.868 137.39V137.39Z" fill="white"/>
<path d="M287.978 134.295C286.923 137.001 288.258 140.056 290.964 141.11C304.591 146.436 316.245 149.138 327.012 139.966C327.974 139.158 328.885 138.391 329.601 138.11C333.023 136.749 339.959 140.966 346.823 137.131C352.906 133.749 347.78 124.537 341.707 127.939C340.693 128.501 338.632 128.192 336.443 127.864C314.183 124.466 326.123 143.554 294.793 131.316C292.094 130.254 289.036 131.597 287.978 134.295V134.295Z" fill="white"/>
<path d="M281.769 175.35C273.188 177.851 274.14 181.646 256.82 178.507C249.896 177.337 248.145 187.625 254.936 188.863C262.098 190.164 269.092 191.224 276.008 188.993C280.088 187.693 286.518 183.655 288.378 185.589C290.382 187.692 293.71 187.754 295.816 185.754C301.06 180.741 293.082 172.012 281.769 175.35V175.35Z" fill="white"/>
</svg>
