<svg width="16" height="26" viewBox="0 0 16 26" fill="none" xmlns="http://www.w3.org/2000/svg">
<path d="M14.4341 2.58942C14.804 2.3252 14.9626 1.84959 14.9626 1.42682C14.9626 1.00406 14.7512 0.581299 14.3813 0.317072C14.2227 0.211381 14.0113 0.105691 13.8 0.0528454C13.6943 0.0528454 13.5886 0 13.4829 0H13.2187L11.3691 0.0528454C10.1008 0.105691 8.83249 0.211381 7.51136 0.317072C8.77964 0.422763 10.0479 0.528453 11.3691 0.581299L13.2715 0.68699H13.4829C13.5357 0.68699 13.5886 0.686989 13.6414 0.739835C13.7471 0.79268 13.8528 0.845526 13.9056 0.898371C14.0642 1.05691 14.1699 1.21544 14.117 1.42682C14.117 1.63821 14.0113 1.79674 13.8528 1.90243C13.7471 2.00812 13.5886 2.00812 13.4829 2.00812H13.2715H13.0601C13.0073 1.95528 12.9544 1.95528 12.8487 1.95528C11.6861 1.95528 10.5235 1.95528 9.36094 1.95528H7.51136H5.55608C4.44632 1.95528 3.28373 1.95528 2.17397 1.95528C2.12113 1.95528 2.01544 1.95528 1.96259 2.00812H1.75121H1.53983C1.48699 2.00812 1.43414 2.00812 1.38129 2.00812C1.2756 2.00812 1.22276 1.95528 1.11707 1.90243C0.958532 1.79674 0.852841 1.58536 0.852841 1.42682C0.852841 1.21544 0.905687 1.00406 1.06422 0.898371C1.16991 0.79268 1.32845 0.739835 1.48699 0.739835C1.64552 0.739835 3.75934 0.634144 3.65365 0.634144C4.92193 0.581299 6.19022 0.475608 7.51136 0.369917C6.24307 0.264227 4.97478 0.158536 3.65365 0.105691L1.75121 0H1.48699C1.16991 0 0.852841 0.105691 0.588614 0.317072C0.218697 0.581299 0.00731586 1.00406 0.00731586 1.42682C0.00731586 1.84959 0.218697 2.3252 0.535769 2.58942C0.694305 2.74796 0.905687 2.85365 1.11707 2.90649C1.22276 2.95934 1.32845 2.95934 1.43414 2.95934C1.22276 3.80486 1.11707 4.65039 1.11707 5.49592C1.16991 6.55282 1.43414 7.60973 1.8569 8.61379C2.27967 9.56501 2.91381 10.4634 3.70649 11.2032L5.60892 13.0528L3.81218 14.8495C3.07235 15.5894 2.49105 16.4877 2.06828 17.439C1.69837 18.3902 1.43414 19.4471 1.43414 20.504C1.43414 21.3495 1.59268 22.195 1.80406 22.9877H1.53983C1.48699 22.9877 1.32845 22.9877 1.22276 23.0406C0.747151 23.1463 0.377233 23.4105 0.165852 23.8333C-0.0455294 24.256 -0.0455296 24.7316 0.113006 25.1015C0.271543 25.5243 0.64146 25.8414 1.06422 25.9471C1.2756 25.9999 1.53983 25.9999 1.64552 25.9999H2.12113L4.07641 25.9471C5.3447 25.8942 6.61298 25.7885 7.93412 25.6828C6.66583 25.5771 5.39754 25.4715 4.07641 25.4186L2.17397 25.3129C1.8569 25.3129 1.48699 25.3129 1.32845 25.2601C1.11707 25.2072 0.958532 25.0487 0.905687 24.8373C0.747151 24.4674 1.06422 24.0446 1.43414 23.9918H1.59268C1.64552 23.9918 2.38536 23.9918 2.33251 23.9918H3.28373L7.14144 24.0446L10.9991 23.9918L12.9016 23.9389C13.2187 23.9389 13.5886 23.8861 13.7471 23.9389C13.9056 23.9918 14.117 24.0975 14.1699 24.3089C14.3813 24.6788 14.117 25.2072 13.6943 25.2601C13.5886 25.2601 13.43 25.2601 13.2715 25.3129C13.2187 25.3129 11.739 25.3658 11.8447 25.3658C10.5764 25.4186 9.3081 25.5243 7.98696 25.63C9.25525 25.7357 10.5235 25.8414 11.8447 25.8942C11.8975 25.8942 13.3772 25.9471 13.2715 25.9471C13.43 25.9471 13.5886 25.9999 13.8 25.9471C14.2227 25.8942 14.5926 25.63 14.804 25.2601C15.0154 24.8902 15.0682 24.4145 14.9097 23.9918C14.7512 23.569 14.3813 23.252 13.9585 23.0934C13.7471 23.0406 13.4829 23.0406 13.3772 23.0406H13.2187C13.4829 22.2479 13.6414 21.3495 13.5886 20.504C13.5886 19.4471 13.3772 18.443 12.9544 17.439C12.5317 16.4877 11.9504 15.5894 11.2105 14.8495L9.41379 13L11.3162 11.1504C12.0561 10.4105 12.6902 9.51216 13.1658 8.56095C13.5886 7.55689 13.8528 6.49998 13.9056 5.44307C13.9585 4.59755 13.8528 3.75202 13.5886 2.90649C13.6943 2.90649 13.8 2.90649 13.9056 2.85365C14.0642 2.8008 14.2756 2.69511 14.4341 2.58942ZM12.2146 8.19103C11.8447 9.03655 11.3162 9.88208 10.6292 10.5162C10.5235 10.6219 8.40973 12.7886 8.51542 12.6829C8.35688 12.8414 8.35688 13.1056 8.51542 13.2642L10.6821 15.378C11.3691 16.065 11.9504 16.8577 12.3731 17.7032C12.7959 18.6016 13.0073 19.5528 13.0601 20.504C13.113 21.3495 13.0073 22.195 12.7959 22.9877L10.9463 23.0406L7.08859 22.9877L3.23088 23.0406C3.17804 23.0406 2.12113 23.0406 2.17397 23.0406C1.96259 22.2479 1.8569 21.4024 1.90975 20.5568C1.96259 19.6056 2.22682 18.6016 2.59674 17.756C3.0195 16.8577 3.6008 16.065 4.28779 15.4308C4.44632 15.2723 6.50729 13.2642 6.45445 13.317C6.61298 13.1585 6.61298 12.8943 6.45445 12.7357C6.4016 12.6829 4.28779 10.5162 4.34063 10.5691C3.65365 9.88208 3.12519 9.0894 2.75527 8.24387C2.38536 7.3455 2.17397 6.44713 2.17397 5.49592C2.12113 4.65039 2.27967 3.85771 2.54389 3.06503H5.3447H7.51136H9.57232H12.4788C12.743 3.85771 12.8487 4.70324 12.7959 5.49592C12.7959 6.39429 12.5845 7.29266 12.2146 8.19103Z" fill="black"/>
<path d="M10.1536 17.8619C10.682 18.8132 10.8934 19.9229 10.8406 20.9798C9.73083 20.927 8.62108 20.927 7.56417 20.927C6.45442 20.927 5.34466 20.927 4.28776 20.9798C4.23491 19.9229 4.44629 18.8132 4.97475 17.8619C5.87312 17.8091 6.71864 17.7034 7.61701 17.5977C6.6658 17.492 5.76743 17.3863 4.81621 17.3335C4.76336 17.3335 4.65767 17.3335 4.60483 17.4392V17.492C3.7593 18.6018 3.33654 20.0815 3.44223 21.5611C3.44223 21.7725 3.65361 21.9839 3.86499 21.9839H3.91784C5.13328 22.0367 6.40157 22.0367 7.61701 22.0367C8.83246 22.0367 10.1007 22.0367 11.3162 21.9839H11.369C11.5804 21.9839 11.7918 21.8254 11.7918 21.5611C11.8975 20.0815 11.4747 18.6546 10.6292 17.492V17.4392C10.5764 17.3863 10.5235 17.3335 10.4178 17.3335C9.4666 17.3863 8.56823 17.492 7.61701 17.5977C8.40969 17.7034 9.25522 17.8091 10.1536 17.8619Z" fill="black"/>
<path d="M11.2637 4.0692C9.99544 4.01636 8.78 4.01636 7.51171 4.01636C6.29627 4.01636 5.02798 4.01636 3.81254 4.0692H3.75969C3.54831 4.0692 3.33693 4.28058 3.33693 4.49197C3.28409 5.2318 3.33693 5.97164 3.54831 6.65862C3.75969 7.34561 4.07677 8.0326 4.49953 8.6139C4.71091 8.93097 4.97514 9.1952 5.18652 9.40658C5.45075 9.67081 5.71497 9.88219 5.9792 10.0936C6.50765 10.5163 7.03611 10.9919 7.56456 11.4147C5.9792 9.40658 5.45074 9.03666 5.02798 8.29683C4.71091 7.71553 4.49953 7.13423 4.34099 6.50009C4.2353 6.02448 4.2353 5.54887 4.2353 5.07326C5.34505 5.12611 6.40196 5.07326 7.51171 5.12611C8.62147 5.12611 9.67837 5.12611 10.7881 5.07326C10.841 6.18302 10.5767 7.29277 10.0483 8.29683C9.73122 8.87813 9.30846 9.35374 8.83285 9.88219C8.41009 10.4106 7.93448 10.9391 7.51171 11.4676C8.04017 11.0448 8.56862 10.622 9.09707 10.1464C9.3613 9.93504 9.62553 9.72365 9.88975 9.45943C10.154 9.1952 10.3654 8.93097 10.5767 8.66675C10.9995 8.08545 11.3166 7.39846 11.528 6.71147C11.7393 6.02448 11.7922 5.28465 11.7393 4.54481C11.6865 4.22774 11.528 4.0692 11.2637 4.0692Z" fill="black"/>
</svg>
