<svg width="197" height="186" viewBox="0 0 197 186" fill="none" xmlns="http://www.w3.org/2000/svg">
<path d="M100.39 64.8288C103.589 64.9584 106.892 66.9907 110.438 68.1582C115.02 69.6709 120.668 69.2088 123.295 65.1094C123.544 64.7154 123.978 63.9271 123.995 63.8834C124.686 63.5997 126.482 65.5738 128.187 66.3886C134.65 69.4664 139.946 61.8088 151.402 65.9721C152.574 66.3945 153.883 65.7919 154.308 64.6131C154.737 63.4344 154.128 62.1345 152.95 61.7061C147.192 59.6185 141.616 59.8094 135.877 61.653C129.771 63.592 130.449 62.2392 127.33 60.3147C125.25 59.0443 122.952 59.0118 121.339 60.2172C120.41 60.9136 119.928 61.8633 119.472 62.6633C118.128 64.7579 114.586 64.752 111.859 63.8509C108.331 62.6781 104.821 60.4633 100.568 60.2969C99.4272 60.1817 98.2603 61.2187 98.213 62.4742C98.1628 63.7268 99.1377 64.7815 100.39 64.8288Z" fill="black"/>
<path d="M148.057 114.106C145.464 113.167 143.957 113.427 142.034 115.465C141.698 115.819 141.359 116.362 140.116 116.115C139.614 116.014 139.363 115.807 139.328 115.742C138.74 114.661 137.369 114.194 136.27 114.77C133.749 116.072 135.296 119.699 139.094 120.537C140.947 120.949 143.02 120.592 144.421 119.462C144.54 119.365 145.829 118.152 145.682 118.121C146.742 118.164 148.419 120.229 156.492 117.985C157.7 117.648 158.406 116.398 158.069 115.19C157.733 113.982 156.486 113.273 155.275 113.612C149.219 115.302 148.521 114.129 148.057 114.106Z" fill="black"/>
<path d="M154.524 134.927C151.851 135.734 148.879 135.149 145.723 134.526C134.069 132.248 128.921 134.735 117.445 136.543C108.024 138.044 100.978 136.744 96.5321 132.7C95.6074 131.858 94.1687 131.929 93.3267 132.851C92.4818 133.778 92.5527 135.214 93.4774 136.056C97.5927 139.799 103.262 141.678 110.388 141.678C121.235 141.678 131.308 137.062 141.286 138.357C145.832 138.948 150.778 140.788 155.83 139.276C157.029 138.913 157.712 137.648 157.351 136.449C156.991 135.25 155.735 134.57 154.524 134.927Z" fill="black"/>
<path d="M10.9062 60.6963C16.4959 66.5339 22.258 72.4982 29.5613 75.9601C34.2694 78.1916 39.797 79.1494 44.8594 78.2568C44.2078 78.8724 43.6042 79.5377 43.0984 80.2827C42.7258 80.8315 42.6525 81.4816 42.798 82.0846C42.0881 86.9252 58.1088 94.6721 63.5799 96.8749C66.3139 104.419 67.6943 108.053 69.2702 112.806C78.7319 141.326 72.8593 152.9 72.6441 155.106C64.5591 155.45 56.4681 155.889 48.3777 156.479C46.9824 156.584 45.9936 157.919 46.3452 159.3C48.0871 166.167 51.0805 171.46 55.0947 175.034C55.1062 175.046 55.116 175.06 55.1274 175.072C55.1176 175.061 55.1092 175.049 55.0996 175.038C57.5412 177.21 59.6521 178.287 61.9754 179.115C58.6946 178.188 56.801 176.857 55.1274 175.072C57.2082 177.407 59.5913 179.433 62.0474 180.956C69.0348 185.29 76.2194 185.265 84.4366 185.55C95.9134 185.947 108.629 185.848 120.112 185.655C138.117 185.353 156.122 187.958 171.745 178.371C172.696 177.974 173.62 177.453 174.522 176.825C179.219 175.122 182.549 170.855 184.818 166.359C197.687 140.865 182.177 110.388 175.346 88.4743C171.56 76.3292 169.102 63.3782 171.317 50.903C179.26 49.2744 183.741 48.0836 191.454 46.5052C191.088 47.6891 191.73 48.9476 192.909 49.3339C193.145 49.4107 193.382 49.4461 193.615 49.4461C194.569 49.4461 195.458 48.8405 195.772 47.8833C197.47 42.6809 196.749 36.6128 193.893 32.0456C189.349 24.7643 179.425 23.8601 173.189 22.004C149.998 15.0224 129.731 26.0133 100.438 20.9316C89.2587 18.9671 76.7504 22.7515 67.8344 30.793C63.8115 34.3944 60.778 38.7503 58.669 43.6929C55.4186 41.5559 51.9808 39.6986 48.3954 38.155C47.0649 37.5838 45.5463 38.3861 45.2728 39.7975L45.0926 40.7045C36.1057 34.084 24.8618 30.8402 13.6888 31.7797C0.759455 32.846 -2.85535 41.6095 2.1862 48.9906C4.06932 53.5234 7.2871 56.9168 10.9062 60.6963ZM5.16483 52.5311C6.54076 53.91 6.42299 53.7296 17.3318 63.7412C14.441 61.3865 7.66981 55.3362 5.16483 52.5311ZM51.4974 160.807C87.3133 158.321 123.139 158.288 158.111 160.662C155.258 165.773 156.146 172.379 159.332 175.914C130.358 179.237 110.93 178.384 84.5614 177.626C77.1728 177.38 69.5361 177.126 63.0249 174.689C57.7072 172.698 53.8372 168.033 51.4974 160.807ZM192.143 41.7305C185.319 43.0746 180.845 44.2361 172.417 46.036C173.486 42.4636 175.106 39.0477 177.744 36.45C180.38 33.8543 183.004 33.6473 186.247 32.5437C186.887 32.326 187.656 32.4822 188.284 32.4307C190.869 34.7671 192.073 38.3034 192.143 41.7305ZM70.8655 34.1667C78.78 27.0351 89.8141 23.6702 99.6577 25.4014C114.255 27.9391 126.116 26.6895 137.593 25.4783C164.222 22.684 164.111 24.3694 178.452 28.0182C170.193 32.6381 164.904 42.3663 163.402 56.0401C160.379 83.4187 177.14 106.961 181.774 132.183C184.377 146.343 182.46 159.501 176.516 168.281C174.364 171.46 172.043 173.5 169.615 174.38C167.994 174.405 166.378 173.906 165.221 172.753C163.181 170.72 162.533 166.935 164.116 164.421C164.991 163.03 165.567 160.518 165.27 158.717C165.534 156.957 163.777 155.574 162.084 156.371C134.261 154.341 105.875 153.849 77.368 154.892C82.5409 135.859 75.4896 116.194 69.0088 98.5306C76.4207 100.343 81.7777 100.037 87.1966 100.28C84.6294 101.409 81.5186 102.354 80.4816 102.044C79.3531 101.524 77.9971 102.011 77.4712 103.152C76.9454 104.289 77.4417 105.639 78.5791 106.162L78.582 106.165C95.2454 113.849 113.872 112.481 117.863 109.768C125.562 116.895 125.487 117.793 127.1 117.793C129.134 117.793 130.135 115.303 128.674 113.89C119.585 105.209 121.039 106.41 120.281 105.908C120.529 104.182 120.058 102.528 119.785 101.592C116.952 91.9609 112.054 82.8027 105.613 75.1068C104.434 73.6983 102.195 74.2105 101.696 75.9281C95.8172 66.2913 87.3089 58.3887 77.1787 53.269C76.5879 52.9676 75.8848 52.944 75.2762 53.201C73.8648 53.7981 74.2249 54.8051 73.0871 56.4773C69.9255 52.7311 66.3472 49.3597 62.4571 46.3974C64.3059 41.6785 67.0924 37.5477 70.8655 34.1667ZM4.58377 41.8301C4.86442 40.2732 6.08748 38.7783 7.85118 37.83C14.1832 34.4321 32.4425 35.4411 45.0985 46.5273C46.4127 47.6765 48.4803 46.9732 48.8179 45.26L49.1665 43.4963C52.3194 45.0293 55.3329 46.8298 58.1784 48.863C58.201 48.8834 58.2307 48.8948 58.254 48.9142C63.1104 52.3951 67.4685 56.5644 71.1521 61.2957C71.9143 62.2735 73.3294 62.4626 74.3279 61.6975C75.483 60.8082 76.4697 59.6856 77.2201 58.4271C87.693 64.2913 96.1067 73.4436 101.055 84.4157C101.421 85.2281 102.231 85.751 103.123 85.751H103.126C104.774 85.751 105.313 84.3857 105.791 82.8086C110.045 88.921 113.339 95.7571 115.43 102.871C116.271 105.735 115.979 106.301 112.857 106.759C104.594 107.949 95.9826 107.27 87.947 104.862C90.9692 103.624 93.6635 101.961 94.5232 100.759C95.0993 99.9551 95.0875 98.8709 94.4966 98.0791C92.0946 94.8661 83.6748 95.9672 80.8479 95.5385C69.2151 93.7577 57.7582 88.9383 48.2211 81.3049C49.6805 80.0404 51.6008 79.2605 53.5063 79.2251C55.6498 79.1855 56.5325 76.4604 54.8505 75.163C51.1045 72.2589 46.5785 72.2944 42.221 72.3417C30.0055 72.4143 33.3454 71.3371 9.8128 50.7047C6.91172 48.0488 4.02541 44.9173 4.58377 41.8301Z" fill="black"/>
<path d="M58.635 21.6082L49.3202 16.8045C48.1976 16.2285 46.8386 16.6716 46.2625 17.7824C45.6894 18.8962 46.1266 20.264 47.2404 20.8401C56.7706 25.6558 56.6121 25.8948 57.5921 25.8948C59.9709 25.8948 60.7378 22.6959 58.635 21.6082Z" fill="black"/>
<path d="M65.9614 19.519C67.1963 19.3181 68.0382 18.1541 67.8373 16.9163C67.0751 12.1983 65.6394 7.6222 63.5684 3.31489C63.0278 2.18636 61.6777 1.70186 60.5433 2.25135C59.4118 2.79198 58.9362 4.14799 59.4798 5.27651C61.3587 9.19386 62.6644 13.3535 63.3587 17.643C63.563 18.9059 64.7575 19.7197 65.9614 19.519Z" fill="black"/>
<path d="M74.6203 2.05957L73.6011 13.0051C73.4859 14.2518 74.4017 15.3567 75.6513 15.4749C76.9465 15.5828 78.0084 14.6367 78.1211 13.4246L79.1403 2.47907C79.2555 1.23237 78.3397 0.127481 77.0901 0.00931056C75.8552 -0.102951 74.7355 0.812869 74.6203 2.05957Z" fill="black"/>
</svg>
