<svg width="133" height="125" viewBox="0 0 133 125" fill="none" xmlns="http://www.w3.org/2000/svg">
<path d="M60.1018 4.1707L43.021 38.3031L5.21949 43.5825C0.600182 44.2355 -1.30175 49.9108 2.03567 53.2001L29.2195 79.9942L22.5577 117.575C21.7391 122.198 26.5977 125.731 30.7195 123.575L64.6018 106.002C100.164 124.679 98.4128 124.612 100.947 124.612C102.109 124.612 103.264 124.252 104.242 123.553C104.272 123.531 104.291 123.499 104.321 123.477C104.912 123.514 105.325 123.781 106.509 122.673C109.265 120.095 112.523 113.302 112.004 109.565L108.395 83.5907C114.597 77.144 121.101 70.5843 127.761 65.0177C130.015 63.1339 131.957 59.1208 131.5 56.2186C132.802 50.5598 132.838 50.1589 132.5 47.9999C132.353 47.0656 132.5 47.9999 131 46.4999C128.5 44.2516 126.546 44.5287 124.683 44.2516L95.7333 39.8761C80.0752 10.4175 81.6639 9.46762 78.5568 7.23871C74.8223 4.56141 69.5924 2.09898 64.7687 0.870605C64.8132 0.943216 64.8505 1.01675 64.8946 1.08936C62.8596 1.18448 61.0182 2.33844 60.1018 4.1707ZM90.293 74.3178C88.9548 75.6045 88.3371 77.4722 88.6386 79.3104L93.5062 108.597C66.9929 94.7268 65.9214 92.6091 62.0357 94.6045L35.6754 108.281L40.8592 79.0383C41.1827 77.2075 40.5871 75.3325 39.2636 74.031L18.1165 53.1854L47.521 49.0825C49.3665 48.8251 50.9621 47.6781 51.793 46.0163L65.0798 19.4575L78.0724 46.156C78.8886 47.8251 80.4695 48.9942 82.3077 49.2663L111.683 53.7075L90.293 74.3178Z" fill="black"/>
</svg>
