<?xml version="1.0" encoding="UTF-8"?>
<svg id="Layer_1" xmlns="http://www.w3.org/2000/svg" version="1.1" viewBox="0 0 133 125">
  <!-- Generator: Adobe Illustrator 29.3.0, SVG Export Plug-In . SVG Version: 2.1.0 Build 146)  -->
  <defs>
    <style>
      .st0 {
        fill: #fff;
      }
    </style>
  </defs>
  <path class="st0" d="M60.1,4.2l-17.1,34.1-37.8,5.3c-4.6.7-6.5,6.3-3.2,9.6l27.2,26.8-6.7,37.6c-.8,4.6,4,8.2,8.2,6l33.9-17.6c35.6,18.7,33.8,18.6,36.3,18.6s2.3-.4,3.3-1.1c0,0,0,0,0,0,.6,0,1,.3,2.2-.8,2.8-2.6,6-9.4,5.5-13.1l-3.6-26c6.2-6.4,12.7-13,19.4-18.6,2.3-1.9,4.2-5.9,3.7-8.8,1.3-5.7,1.3-6.1,1-8.2-.1-.9,0,0-1.5-1.5-2.5-2.2-4.5-2-6.3-2.2l-28.9-4.4c-15.7-29.5-14.1-30.4-17.2-32.6-3.7-2.7-9-5.1-13.8-6.4,0,0,0,.1.1.2-2,0-3.9,1.2-4.8,3.1ZM90.3,74.3c-1.3,1.3-2,3.2-1.7,5l4.9,29.3c-26.5-13.9-27.6-16-31.5-14l-26.4,13.7,5.2-29.2c.3-1.8-.3-3.7-1.6-5l-21.1-20.8,29.4-4.1c1.8-.3,3.4-1.4,4.3-3.1l13.3-26.6,13,26.7c.8,1.7,2.4,2.8,4.2,3.1l29.4,4.4-21.4,20.6Z"/>
</svg>