<svg width="458" height="424" viewBox="0 0 458 424" fill="none" xmlns="http://www.w3.org/2000/svg">
<path d="M362.317 98.0389C369.893 95.6828 375.043 88.5252 374.571 81.0252C373.792 68.4822 358.615 60.6448 348.201 66.3198C344.728 68.217 342.434 71.5184 341.886 75.0252C333.717 87.9197 347.337 102.702 362.317 98.0389V98.0389ZM352.379 79.0937C353.694 78.1211 354.434 76.6417 354.509 75.1074C358.826 74.2387 363.822 77.7382 364.071 81.6759C364.228 84.2718 362.043 87.1074 359.194 87.9978C355.322 89.1894 349.352 86.9766 350.126 82.4225C351.304 81.6485 352.112 80.443 352.379 79.0937Z" fill="black"/>
<path d="M406.011 239.157C407.201 236.785 408.007 234.215 408.366 231.566C417.03 172.984 408.729 114.457 400.523 70.0182C398.29 57.847 387.982 49.3264 375.482 49.8059L313.249 52.1209C301.698 52.6194 293.314 63.6594 296.167 74.9566C296.662 76.8808 297.047 78.7802 297.516 80.6976C281.285 82.6677 271.41 80.4908 252.427 80.4908C215.953 80.4595 188.419 60.4379 120.619 61.7168C105.276 62.1346 77.5231 63.5251 64.071 68.21C48.8518 73.5867 36.5573 82.9018 29.4957 94.3607C25.0943 101.274 23.1101 109.575 27.4944 116.603C3.42409 126.857 0.238964 153.681 15.6476 166.418C7.70543 172.096 0.773924 182.647 0.817588 194.347C0.85055 204.317 10.2238 215.883 19.0265 220.723C4.34948 234.032 0.952745 258.248 16.6904 273.124C21.684 279.769 30.6853 286.281 34.178 288.113C51.018 296.945 68.4532 296.979 121.919 301.349C122.812 301.422 123.713 301.486 124.614 301.53C114.502 316.608 106.123 333.798 101.235 346.333C80.6111 399.285 116.889 438.584 139.927 418.217C146.27 412.615 148.425 404.543 150.274 397.348C154.587 387.44 157.415 376.349 163.631 367.513C173.196 353.917 189.628 347.215 202.51 336.708C236.001 309.394 246.196 253.725 290.894 242.045C296.464 240.59 301.817 241.038 307.889 240.276C307.453 245.576 313.859 255.212 313.859 255.212C298.276 266.759 281.477 304.636 289.787 335.855C297.695 365.564 319.622 391.305 349.168 399.802C387.991 410.968 435.746 392.261 450.62 347.536C468.502 305.534 448.604 256.687 406.011 239.157ZM133.195 410.055C128.885 399.806 132.841 388.203 143.544 383.255C142.647 385.716 138.895 404.712 133.195 410.055ZM277.038 233.056C222.07 255.655 236.099 296.042 178.879 336.95C166.157 346.038 155.916 357.977 148.808 371.528C148.063 371.316 147.281 371.22 146.475 371.361C128.289 374.616 115.997 393.545 122.783 412.573C117.209 410.439 112.02 403.744 109.585 397.717C104.098 383.943 104.626 366.607 111.044 350.155C118.009 332.285 131.153 307.498 144.824 292.409C148.364 288.497 144.437 282.858 140.153 283.141C111.4 284.046 59.3107 280.868 36.4477 272.724C25.9409 268.991 19.9614 263.395 17.6532 255.121C14.1532 242.614 22.6669 228.833 30.119 225.648C30.7226 225.39 31.2268 225.006 31.6733 224.576C49.0046 227.334 105.372 224.633 135.77 230.141C136.085 230.196 136.4 230.224 136.715 230.224C143.076 230.224 143.932 220.931 137.646 219.785C99.8037 212.939 38.8073 218.786 24.7217 211.902C18.1121 208.669 11.3587 199.792 11.3381 194.306C11.297 184.189 19.4683 175.039 25.345 172.929C25.7915 172.769 26.1399 172.483 26.5115 172.225C36.7345 175.719 47.5663 175.808 56.1875 175.409C114.894 172.77 131.343 178.998 134.907 178.998C141.182 178.998 142.143 169.893 135.982 168.587C112.139 163.575 78.0996 163.89 55.708 164.902C36.3679 165.753 15.2403 162.889 16.8587 143.689C17.6669 134.1 30.4409 124.429 38.1532 124.868C38.8172 124.9 39.4494 124.785 40.0492 124.601C58.0155 128.238 91.5488 116.964 117.92 131.347C118.722 131.785 119.585 131.991 120.434 131.991C125.877 131.991 127.721 124.711 122.961 122.114C88.7428 103.443 42.5729 122.239 36.2149 110.847C34.5779 107.929 36.256 103.333 38.4135 99.9429C44.256 90.4566 54.6121 82.71 67.5573 78.1346C80.0916 73.7716 109.044 72.5525 120.879 72.2374C166.442 71.1295 197.426 81.5231 201.811 82.3607C243.005 93.0426 242.677 90.1199 270.489 91.6004C279.86 92.094 288.122 92.5268 299.935 90.9934C300.005 91.3089 300.089 91.6274 300.158 91.9433C297.494 98.7362 300.957 108.04 301.495 115.329C304.526 156.412 301.956 199.664 277.038 233.056ZM306.366 72.3607C305.797 70.1141 306.276 67.7442 307.687 65.847C309.133 63.9086 311.331 62.7374 313.681 62.6278L375.879 60.3127C382.907 59.9771 388.893 64.9292 390.181 71.9223C398.235 115.566 406.393 172.977 397.948 230.094C397.667 232.175 396.791 234.053 395.664 235.753C370.328 229.093 333.33 240.728 313.859 255.212C308.922 254.973 317.953 245.112 318.359 240.991C324.222 179.402 320.523 127.381 306.366 72.3607ZM374.763 387.244C335.126 387.244 302.879 354.998 302.879 315.368C302.879 275.731 335.126 243.484 374.763 243.484C414.4 243.484 446.646 275.731 446.646 315.368C446.646 354.998 414.4 387.244 374.763 387.244Z" fill="black"/>
<path d="M350.625 294.32C355.552 287.181 351.681 277.826 344.084 276.505C339.166 272.928 328.235 278.843 328.769 288.238C329.383 299.023 343.842 304.184 350.625 294.32Z" fill="black"/>
<path d="M385.879 276.08C381.653 279.702 381.569 289.988 388.222 294.806C393.634 298.701 401.735 297.63 405.948 292.505C410.167 287.354 409.598 279.19 404.722 274.683C398.723 269.131 388.628 271.177 385.879 276.08V276.08Z" fill="black"/>
<path d="M371.825 320.361C357.29 322.114 344.873 333.854 342.297 348.265C341.717 351.488 344.202 354.45 347.482 354.45C349.982 354.45 352.201 352.662 352.653 350.114C354.407 340.299 363.194 331.998 373.092 330.799C382.934 329.594 393.503 335.56 397.551 344.676C398.742 347.334 401.866 348.518 404.496 347.347C407.153 346.162 408.345 343.053 407.167 340.402C401.215 327.025 386.379 318.56 371.825 320.361Z" fill="black"/>
<path d="M57.8784 51.3332C58.8031 53.1826 60.6593 54.2442 62.5908 54.2442C66.4522 54.2442 69.0514 50.1493 67.2894 46.6346L56.4401 24.9428C55.1319 22.3401 51.988 21.2921 49.3851 22.5867C46.7826 23.888 45.7278 27.0456 47.0291 29.6415L57.8784 51.3332Z" fill="black"/>
<path d="M88.7278 49.3607C91.6114 48.9977 93.6525 46.3675 93.2894 43.484L88.4401 4.91547C88.0771 2.03876 85.4949 -0.0023366 82.5634 0.353828C79.6799 0.716842 77.6388 3.34698 78.0018 6.23054L82.8511 44.799C83.2065 47.6132 85.7651 49.7198 88.7278 49.3607V49.3607Z" fill="black"/>
<path d="M119.687 50.539C128.139 41.8541 135.214 31.9842 140.701 21.1897C142.023 18.6007 140.988 15.4363 138.399 14.1212C135.824 12.7993 132.646 13.8336 131.331 16.4226C126.317 26.2651 119.865 35.2719 112.153 43.1966C110.125 45.2788 110.166 48.6075 112.249 50.6349C114.343 52.6737 117.672 52.6083 119.687 50.539Z" fill="black"/>
</svg>
