<svg width="456" height="483" viewBox="0 0 456 483" fill="none" xmlns="http://www.w3.org/2000/svg">
<path d="M269.375 1.02844C257.898 -1.76912 245.136 1.24578 236.119 8.79354C234.949 9.52321 233.82 10.3404 232.637 11.0487C226.375 14.7964 221.794 10.3163 216.423 7.40261C213.536 5.83669 209.641 4.70992 205.631 3.99987C178.058 -2.11385 155.967 20.0036 155.035 43.2751C154.125 65.9608 171.069 83.5493 181.251 92.0138C195.49 103.853 212.552 112.511 226.581 124.261C226.896 124.526 227.283 124.658 227.669 124.658C227.764 124.658 227.857 124.626 227.951 124.61C229.448 125.077 231.055 125.029 233.099 124.947C237.836 124.755 258.026 107.104 268.939 98.5226C278.313 91.1506 287.625 83.293 293.924 73.1179C301.707 60.5485 304.274 44.5626 299.819 30.4365C295.364 16.3102 283.641 4.50633 269.375 1.02844ZM183.419 89.3531C173.725 81.2947 157.594 64.6125 158.442 43.4142C159.55 15.7806 189.801 -3.4842 216.341 11.7683C217.627 12.5087 218.853 13.5855 220.148 14.7252C226.482 20.2971 229.052 21.285 237.809 13.0785C239.623 11.3802 241.336 9.77616 242.904 8.94833C262.79 -1.56565 285.426 10.272 292.382 30.2206C296.797 42.8938 294.507 57.9629 286.404 69.548C280.165 78.4697 275.432 81.6261 227.676 120.712C213.627 109.215 197.18 100.792 183.419 89.3531Z" fill="black"/>
<path d="M431.026 271.462C429.081 258.643 420.964 248.578 406.909 241.544C384.356 230.27 348.582 222.23 319.113 218.481C333.427 206.034 348.345 191.373 358.601 172.975C382.15 130.654 365.826 83.9116 343.409 88.037C333.418 89.9478 330.115 99.9953 326.896 109.058C316.568 137.755 282.737 151.083 258.868 166.626C181.511 216.175 195.799 275.742 110.369 279.429C110.336 278.878 110.327 278.321 110.293 277.77C109.505 265.054 100.293 254.756 87.889 252.725C83.5518 252.017 31.3674 244.134 27.2755 245.905C27.3568 245.51 27.4082 245.106 27.4904 244.712C23.5187 248.242 14.9129 255.083 10.9408 258.614C-0.831082 324.15 -2.28356 393.745 6.93005 459.69C7.71001 465.273 8.65608 471.078 11.9339 475.664C15.2122 480.25 21.5546 483.159 26.6514 480.75C26.6103 480.531 26.5837 480.306 26.5426 480.086C26.8384 480.076 27.136 480.058 27.43 479.996C45.1539 476.288 74.4183 474.376 92.35 470.853C92.3744 470.858 92.392 470.875 92.4164 470.879C92.7314 470.941 93.0533 470.968 93.3684 470.968C95.8547 470.968 98.0739 469.194 98.5328 466.653C99.3299 462.307 100.002 457.96 100.727 453.614C110.495 451.849 122.204 448.156 130.074 446.623C158.433 440.983 179.166 449.244 202.998 455.758C224.207 461.557 244.147 471.566 265.515 476.968C312.604 488.991 383.029 483.17 394.522 436.137C395.769 431.072 395.156 424.581 390.561 422.309C402.56 417.867 414.62 407.953 416.916 396.975C419.128 386.353 416.429 376.893 409.582 369.982C419.093 365.075 428.317 354.452 429.848 341.571C431.134 330.675 422.248 316.709 413.259 310.515C424.358 302.99 433.402 287.069 431.026 271.462ZM30.5191 468.701C17.6009 400.64 18.6749 331.04 33.5949 256.333C49.076 257.762 69.4874 260.38 86.1903 263.109C93.7177 264.342 99.3068 270.636 99.7862 278.417C103.48 338.19 99.7678 399.527 88.8581 460.789C72.8348 463.753 48.144 465.62 30.5191 468.701ZM333.466 471.91C343.777 470.775 353.5 468.566 364.174 463.154C356.151 467.607 346.708 470.738 333.466 471.91ZM390.279 422.75C390.226 422.661 390.189 422.566 390.132 422.478C390.187 422.459 390.242 422.433 390.297 422.413C390.301 422.527 390.276 422.636 390.279 422.75ZM400.862 362.215C400.303 362.342 399.825 362.611 399.359 362.891C379.699 353.283 358.824 356.643 333.683 351.544C330.868 350.975 328.06 352.804 327.485 355.66C326.909 358.503 328.752 361.284 331.601 361.859C343.266 364.218 354.511 364.973 366.615 365.893C388.073 367.554 411.033 373.665 406.615 394.825C404.286 405.975 384.951 415.79 376.355 414.092C375.006 413.846 373.695 414.156 372.609 414.819C353.55 411.306 318.334 410.447 312.129 409.996C309.245 409.866 306.711 411.962 306.499 414.859C306.286 417.756 308.464 420.277 311.362 420.489C317.044 420.911 373.6 422.513 381.252 428.201C382.642 432.667 378.526 438.167 377.149 439.845C359.214 462.289 327.419 463.898 298.848 461.167C220.146 453.273 195.908 423.656 157.17 425.797C149.027 426.164 133.265 428.54 129.088 429.51L129.094 429.523C126.796 429.983 111.507 432.812 103.762 433.97C110.618 385.605 112.992 337.356 110.853 289.973C201.818 286.262 189.482 223.571 264.574 175.462C288.926 159.617 325.012 145.347 336.786 112.647L337.567 110.472C339.93 103.811 341.875 99.0438 345.355 98.376C354.342 96.6617 370.517 129.917 349.409 167.855C333.837 195.789 306.823 213.692 304.021 217.919C299.434 220.571 301.128 227.172 306.122 227.633C336.286 230.414 377.697 238.701 402.204 250.955C413.327 256.52 419.183 263.537 420.629 273.044C422.814 287.407 411.457 301.561 402.731 304.095C402.089 304.282 401.528 304.604 401.026 304.986C395.587 303.511 390.733 302.968 385.3 301.893C366.899 298.226 361.17 299.993 323.868 298.814C321.088 298.64 318.54 301.003 318.444 303.903C318.355 306.807 320.636 309.236 323.54 309.331C370.825 310.813 358.723 308.145 389.273 313.29C396.122 314.455 401.54 315.373 406.923 318.873C413.197 322.948 420.19 333.653 419.396 340.331C418.06 351.592 407.704 360.667 400.862 362.215Z" fill="black"/>
<path d="M394.991 122.146L413.525 87.7248C414.902 85.1666 413.95 81.9782 411.389 80.6015C408.827 79.2214 405.642 80.1872 404.265 82.7385L385.731 117.16C384.354 119.718 385.306 122.906 387.868 124.283C390.431 125.664 393.613 124.698 394.991 122.146Z" fill="black"/>
<path d="M445.67 121.42C444.115 118.972 440.875 118.235 438.409 119.797L406.005 140.369C403.553 141.927 402.827 145.177 404.389 147.629C405.94 150.079 409.19 150.809 411.649 149.253L444.053 128.681C446.505 127.122 447.231 123.872 445.67 121.42Z" fill="black"/>
<path d="M450.614 175.461L418.888 170.53C416.018 170.088 413.326 172.054 412.881 174.92C412.436 177.79 414.402 180.478 417.272 180.927L448.998 185.859C451.932 186.299 454.565 184.291 455.005 181.468C455.45 178.598 453.484 175.91 450.614 175.461Z" fill="black"/>
<path d="M71.4879 283.219C64.3586 283.219 58.5791 289.887 58.5791 298.113C58.5791 306.339 64.3586 313.008 71.4879 313.008C78.6172 313.008 84.3963 306.339 84.3963 298.113C84.3963 289.887 78.6172 283.219 71.4879 283.219Z" fill="black"/>
</svg>
