<svg width="103" height="109" viewBox="0 0 103 109" fill="none" xmlns="http://www.w3.org/2000/svg">
<path fill-rule="evenodd" clip-rule="evenodd" d="M69.2055 5.83105L75.599 12.084C77.1174 22.4909 82.1467 29.4385 90.9918 32.6261C91.2947 32.7353 94.6063 28.2896 94.6063 28.2896C94.6063 28.2896 98.4076 31.8582 101 34.5426V50.9067C92.3432 51.6726 84.0169 50.1217 76.3706 43.7991L76.3426 78.0034C73.2865 109.254 36.5188 113.503 19.419 97.8423C16.5313 95.1978 11.1259 89.6758 11.1259 89.6758C11.1259 89.6758 10.7756 81.7596 10.7756 78.0034C10.6854 61.7633 41.5622 41.0608 41.5622 41.0608C41.5622 41.0608 44.7332 43.9954 47.9558 47.1503V63.4199C29.3925 59.989 21.6558 80.4894 36.3189 88.494C45.1611 93.3213 57.2006 88.5654 58.497 78.0034L69.2055 5.83105Z" fill="white" stroke="black" stroke-width="3" stroke-miterlimit="1.5" stroke-linecap="round" stroke-linejoin="round"/>
<path d="M43.4141 99.9561L50.0115 106.176" stroke="black" stroke-width="3" stroke-miterlimit="1.5" stroke-linecap="round" stroke-linejoin="round"/>
<path d="M54.5312 96.2119L61.087 102.375" stroke="black" stroke-width="3" stroke-miterlimit="1.5" stroke-linecap="round" stroke-linejoin="round"/>
<path d="M63.2109 89.0273L69.7081 95.1522" stroke="black" stroke-width="3" stroke-miterlimit="1.5" stroke-linecap="round" stroke-linejoin="round"/>
<path d="M67.1836 80.2266L73.6342 86.5096" stroke="black" stroke-width="3" stroke-miterlimit="1.5" stroke-linecap="round" stroke-linejoin="round"/>
<path d="M69.9766 38.1455L76.3701 44.1463" stroke="black" stroke-width="3" stroke-miterlimit="1.5" stroke-linecap="round" stroke-linejoin="round"/>
<path d="M94.5273 44.6611L100.999 50.7461" stroke="black" stroke-width="3" stroke-miterlimit="1.5" stroke-linecap="round" stroke-linejoin="round"/>
<path d="M41.5625 56.9258L47.956 62.9266" stroke="black" stroke-width="3" stroke-miterlimit="1.5" stroke-linecap="round" stroke-linejoin="round"/>
<path fill-rule="evenodd" clip-rule="evenodd" d="M52.1035 1L76.3623 2.93237C78.3813 16.7718 74.913 28.2895 94.6064 28.2895V44.6536C84.5749 48.8261 79.744 41.5797 69.2056 36.7488L69.9492 71.7503C76.3623 109.213 2.44928 112.111 1 69.5991C1 57.1668 13.5604 23.7053 41.5624 40.6135V57.1668C22.999 53.736 15.2624 74.2363 29.9255 82.2409C38.7677 87.0682 50.8072 82.3123 52.1035 71.7503V1Z" fill="white" stroke="black" stroke-width="2" stroke-miterlimit="1.5" stroke-linecap="round" stroke-linejoin="round"/>
<path d="M73.4636 43.0293V65.2515L72.9805 81.1936" stroke="black" stroke-width="9" stroke-linecap="round"/>
<path d="M57.0391 19.3579V6.31445C58.1985 9.79271 58.9714 17.5866 58.4883 18.8748L57.0391 23.2227V19.3579Z" fill="black"/>
<path d="M57.0391 6.31445L57.5134 6.15634C57.4359 5.9237 57.201 5.78163 56.959 5.82091C56.7169 5.86019 56.5391 6.06923 56.5391 6.31445H57.0391ZM57.0391 23.2227H56.5391C56.5391 23.4679 56.7169 23.6769 56.959 23.7162C57.201 23.7555 57.4359 23.6134 57.5134 23.3808L57.0391 23.2227ZM58.4883 18.8748L58.0202 18.6993L58.0169 18.7079L58.014 18.7167L58.4883 18.8748ZM56.5391 6.31445V19.3579H57.5391V6.31445H56.5391ZM56.5391 19.3579V23.2227H57.5391V19.3579H56.5391ZM57.5134 23.3808L58.9627 19.033L58.014 18.7167L56.5647 23.0646L57.5134 23.3808ZM58.9565 19.0504C59.0444 18.8159 59.088 18.4901 59.1112 18.1411C59.1354 17.7777 59.1401 17.3379 59.1286 16.8462C59.1055 15.862 59.0166 14.6435 58.8767 13.3616C58.5979 10.8078 58.1103 7.94712 57.5134 6.15634L56.5647 6.47257C57.1272 8.16005 57.6059 10.9354 57.8826 13.4702C58.0204 14.7326 58.1067 15.9215 58.1289 16.8696C58.14 17.3442 58.1349 17.7518 58.1134 18.0747C58.091 18.4121 58.053 18.6117 58.0202 18.6993L58.9565 19.0504Z" fill="black"/>
</svg>
