<?xml version="1.0" encoding="UTF-8"?>
<svg id="Layer_1" xmlns="http://www.w3.org/2000/svg" version="1.1" viewBox="0 0 455 394">
  <!-- Generator: Adobe Illustrator 29.3.0, SVG Export Plug-In . SVG Version: 2.1.0 Build 146)  -->
  <defs>
    <style>
      .st0 {
        fill: #fff;
      }
    </style>
  </defs>
  <path d="M143.6,310.7c51.8-23.6,100.9-58.2,147.8-85.4,1.6-.9,2.6-2.6,2.6-4.4.1-5.9,2.1.1-147.7-97.5-3.2-2.1-7.6,0-8.1,3.8-7,58.8-3.3,120.2-2.1,178.9,0,3.8,4,6.2,7.4,4.7Z"/>
  <path class="st0" d="M387.2,41.3c2.7,1.2,5.8,0,7-2.6,4.8-10.6,10.4-20.8,16.8-30.5,1.6-2.4.9-5.7-1.5-7.3-2.4-1.6-5.7-.9-7.3,1.5-6.7,10.1-12.6,20.9-17.6,31.9-1.2,2.6,0,5.8,2.6,7Z"/>
  <path class="st0" d="M405.7,52.4c1.8,2.2,5.1,2.6,7.4.8,8.6-6.9,17.9-13,27.7-18.1,2.6-1.3,3.6-4.5,2.2-7.1-1.3-2.6-4.5-3.6-7.1-2.2-10.4,5.4-20.3,11.9-29.4,19.3-2.3,1.8-2.6,5.1-.8,7.4Z"/>
  <path class="st0" d="M414.8,72.6c-.7,2.8,1.1,5.7,3.9,6.3l29,6.7c2.8.6,5.6-1.1,6.3-3.9.7-2.8-1.1-5.7-3.9-6.3l-29-6.7c-2.8-.6-5.7,1.1-6.3,3.9Z"/>
  <path class="st0" d="M6.5,367.8c-.3,13.5,10.5,24.5,23.9,24.6l343.6,1c13.5,0,19.6-9.5,21.9-13.9,1-.9,1.7-2.2,1.7-3.7,2.5-105.3,3.1-214.6,3.4-317,0-2.8-2.1-5.1-4.9-5.3-157.9-11.9-184.4-11-296.2-6.5-94,3.7-87.3,1.6-89.9,4.3-1,1-1.5,2.3-1.5,3.7C5.4,59.4-.8,65.6,0,76.3c7.5,96.4,8.5,194.6,6.4,291.5ZM390.6,63.5c-.3,99.3-.9,204.8-3.3,306.7-36.8-.3-76,.1-113.9.5-197.8,2.2-152.3-2.5-248.8-3.2,6.1-106.1-3.6-201.1-5.3-307.5,158.8-2.4,144.1-13.5,371.3,3.5Z"/>
</svg>