<svg width="455" height="394" viewBox="0 0 455 394" fill="none" xmlns="http://www.w3.org/2000/svg">
<path d="M143.65 310.744C195.497 287.157 244.526 252.533 291.458 225.309C293.048 224.385 294.041 222.7 294.078 220.861C294.188 214.999 296.213 220.969 146.414 123.398C143.177 121.282 138.778 123.3 138.322 127.186C131.328 185.976 135.015 247.407 136.212 306.063C136.292 309.834 140.204 312.306 143.65 310.744Z" fill="white"/>
<path d="M387.18 41.2752C389.869 42.476 392.956 41.2658 394.143 38.6485C398.917 28.08 404.564 17.8163 410.927 8.14507C412.523 5.71698 411.851 2.45671 409.423 0.860821C407.002 -0.724796 403.742 -0.0604129 402.139 2.36425C395.475 12.4944 389.557 23.2444 384.554 34.3129C383.358 36.9601 384.533 40.0766 387.18 41.2752Z" fill="white"/>
<path d="M405.679 52.4121C407.483 54.6446 410.786 55.0405 413.076 53.1929C421.672 46.2443 430.987 40.145 440.761 35.0628C443.336 33.7203 444.34 30.5457 443.001 27.9669C441.658 25.3916 438.484 24.395 435.905 25.7272C425.511 31.1347 415.604 37.621 406.46 45.0148C404.203 46.8402 403.85 50.1518 405.679 52.4121Z" fill="white"/>
<path d="M414.795 72.5829C414.144 75.4151 415.908 78.2405 418.737 78.8946L447.699 85.5761C450.467 86.2203 453.343 84.5131 454.007 81.6309C454.658 78.7987 452.894 75.9768 450.062 75.3227L421.107 68.6411C418.258 68.0213 415.449 69.7542 414.795 72.5829Z" fill="white"/>
<path d="M6.51989 367.804C6.23308 381.267 16.9963 392.349 30.4625 392.387L374.063 393.366C387.589 393.404 393.68 383.841 395.965 379.452C396.993 378.517 397.671 377.206 397.707 375.71C400.231 270.392 400.841 161.101 401.122 58.6861C401.129 55.9293 399.009 53.6348 396.259 53.4259C238.337 41.4764 211.896 42.4584 100.108 46.8985C6.13248 50.6194 12.7879 48.5183 10.2074 51.1622C9.24635 52.1468 8.72238 53.4721 8.72238 54.8467C5.36793 59.3771 -0.757073 65.6117 0.0772587 76.3433C7.56998 172.757 8.58154 270.961 6.51989 367.804ZM390.588 63.5492C390.303 162.806 389.694 268.333 387.31 370.275C350.55 369.964 311.355 370.392 273.403 370.806C75.5726 372.972 121.062 368.276 24.567 367.563C30.6252 261.507 21.0092 166.414 19.3067 60.0286C178.093 57.6326 163.381 46.5282 390.588 63.5492Z" fill="white"/>
</svg>
