<svg width="88" height="87" viewBox="0 0 88 87" fill="none" xmlns="http://www.w3.org/2000/svg">
<path d="M84.912 83.5401C86.6343 83.3579 87.9916 81.9539 88 80.1867C88.0044 78.729 87.4366 77.4056 86.9805 76.3369C83.6793 67.3004 80.7628 59.2343 73.71 52.5009C67.3161 46.4066 59.0891 42.6329 50.558 41.8639C41.7523 41.0331 33.6937 43.9379 26.5646 49.0525C15.3933 55.2153 4.28986 67.4407 0.0539579 84.0224C-0.223537 85.1089 0.605873 86.1759 1.703 86.1708C89.9382 85.7858 83.2463 86.6478 84.912 83.5401ZM79.8042 76.7751L12.7315 77.4369C14.6631 70.7211 18.6827 64.913 25.6265 58.6309C32.6754 52.2561 40.3822 47.822 49.9276 48.7048C56.934 49.3353 63.6944 52.4472 68.9705 57.4729C74.5013 62.7425 77.1763 69.4711 79.8042 76.7751Z" fill="black"/>
<path d="M30.3151 12.7888C23.3121 26.1199 32.2414 39.6191 46.1952 39.7441C62.2264 42.416 74.7875 27.0314 68.8497 12.6128C61.9964 -4.02987 37.1548 -4.43695 30.3151 12.7888ZM54.7654 32.2638C43.3653 36.587 32.1856 25.5993 36.8 14.9378C41.5637 3.94141 57.9645 4.20919 62.5006 15.224C65.2306 21.854 61.9677 29.5284 54.7654 32.2638Z" fill="black"/>
</svg>
