<svg width="133" height="124" viewBox="0 0 133 124" fill="none" xmlns="http://www.w3.org/2000/svg">
<path d="M59.7532 3.3001L42.6724 37.4325L4.87086 42.7119C0.251548 43.3649 -1.65038 49.0402 1.68704 52.3295L28.8709 79.1236L22.2091 116.704C21.3905 121.327 26.2491 124.86 30.3709 122.704L64.2532 105.131C99.8154 123.808 98.0642 123.741 100.598 123.741C101.76 123.741 102.915 123.381 103.893 122.682C103.923 122.66 103.942 122.628 103.972 122.606C104.563 122.643 104.976 122.91 106.16 121.802C108.916 119.224 112.174 112.431 111.655 108.694L108.046 82.7201C114.248 76.2734 120.752 69.7137 127.412 64.1471C129.666 62.2633 131.608 58.2502 131.151 55.348C132.453 49.6892 132.489 49.2883 132.151 47.1293C132.004 46.195 132.151 47.1293 130.651 45.6293C128.151 43.381 126.197 43.6581 124.334 43.381L95.3847 39.0055C79.7266 9.54689 81.3153 8.59701 78.2082 6.3681C74.4737 3.6908 69.2438 1.22837 64.4201 0C64.4646 0.072611 64.5019 0.146145 64.546 0.218755C62.511 0.313875 60.6696 1.46784 59.7532 3.3001ZM89.9444 73.4472C88.6062 74.7339 87.9885 76.6016 88.29 78.4398L93.1576 107.726C66.6443 93.8562 65.5728 91.7385 61.6871 93.7339L35.3268 107.41L40.5106 78.1677C40.8341 76.3369 40.2385 74.4619 38.915 73.1604L17.7679 52.3148L47.1724 48.2119C49.0179 47.9545 50.6135 46.8075 51.4444 45.1457L64.7312 18.5869L77.7238 45.2854C78.54 46.9545 80.1209 48.1236 81.9591 48.3957L111.334 52.8369L89.9444 73.4472Z" fill="white"/>
</svg>
