<svg width="80" height="79" viewBox="0 0 80 79" fill="none" xmlns="http://www.w3.org/2000/svg">
<path d="M10.8845 37.9755L16.2852 6.40194C16.7926 3.41874 14.7881 0.588739 11.8009 0.0782393C8.83932 -0.428061 5.98402 1.57574 5.47322 4.55944L0.0795151 36.1322C-0.431385 39.1158 1.57311 41.9458 4.55681 42.4567C7.53771 42.9651 10.3739 40.9694 10.8845 37.9755Z" fill="white"/>
<path d="M58.8093 21.7816C60.7668 19.4718 60.4791 16.0126 58.1661 14.059C55.8551 12.0907 52.3971 12.3891 50.4395 14.6989L26.4261 43.0592C23.2298 46.8369 26.3228 52.6142 31.2394 52.047C35.0889 51.6028 33.9659 50.2976 58.8093 21.7816Z" fill="white"/>
<path d="M74.6943 78.0309C77.3714 77.722 79.4798 75.4738 79.5415 72.7073C79.6056 69.6817 77.2067 67.1703 74.1807 67.1026L36.6784 66.2772C33.6189 66.1991 31.1414 68.612 31.0738 71.638C31.0096 74.6635 33.4085 77.1749 36.4345 77.2426L73.9368 78.068C74.1962 78.074 74.4461 78.0595 74.6943 78.0309Z" fill="white"/>
</svg>
