<svg width="112" height="113" viewBox="0 0 112 113" fill="none" xmlns="http://www.w3.org/2000/svg">
<path d="M37.9368 94.9816L94.1758 36.5771C99.4835 31.0547 99.3152 22.2782 93.7888 16.9583C88.3101 11.6837 79.4816 11.8146 74.1661 17.3332L17.9429 75.746C12.6273 81.2642 12.7956 90.0407 18.3141 95.3564C23.8303 100.663 32.6072 100.522 37.9368 94.9816Z" fill="white"/>
<path d="M18.1864 36.1344L73.7223 95.2079C78.974 100.784 87.748 101.052 93.336 95.7968C98.8766 90.5871 99.1848 81.7631 93.9374 76.1797L38.3924 17.1216C33.1453 11.5383 24.3712 11.27 18.7877 16.5173C13.2135 21.7628 12.918 30.5359 18.1864 36.1344Z" fill="white"/>
</svg>
